<?xml version="1.0" standalone="no"?>
<!DOCTYPE svg PUBLIC "-//W3C//DTD SVG 1.1//EN" "http://www.w3.org/Graphics/SVG/1.1/DTD/svg11.dtd" >
<svg xmlns="http://www.w3.org/2000/svg" xmlns:xlink="http://www.w3.org/1999/xlink" version="1.1">
<metadata></metadata>
<defs>
<font id="montserrat_subrayadabold" horiz-adv-x="1525" >
<font-face units-per-em="2048" ascent="1638" descent="-410" />
<missing-glyph horiz-adv-x="540" />
<glyph horiz-adv-x="0" />
<glyph unicode="&#xd;" horiz-adv-x="681" />
<glyph unicode=" " horiz-adv-x="540" d="M0 0v88h541v-88h-541z" />
<glyph unicode="!" horiz-adv-x="645" d="M0 0v88h203q-61 51 -61.5 132t52 133.5t128 52.5t128 -52.5t52.5 -132.5t-64 -133h207v-88h-645zM141 1178v254h363v-254l-62 -676h-241z" />
<glyph unicode="&#x22;" horiz-adv-x="886" d="M0 0v88h379v795h-238v549h244v-467h117v467h243v-549h-235v-795h379v-88h-889z" />
<glyph unicode="#" horiz-adv-x="1529" d="M-164 0v88h412l39 223h-197l55 283h191l43 256h-219l55 283h211l55 331h310l-56 -331h185l55 331h311l-59 -331h215l-56 -283h-206l-43 -256h235l-55 -283h-227l-39 -223h481v-88h-1696zM557 88h186l39 223h-186zM643 594h186l45 256h-186z" />
<glyph unicode="$" horiz-adv-x="1300" d="M0 0v88h303q-127 61 -229 156l190 231q160 -139 289 -178v305q-215 55 -315.5 148.5t-100.5 268.5t115 288.5t301 136.5v131h217v-135q205 -29 408 -170l-168 -242q-129 92 -240 123v-295q221 -57 326.5 -153.5t105.5 -266.5q0 -231 -182 -348h280v-88h-530v-141h-217 v141h-553zM465 1046.5q0 -81.5 88 -124.5v237q-88 -31 -88 -112.5zM770 287q104 33 104 127q0 43 -22.5 71.5t-81.5 53.5v-252z" />
<glyph unicode="%" horiz-adv-x="1677" d="M0 0v88h207l964 1344h351l-963 -1344h447q-68 78 -68 190.5t86 196.5t216 84t216 -84t86 -196.5t-65 -190.5h241v-88h-1718zM131 1109q0 120 86 204t216 84t216 -84t86 -205t-86 -204t-216 -83t-216 84t-86 204zM348 1108q0 -45 23.5 -72.5t60.5 -27.5t61.5 27.5 t24.5 72.5t-24.5 74.5t-60.5 29.5t-60.5 -29.5t-24.5 -74.5zM1155 270q0 -45 23.5 -72.5t60.5 -27.5t61.5 27.5t24.5 72.5t-24.5 75t-60.5 30t-60.5 -30t-24.5 -75z" />
<glyph unicode="&#x26;" horiz-adv-x="1433" d="M0 0v88h258q-162 113 -162 313q0 242 301 414q-131 139 -131 290.5t119 255t326 103.5q154 0 275.5 -89t121.5 -249q0 -201 -293 -372q92 -117 164 -195q51 82 74 186l231 -151q-47 -129 -115 -240l177 -174l-99 -92h187v-88h-1434zM393 408.5q0 -64.5 53.5 -106.5 t138.5 -42t197 109q-131 139 -223 247q-72 -35 -119 -89t-47 -118.5zM575 1105q0 -54 82 -157q154 82 154 154q0 59 -37 90t-82 31t-81 -32t-36 -86zM836 88h208l-79 82q-70 -57 -129 -82z" />
<glyph unicode="'" horiz-adv-x="534" d="M0 0v88h219v795h-74v549h244v-549h-74v-795h220v-88h-535z" />
<glyph unicode="(" horiz-adv-x="741" d="M0 0v88h299q-186 311 -186 686q0 442 245 776h332q-133 -182 -202.5 -363t-69.5 -413q0 -365 211 -686h235v-88h-864z" />
<glyph unicode=")" horiz-adv-x="741" d="M-123 0v88h236q211 328 211 686q0 231 -70 412.5t-203 363.5h332q246 -334 246 -776q0 -373 -189 -686h301v-88h-864z" />
<glyph unicode="*" horiz-adv-x="933" d="M0 0v88h418v655h-66l13 172l-146 -100l-104 186l172 86l-174 87l106 182l146 -96l-13 172h230l-13 -172l146 96l106 -182l-174 -87l172 -86l-104 -186l-146 100l13 -172h-68v-655h420v-88h-934z" />
<glyph unicode="+" horiz-adv-x="1196" d="M0 0v88h549v135h-92v369h-359v252h359v368h282v-368h359v-252h-359v-369h-94v-135h551v-88h-1196z" />
<glyph unicode="," horiz-adv-x="608" d="M0 0v88h164q-45 49 -45 121t55 124t133 52t134.5 -51t56.5 -119t-37 -127h147v-88h-198l-95 -162h-202l55 162h-168z" />
<glyph unicode="-" horiz-adv-x="1003" d="M0 0v88h455v391h-318v273h729v-273h-315v-391h453v-88h-1004z" />
<glyph unicode="." horiz-adv-x="589" d="M0 0v88h156q-41 47 -41 120t52 125t128 52t128 -52t52 -124t-43 -121h158v-88h-590z" />
<glyph unicode="/" horiz-adv-x="1257" d="M-82 0v88h283l712 1561h291l-715 -1561h768v-88h-1339z" />
<glyph unicode="0" horiz-adv-x="1413" d="M0 0v88h360q-246 180 -245 635q0 338 147.5 539.5t444.5 201.5t444 -201.5t147 -539.5q0 -455 -245 -635h360v-88h-1413zM428 723q0 -215 67.5 -346t211 -131t211 131t67.5 346t-67.5 346t-211 131t-211 -131t-67.5 -346z" />
<glyph unicode="1" horiz-adv-x="825" d="M0 0v88h336v1071h-273v273h580v-1344h182v-88h-825z" />
<glyph unicode="2" horiz-adv-x="1239" d="M-20 0v88h139v150l420 430q127 129 181 205.5t54 148.5t-47 120t-121 48q-135 0 -256 -193l-256 152q100 156 220 235.5t305.5 79.5t325.5 -117.5t140 -320.5q0 -111 -56 -212t-208 -259l-258 -268h565v-199h132v-88h-1280z" />
<glyph unicode="3" horiz-adv-x="1210" d="M-20 0v88h264q-92 39 -170 94l131 254q203 -143 362 -143q96 0 158.5 47t62.5 136t-71.5 141.5t-198.5 52.5q-68 0 -190 -39v235l274 293h-448v273h876v-222l-293 -303q172 -29 266.5 -144.5t94.5 -266.5q0 -276 -230 -408h342v-88h-1230z" />
<glyph unicode="4" horiz-adv-x="1204" d="M0 0v88h649v254h-575v244l510 846h348l-486 -814h203v250h307v-250h162v-276h-162v-254h248v-88h-1204z" />
<glyph unicode="5" horiz-adv-x="1220" d="M0 0v88h227q-76 51 -127 111l168 233q18 -18 49 -45t113 -71t164 -44t145.5 49.5t63.5 145.5t-68.5 148.5t-177 52.5t-252.5 -78l-133 143v699h864v-277h-565v-240q63 18 145 19q207 0 356.5 -125t149.5 -338q0 -119 -52 -218t-144 -165h295v-88h-1221z" />
<glyph unicode="6" horiz-adv-x="1290" d="M0 0v88h340q-225 180 -225 625q0 197 48 345t132 234q164 172 405 172q100 0 191.5 -29.5t140.5 -60.5t109 -78l-152 -225q-12 12 -35.5 32.5t-93 53.5t-135.5 33q-133 0 -206 -89t-89 -243q133 86 283 86q201 0 335 -131t134 -361.5t-176 -363.5h284v-88h-1290zM459 471 q0 -90 61.5 -154.5t153.5 -64.5t153.5 57.5t61.5 148.5t-55.5 153.5t-150.5 62.5t-159.5 -56.5t-64.5 -146.5z" />
<glyph unicode="7" horiz-adv-x="1185" d="M0 0v88h244l512 1069h-361v-184h-299v459h1034v-242l-536 -1102h592v-88h-1186z" />
<glyph unicode="8" horiz-adv-x="1314" d="M0 0v88h293q-182 127 -182 346t178 357q-129 121 -129 284.5t142 276t355 112.5t354.5 -112.5t141.5 -277.5t-127 -283q178 -137 178 -356.5t-182 -346.5h293v-88h-1315zM430 438q0 -92 71.5 -140t155.5 -48t156 48t72 140t-70 141.5t-158 49.5t-157.5 -49.5 t-69.5 -141.5zM463 1045.5q0 -72.5 58.5 -122t136 -49.5t136 49.5t58.5 122t-57.5 122t-137 49.5t-137 -49.5t-57.5 -122z" />
<glyph unicode="9" horiz-adv-x="1288" d="M0 0v88h231q-51 35 -84 62l160 225q14 -12 38 -31.5t91.5 -52.5t126.5 -33q133 0 206 89t89 243q-131 -88 -283 -88q-201 0 -335 132t-134 349t144.5 349t363.5 132q152 0 263.5 -58t175.5 -163q121 -203 121 -508q0 -459 -254 -647h368v-88h-1288zM406 989 q0 -90 53 -152.5t148 -62.5t158.5 55.5t63.5 145.5t-61 155.5t-153.5 65.5t-150.5 -58.5t-58 -148.5z" />
<glyph unicode=":" horiz-adv-x="634" d="M0 0v88h178q-41 47 -41 120t52.5 125t128 52t128 -52t52.5 -124t-43 -121h180v-88h-635zM137 743.5q0 75.5 52.5 128t128 52.5t128 -52.5t52.5 -128t-52.5 -128t-128 -52.5t-128 52.5t-52.5 128z" />
<glyph unicode=";" horiz-adv-x="645" d="M0 0v88h180q-43 49 -43 120t55.5 123t134.5 52t135 -51t56 -129q0 -45 -35 -115h162v-88h-213l-100 -166h-201l57 166h-188zM137 743.5q0 75.5 52.5 128t128 52.5t128 -52.5t52.5 -128t-52.5 -128t-128 -52.5t-128 52.5t-52.5 128z" />
<glyph unicode="&#x3c;" horiz-adv-x="1230" d="M0 0v88h625v324l-541 256v280l995 469v-301l-657 -303l657 -311v-303l-358 168v-279h510v-88h-1231z" />
<glyph unicode="=" horiz-adv-x="1202" d="M0 0v88h559v252h-457v252h457v258h-457v252h998v-252h-445v-258h445v-252h-445v-252h547v-88h-1202z" />
<glyph unicode="&#x3e;" horiz-adv-x="1230" d="M0 0v88h510v279l-358 -168v303l657 311l-657 303v301l995 -469v-280l-541 -256v-324h625v-88h-1231z" />
<glyph unicode="?" horiz-adv-x="1073" d="M0 0v88h387q-41 47 -41 120t52.5 125t128 52t128 -52t52.5 -124t-43 -121h409v-88h-1073zM106 1006v24q0 193 122 313.5t319.5 120.5t310.5 -99t113 -273q0 -86 -46 -169t-102 -137q-145 -139 -145 -241v-64h-311v101q0 139 116 260q16 16 57.5 55t57.5 57 q51 57 51 115.5t-30.5 91.5t-87 33t-96.5 -50t-40 -114q0 -12 2 -24h-291z" />
<glyph unicode="@" horiz-adv-x="1824" d="M0 0v88h315q-209 221 -209 557t243 578.5t585 242.5t571.5 -233.5t229.5 -581.5q0 -225 -93.5 -361t-244.5 -136q-78 0 -142.5 47t-89.5 118q-113 -145 -285.5 -145t-300.5 131t-128 332t115.5 335t303.5 134q63 0 121 -26.5t82 -55.5l27 -27v93h256v-652q0 -102 61 -102 q55 0 97 88t42 221q0 289 -165.5 478.5t-444 189.5t-469 -199t-190.5 -479q0 -176 76.5 -319.5t209.5 -227.5h1252v-88h-1825zM713 648.5q0 -99.5 52 -173.5t142 -74t142.5 71t52.5 173.5t-54.5 170t-142.5 67.5t-140 -67.5t-52 -167z" />
<glyph unicode="A" d="M-209 0v88h236l581 1344h310l579 -1344h238v-88h-539l-133 309h-600l-133 -309h-539zM584 590h358l-178 416z" />
<glyph unicode="B" horiz-adv-x="1445" d="M-23 0v88h199v1344h557q145 0 251 -35t159 -94q96 -111 96 -250q0 -168 -109 -250q-37 -29 -51 -36t-51 -24q133 -29 212 -120t79 -226q0 -203 -160 -309h287v-88h-1469zM496 270h219q137 0 205.5 34t68.5 133.5t-72.5 131t-232.5 31.5h-188v-330zM496 852h151 q133 0 197.5 28.5t64.5 124t-59 126t-201 30.5h-153v-309z" />
<glyph unicode="C" horiz-adv-x="1507" d="M0 0v88h440q-164 96 -257 261t-93 374q0 315 218 528t534 213q352 0 590 -268l-199 -225q-152 188 -377 188q-180 0 -308 -117.5t-128 -317.5t121 -320.5t293 -120.5q236 0 385 186l204 -211q-90 -104 -202 -170h286v-88h-1507z" />
<glyph unicode="D" horiz-adv-x="1601" d="M-23 0v88h199v1344h506q383 0 588 -187.5t205 -527.5q0 -459 -357 -629h484v-88h-1625zM496 283h202q220 0 337.5 110.5t117.5 321.5t-117.5 324.5t-361.5 113.5h-178v-870z" />
<glyph unicode="E" horiz-adv-x="1339" d="M-23 0v88h199v1344h1032v-285h-712v-295h641v-272h-641v-297h735v-195h199v-88h-1453z" />
<glyph unicode="F" horiz-adv-x="1253" d="M0 0v88h176v1344h983v-281h-663v-309h630v-281h-630v-473h757v-88h-1253z" />
<glyph unicode="G" horiz-adv-x="1536" d="M0 0v88h444q-164 96 -257 261t-93 374q0 315 218 528t526.5 213t535.5 -202l-166 -240q-96 84 -177 115.5t-175 31.5q-182 0 -307 -123.5t-125 -326.5t120 -325t285.5 -122t276.5 64v393h321v-508q-70 -78 -165 -133h274v-88h-1536z" />
<glyph unicode="H" horiz-adv-x="1560" d="M0 0v88h176v1344h320v-598h569v598h319v-1344h177v-88h-496v563h-569v-563h-496z" />
<glyph unicode="I" horiz-adv-x="671" d="M0 0v88h176v1344h320v-1344h176v-88h-672z" />
<glyph unicode="J" horiz-adv-x="1138" d="M0 0v88h244q-100 45 -191 139l166 236q129 -139 270 -139q68 0 116 53t48 155v625h-424v275h746v-893q0 -326 -221 -451h385v-88h-1139z" />
<glyph unicode="K" horiz-adv-x="1454" d="M0 0v88h176v1344h320v-588l540 588h396l-570 -633l506 -711h170v-88h-479l-420 565l-143 -159v-406h-496z" />
<glyph unicode="L" horiz-adv-x="1163" d="M-23 0v88h199v1344h320v-1147h610v-197h199v-88h-1328z" />
<glyph unicode="M" horiz-adv-x="1953" d="M-23 0v88h199v1344h432l369 -787l371 787h430v-1344h198v-88h-518v901l-387 -782h-190l-385 782v-901h-519z" />
<glyph unicode="N" horiz-adv-x="1673" d="M-23 0v88h199v1344h299l703 -922v922h319v-1344h199v-88h-518l-682 897v-897h-519z" />
<glyph unicode="O" horiz-adv-x="1691" d="M0 0v88h457q-168 96 -265.5 264t-97.5 373q0 315 217 527t534.5 212t534.5 -212t217 -527q0 -205 -98 -373t-264 -264h457v-88h-1692zM422 723.5q0 -191.5 123 -325.5t302 -134t302 134t123 325.5t-123 327t-302 135.5t-302 -135.5t-123 -327z" />
<glyph unicode="P" horiz-adv-x="1386" d="M-23 0v88h199v1344h506q330 0 480.5 -128t150.5 -393.5t-154.5 -388.5t-472.5 -123h-190v-311h890v-88h-1409zM496 676h215q159 0 216.5 64.5t57.5 188.5t-74.5 176t-232.5 52h-182v-481z" />
<glyph unicode="Q" horiz-adv-x="1693" d="M0 0v88h457q-168 96 -265.5 264t-97.5 373q0 315 217 527t534.5 212t534.5 -212t217 -527q0 -205 -97 -373t-265 -264h459v-88h-688v-240h-320v240h-686zM422 723q0 -143 72.5 -259t191.5 -167v199h320v-199q119 51 192.5 167t73.5 259q0 193 -123 328t-302 135 t-302 -135.5t-123 -327.5z" />
<glyph unicode="R" horiz-adv-x="1488" d="M-23 0v88h199v1344h543q334 0 476 -113t142 -363q0 -344 -272 -444l299 -424h192v-88h-522l-317 457h-221v-457h-519zM496 733h233q164 0 223.5 53.5t59.5 169t-61.5 158.5t-215.5 43h-239v-424z" />
<glyph unicode="S" horiz-adv-x="1306" d="M0 0v88h279q-113 57 -205 148l190 233q231 -203 428 -203q88 0 138.5 38t50.5 102.5t-53.5 102.5t-211.5 77q-250 59 -365.5 154.5t-115.5 299t146.5 314t365.5 110.5q143 0 286.5 -49t250.5 -139l-162 -234q-186 141 -385 142q-80 0 -126 -38t-46 -100.5t56.5 -99.5 t260 -87t316 -150.5t112.5 -278.5q0 -221 -166 -342h263v-88h-1307z" />
<glyph unicode="T" horiz-adv-x="1245" d="M0 0v88h463v1067h-406v277h1131v-277h-406v-1067h463v-88h-1245z" />
<glyph unicode="U" horiz-adv-x="1538" d="M0 0v88h408q-252 168 -252 543v801h319v-791q0 -172 80 -271.5t215 -99.5t214 99.5t79 271.5v791h319v-801q0 -375 -249 -543h405v-88h-1538z" />
<glyph unicode="V" horiz-adv-x="1409" d="M-6 1432h346l365 -912l364 912h346l-541 -1344h535v-88h-1409v88h532z" />
<glyph unicode="W" horiz-adv-x="2086" d="M-6 1432h346l283 -824l254 824h333l252 -824l285 824h346l-469 -1344h463v-88h-731l-314 995l-311 -995h-731v88h463z" />
<glyph unicode="X" horiz-adv-x="1423" d="M-119 0v88h197l424 645l-449 699h383l273 -424l272 424h385l-446 -691l426 -653h198v-88h-530l-305 471l-303 -471h-525z" />
<glyph unicode="Y" horiz-adv-x="1265" d="M-23 1432h347l309 -533l309 533h346l-495 -867v-477h473v-88h-1266v88h473v477z" />
<glyph unicode="Z" horiz-adv-x="1394" d="M-104 0v88h198v131l750 936h-725v277h1161v-222l-748 -931h760v-191h199v-88h-1595z" />
<glyph unicode="[" horiz-adv-x="765" d="M-18 0v88h176v1462h526v-231h-264v-1053h264v-178h158v-88h-860z" />
<glyph unicode="\" horiz-adv-x="1171" d="M0 0v88h760l-703 1462h310l702 -1462h225v-88h-1294z" />
<glyph unicode="]" horiz-adv-x="765" d="M-76 0v88h158v178h264v1053h-264v231h526v-1462h176v-88h-860z" />
<glyph unicode="^" horiz-adv-x="989" d="M45 1579l281 363h338l280 -363h-293l-157 174l-156 -174h-293z" />
<glyph unicode="_" horiz-adv-x="1474" d="M0 0v88h1475v-88h-689v-92h551v-178h-1200v178h553v92h-690z" />
<glyph unicode="`" horiz-adv-x="782" d="M102 1804l316 135l262 -364h-293z" />
<glyph unicode="a" d="M-209 0v88h236l581 1344h310l579 -1344h238v-88h-539l-133 309h-600l-133 -309h-539zM584 590h358l-178 416z" />
<glyph unicode="b" horiz-adv-x="1445" d="M-23 0v88h199v1344h557q145 0 251 -35t159 -94q96 -111 96 -250q0 -168 -109 -250q-37 -29 -51 -36t-51 -24q133 -29 212 -120t79 -226q0 -203 -160 -309h287v-88h-1469zM496 270h219q137 0 205.5 34t68.5 133.5t-72.5 131t-232.5 31.5h-188v-330zM496 852h151 q133 0 197.5 28.5t64.5 124t-59 126t-201 30.5h-153v-309z" />
<glyph unicode="c" horiz-adv-x="1507" d="M0 0v88h440q-164 96 -257 261t-93 374q0 315 218 528t534 213q352 0 590 -268l-199 -225q-152 188 -377 188q-180 0 -308 -117.5t-128 -317.5t121 -320.5t293 -120.5q236 0 385 186l204 -211q-90 -104 -202 -170h286v-88h-1507z" />
<glyph unicode="d" horiz-adv-x="1601" d="M-23 0v88h199v1344h506q383 0 588 -187.5t205 -527.5q0 -459 -357 -629h484v-88h-1625zM496 283h202q220 0 337.5 110.5t117.5 321.5t-117.5 324.5t-361.5 113.5h-178v-870z" />
<glyph unicode="e" horiz-adv-x="1339" d="M-23 0v88h199v1344h1032v-285h-712v-295h641v-272h-641v-297h735v-195h199v-88h-1453z" />
<glyph unicode="f" horiz-adv-x="1253" d="M0 0v88h176v1344h983v-281h-663v-309h630v-281h-630v-473h757v-88h-1253z" />
<glyph unicode="g" horiz-adv-x="1536" d="M0 0v88h444q-164 96 -257 261t-93 374q0 315 218 528t526.5 213t535.5 -202l-166 -240q-96 84 -177 115.5t-175 31.5q-182 0 -307 -123.5t-125 -326.5t120 -325t285.5 -122t276.5 64v393h321v-508q-70 -78 -165 -133h274v-88h-1536z" />
<glyph unicode="h" horiz-adv-x="1560" d="M0 0v88h176v1344h320v-598h569v598h319v-1344h177v-88h-496v563h-569v-563h-496z" />
<glyph unicode="i" horiz-adv-x="671" d="M0 0v88h176v1344h320v-1344h176v-88h-672z" />
<glyph unicode="j" horiz-adv-x="1138" d="M0 0v88h244q-100 45 -191 139l166 236q129 -139 270 -139q68 0 116 53t48 155v625h-424v275h746v-893q0 -326 -221 -451h385v-88h-1139z" />
<glyph unicode="k" horiz-adv-x="1454" d="M0 0v88h176v1344h320v-588l540 588h396l-570 -633l506 -711h170v-88h-479l-420 565l-143 -159v-406h-496z" />
<glyph unicode="l" horiz-adv-x="1163" d="M-23 0v88h199v1344h320v-1147h610v-197h199v-88h-1328z" />
<glyph unicode="m" horiz-adv-x="1953" d="M-23 0v88h199v1344h432l369 -787l371 787h430v-1344h198v-88h-518v901l-387 -782h-190l-385 782v-901h-519z" />
<glyph unicode="n" horiz-adv-x="1673" d="M-23 0v88h199v1344h299l703 -922v922h319v-1344h199v-88h-518l-682 897v-897h-519z" />
<glyph unicode="o" horiz-adv-x="1691" d="M0 0v88h457q-168 96 -265.5 264t-97.5 373q0 315 217 527t534.5 212t534.5 -212t217 -527q0 -205 -98 -373t-264 -264h457v-88h-1692zM422 723.5q0 -191.5 123 -325.5t302 -134t302 134t123 325.5t-123 327t-302 135.5t-302 -135.5t-123 -327z" />
<glyph unicode="p" horiz-adv-x="1386" d="M-23 0v88h199v1344h506q330 0 480.5 -128t150.5 -393.5t-154.5 -388.5t-472.5 -123h-190v-311h890v-88h-1409zM496 676h215q159 0 216.5 64.5t57.5 188.5t-74.5 176t-232.5 52h-182v-481z" />
<glyph unicode="q" horiz-adv-x="1693" d="M0 0v88h457q-168 96 -265.5 264t-97.5 373q0 315 217 527t534.5 212t534.5 -212t217 -527q0 -205 -97 -373t-265 -264h459v-88h-688v-240h-320v240h-686zM422 723q0 -143 72.5 -259t191.5 -167v199h320v-199q119 51 192.5 167t73.5 259q0 193 -123 328t-302 135 t-302 -135.5t-123 -327.5z" />
<glyph unicode="r" horiz-adv-x="1488" d="M-23 0v88h199v1344h543q334 0 476 -113t142 -363q0 -344 -272 -444l299 -424h192v-88h-522l-317 457h-221v-457h-519zM496 733h233q164 0 223.5 53.5t59.5 169t-61.5 158.5t-215.5 43h-239v-424z" />
<glyph unicode="s" horiz-adv-x="1306" d="M0 0v88h279q-113 57 -205 148l190 233q231 -203 428 -203q88 0 138.5 38t50.5 102.5t-53.5 102.5t-211.5 77q-250 59 -365.5 154.5t-115.5 299t146.5 314t365.5 110.5q143 0 286.5 -49t250.5 -139l-162 -234q-186 141 -385 142q-80 0 -126 -38t-46 -100.5t56.5 -99.5 t260 -87t316 -150.5t112.5 -278.5q0 -221 -166 -342h263v-88h-1307z" />
<glyph unicode="t" horiz-adv-x="1245" d="M0 0v88h463v1067h-406v277h1131v-277h-406v-1067h463v-88h-1245z" />
<glyph unicode="u" horiz-adv-x="1538" d="M0 0v88h408q-252 168 -252 543v801h319v-791q0 -172 80 -271.5t215 -99.5t214 99.5t79 271.5v791h319v-801q0 -375 -249 -543h405v-88h-1538z" />
<glyph unicode="v" horiz-adv-x="1409" d="M-6 1432h346l365 -912l364 912h346l-541 -1344h535v-88h-1409v88h532z" />
<glyph unicode="w" horiz-adv-x="2086" d="M-6 1432h346l283 -824l254 824h333l252 -824l285 824h346l-469 -1344h463v-88h-731l-314 995l-311 -995h-731v88h463z" />
<glyph unicode="x" horiz-adv-x="1423" d="M-119 0v88h197l424 645l-449 699h383l273 -424l272 424h385l-446 -691l426 -653h198v-88h-530l-305 471l-303 -471h-525z" />
<glyph unicode="y" horiz-adv-x="1265" d="M-23 1432h347l309 -533l309 533h346l-495 -867v-477h473v-88h-1266v88h473v477z" />
<glyph unicode="z" horiz-adv-x="1394" d="M-104 0v88h198v131l750 936h-725v277h1161v-222l-748 -931h760v-191h199v-88h-1595z" />
<glyph unicode="{" horiz-adv-x="737" d="M0 0v88h303q-86 80 -86 217v258q0 111 -100 111h-41v209h41q100 0 100 110v258q0 150 93 224.5t245 74.5h82v-231q-10 2 -31 2q-102 0 -102 -123v-176q0 -141 -84 -211q-35 -29 -53 -33q49 -16 92 -73q45 -59 45 -170v-177q0 -123 102 -122q20 0 31 2v-150h100v-88h-737z " />
<glyph unicode="|" horiz-adv-x="565" d="M0 0v88h156v1503h254v-1503h155v-88h-565z" />
<glyph unicode="}" horiz-adv-x="737" d="M0 0v88h100v150q10 -2 31 -2q102 0 102 122v177q0 139 82 210q33 29 54 33q-49 16 -90 74q-45 66 -46 170v176q0 123 -102 123q-20 0 -31 -2v231h82q152 0 245 -74.5t93 -224.5v-258q0 -111 101 -110h41v-209h-41q-100 0 -101 -111v-258q0 -137 -86 -217h303v-88h-737z " />
<glyph unicode="~" horiz-adv-x="1095" d="M0 0v88h483v606q-74 31 -105.5 31t-58 -39t-24.5 -111l-244 74q14 164 96 247t211 83q74 0 201 -65.5t172 -65.5q66 0 66 88q0 29 -4 45l245 -66q-12 -170 -90 -246.5t-194 -76.5q-61 0 -140 37v-541h482v-88h-1096z" />
<glyph unicode="&#xa0;" horiz-adv-x="540" d="M0 0v88h541v-88h-541z" />
<glyph unicode="&#xa1;" horiz-adv-x="651" d="M0 0v88h143v182l62 738h241l60 -738v-182h145v-88h-651zM145 1284q0 76 52.5 128t128 52t128 -52t52.5 -128t-52.5 -128t-128 -52t-128 52t-52.5 128z" />
<glyph unicode="&#xa2;" horiz-adv-x="1224" d="M-23 0v88h351q-233 162 -234 461q0 225 137.5 376.5t341.5 184.5v236h197v-234q209 -31 363 -186l-160 -209q-84 96 -203 123v-572q53 16 101.5 51t70.5 62l21 29l182 -205q-76 -76 -141 -117h221v-88h-455v-240h-197v240h-596zM395 552q0 -103 49.5 -175t128.5 -101v551 q-79 -30 -128.5 -101t-49.5 -174z" />
<glyph unicode="&#xa3;" horiz-adv-x="1286" d="M-88 0v88h215v184h156v287h-164v258h164v211q0 254 130 369.5t341 115.5q283 0 430 -258l-228 -184q-33 76 -84 119t-112.5 43t-108.5 -46t-47 -147v-223h320v-258h-320v-287h570v-184h194v-88h-1456z" />
<glyph unicode="&#xa4;" horiz-adv-x="1558" d="M-88 0v88h326l-123 127l176 180q-94 137 -94 314.5t90 314.5l-172 174l192 195l182 -183q133 72 291 72t289 -74l182 185l193 -195l-172 -176q90 -139 90 -312t-96 -315l178 -180l-125 -127h334v-88h-1741zM371 88h815l-123 125q-135 -70 -287.5 -70t-279.5 70zM516 713 q0 -129 74 -212t188.5 -83t188 83t73.5 212t-73.5 211t-188 82t-188.5 -82t-74 -211z" />
<glyph unicode="&#xa5;" horiz-adv-x="1517" d="M0 0v88h586v174h-365v197h365v112h-365v197h234l-385 662h348l338 -584l350 584h346l-397 -662h225v-197h-360v-112h360v-197h-360v-174h598v-88h-1518z" />
<glyph unicode="&#xa6;" horiz-adv-x="602" d="M0 0v88h164v606h274v-606h164v-88h-602zM164 874v670h274v-670h-274z" />
<glyph unicode="&#xa7;" horiz-adv-x="1273" d="M0 0v88h786q-45 45 -250.5 105.5t-319.5 147.5t-114 253q0 86 50.5 163t144.5 117q-111 78 -111 211q0 168 125 273.5t320 105.5q135 0 241.5 -37.5t223.5 -123.5l-154 -220q-172 131 -315 131q-66 0 -104 -30.5t-38 -82.5t48.5 -84t191.5 -69q246 -59 352.5 -142 t106.5 -239q0 -207 -209 -293q102 -72 125 -186h215v-88h-211q-18 -137 -140 -228t-317 -91q-293 0 -538 223l79 96h-188zM375 602q0 -78 99 -128t253 -50q78 0 131 34t53 89q0 84 -121.5 125t-220.5 41q-194 0 -194 -111zM430 0q119 -70 235.5 -70t141.5 70h-377z" />
<glyph unicode="&#xa8;" horiz-adv-x="1087" d="M195 1415.5q0 63.5 44 107.5t107.5 44t107.5 -44t44 -107.5t-44 -107.5t-107.5 -44t-107.5 44t-44 107.5zM590 1415.5q0 63.5 44 107.5t107.5 44t107.5 -44t44 -107.5t-44 -107.5t-107.5 -44t-107.5 44t-44 107.5z" />
<glyph unicode="&#xa9;" horiz-adv-x="1687" d="M0 0v88h449q-160 100 -252.5 265t-92.5 360q0 305 216.5 524t523.5 219t523 -217t216 -522q0 -195 -94 -362t-254 -267h453v-88h-1688zM256 712.5q0 -241.5 170 -413.5t415.5 -172t418 174t172.5 415.5t-172.5 414t-415 172.5t-415.5 -174.5t-173 -416zM430 720.5 q0 188.5 129 306.5t317.5 118t327.5 -146l-123 -153q-82 98 -207 98q-88 0 -150 -58.5t-62 -161.5t64.5 -163.5t154.5 -60.5q133 0 204 118l127 -153q-157 -166 -360 -166q-172 0 -297 116.5t-125 305z" />
<glyph unicode="&#xab;" horiz-adv-x="1236" d="M-61 0v88h340l-242 361l250 385h309l-242 -385l234 -361h151l-241 361l250 385h309l-242 -385l234 -361h188v-88h-1298z" />
<glyph unicode="&#xac;" horiz-adv-x="1673" d="M129 670v241h1370v-731h-229v490h-1141z" />
<glyph unicode="&#xad;" horiz-adv-x="1003" d="M0 0v88h455v391h-318v273h729v-273h-315v-391h453v-88h-1004z" />
<glyph unicode="&#xae;" horiz-adv-x="1687" d="M0 0v88h449q-160 100 -252.5 265t-92.5 360q0 305 216.5 524t523.5 219t523 -217t216 -522q0 -195 -94 -362t-254 -267h453v-88h-1688zM256 712.5q0 -241.5 170 -413.5t418 -172t420 178h-238l-178 256h-90v-256h-226v832h330q197 0 281 -68t84 -217q0 -182 -166 -254 l207 -289q164 170 164 409.5t-172.5 412t-415 172.5t-415.5 -174.5t-173 -416zM758 745h108q80 0 109 26t29 82t-30 77.5t-104 21.5h-112v-207z" />
<glyph unicode="&#xaf;" horiz-adv-x="905" d="M113 1169v238h682v-238h-682z" />
<glyph unicode="&#xb0;" horiz-adv-x="876" d="M0 0v88h881v-88h-881zM96 1127.5q0 138.5 100.5 236.5t242 98t241.5 -98t100 -236.5t-100 -235.5t-241.5 -97t-242 97t-100.5 235.5zM291 1127.5q0 -68.5 43 -116.5t104.5 -48t103.5 47t42 116.5t-42 116.5t-103.5 47t-104.5 -47t-43 -115.5z" />
<glyph unicode="&#xb1;" horiz-adv-x="1189" d="M0 0v88h530v94h-432v232h432v102h-77v285h-355v239h355v295h282v-295h357v-239h-357v-285h-73v-102h430v-232h-430v-94h528v-88h-1190z" />
<glyph unicode="&#xb4;" horiz-adv-x="782" d="M102 1579l260 363l318 -134l-285 -229h-293z" />
<glyph unicode="&#xb6;" horiz-adv-x="1458" d="M0 0v88h532v625h-40q-266 0 -369 196q-53 100 -53 213q0 180 123.5 303t377.5 123h701v-1460h186v-88h-1458zM799 88h200v1206h-200v-1206z" />
<glyph unicode="&#xb7;" horiz-adv-x="610" d="M125 651q0 76 52 128t128 52t128 -52t52 -128t-52 -128t-128 -52t-128 52t-52 128z" />
<glyph unicode="&#xb8;" horiz-adv-x="575" d="M29 -414l77 176q45 -39 80 -38.5t54.5 18.5t19.5 46t-24.5 49.5t-58.5 21.5t-73 -19l84 160h236l-57 -104q133 -45 133 -156q0 -88 -73 -153.5t-183.5 -65.5t-214.5 65z" />
<glyph unicode="&#xbb;" horiz-adv-x="1236" d="M-61 0v88h186l235 361l-241 385h309l250 -385l-244 -361h152l235 361l-241 385h309l250 -385l-244 -361h342v-88h-1298z" />
<glyph unicode="&#xbf;" horiz-adv-x="1077" d="M0 0v88h266q-160 96 -160 309q0 86 46.5 169t101.5 134q145 141 145 244v64h312v-101q0 -139 -117 -260q-16 -16 -57 -55t-58 -57q-51 -57 -51 -116t30.5 -91.5t87 -32.5t96.5 50t40 114q0 12 -2 24h291v-20q0 -258 -199 -375h305v-88h-1077zM371 1284q0 76 52 128 t128 52t128 -52t52 -128t-52 -128t-128 -52t-128 52t-52 128z" />
<glyph unicode="&#xc0;" d="M-209 0v88h236l581 1344h310l579 -1344h238v-88h-539l-133 309h-600l-133 -309h-539zM340 1804l315 135l263 -364h-293zM584 590h358l-178 416z" />
<glyph unicode="&#xc1;" d="M-209 0v88h236l581 1344h310l579 -1344h238v-88h-539l-133 309h-600l-133 -309h-539zM584 590h358l-178 416zM606 1579l260 363l318 -134l-285 -229h-293z" />
<glyph unicode="&#xc2;" d="M-209 0v88h236l581 1344h310l579 -1344h238v-88h-539l-133 309h-600l-133 -309h-539zM328 1575l231 323h383l232 -323h-252l-172 166l-170 -166h-252zM584 590h358l-178 416z" />
<glyph unicode="&#xc3;" d="M-209 0v88h236l581 1344h310l579 -1344h238v-88h-539l-133 309h-600l-133 -309h-539zM354 1575q0 154 66.5 242t171.5 88q66 0 159 -56.5t113 -56.5q63 0 62 106h217q0 -154 -66.5 -241.5t-171.5 -87.5q-63 0 -159.5 56t-112.5 56q-63 0 -62 -106h-217zM584 590h358 l-178 416z" />
<glyph unicode="&#xc4;" d="M-209 0v88h236l581 1344h310l579 -1344h238v-88h-539l-133 309h-600l-133 -309h-539zM420 1734.5q0 63.5 44 107.5t107.5 44t107.5 -44t44 -107.5t-44 -107.5t-107.5 -44t-107.5 44t-44 107.5zM584 590h358l-178 416zM815 1734.5q0 63.5 44 107.5t107.5 44t107.5 -44 t44 -107.5t-44 -107.5t-107.5 -44t-107.5 44t-44 107.5z" />
<glyph unicode="&#xc5;" d="M-209 0v88h236l579 1342q-61 66 -61 154.5t64.5 153t154.5 64.5t154.5 -64.5t64.5 -154.5t-65 -156l579 -1339h238v-88h-539l-133 309h-600l-133 -309h-539zM584 590h358l-178 416zM692 1583q0 -29 21.5 -50.5t50.5 -21.5t50.5 21.5t21.5 50.5t-21.5 50.5t-50.5 21.5 t-50.5 -21.5t-21.5 -50.5z" />
<glyph unicode="&#xc6;" horiz-adv-x="2095" d="M-209 0v88h221l690 1344h1264v-281h-715v-309h641v-269h-641v-292h738v-193h198v-88h-1276v309h-405l-162 -309h-553zM651 598h260v504z" />
<glyph unicode="&#xc7;" horiz-adv-x="1499" d="M0 0v88h440q-164 96 -257 261t-93 374q0 315 218 528t534 213q352 0 590 -268l-199 -225q-152 188 -377 188q-180 0 -308 -117.5t-128 -317.5t121 -320.5t293 -120.5q236 0 385 186l204 -211q-90 -104 -202 -170h286v-88h-1507zM537 -418l77 176q45 -39 80 -39t54.5 18.5 t19.5 46.5t-24.5 49.5t-58.5 21.5t-73 -19l84 160h236l-58 -105q134 -44 134 -155q0 -88 -73 -153.5t-183.5 -65.5t-214.5 65z" />
<glyph unicode="&#xc8;" horiz-adv-x="1339" d="M-23 0v88h199v1344h1032v-285h-712v-295h641v-272h-641v-297h735v-195h199v-88h-1453zM250 1804l315 135l262 -364h-292z" />
<glyph unicode="&#xc9;" horiz-adv-x="1339" d="M-23 0v88h199v1344h1032v-285h-712v-295h641v-272h-641v-297h735v-195h199v-88h-1453zM516 1579l260 363l318 -134l-285 -229h-293z" />
<glyph unicode="&#xca;" horiz-adv-x="1339" d="M-23 0v88h199v1344h1032v-285h-712v-295h641v-272h-641v-297h735v-195h199v-88h-1453zM238 1575l231 323h383l231 -323h-252l-172 166l-170 -166h-251z" />
<glyph unicode="&#xcb;" horiz-adv-x="1339" d="M-23 0v88h199v1344h1032v-285h-712v-295h641v-272h-641v-297h735v-195h199v-88h-1453zM348 1734.5q0 63.5 44 107.5t107.5 44t107.5 -44t44 -107.5t-44 -107.5t-107.5 -44t-107.5 44t-44 107.5zM743 1734.5q0 63.5 44 107.5t107.5 44t108 -44t44.5 -107.5t-44.5 -107.5 t-108 -44t-107.5 44t-44 107.5z" />
<glyph unicode="&#xcc;" horiz-adv-x="671" d="M-76 1804l316 135l262 -364h-293zM0 0v88h176v1344h320v-1344h176v-88h-672z" />
<glyph unicode="&#xcd;" horiz-adv-x="671" d="M0 0v88h176v1344h320v-1344h176v-88h-672zM190 1579l261 363l317 -134l-285 -229h-293z" />
<glyph unicode="&#xce;" horiz-adv-x="671" d="M-86 1577l231 324h383l232 -324h-252l-172 166l-170 -166h-252zM0 0v88h176v1344h320v-1344h176v-88h-672z" />
<glyph unicode="&#xcf;" horiz-adv-x="671" d="M-14 1734.5q0 63.5 44 107.5t107.5 44t107.5 -44t44 -107.5t-44 -107.5t-107.5 -44t-107.5 44t-44 107.5zM0 0v88h176v1344h320v-1344h176v-88h-672zM381 1734.5q0 63.5 44 107.5t107.5 44t107.5 -44t44 -107.5t-44 -107.5t-107.5 -44t-107.5 44t-44 107.5z" />
<glyph unicode="&#xd0;" horiz-adv-x="1605" d="M6 0v88h199v485h-152v273h152v586h506q383 0 587.5 -187.5t204.5 -527.5q0 -459 -356 -629h483v-88h-1624zM524 283h203q219 0 337 110.5t118 321.5t-118 324.5t-362 113.5h-178v-307h480v-273h-480v-290z" />
<glyph unicode="&#xd1;" horiz-adv-x="1673" d="M-23 0v88h199v1344h299l703 -922v922h319v-1344h199v-88h-518l-682 897v-897h-519zM438 1573q0 154 66.5 242t171.5 88q66 0 159 -56.5t113 -56.5q63 0 62 106h217q0 -154 -66.5 -241.5t-171.5 -87.5q-63 0 -159.5 56t-112.5 56q-63 0 -62 -106h-217z" />
<glyph unicode="&#xd2;" horiz-adv-x="1691" d="M0 0v88h457q-168 96 -265.5 264t-97.5 373q0 315 217 527t534.5 212t534.5 -212t217 -527q0 -205 -98 -373t-264 -264h457v-88h-1692zM422 723.5q0 -191.5 123 -325.5t302 -134t302 134t123 325.5t-123 327t-302 135.5t-302 -135.5t-123 -327zM434 1804l316 135l262 -364 h-293z" />
<glyph unicode="&#xd3;" horiz-adv-x="1691" d="M0 0v88h457q-168 96 -265.5 264t-97.5 373q0 315 217 527t534.5 212t534.5 -212t217 -527q0 -205 -98 -373t-264 -264h457v-88h-1692zM422 723.5q0 -191.5 123 -325.5t302 -134t302 134t123 325.5t-123 327t-302 135.5t-302 -135.5t-123 -327zM700 1579l261 363l317 -134 l-285 -229h-293z" />
<glyph unicode="&#xd4;" horiz-adv-x="1691" d="M0 0v88h457q-168 96 -265.5 264t-97.5 373q0 315 217 527t534.5 212t534.5 -212t217 -527q0 -205 -98 -373t-264 -264h457v-88h-1692zM422 723.5q0 -191.5 123 -325.5t302 -134t302 134t123 325.5t-123 327t-302 135.5t-302 -135.5t-123 -327zM422 1575l231 323h383 l232 -323h-252l-172 166l-170 -166h-252z" />
<glyph unicode="&#xd5;" horiz-adv-x="1691" d="M0 0v88h457q-168 96 -265.5 264t-97.5 373q0 315 217 527t534.5 212t534.5 -212t217 -527q0 -205 -98 -373t-264 -264h457v-88h-1692zM422 723.5q0 -191.5 123 -325.5t302 -134t302 134t123 325.5t-123 327t-302 135.5t-302 -135.5t-123 -327zM449 1573q0 154 66.5 242 t170.5 88q66 0 159 -56.5t113 -56.5q63 0 62 106h217q0 -154 -66.5 -241.5t-171.5 -87.5q-63 0 -159.5 56t-112.5 56q-63 0 -61 -106h-217z" />
<glyph unicode="&#xd6;" horiz-adv-x="1691" d="M0 0v88h457q-168 96 -265.5 264t-97.5 373q0 315 217 527t534.5 212t534.5 -212t217 -527q0 -205 -98 -373t-264 -264h457v-88h-1692zM422 723.5q0 -191.5 123 -325.5t302 -134t302 134t123 325.5t-123 327t-302 135.5t-302 -135.5t-123 -327zM494 1734.5 q0 63.5 44 107.5t107.5 44t107.5 -44t44 -107.5t-44 -107.5t-107.5 -44t-107.5 44t-44 107.5zM889 1734.5q0 63.5 44 107.5t107.5 44t107.5 -44t44 -107.5t-44 -107.5t-107.5 -44t-107.5 44t-44 107.5z" />
<glyph unicode="&#xd7;" horiz-adv-x="1206" d="M0 0v88h555v424l-276 -283l-181 183l328 333l-326 330l181 182l323 -333l326 333l176 -182l-322 -330l324 -333l-176 -183l-281 285v-426h555v-88h-1206z" />
<glyph unicode="&#xd8;" horiz-adv-x="1691" d="M0 0v88h432l6 10q-160 98 -252 263t-92 364q0 315 217 527t535 212q98 0 205 -26l96 211h291l-148 -322q143 -100 225 -258t82 -353.5t-98 -362.5t-264 -265h457v-88h-1010l-104 -229h-289l104 229h-393zM422 712.5q0 -202.5 143 -335.5l367 799q-47 10 -86 10 q-178 0 -301 -135.5t-123 -338zM805 266q12 -2 41 -2q180 0 303 134t123 320.5t-115 321.5z" />
<glyph unicode="&#xd9;" horiz-adv-x="1538" d="M0 0v88h408q-252 168 -252 543v801h319v-791q0 -172 80 -271.5t215 -99.5t214 99.5t79 271.5v791h319v-801q0 -375 -249 -543h405v-88h-1538zM354 1804l316 135l262 -364h-293z" />
<glyph unicode="&#xda;" horiz-adv-x="1538" d="M0 0v88h408q-252 168 -252 543v801h319v-791q0 -172 80 -271.5t215 -99.5t214 99.5t79 271.5v791h319v-801q0 -375 -249 -543h405v-88h-1538zM623 1579l260 363l317 -134l-285 -229h-292z" />
<glyph unicode="&#xdb;" horiz-adv-x="1538" d="M0 0v88h408q-252 168 -252 543v801h319v-791q0 -172 80 -271.5t215 -99.5t214 99.5t79 271.5v791h319v-801q0 -375 -249 -543h405v-88h-1538zM344 1575l231 323h383l232 -323h-252l-172 166l-170 -166h-252z" />
<glyph unicode="&#xdc;" horiz-adv-x="1538" d="M0 0v88h408q-252 168 -252 543v801h319v-791q0 -172 80 -271.5t215 -99.5t214 99.5t79 271.5v791h319v-801q0 -375 -249 -543h405v-88h-1538zM418 1734.5q0 63.5 44 107.5t107.5 44t107.5 -44t44 -107.5t-44 -107.5t-107.5 -44t-107.5 44t-44 107.5zM813 1734.5 q0 63.5 44 107.5t107.5 44t107.5 -44t44 -107.5t-44 -107.5t-107.5 -44t-107.5 44t-44 107.5z" />
<glyph unicode="&#xdd;" horiz-adv-x="1265" d="M-23 1432h347l309 -533l309 533h346l-495 -867v-477h473v-88h-1266v88h473v477zM446 1579l261 363l317 -134l-285 -229h-293z" />
<glyph unicode="&#xde;" horiz-adv-x="1402" d="M-205 0v88h381v1344h320v-172h166q651 0 651 -506q0 -279 -163 -403t-484 -124h-170v-139h1112v-88h-1813zM496 504h194q164 0 229.5 66.5t65.5 188.5t-82 173t-246 51h-161v-479z" />
<glyph unicode="&#xdf;" horiz-adv-x="1325" d="M-78 0v88h221v834q0 201 41 315q16 51 55.5 114.5t92.5 102.5q123 96 325 96q117 0 208 -29.5t144.5 -73.5t88.5 -104q57 -104 57 -223q0 -190 -158 -319q121 -39 181.5 -140.5t60.5 -226.5q0 -231 -180 -346h266v-88h-1403zM463 88h115v170h90q252 0 252 176 q0 195 -236 195q-43 0 -113 -6v247q138 21 204.5 83.5t66.5 139t-39 131t-123 54.5q-119 0 -168 -84t-49 -246v-860z" />
<glyph unicode="&#xe0;" d="M-209 0v88h236l581 1344h310l579 -1344h238v-88h-539l-133 309h-600l-133 -309h-539zM340 1804l315 135l263 -364h-293zM584 590h358l-178 416z" />
<glyph unicode="&#xe1;" d="M-209 0v88h236l581 1344h310l579 -1344h238v-88h-539l-133 309h-600l-133 -309h-539zM584 590h358l-178 416zM606 1579l260 363l318 -134l-285 -229h-293z" />
<glyph unicode="&#xe2;" d="M-209 0v88h236l581 1344h310l579 -1344h238v-88h-539l-133 309h-600l-133 -309h-539zM328 1575l231 323h383l232 -323h-252l-172 166l-170 -166h-252zM584 590h358l-178 416z" />
<glyph unicode="&#xe3;" d="M-209 0v88h236l581 1344h310l579 -1344h238v-88h-539l-133 309h-600l-133 -309h-539zM354 1575q0 154 66.5 242t171.5 88q66 0 159 -56.5t113 -56.5q63 0 62 106h217q0 -154 -66.5 -241.5t-171.5 -87.5q-63 0 -159.5 56t-112.5 56q-63 0 -62 -106h-217zM584 590h358 l-178 416z" />
<glyph unicode="&#xe4;" d="M-209 0v88h236l581 1344h310l579 -1344h238v-88h-539l-133 309h-600l-133 -309h-539zM420 1734.5q0 63.5 44 107.5t107.5 44t107.5 -44t44 -107.5t-44 -107.5t-107.5 -44t-107.5 44t-44 107.5zM584 590h358l-178 416zM815 1734.5q0 63.5 44 107.5t107.5 44t107.5 -44 t44 -107.5t-44 -107.5t-107.5 -44t-107.5 44t-44 107.5z" />
<glyph unicode="&#xe5;" d="M-209 0v88h236l579 1342q-61 66 -61 154.5t64.5 153t154.5 64.5t154.5 -64.5t64.5 -154.5t-65 -156l579 -1339h238v-88h-539l-133 309h-600l-133 -309h-539zM584 590h358l-178 416zM692 1583q0 -29 21.5 -50.5t50.5 -21.5t50.5 21.5t21.5 50.5t-21.5 50.5t-50.5 21.5 t-50.5 -21.5t-21.5 -50.5z" />
<glyph unicode="&#xe6;" horiz-adv-x="2095" d="M-209 0v88h221l690 1344h1264v-281h-715v-309h641v-269h-641v-292h738v-193h198v-88h-1276v309h-405l-162 -309h-553zM651 598h260v504z" />
<glyph unicode="&#xe7;" horiz-adv-x="1499" d="M0 0v88h440q-164 96 -257 261t-93 374q0 315 218 528t534 213q352 0 590 -268l-199 -225q-152 188 -377 188q-180 0 -308 -117.5t-128 -317.5t121 -320.5t293 -120.5q236 0 385 186l204 -211q-90 -104 -202 -170h286v-88h-1507zM537 -418l77 176q45 -39 80 -39t54.5 18.5 t19.5 46.5t-24.5 49.5t-58.5 21.5t-73 -19l84 160h236l-58 -105q134 -44 134 -155q0 -88 -73 -153.5t-183.5 -65.5t-214.5 65z" />
<glyph unicode="&#xe8;" horiz-adv-x="1339" d="M-23 0v88h199v1344h1032v-285h-712v-295h641v-272h-641v-297h735v-195h199v-88h-1453zM250 1804l315 135l262 -364h-292z" />
<glyph unicode="&#xe9;" horiz-adv-x="1339" d="M-23 0v88h199v1344h1032v-285h-712v-295h641v-272h-641v-297h735v-195h199v-88h-1453zM516 1579l260 363l318 -134l-285 -229h-293z" />
<glyph unicode="&#xea;" horiz-adv-x="1339" d="M-23 0v88h199v1344h1032v-285h-712v-295h641v-272h-641v-297h735v-195h199v-88h-1453zM238 1575l231 323h383l231 -323h-252l-172 166l-170 -166h-251z" />
<glyph unicode="&#xeb;" horiz-adv-x="1339" d="M-23 0v88h199v1344h1032v-285h-712v-295h641v-272h-641v-297h735v-195h199v-88h-1453zM348 1734.5q0 63.5 44 107.5t107.5 44t107.5 -44t44 -107.5t-44 -107.5t-107.5 -44t-107.5 44t-44 107.5zM743 1734.5q0 63.5 44 107.5t107.5 44t108 -44t44.5 -107.5t-44.5 -107.5 t-108 -44t-107.5 44t-44 107.5z" />
<glyph unicode="&#xec;" horiz-adv-x="671" d="M-76 1804l316 135l262 -364h-293zM0 0v88h176v1344h320v-1344h176v-88h-672z" />
<glyph unicode="&#xed;" horiz-adv-x="671" d="M0 0v88h176v1344h320v-1344h176v-88h-672zM190 1579l261 363l317 -134l-285 -229h-293z" />
<glyph unicode="&#xee;" horiz-adv-x="671" d="M-86 1577l231 324h383l232 -324h-252l-172 166l-170 -166h-252zM0 0v88h176v1344h320v-1344h176v-88h-672z" />
<glyph unicode="&#xef;" horiz-adv-x="671" d="M-14 1734.5q0 63.5 44 107.5t107.5 44t107.5 -44t44 -107.5t-44 -107.5t-107.5 -44t-107.5 44t-44 107.5zM0 0v88h176v1344h320v-1344h176v-88h-672zM381 1734.5q0 63.5 44 107.5t107.5 44t107.5 -44t44 -107.5t-44 -107.5t-107.5 -44t-107.5 44t-44 107.5z" />
<glyph unicode="&#xf0;" horiz-adv-x="1605" d="M6 0v88h199v485h-152v273h152v586h506q383 0 587.5 -187.5t204.5 -527.5q0 -459 -356 -629h483v-88h-1624zM524 283h203q219 0 337 110.5t118 321.5t-118 324.5t-362 113.5h-178v-307h480v-273h-480v-290z" />
<glyph unicode="&#xf1;" horiz-adv-x="1673" d="M-23 0v88h199v1344h299l703 -922v922h319v-1344h199v-88h-518l-682 897v-897h-519zM438 1573q0 154 66.5 242t171.5 88q66 0 159 -56.5t113 -56.5q63 0 62 106h217q0 -154 -66.5 -241.5t-171.5 -87.5q-63 0 -159.5 56t-112.5 56q-63 0 -62 -106h-217z" />
<glyph unicode="&#xf2;" horiz-adv-x="1691" d="M0 0v88h457q-168 96 -265.5 264t-97.5 373q0 315 217 527t534.5 212t534.5 -212t217 -527q0 -205 -98 -373t-264 -264h457v-88h-1692zM422 723.5q0 -191.5 123 -325.5t302 -134t302 134t123 325.5t-123 327t-302 135.5t-302 -135.5t-123 -327zM434 1804l316 135l262 -364 h-293z" />
<glyph unicode="&#xf3;" horiz-adv-x="1691" d="M0 0v88h457q-168 96 -265.5 264t-97.5 373q0 315 217 527t534.5 212t534.5 -212t217 -527q0 -205 -98 -373t-264 -264h457v-88h-1692zM422 723.5q0 -191.5 123 -325.5t302 -134t302 134t123 325.5t-123 327t-302 135.5t-302 -135.5t-123 -327zM700 1579l261 363l317 -134 l-285 -229h-293z" />
<glyph unicode="&#xf4;" horiz-adv-x="1691" d="M0 0v88h457q-168 96 -265.5 264t-97.5 373q0 315 217 527t534.5 212t534.5 -212t217 -527q0 -205 -98 -373t-264 -264h457v-88h-1692zM422 723.5q0 -191.5 123 -325.5t302 -134t302 134t123 325.5t-123 327t-302 135.5t-302 -135.5t-123 -327zM422 1575l231 323h383 l232 -323h-252l-172 166l-170 -166h-252z" />
<glyph unicode="&#xf5;" horiz-adv-x="1691" d="M0 0v88h457q-168 96 -265.5 264t-97.5 373q0 315 217 527t534.5 212t534.5 -212t217 -527q0 -205 -98 -373t-264 -264h457v-88h-1692zM422 723.5q0 -191.5 123 -325.5t302 -134t302 134t123 325.5t-123 327t-302 135.5t-302 -135.5t-123 -327zM449 1573q0 154 66.5 242 t170.5 88q66 0 159 -56.5t113 -56.5q63 0 62 106h217q0 -154 -66.5 -241.5t-171.5 -87.5q-63 0 -159.5 56t-112.5 56q-63 0 -61 -106h-217z" />
<glyph unicode="&#xf6;" horiz-adv-x="1691" d="M0 0v88h457q-168 96 -265.5 264t-97.5 373q0 315 217 527t534.5 212t534.5 -212t217 -527q0 -205 -98 -373t-264 -264h457v-88h-1692zM422 723.5q0 -191.5 123 -325.5t302 -134t302 134t123 325.5t-123 327t-302 135.5t-302 -135.5t-123 -327zM494 1734.5 q0 63.5 44 107.5t107.5 44t107.5 -44t44 -107.5t-44 -107.5t-107.5 -44t-107.5 44t-44 107.5zM889 1734.5q0 63.5 44 107.5t107.5 44t107.5 -44t44 -107.5t-44 -107.5t-107.5 -44t-107.5 44t-44 107.5z" />
<glyph unicode="&#xf7;" horiz-adv-x="1191" d="M0 0v88h532v70q-53 20 -84.5 66t-31.5 103.5t31.5 103.5t84.5 65v94h-434v252h434v92q-53 20 -84.5 66.5t-31.5 113t52 118.5t128 52t128 -52t52 -117.5t-31.5 -112t-80.5 -66.5v-94h430v-252h-430v-96q49 -20 80.5 -65.5t31.5 -101t-31.5 -101.5t-80.5 -66v-72h528v-88 h-1192z" />
<glyph unicode="&#xf8;" horiz-adv-x="1691" d="M0 0v88h432l6 10q-160 98 -252 263t-92 364q0 315 217 527t535 212q98 0 205 -26l96 211h291l-148 -322q143 -100 225 -258t82 -353.5t-98 -362.5t-264 -265h457v-88h-1010l-104 -229h-289l104 229h-393zM422 712.5q0 -202.5 143 -335.5l367 799q-47 10 -86 10 q-178 0 -301 -135.5t-123 -338zM805 266q12 -2 41 -2q180 0 303 134t123 320.5t-115 321.5z" />
<glyph unicode="&#xf9;" horiz-adv-x="1538" d="M0 0v88h408q-252 168 -252 543v801h319v-791q0 -172 80 -271.5t215 -99.5t214 99.5t79 271.5v791h319v-801q0 -375 -249 -543h405v-88h-1538zM354 1804l316 135l262 -364h-293z" />
<glyph unicode="&#xfa;" horiz-adv-x="1538" d="M0 0v88h408q-252 168 -252 543v801h319v-791q0 -172 80 -271.5t215 -99.5t214 99.5t79 271.5v791h319v-801q0 -375 -249 -543h405v-88h-1538zM623 1579l260 363l317 -134l-285 -229h-292z" />
<glyph unicode="&#xfb;" horiz-adv-x="1538" d="M0 0v88h408q-252 168 -252 543v801h319v-791q0 -172 80 -271.5t215 -99.5t214 99.5t79 271.5v791h319v-801q0 -375 -249 -543h405v-88h-1538zM344 1575l231 323h383l232 -323h-252l-172 166l-170 -166h-252z" />
<glyph unicode="&#xfc;" horiz-adv-x="1538" d="M0 0v88h408q-252 168 -252 543v801h319v-791q0 -172 80 -271.5t215 -99.5t214 99.5t79 271.5v791h319v-801q0 -375 -249 -543h405v-88h-1538zM418 1734.5q0 63.5 44 107.5t107.5 44t107.5 -44t44 -107.5t-44 -107.5t-107.5 -44t-107.5 44t-44 107.5zM813 1734.5 q0 63.5 44 107.5t107.5 44t107.5 -44t44 -107.5t-44 -107.5t-107.5 -44t-107.5 44t-44 107.5z" />
<glyph unicode="&#xfd;" horiz-adv-x="1265" d="M-23 1432h347l309 -533l309 533h346l-495 -867v-477h473v-88h-1266v88h473v477zM446 1579l261 363l317 -134l-285 -229h-293z" />
<glyph unicode="&#xfe;" horiz-adv-x="1402" d="M-205 0v88h381v1344h320v-172h166q651 0 651 -506q0 -279 -163 -403t-484 -124h-170v-139h1112v-88h-1813zM496 504h194q164 0 229.5 66.5t65.5 188.5t-82 173t-246 51h-161v-479z" />
<glyph unicode="&#xff;" horiz-adv-x="1265" d="M-23 1432h347l309 -533l309 533h346l-495 -867v-477h473v-88h-1266v88h473v477zM283 1742.5q0 63.5 44 107.5t107.5 44t107.5 -44t44 -107.5t-44 -107.5t-107.5 -44t-107.5 44t-44 107.5zM678 1742.5q0 63.5 44 107.5t107.5 44t107.5 -44t44 -107.5t-44 -107.5 t-107.5 -44t-107.5 44t-44 107.5z" />
<glyph unicode="&#x152;" horiz-adv-x="2134" d="M-205 0v88h670q-170 90 -269.5 256t-99.5 371q0 305 210 510t519 205h1178v-283h-713v-295h639v-272h-639v-297h735v-195h320v-88h-2550zM436 715.5q0 -185.5 119 -316.5t291 -131h123v893h-123q-172 0 -291 -130t-119 -315.5z" />
<glyph unicode="&#x153;" horiz-adv-x="2134" d="M-205 0v88h670q-170 90 -269.5 256t-99.5 371q0 305 210 510t519 205h1178v-283h-713v-295h639v-272h-639v-297h735v-195h320v-88h-2550zM436 715.5q0 -185.5 119 -316.5t291 -131h123v893h-123q-172 0 -291 -130t-119 -315.5z" />
<glyph unicode="&#x178;" horiz-adv-x="1265" d="M-23 1432h347l309 -533l309 533h346l-495 -867v-477h473v-88h-1266v88h473v477zM283 1742.5q0 63.5 44 107.5t107.5 44t107.5 -44t44 -107.5t-44 -107.5t-107.5 -44t-107.5 44t-44 107.5zM678 1742.5q0 63.5 44 107.5t107.5 44t107.5 -44t44 -107.5t-44 -107.5 t-107.5 -44t-107.5 44t-44 107.5z" />
<glyph unicode="&#x2c6;" horiz-adv-x="989" d="M72 1579l231 324h383l232 -324h-252l-172 166l-170 -166h-252z" />
<glyph unicode="&#x2dc;" horiz-adv-x="1198" d="M219 1251q0 154 66.5 242t171.5 88q66 0 159 -56.5t113 -56.5q63 0 62 107h217q0 -154 -67 -242t-171 -88q-63 0 -159.5 56.5t-112.5 56.5q-63 0 -62 -107h-217z" />
<glyph unicode="&#x2000;" horiz-adv-x="971" />
<glyph unicode="&#x2001;" horiz-adv-x="1942" />
<glyph unicode="&#x2002;" horiz-adv-x="971" />
<glyph unicode="&#x2003;" horiz-adv-x="1942" />
<glyph unicode="&#x2004;" horiz-adv-x="647" />
<glyph unicode="&#x2005;" horiz-adv-x="485" />
<glyph unicode="&#x2006;" horiz-adv-x="323" />
<glyph unicode="&#x2007;" horiz-adv-x="323" />
<glyph unicode="&#x2008;" horiz-adv-x="242" />
<glyph unicode="&#x2009;" horiz-adv-x="388" />
<glyph unicode="&#x200a;" horiz-adv-x="107" />
<glyph unicode="&#x2010;" horiz-adv-x="1003" d="M0 0v88h455v391h-318v273h729v-273h-315v-391h453v-88h-1004z" />
<glyph unicode="&#x2011;" horiz-adv-x="1003" d="M0 0v88h455v391h-318v273h729v-273h-315v-391h453v-88h-1004z" />
<glyph unicode="&#x2012;" horiz-adv-x="1003" d="M0 0v88h455v391h-318v273h729v-273h-315v-391h453v-88h-1004z" />
<glyph unicode="&#x2013;" horiz-adv-x="1112" d="M0 0v88h508v354h-356v197h809v-197h-357v-354h508v-88h-1112z" />
<glyph unicode="&#x2014;" horiz-adv-x="1427" d="M0 0v88h670v354h-539v197h1165v-197h-530v-354h661v-88h-1427z" />
<glyph unicode="&#x2018;" horiz-adv-x="577" d="M0 0v88h203v944h-86l123 400h249l-122 -400h-68v-944h279v-88h-578z" />
<glyph unicode="&#x2019;" horiz-adv-x="577" d="M0 0v88h203v944h-86l123 400h249l-122 -400h-68v-944h279v-88h-578z" />
<glyph unicode="&#x201a;" horiz-adv-x="571" d="M-27 0v88h166l47 152h250l-47 -152h182v-88h-209l-49 -158h-247l47 158h-140z" />
<glyph unicode="&#x201c;" horiz-adv-x="909" d="M0 0v88h367v944h-250l123 400h249l-114 -369h82l114 369h250l-123 -400h-235v-944h446v-88h-909z" />
<glyph unicode="&#x201d;" horiz-adv-x="909" d="M0 0v88h367v944h-250l123 400h249l-114 -369h82l114 369h250l-123 -400h-235v-944h446v-88h-909z" />
<glyph unicode="&#x201e;" horiz-adv-x="966" d="M-27 0v88h166l47 152h250l-47 -152h146l47 152h249l-47 -152h183v-88h-209l-49 -158h-248l47 158h-146l-49 -158h-247l47 158h-140z" />
<glyph unicode="&#x2022;" horiz-adv-x="897" d="M0 0v88h399v281q-102 18 -168.5 97t-66.5 190.5t83 194.5t201.5 83t201.5 -83t83 -194.5t-67.5 -191.5t-169.5 -96v-281h401v-88h-897z" />
<glyph unicode="&#x2026;" horiz-adv-x="1472" d="M0 0v88h156q-41 47 -41 120t52 125t128 52t128 -52t52 -124t-43 -121h164q-41 47 -41 120t52 125t128 52t128 -52t52 -124t-43 -121h166q-41 47 -41 120t52.5 125t128 52t128 -52t52.5 -124t-43 -121h160v-88h-1475z" />
<glyph unicode="&#x202f;" horiz-adv-x="388" />
<glyph unicode="&#x2039;" horiz-adv-x="776" d="M0 0v88h340l-242 361l250 385h309l-241 -385l233 -361h127v-88h-776z" />
<glyph unicode="&#x203a;" horiz-adv-x="776" d="M-82 0v88h201l241 379l-241 377h309l250 -377l-250 -379h348v-88h-858z" />
<glyph unicode="&#x205f;" horiz-adv-x="485" />
<glyph unicode="&#x25fc;" horiz-adv-x="1433" d="M0 0v1434h1434v-1434h-1434z" />
</font>
</defs>
</svg>
