<svg width="918" height="124" viewBox="0 0 918 124" fill="none" xmlns="http://www.w3.org/2000/svg">
<rect width="918" height="124" fill="white"/>
<rect x="26" y="23" width="148" height="78" rx="7" fill="black" stroke="black" stroke-width="2"/>
<path d="M85.8008 58.2756C85.725 57.6032 85.4125 57.0824 84.8633 56.7131C84.314 56.339 83.6228 56.152 82.7894 56.152C82.1928 56.152 81.6767 56.2467 81.2411 56.4361C80.8055 56.6207 80.467 56.8764 80.2255 57.2031C79.9888 57.5251 79.8704 57.892 79.8704 58.304C79.8704 58.6496 79.9509 58.9479 80.1119 59.1989C80.2776 59.4498 80.493 59.6605 80.7582 59.831C81.0281 59.9967 81.3169 60.1364 81.6246 60.25C81.9324 60.3589 82.2283 60.4489 82.5124 60.5199L83.9329 60.8892C84.3969 61.0028 84.8728 61.1567 85.3604 61.3509C85.8481 61.545 86.3003 61.8007 86.717 62.1179C87.1336 62.4351 87.4698 62.8281 87.7255 63.2969C87.9859 63.7656 88.1161 64.3267 88.1161 64.9801C88.1161 65.804 87.9031 66.5355 87.4769 67.1747C87.0555 67.8139 86.4424 68.3182 85.6374 68.6875C84.8372 69.0568 83.869 69.2415 82.7326 69.2415C81.6436 69.2415 80.7013 69.0687 79.9059 68.723C79.1104 68.3774 78.4878 67.8873 78.038 67.2528C77.5882 66.6136 77.3396 65.8561 77.2923 64.9801H79.494C79.5366 65.5057 79.707 65.9437 80.0053 66.294C80.3084 66.6397 80.6942 66.8977 81.163 67.0682C81.6365 67.2339 82.1549 67.3168 82.7184 67.3168C83.3387 67.3168 83.8903 67.2197 84.3732 67.0256C84.8609 66.8267 85.2444 66.5521 85.5238 66.2017C85.8031 65.8466 85.9428 65.4323 85.9428 64.9588C85.9428 64.5279 85.8197 64.1752 85.5735 63.9006C85.332 63.6259 85.003 63.3987 84.5863 63.2188C84.1744 63.0388 83.708 62.8802 83.1871 62.7429L81.4684 62.2741C80.3036 61.9569 79.3803 61.4905 78.6985 60.875C78.0214 60.2595 77.6829 59.4451 77.6829 58.4318C77.6829 57.5937 77.9102 56.8622 78.3647 56.2372C78.8192 55.6122 79.4348 55.1269 80.2113 54.7812C80.9878 54.4309 81.8638 54.2557 82.8391 54.2557C83.824 54.2557 84.6928 54.4285 85.4457 54.7741C86.2032 55.1198 86.7998 55.5956 87.2354 56.2017C87.671 56.803 87.8983 57.4943 87.9173 58.2756H85.8008ZM95.6605 58.0909V59.7955H89.7017V58.0909H95.6605ZM91.2997 55.4773H93.4233V65.7969C93.4233 66.2088 93.4848 66.5189 93.608 66.7273C93.7311 66.9309 93.8897 67.0705 94.0838 67.1463C94.2827 67.2173 94.4981 67.2528 94.7301 67.2528C94.9006 67.2528 95.0497 67.241 95.1776 67.2173C95.3054 67.1937 95.4048 67.1747 95.4759 67.1605L95.8594 68.9148C95.7363 68.9621 95.5611 69.0095 95.3338 69.0568C95.1065 69.1089 94.8224 69.1373 94.4815 69.142C93.9228 69.1515 93.402 69.0521 92.919 68.8438C92.4361 68.6354 92.0455 68.3134 91.7472 67.8778C91.4489 67.4422 91.2997 66.8954 91.2997 66.2372V55.4773ZM101.184 69.2415C100.493 69.2415 99.868 69.1136 99.3093 68.858C98.7506 68.5975 98.3079 68.2211 97.9812 67.7287C97.6592 67.2363 97.4982 66.6326 97.4982 65.9176C97.4982 65.3021 97.6166 64.7955 97.8533 64.3977C98.0901 64 98.4097 63.6851 98.8121 63.4531C99.2146 63.2211 99.6644 63.0459 100.162 62.9276C100.659 62.8092 101.165 62.7192 101.681 62.6577C102.335 62.5819 102.865 62.5204 103.272 62.473C103.68 62.4209 103.975 62.3381 104.16 62.2244C104.345 62.1108 104.437 61.9261 104.437 61.6705V61.6207C104.437 61.0005 104.262 60.5199 103.912 60.179C103.566 59.8381 103.05 59.6676 102.363 59.6676C101.648 59.6676 101.085 59.8262 100.673 60.1435C100.266 60.456 99.984 60.804 99.8278 61.1875L97.832 60.733C98.0688 60.0701 98.4144 59.535 98.869 59.1278C99.3282 58.7159 99.8562 58.4176 100.453 58.233C101.049 58.0436 101.677 57.9489 102.335 57.9489C102.77 57.9489 103.232 58.0009 103.72 58.1051C104.212 58.2045 104.672 58.3892 105.098 58.6591C105.529 58.929 105.881 59.3149 106.156 59.8168C106.431 60.3139 106.568 60.9602 106.568 61.7557V69H104.494V67.5085H104.409C104.271 67.7831 104.065 68.053 103.791 68.3182C103.516 68.5833 103.163 68.8035 102.733 68.9787C102.302 69.1539 101.786 69.2415 101.184 69.2415ZM101.646 67.5369C102.233 67.5369 102.735 67.4209 103.152 67.1889C103.573 66.9569 103.893 66.6539 104.11 66.2798C104.333 65.901 104.444 65.4962 104.444 65.0653V63.6591C104.368 63.7348 104.222 63.8059 104.004 63.8722C103.791 63.9337 103.547 63.9882 103.272 64.0355C102.998 64.0781 102.73 64.1184 102.47 64.1562C102.209 64.1894 101.992 64.2178 101.816 64.2415C101.404 64.2936 101.028 64.3812 100.687 64.5043C100.351 64.6274 100.081 64.8049 99.8775 65.0369C99.6786 65.2642 99.5792 65.5672 99.5792 65.946C99.5792 66.4716 99.7733 66.8693 100.162 67.1392C100.55 67.4044 101.045 67.5369 101.646 67.5369ZM109.396 69V58.0909H111.449V59.8239H111.562C111.761 59.2367 112.112 58.7751 112.614 58.4389C113.12 58.098 113.693 57.9276 114.332 57.9276C114.465 57.9276 114.621 57.9323 114.801 57.9418C114.986 57.9512 115.13 57.9631 115.234 57.9773V60.0085C115.149 59.9848 114.998 59.9588 114.78 59.9304C114.562 59.8973 114.344 59.8807 114.126 59.8807C113.625 59.8807 113.177 59.9872 112.784 60.2003C112.396 60.4086 112.088 60.6998 111.861 61.0739C111.634 61.4432 111.52 61.8646 111.52 62.3381V69H109.396ZM122.809 58.0909V59.7955H116.85V58.0909H122.809ZM118.448 55.4773H120.572V65.7969C120.572 66.2088 120.633 66.5189 120.756 66.7273C120.879 66.9309 121.038 67.0705 121.232 67.1463C121.431 67.2173 121.647 67.2528 121.879 67.2528C122.049 67.2528 122.198 67.241 122.326 67.2173C122.454 67.1937 122.553 67.1747 122.624 67.1605L123.008 68.9148C122.885 68.9621 122.71 69.0095 122.482 69.0568C122.255 69.1089 121.971 69.1373 121.63 69.142C121.071 69.1515 120.55 69.0521 120.067 68.8438C119.585 68.6354 119.194 68.3134 118.896 67.8778C118.597 67.4422 118.448 66.8954 118.448 66.2372V55.4773Z" fill="white"/>
<rect x="217" y="23" width="148" height="78" rx="7" stroke="black" stroke-width="2"/>
<path d="M266.789 69V54.4545H268.984V67.1108H275.575V69H266.789ZM282.503 69.2202C281.48 69.2202 280.588 68.9858 279.826 68.517C279.063 68.0483 278.471 67.3925 278.05 66.5497C277.629 65.7069 277.418 64.7221 277.418 63.5952C277.418 62.4635 277.629 61.474 278.05 60.6264C278.471 59.7789 279.063 59.1207 279.826 58.652C280.588 58.1832 281.48 57.9489 282.503 57.9489C283.526 57.9489 284.418 58.1832 285.181 58.652C285.943 59.1207 286.535 59.7789 286.956 60.6264C287.378 61.474 287.588 62.4635 287.588 63.5952C287.588 64.7221 287.378 65.7069 286.956 66.5497C286.535 67.3925 285.943 68.0483 285.181 68.517C284.418 68.9858 283.526 69.2202 282.503 69.2202ZM282.51 67.4375C283.173 67.4375 283.722 67.2623 284.158 66.9119C284.594 66.5616 284.916 66.0952 285.124 65.5128C285.337 64.9304 285.444 64.2888 285.444 63.5881C285.444 62.892 285.337 62.2528 285.124 61.6705C284.916 61.0833 284.594 60.6122 284.158 60.2571C283.722 59.902 283.173 59.7244 282.51 59.7244C281.843 59.7244 281.289 59.902 280.848 60.2571C280.413 60.6122 280.088 61.0833 279.875 61.6705C279.667 62.2528 279.563 62.892 279.563 63.5881C279.563 64.2888 279.667 64.9304 279.875 65.5128C280.088 66.0952 280.413 66.5616 280.848 66.9119C281.289 67.2623 281.843 67.4375 282.51 67.4375ZM294.533 73.3182C293.666 73.3182 292.92 73.2045 292.295 72.9773C291.675 72.75 291.169 72.4493 290.776 72.0753C290.383 71.7012 290.089 71.2917 289.895 70.8466L291.72 70.0938C291.848 70.3021 292.018 70.5223 292.232 70.7543C292.449 70.991 292.743 71.1922 293.112 71.358C293.486 71.5237 293.967 71.6065 294.554 71.6065C295.359 71.6065 296.024 71.41 296.55 71.017C297.075 70.6288 297.338 70.0085 297.338 69.1562V67.0114H297.203C297.075 67.2434 296.891 67.5014 296.649 67.7855C296.412 68.0696 296.086 68.3158 295.669 68.5241C295.252 68.7325 294.71 68.8366 294.043 68.8366C293.181 68.8366 292.404 68.6354 291.713 68.233C291.027 67.8258 290.482 67.2268 290.08 66.4361C289.682 65.6406 289.483 64.6629 289.483 63.5028C289.483 62.3428 289.679 61.3485 290.072 60.5199C290.47 59.6913 291.015 59.0568 291.706 58.6165C292.397 58.1714 293.181 57.9489 294.057 57.9489C294.734 57.9489 295.281 58.0625 295.697 58.2898C296.114 58.5123 296.438 58.7727 296.67 59.071C296.907 59.3693 297.089 59.6321 297.217 59.8594H297.374V58.0909H299.455V69.2415C299.455 70.179 299.237 70.9484 298.801 71.5497C298.366 72.151 297.776 72.5961 297.033 72.8849C296.294 73.1738 295.461 73.3182 294.533 73.3182ZM294.511 67.0753C295.122 67.0753 295.638 66.9332 296.06 66.6491C296.486 66.3603 296.808 65.9484 297.026 65.4134C297.248 64.8736 297.359 64.2273 297.359 63.4744C297.359 62.7405 297.25 62.0942 297.033 61.5355C296.815 60.9768 296.495 60.5412 296.074 60.2287C295.652 59.9115 295.132 59.7528 294.511 59.7528C293.872 59.7528 293.339 59.9186 292.913 60.25C292.487 60.5767 292.165 61.0218 291.947 61.5852C291.734 62.1487 291.628 62.7784 291.628 63.4744C291.628 64.1894 291.737 64.8168 291.955 65.3565C292.172 65.8963 292.494 66.3177 292.92 66.6207C293.351 66.9238 293.882 67.0753 294.511 67.0753ZM302.303 69V58.0909H304.426V69H302.303ZM303.375 56.4077C303.006 56.4077 302.688 56.2846 302.423 56.0384C302.163 55.7874 302.033 55.4891 302.033 55.1435C302.033 54.7931 302.163 54.4948 302.423 54.2486C302.688 53.9976 303.006 53.8722 303.375 53.8722C303.744 53.8722 304.059 53.9976 304.32 54.2486C304.585 54.4948 304.717 54.7931 304.717 55.1435C304.717 55.4891 304.585 55.7874 304.32 56.0384C304.059 56.2846 303.744 56.4077 303.375 56.4077ZM309.407 62.5227V69H307.283V58.0909H309.321V59.8665H309.456C309.707 59.2888 310.1 58.8248 310.635 58.4744C311.175 58.1241 311.855 57.9489 312.674 57.9489C313.417 57.9489 314.068 58.1051 314.627 58.4176C315.185 58.7254 315.619 59.1847 315.926 59.7955C316.234 60.4062 316.388 61.1615 316.388 62.0611V69H314.265V62.3168C314.265 61.526 314.059 60.9081 313.647 60.4631C313.235 60.0133 312.669 59.7884 311.949 59.7884C311.457 59.7884 311.019 59.8949 310.635 60.108C310.257 60.321 309.956 60.6335 309.733 61.0455C309.516 61.4527 309.407 61.9451 309.407 62.5227Z" fill="black"/>
<path d="M215.707 62.7071C216.098 62.3166 216.098 61.6834 215.707 61.2929L209.343 54.9289C208.953 54.5384 208.319 54.5384 207.929 54.9289C207.538 55.3195 207.538 55.9526 207.929 56.3431L213.586 62L207.929 67.6569C207.538 68.0474 207.538 68.6805 207.929 69.0711C208.319 69.4616 208.953 69.4616 209.343 69.0711L215.707 62.7071ZM175 63H215V61H175V63Z" fill="black"/>
<path d="M405.707 62.7071C406.098 62.3166 406.098 61.6834 405.707 61.2929L399.343 54.9289C398.953 54.5384 398.319 54.5384 397.929 54.9289C397.538 55.3195 397.538 55.9526 397.929 56.3431L403.586 62L397.929 67.6569C397.538 68.0474 397.538 68.6805 397.929 69.0711C398.319 69.4616 398.953 69.4616 399.343 69.0711L405.707 62.7071ZM365 63H405V61H365V63Z" fill="black"/>
<path d="M551.707 62.7071C552.098 62.3166 552.098 61.6834 551.707 61.2929L545.343 54.9289C544.953 54.5384 544.319 54.5384 543.929 54.9289C543.538 55.3195 543.538 55.9526 543.929 56.3431L549.586 62L543.929 67.6569C543.538 68.0474 543.538 68.6805 543.929 69.0711C544.319 69.4616 544.953 69.4616 545.343 69.0711L551.707 62.7071ZM511 63H551V61H511V63Z" fill="black"/>
<path d="M742.707 62.7071C743.098 62.3166 743.098 61.6834 742.707 61.2929L736.343 54.9289C735.953 54.5384 735.319 54.5384 734.929 54.9289C734.538 55.3195 734.538 55.9526 734.929 56.3431L740.586 62L734.929 67.6569C734.538 68.0474 734.538 68.6805 734.929 69.0711C735.319 69.4616 735.953 69.4616 736.343 69.0711L742.707 62.7071ZM702 63H742V61H702V63Z" fill="black"/>
<rect x="553" y="23" width="148" height="78" rx="7" stroke="black" stroke-width="2"/>
<path d="M581.321 54H578.991L584.226 39.4545H586.761L591.996 54H589.666L585.554 42.0966H585.44L581.321 54ZM581.711 48.304H589.268V50.1506H581.711V48.304ZM597.834 54.2131C596.953 54.2131 596.167 53.9882 595.476 53.5384C594.789 53.0838 594.249 52.4375 593.856 51.5994C593.468 50.7566 593.274 49.7457 593.274 48.5668C593.274 47.3878 593.47 46.3793 593.863 45.5412C594.261 44.7031 594.806 44.0616 595.497 43.6165C596.188 43.1714 596.972 42.9489 597.848 42.9489C598.525 42.9489 599.069 43.0625 599.481 43.2898C599.898 43.5123 600.22 43.7727 600.447 44.071C600.679 44.3693 600.859 44.6321 600.987 44.8594H601.115V39.4545H603.238V54H601.165V52.3026H600.987C600.859 52.5346 600.675 52.7997 600.433 53.098C600.196 53.3963 599.87 53.6567 599.453 53.8793C599.036 54.1018 598.497 54.2131 597.834 54.2131ZM598.302 52.402C598.913 52.402 599.429 52.241 599.851 51.919C600.277 51.5923 600.599 51.1402 600.817 50.5625C601.039 49.9848 601.15 49.3125 601.15 48.5455C601.15 47.7879 601.041 47.125 600.824 46.5568C600.606 45.9886 600.286 45.5459 599.865 45.2287C599.443 44.9115 598.923 44.7528 598.302 44.7528C597.663 44.7528 597.131 44.9186 596.704 45.25C596.278 45.5814 595.956 46.0336 595.738 46.6065C595.525 47.1795 595.419 47.8258 595.419 48.5455C595.419 49.2746 595.528 49.9304 595.746 50.5128C595.963 51.0952 596.285 51.5568 596.711 51.8977C597.142 52.2339 597.673 52.402 598.302 52.402ZM610.353 54.2131C609.472 54.2131 608.686 53.9882 607.995 53.5384C607.309 53.0838 606.769 52.4375 606.376 51.5994C605.988 50.7566 605.794 49.7457 605.794 48.5668C605.794 47.3878 605.99 46.3793 606.383 45.5412C606.781 44.7031 607.325 44.0616 608.017 43.6165C608.708 43.1714 609.491 42.9489 610.367 42.9489C611.044 42.9489 611.589 43.0625 612.001 43.2898C612.418 43.5123 612.74 43.7727 612.967 44.071C613.199 44.3693 613.379 44.6321 613.507 44.8594H613.634V39.4545H615.758V54H613.684V52.3026H613.507C613.379 52.5346 613.194 52.7997 612.953 53.098C612.716 53.3963 612.389 53.6567 611.972 53.8793C611.556 54.1018 611.016 54.2131 610.353 54.2131ZM610.822 52.402C611.433 52.402 611.949 52.241 612.37 51.919C612.796 51.5923 613.118 51.1402 613.336 50.5625C613.559 49.9848 613.67 49.3125 613.67 48.5455C613.67 47.7879 613.561 47.125 613.343 46.5568C613.125 45.9886 612.806 45.5459 612.384 45.2287C611.963 44.9115 611.442 44.7528 610.822 44.7528C610.183 44.7528 609.65 44.9186 609.224 45.25C608.798 45.5814 608.476 46.0336 608.258 46.6065C608.045 47.1795 607.938 47.8258 607.938 48.5455C607.938 49.2746 608.047 49.9304 608.265 50.5128C608.483 51.0952 608.805 51.5568 609.231 51.8977C609.662 52.2339 610.192 52.402 610.822 52.402ZM624.252 54V39.4545H629.579C630.611 39.4545 631.466 39.625 632.143 39.9659C632.82 40.3021 633.327 40.759 633.663 41.3366C633.999 41.9096 634.167 42.5559 634.167 43.2756C634.167 43.8816 634.056 44.393 633.833 44.8097C633.611 45.2216 633.312 45.553 632.938 45.804C632.569 46.0502 632.162 46.2301 631.717 46.3438V46.4858C632.2 46.5095 632.671 46.6657 633.13 46.9545C633.594 47.2386 633.978 47.6435 634.281 48.169C634.584 48.6946 634.735 49.3338 634.735 50.0866C634.735 50.83 634.56 51.4976 634.21 52.0895C633.864 52.6766 633.329 53.143 632.605 53.4886C631.88 53.8295 630.954 54 629.828 54H624.252ZM626.447 52.1179H629.615C630.666 52.1179 631.419 51.9143 631.873 51.5071C632.328 51.0999 632.555 50.5909 632.555 49.9801C632.555 49.5208 632.439 49.0994 632.207 48.7159C631.975 48.3324 631.643 48.027 631.213 47.7997C630.786 47.5724 630.28 47.4588 629.693 47.4588H626.447V52.1179ZM626.447 45.7472H629.387C629.88 45.7472 630.322 45.6525 630.715 45.4631C631.113 45.2737 631.428 45.0085 631.66 44.6676C631.897 44.322 632.015 43.9148 632.015 43.446C632.015 42.8447 631.804 42.3404 631.383 41.9332C630.962 41.526 630.315 41.3224 629.444 41.3224H626.447V45.7472ZM640.343 54.2415C639.651 54.2415 639.026 54.1136 638.468 53.858C637.909 53.5975 637.466 53.2211 637.139 52.7287C636.817 52.2363 636.656 51.6326 636.656 50.9176C636.656 50.3021 636.775 49.7955 637.012 49.3977C637.248 49 637.568 48.6851 637.97 48.4531C638.373 48.2211 638.823 48.0459 639.32 47.9276C639.817 47.8092 640.324 47.7192 640.84 47.6577C641.493 47.5819 642.023 47.5204 642.431 47.473C642.838 47.4209 643.134 47.3381 643.318 47.2244C643.503 47.1108 643.595 46.9261 643.595 46.6705V46.6207C643.595 46.0005 643.42 45.5199 643.07 45.179C642.724 44.8381 642.208 44.6676 641.521 44.6676C640.807 44.6676 640.243 44.8262 639.831 45.1435C639.424 45.456 639.142 45.804 638.986 46.1875L636.99 45.733C637.227 45.0701 637.573 44.535 638.027 44.1278C638.486 43.7159 639.014 43.4176 639.611 43.233C640.208 43.0436 640.835 42.9489 641.493 42.9489C641.929 42.9489 642.39 43.0009 642.878 43.1051C643.37 43.2045 643.83 43.3892 644.256 43.6591C644.687 43.929 645.039 44.3149 645.314 44.8168C645.589 45.3139 645.726 45.9602 645.726 46.7557V54H643.652V52.5085H643.567C643.43 52.7831 643.224 53.053 642.949 53.3182C642.674 53.5833 642.322 53.8035 641.891 53.9787C641.46 54.1539 640.944 54.2415 640.343 54.2415ZM640.804 52.5369C641.391 52.5369 641.893 52.4209 642.31 52.1889C642.731 51.9569 643.051 51.6539 643.269 51.2798C643.491 50.901 643.602 50.4962 643.602 50.0653V48.6591C643.527 48.7348 643.38 48.8059 643.162 48.8722C642.949 48.9337 642.705 48.9882 642.431 49.0355C642.156 49.0781 641.888 49.1184 641.628 49.1562C641.368 49.1894 641.15 49.2178 640.975 49.2415C640.563 49.2936 640.186 49.3812 639.845 49.5043C639.509 49.6274 639.239 49.8049 639.036 50.0369C638.837 50.2642 638.737 50.5672 638.737 50.946C638.737 51.4716 638.932 51.8693 639.32 52.1392C639.708 52.4044 640.203 52.5369 640.804 52.5369ZM650.678 47.5227V54H648.555V43.0909H650.593V44.8665H650.728C650.979 44.2888 651.372 43.8248 651.907 43.4744C652.447 43.1241 653.126 42.9489 653.945 42.9489C654.689 42.9489 655.34 43.1051 655.898 43.4176C656.457 43.7254 656.89 44.1847 657.198 44.7955C657.506 45.4062 657.66 46.1615 657.66 47.0611V54H655.536V47.3168C655.536 46.526 655.33 45.9081 654.918 45.4631C654.506 45.0133 653.94 44.7884 653.221 44.7884C652.728 44.7884 652.29 44.8949 651.907 45.108C651.528 45.321 651.227 45.6335 651.005 46.0455C650.787 46.4527 650.678 46.9451 650.678 47.5227ZM662.461 50.2997L662.447 47.7074H662.816L667.162 43.0909H669.705L664.748 48.3466H664.414L662.461 50.2997ZM660.508 54V39.4545H662.631V54H660.508ZM667.397 54L663.491 48.8153L664.954 47.331L670.003 54H667.397ZM611.565 84H609.235L614.47 69.4545H617.005L622.24 84H619.91L615.798 72.0966H615.684L611.565 84ZM611.956 78.304H619.512V80.1506H611.956V78.304ZM628.589 84.2202C627.533 84.2202 626.624 83.9811 625.862 83.5028C625.104 83.0199 624.522 82.3546 624.115 81.5071C623.708 80.6596 623.504 79.6889 623.504 78.5952C623.504 77.4872 623.712 76.5095 624.129 75.6619C624.546 74.8097 625.133 74.1444 625.89 73.6662C626.648 73.188 627.54 72.9489 628.568 72.9489C629.396 72.9489 630.135 73.1027 630.784 73.4105C631.432 73.7135 631.956 74.1397 632.353 74.6889C632.756 75.2382 632.995 75.8797 633.071 76.6136H631.004C630.89 76.1023 630.63 75.6619 630.223 75.2926C629.82 74.9233 629.28 74.7386 628.603 74.7386C628.011 74.7386 627.493 74.8949 627.048 75.2074C626.608 75.5152 626.264 75.9555 626.018 76.5284C625.772 77.0966 625.649 77.7689 625.649 78.5455C625.649 79.3409 625.77 80.0275 626.011 80.6051C626.252 81.1828 626.593 81.6302 627.034 81.9474C627.479 82.2647 628.002 82.4233 628.603 82.4233C629.006 82.4233 629.37 82.3499 629.697 82.2031C630.029 82.0516 630.306 81.8362 630.528 81.5568C630.755 81.2775 630.914 80.9413 631.004 80.5483H633.071C632.995 81.2538 632.765 81.8835 632.382 82.4375C631.998 82.9915 631.484 83.4271 630.841 83.7443C630.201 84.0616 629.451 84.2202 628.589 84.2202ZM639.937 84.2202C638.881 84.2202 637.972 83.9811 637.21 83.5028C636.452 83.0199 635.87 82.3546 635.462 81.5071C635.055 80.6596 634.852 79.6889 634.852 78.5952C634.852 77.4872 635.06 76.5095 635.477 75.6619C635.893 74.8097 636.48 74.1444 637.238 73.6662C637.996 73.188 638.888 72.9489 639.915 72.9489C640.744 72.9489 641.483 73.1027 642.131 73.4105C642.78 73.7135 643.303 74.1397 643.701 74.6889C644.103 75.2382 644.343 75.8797 644.418 76.6136H642.352C642.238 76.1023 641.978 75.6619 641.57 75.2926C641.168 74.9233 640.628 74.7386 639.951 74.7386C639.359 74.7386 638.841 74.8949 638.396 75.2074C637.955 75.5152 637.612 75.9555 637.366 76.5284C637.12 77.0966 636.996 77.7689 636.996 78.5455C636.996 79.3409 637.117 80.0275 637.359 80.6051C637.6 81.1828 637.941 81.6302 638.381 81.9474C638.826 82.2647 639.35 82.4233 639.951 82.4233C640.353 82.4233 640.718 82.3499 641.045 82.2031C641.376 82.0516 641.653 81.8362 641.876 81.5568C642.103 81.2775 642.262 80.9413 642.352 80.5483H644.418C644.343 81.2538 644.113 81.8835 643.729 82.4375C643.346 82.9915 642.832 83.4271 642.188 83.7443C641.549 84.0616 640.799 84.2202 639.937 84.2202Z" fill="black"/>
<rect x="458.568" y="6.41421" width="78" height="78" rx="9" transform="rotate(45 458.568 6.41421)" stroke="#C94040" stroke-width="2"/>
<path d="M442.269 47.1847H440.053C439.968 46.7112 439.809 46.2945 439.577 45.9347C439.345 45.5748 439.061 45.2694 438.725 45.0185C438.389 44.7675 438.012 44.5781 437.596 44.4503C437.184 44.3224 436.746 44.2585 436.282 44.2585C435.444 44.2585 434.693 44.4692 434.03 44.8906C433.372 45.312 432.851 45.9299 432.468 46.7443C432.089 47.5587 431.9 48.553 431.9 49.7273C431.9 50.911 432.089 51.91 432.468 52.7244C432.851 53.5388 433.374 54.1544 434.037 54.571C434.7 54.9877 435.446 55.196 436.275 55.196C436.734 55.196 437.169 55.1345 437.581 55.0114C437.998 54.8835 438.374 54.6965 438.711 54.4503C439.047 54.2041 439.331 53.9034 439.563 53.5483C439.8 53.1884 439.963 52.7765 440.053 52.3125L442.269 52.3196C442.15 53.0346 441.921 53.6927 441.58 54.294C441.244 54.8906 440.81 55.4067 440.28 55.8423C439.755 56.2732 439.153 56.607 438.476 56.8438C437.799 57.0805 437.06 57.1989 436.26 57.1989C435.001 57.1989 433.879 56.9006 432.894 56.304C431.909 55.7027 431.132 54.8433 430.564 53.7259C430.001 52.6084 429.719 51.2756 429.719 49.7273C429.719 48.1742 430.003 46.8414 430.571 45.7287C431.14 44.6113 431.916 43.7543 432.901 43.1577C433.886 42.5563 435.006 42.2557 436.26 42.2557C437.032 42.2557 437.752 42.367 438.419 42.5895C439.092 42.8073 439.695 43.1293 440.23 43.5554C440.766 43.9768 441.208 44.4929 441.559 45.1037C441.909 45.7098 442.146 46.4034 442.269 47.1847ZM446.848 50.5227V57H444.724V42.4545H446.82V47.8665H446.955C447.21 47.2794 447.601 46.813 448.126 46.4673C448.652 46.1217 449.339 45.9489 450.186 45.9489C450.934 45.9489 451.588 46.1027 452.146 46.4105C452.71 46.7183 453.145 47.1776 453.453 47.7884C453.766 48.3944 453.922 49.152 453.922 50.0611V57H451.798V50.3168C451.798 49.5166 451.592 48.8963 451.18 48.456C450.768 48.0109 450.196 47.7884 449.462 47.7884C448.96 47.7884 448.51 47.8949 448.112 48.108C447.719 48.321 447.409 48.6335 447.182 49.0455C446.959 49.4527 446.848 49.9451 446.848 50.5227ZM461.457 57.2202C460.383 57.2202 459.457 56.9905 458.68 56.5312C457.909 56.0672 457.312 55.4162 456.891 54.5781C456.474 53.7353 456.266 52.7481 456.266 51.6165C456.266 50.4991 456.474 49.5142 456.891 48.6619C457.312 47.8097 457.899 47.1444 458.652 46.6662C459.41 46.188 460.295 45.9489 461.308 45.9489C461.924 45.9489 462.52 46.0507 463.098 46.2543C463.676 46.4579 464.194 46.7775 464.653 47.2131C465.113 47.6487 465.475 48.2145 465.74 48.9105C466.005 49.6018 466.138 50.4422 466.138 51.4318V52.1847H457.466V50.5938H464.057C464.057 50.035 463.943 49.5402 463.716 49.1094C463.489 48.6738 463.169 48.3305 462.757 48.0795C462.35 47.8286 461.872 47.7031 461.322 47.7031C460.726 47.7031 460.205 47.8499 459.76 48.1435C459.32 48.4323 458.979 48.8111 458.737 49.2798C458.5 49.7438 458.382 50.2481 458.382 50.7926V52.0355C458.382 52.7647 458.51 53.3849 458.766 53.8963C459.026 54.4077 459.388 54.7983 459.852 55.0682C460.316 55.3333 460.858 55.4659 461.479 55.4659C461.881 55.4659 462.248 55.4091 462.58 55.2955C462.911 55.1771 463.197 55.0019 463.439 54.7699C463.68 54.5379 463.865 54.2514 463.993 53.9105L466.003 54.2727C465.842 54.8646 465.553 55.383 465.136 55.8281C464.724 56.2685 464.206 56.6117 463.581 56.858C462.961 57.0994 462.253 57.2202 461.457 57.2202ZM473.089 57.2202C472.033 57.2202 471.124 56.9811 470.362 56.5028C469.604 56.0199 469.022 55.3546 468.615 54.5071C468.208 53.6596 468.004 52.6889 468.004 51.5952C468.004 50.4872 468.212 49.5095 468.629 48.6619C469.046 47.8097 469.633 47.1444 470.39 46.6662C471.148 46.188 472.04 45.9489 473.068 45.9489C473.896 45.9489 474.635 46.1027 475.284 46.4105C475.932 46.7135 476.456 47.1397 476.853 47.6889C477.256 48.2382 477.495 48.8797 477.571 49.6136H475.504C475.39 49.1023 475.13 48.6619 474.723 48.2926C474.32 47.9233 473.78 47.7386 473.103 47.7386C472.511 47.7386 471.993 47.8949 471.548 48.2074C471.108 48.5152 470.764 48.9555 470.518 49.5284C470.272 50.0966 470.149 50.7689 470.149 51.5455C470.149 52.3409 470.27 53.0275 470.511 53.6051C470.752 54.1828 471.093 54.6302 471.534 54.9474C471.979 55.2647 472.502 55.4233 473.103 55.4233C473.506 55.4233 473.87 55.3499 474.197 55.2031C474.529 55.0516 474.806 54.8362 475.028 54.5568C475.255 54.2775 475.414 53.9413 475.504 53.5483H477.571C477.495 54.2538 477.265 54.8835 476.882 55.4375C476.498 55.9915 475.984 56.4271 475.341 56.7443C474.701 57.0616 473.951 57.2202 473.089 57.2202ZM481.795 53.2997L481.781 50.7074H482.15L486.496 46.0909H489.039L484.082 51.3466H483.748L481.795 53.2997ZM479.842 57V42.4545H481.965V57H479.842ZM486.731 57L482.825 51.8153L484.288 50.331L489.337 57H486.731ZM434.358 82V67.4545H436.552V80.1108H443.143V82H434.358ZM450.072 82.2202C449.049 82.2202 448.156 81.9858 447.394 81.517C446.632 81.0483 446.04 80.3925 445.618 79.5497C445.197 78.7069 444.986 77.7221 444.986 76.5952C444.986 75.4635 445.197 74.474 445.618 73.6264C446.04 72.7789 446.632 72.1207 447.394 71.652C448.156 71.1832 449.049 70.9489 450.072 70.9489C451.094 70.9489 451.987 71.1832 452.749 71.652C453.511 72.1207 454.103 72.7789 454.525 73.6264C454.946 74.474 455.157 75.4635 455.157 76.5952C455.157 77.7221 454.946 78.7069 454.525 79.5497C454.103 80.3925 453.511 81.0483 452.749 81.517C451.987 81.9858 451.094 82.2202 450.072 82.2202ZM450.079 80.4375C450.742 80.4375 451.291 80.2623 451.726 79.9119C452.162 79.5616 452.484 79.0952 452.692 78.5128C452.905 77.9304 453.012 77.2888 453.012 76.5881C453.012 75.892 452.905 75.2528 452.692 74.6705C452.484 74.0833 452.162 73.6122 451.726 73.2571C451.291 72.902 450.742 72.7244 450.079 72.7244C449.411 72.7244 448.857 72.902 448.417 73.2571C447.981 73.6122 447.657 74.0833 447.444 74.6705C447.235 75.2528 447.131 75.892 447.131 76.5881C447.131 77.2888 447.235 77.9304 447.444 78.5128C447.657 79.0952 447.981 79.5616 448.417 79.9119C448.857 80.2623 449.411 80.4375 450.079 80.4375ZM462.101 86.3182C461.235 86.3182 460.489 86.2045 459.864 85.9773C459.244 85.75 458.737 85.4493 458.344 85.0753C457.951 84.7012 457.657 84.2917 457.463 83.8466L459.289 83.0938C459.416 83.3021 459.587 83.5223 459.8 83.7543C460.018 83.991 460.311 84.1922 460.681 84.358C461.055 84.5237 461.535 84.6065 462.122 84.6065C462.927 84.6065 463.593 84.41 464.118 84.017C464.644 83.6288 464.906 83.0085 464.906 82.1562V80.0114H464.771C464.644 80.2434 464.459 80.5014 464.218 80.7855C463.981 81.0696 463.654 81.3158 463.237 81.5241C462.821 81.7325 462.279 81.8366 461.611 81.8366C460.749 81.8366 459.973 81.6354 459.281 81.233C458.595 80.8258 458.05 80.2268 457.648 79.4361C457.25 78.6406 457.051 77.6629 457.051 76.5028C457.051 75.3428 457.248 74.3485 457.641 73.5199C458.039 72.6913 458.583 72.0568 459.274 71.6165C459.966 71.1714 460.749 70.9489 461.625 70.9489C462.302 70.9489 462.849 71.0625 463.266 71.2898C463.682 71.5123 464.007 71.7727 464.239 72.071C464.476 72.3693 464.658 72.6321 464.786 72.8594H464.942V71.0909H467.023V82.2415C467.023 83.179 466.805 83.9484 466.369 84.5497C465.934 85.151 465.344 85.5961 464.601 85.8849C463.862 86.1738 463.029 86.3182 462.101 86.3182ZM462.08 80.0753C462.691 80.0753 463.207 79.9332 463.628 79.6491C464.054 79.3603 464.376 78.9484 464.594 78.4134C464.816 77.8736 464.928 77.2273 464.928 76.4744C464.928 75.7405 464.819 75.0942 464.601 74.5355C464.383 73.9768 464.064 73.5412 463.642 73.2287C463.221 72.9115 462.7 72.7528 462.08 72.7528C461.441 72.7528 460.908 72.9186 460.482 73.25C460.056 73.5767 459.734 74.0218 459.516 74.5852C459.303 75.1487 459.196 75.7784 459.196 76.4744C459.196 77.1894 459.305 77.8168 459.523 78.3565C459.741 78.8963 460.063 79.3177 460.489 79.6207C460.92 79.9238 461.45 80.0753 462.08 80.0753ZM469.871 82V71.0909H471.994V82H469.871ZM470.943 69.4077C470.574 69.4077 470.257 69.2846 469.992 69.0384C469.731 68.7874 469.601 68.4891 469.601 68.1435C469.601 67.7931 469.731 67.4948 469.992 67.2486C470.257 66.9976 470.574 66.8722 470.943 66.8722C471.313 66.8722 471.628 66.9976 471.888 67.2486C472.153 67.4948 472.286 67.7931 472.286 68.1435C472.286 68.4891 472.153 68.7874 471.888 69.0384C471.628 69.2846 471.313 69.4077 470.943 69.4077ZM476.975 75.5227V82H474.851V71.0909H476.89V72.8665H477.025C477.276 72.2888 477.669 71.8248 478.204 71.4744C478.743 71.1241 479.423 70.9489 480.242 70.9489C480.985 70.9489 481.636 71.1051 482.195 71.4176C482.754 71.7254 483.187 72.1847 483.495 72.7955C483.803 73.4062 483.956 74.1615 483.956 75.0611V82H481.833V75.3168C481.833 74.526 481.627 73.9081 481.215 73.4631C480.803 73.0133 480.237 72.7884 479.518 72.7884C479.025 72.7884 478.587 72.8949 478.204 73.108C477.825 73.321 477.524 73.6335 477.302 74.0455C477.084 74.4527 476.975 74.9451 476.975 75.5227Z" fill="#6F6F6F"/>
<rect x="744" y="23" width="148" height="78" rx="7" stroke="black" stroke-width="2"/>
<path d="M778.856 69V54.4545H784.04C785.172 54.4545 786.11 54.6605 786.853 55.0724C787.596 55.4844 788.153 56.0478 788.522 56.7628C788.891 57.473 789.076 58.2732 789.076 59.1634C789.076 60.0582 788.889 60.8632 788.515 61.5781C788.146 62.2884 787.587 62.8518 786.839 63.2685C786.095 63.6804 785.16 63.8864 784.033 63.8864H780.468V62.0256H783.835C784.549 62.0256 785.129 61.9025 785.575 61.6562C786.02 61.4053 786.346 61.0644 786.555 60.6335C786.763 60.2027 786.867 59.7126 786.867 59.1634C786.867 58.6141 786.763 58.1264 786.555 57.7003C786.346 57.2741 786.017 56.9403 785.567 56.6989C785.122 56.4574 784.535 56.3366 783.806 56.3366H781.05V69H778.856ZM795.937 69.2202C794.914 69.2202 794.022 68.9858 793.259 68.517C792.497 68.0483 791.905 67.3925 791.484 66.5497C791.062 65.7069 790.852 64.7221 790.852 63.5952C790.852 62.4635 791.062 61.474 791.484 60.6264C791.905 59.7789 792.497 59.1207 793.259 58.652C794.022 58.1832 794.914 57.9489 795.937 57.9489C796.96 57.9489 797.852 58.1832 798.614 58.652C799.377 59.1207 799.969 59.7789 800.39 60.6264C800.811 61.474 801.022 62.4635 801.022 63.5952C801.022 64.7221 800.811 65.7069 800.39 66.5497C799.969 67.3925 799.377 68.0483 798.614 68.517C797.852 68.9858 796.96 69.2202 795.937 69.2202ZM795.944 67.4375C796.607 67.4375 797.156 67.2623 797.592 66.9119C798.027 66.5616 798.349 66.0952 798.558 65.5128C798.771 64.9304 798.877 64.2888 798.877 63.5881C798.877 62.892 798.771 62.2528 798.558 61.6705C798.349 61.0833 798.027 60.6122 797.592 60.2571C797.156 59.902 796.607 59.7244 795.944 59.7244C795.276 59.7244 794.722 59.902 794.282 60.2571C793.846 60.6122 793.522 61.0833 793.309 61.6705C793.101 62.2528 792.996 62.892 792.996 63.5881C792.996 64.2888 793.101 64.9304 793.309 65.5128C793.522 66.0952 793.846 66.5616 794.282 66.9119C794.722 67.2623 795.276 67.4375 795.944 67.4375ZM803.392 69V58.0909H805.445V59.8239H805.559C805.757 59.2367 806.108 58.7751 806.61 58.4389C807.116 58.098 807.689 57.9276 808.328 57.9276C808.461 57.9276 808.617 57.9323 808.797 57.9418C808.982 57.9512 809.126 57.9631 809.23 57.9773V60.0085C809.145 59.9848 808.994 59.9588 808.776 59.9304C808.558 59.8973 808.34 59.8807 808.123 59.8807C807.621 59.8807 807.173 59.9872 806.78 60.2003C806.392 60.4086 806.084 60.6998 805.857 61.0739C805.63 61.4432 805.516 61.8646 805.516 62.3381V69H803.392ZM816.805 58.0909V59.7955H810.846V58.0909H816.805ZM812.444 55.4773H814.568V65.7969C814.568 66.2088 814.629 66.5189 814.752 66.7273C814.876 66.9309 815.034 67.0705 815.228 67.1463C815.427 67.2173 815.643 67.2528 815.875 67.2528C816.045 67.2528 816.194 67.241 816.322 67.2173C816.45 67.1937 816.549 67.1747 816.62 67.1605L817.004 68.9148C816.881 68.9621 816.706 69.0095 816.478 69.0568C816.251 69.1089 815.967 69.1373 815.626 69.142C815.067 69.1515 814.547 69.0521 814.064 68.8438C813.581 68.6354 813.19 68.3134 812.892 67.8778C812.593 67.4422 812.444 66.8954 812.444 66.2372V55.4773ZM824.346 58.0909V59.7955H818.181V58.0909H824.346ZM819.871 69V56.8267C819.871 56.1449 820.021 55.5791 820.319 55.1293C820.617 54.6747 821.013 54.3362 821.505 54.1136C821.997 53.8864 822.532 53.7727 823.11 53.7727C823.536 53.7727 823.901 53.8082 824.204 53.8793C824.507 53.9455 824.732 54.0071 824.879 54.0639L824.381 55.7827C824.282 55.7543 824.154 55.7211 823.998 55.6832C823.842 55.6406 823.652 55.6193 823.43 55.6193C822.914 55.6193 822.544 55.7472 822.322 56.0028C822.104 56.2585 821.995 56.6278 821.995 57.1108V69H819.871ZM830.702 69.2202C829.68 69.2202 828.787 68.9858 828.025 68.517C827.263 68.0483 826.671 67.3925 826.249 66.5497C825.828 65.7069 825.617 64.7221 825.617 63.5952C825.617 62.4635 825.828 61.474 826.249 60.6264C826.671 59.7789 827.263 59.1207 828.025 58.652C828.787 58.1832 829.68 57.9489 830.702 57.9489C831.725 57.9489 832.618 58.1832 833.38 58.652C834.142 59.1207 834.734 59.7789 835.156 60.6264C835.577 61.474 835.788 62.4635 835.788 63.5952C835.788 64.7221 835.577 65.7069 835.156 66.5497C834.734 67.3925 834.142 68.0483 833.38 68.517C832.618 68.9858 831.725 69.2202 830.702 69.2202ZM830.71 67.4375C831.372 67.4375 831.922 67.2623 832.357 66.9119C832.793 66.5616 833.115 66.0952 833.323 65.5128C833.536 64.9304 833.643 64.2888 833.643 63.5881C833.643 62.892 833.536 62.2528 833.323 61.6705C833.115 61.0833 832.793 60.6122 832.357 60.2571C831.922 59.902 831.372 59.7244 830.71 59.7244C830.042 59.7244 829.488 59.902 829.048 60.2571C828.612 60.6122 828.288 61.0833 828.075 61.6705C827.866 62.2528 827.762 62.892 827.762 63.5881C827.762 64.2888 827.866 64.9304 828.075 65.5128C828.288 66.0952 828.612 66.5616 829.048 66.9119C829.488 67.2623 830.042 67.4375 830.71 67.4375ZM840.282 54.4545V69H838.158V54.4545H840.282ZM843.138 69V58.0909H845.262V69H843.138ZM844.211 56.4077C843.842 56.4077 843.524 56.2846 843.259 56.0384C842.999 55.7874 842.869 55.4891 842.869 55.1435C842.869 54.7931 842.999 54.4948 843.259 54.2486C843.524 53.9976 843.842 53.8722 844.211 53.8722C844.58 53.8722 844.895 53.9976 845.156 54.2486C845.421 54.4948 845.553 54.7931 845.553 55.1435C845.553 55.4891 845.421 55.7874 845.156 56.0384C844.895 56.2846 844.58 56.4077 844.211 56.4077ZM852.714 69.2202C851.691 69.2202 850.799 68.9858 850.037 68.517C849.274 68.0483 848.682 67.3925 848.261 66.5497C847.84 65.7069 847.629 64.7221 847.629 63.5952C847.629 62.4635 847.84 61.474 848.261 60.6264C848.682 59.7789 849.274 59.1207 850.037 58.652C850.799 58.1832 851.691 57.9489 852.714 57.9489C853.737 57.9489 854.629 58.1832 855.392 58.652C856.154 59.1207 856.746 59.7789 857.167 60.6264C857.589 61.474 857.799 62.4635 857.799 63.5952C857.799 64.7221 857.589 65.7069 857.167 66.5497C856.746 67.3925 856.154 68.0483 855.392 68.517C854.629 68.9858 853.737 69.2202 852.714 69.2202ZM852.721 67.4375C853.384 67.4375 853.933 67.2623 854.369 66.9119C854.805 66.5616 855.127 66.0952 855.335 65.5128C855.548 64.9304 855.654 64.2888 855.654 63.5881C855.654 62.892 855.548 62.2528 855.335 61.6705C855.127 61.0833 854.805 60.6122 854.369 60.2571C853.933 59.902 853.384 59.7244 852.721 59.7244C852.054 59.7244 851.5 59.902 851.059 60.2571C850.624 60.6122 850.299 61.0833 850.086 61.6705C849.878 62.2528 849.774 62.892 849.774 63.5881C849.774 64.2888 849.878 64.9304 850.086 65.5128C850.299 66.0952 850.624 66.5616 851.059 66.9119C851.5 67.2623 852.054 67.4375 852.721 67.4375Z" fill="black"/>
</svg>
