<svg width="1300" height="124" viewBox="0 0 1300 124" fill="none" xmlns="http://www.w3.org/2000/svg">
<rect width="1300" height="124" fill="white"/>
<rect x="26" y="23" width="148" height="78" rx="7" fill="black" stroke="black" stroke-width="2"/>
<path d="M85.8008 58.2756C85.725 57.6032 85.4125 57.0824 84.8633 56.7131C84.314 56.339 83.6228 56.152 82.7894 56.152C82.1928 56.152 81.6767 56.2467 81.2411 56.4361C80.8055 56.6207 80.467 56.8764 80.2255 57.2031C79.9888 57.5251 79.8704 57.892 79.8704 58.304C79.8704 58.6496 79.9509 58.9479 80.1119 59.1989C80.2776 59.4498 80.493 59.6605 80.7582 59.831C81.0281 59.9967 81.3169 60.1364 81.6246 60.25C81.9324 60.3589 82.2283 60.4489 82.5124 60.5199L83.9329 60.8892C84.3969 61.0028 84.8728 61.1567 85.3604 61.3509C85.8481 61.545 86.3003 61.8007 86.717 62.1179C87.1336 62.4351 87.4698 62.8281 87.7255 63.2969C87.9859 63.7656 88.1161 64.3267 88.1161 64.9801C88.1161 65.804 87.9031 66.5355 87.4769 67.1747C87.0555 67.8139 86.4424 68.3182 85.6374 68.6875C84.8372 69.0568 83.869 69.2415 82.7326 69.2415C81.6436 69.2415 80.7013 69.0687 79.9059 68.723C79.1104 68.3774 78.4878 67.8873 78.038 67.2528C77.5882 66.6136 77.3396 65.8561 77.2923 64.9801H79.494C79.5366 65.5057 79.707 65.9437 80.0053 66.294C80.3084 66.6397 80.6942 66.8977 81.163 67.0682C81.6365 67.2339 82.1549 67.3168 82.7184 67.3168C83.3387 67.3168 83.8903 67.2197 84.3732 67.0256C84.8609 66.8267 85.2444 66.5521 85.5238 66.2017C85.8031 65.8466 85.9428 65.4323 85.9428 64.9588C85.9428 64.5279 85.8197 64.1752 85.5735 63.9006C85.332 63.6259 85.003 63.3987 84.5863 63.2188C84.1744 63.0388 83.708 62.8802 83.1871 62.7429L81.4684 62.2741C80.3036 61.9569 79.3803 61.4905 78.6985 60.875C78.0214 60.2595 77.6829 59.4451 77.6829 58.4318C77.6829 57.5937 77.9102 56.8622 78.3647 56.2372C78.8192 55.6122 79.4348 55.1269 80.2113 54.7812C80.9878 54.4309 81.8638 54.2557 82.8391 54.2557C83.824 54.2557 84.6928 54.4285 85.4457 54.7741C86.2032 55.1198 86.7998 55.5956 87.2354 56.2017C87.671 56.803 87.8983 57.4943 87.9173 58.2756H85.8008ZM95.6605 58.0909V59.7955H89.7017V58.0909H95.6605ZM91.2997 55.4773H93.4233V65.7969C93.4233 66.2088 93.4848 66.5189 93.608 66.7273C93.7311 66.9309 93.8897 67.0705 94.0838 67.1463C94.2827 67.2173 94.4981 67.2528 94.7301 67.2528C94.9006 67.2528 95.0497 67.241 95.1776 67.2173C95.3054 67.1937 95.4048 67.1747 95.4759 67.1605L95.8594 68.9148C95.7363 68.9621 95.5611 69.0095 95.3338 69.0568C95.1065 69.1089 94.8224 69.1373 94.4815 69.142C93.9228 69.1515 93.402 69.0521 92.919 68.8438C92.4361 68.6354 92.0455 68.3134 91.7472 67.8778C91.4489 67.4422 91.2997 66.8954 91.2997 66.2372V55.4773ZM101.184 69.2415C100.493 69.2415 99.868 69.1136 99.3093 68.858C98.7506 68.5975 98.3079 68.2211 97.9812 67.7287C97.6592 67.2363 97.4982 66.6326 97.4982 65.9176C97.4982 65.3021 97.6166 64.7955 97.8533 64.3977C98.0901 64 98.4097 63.6851 98.8121 63.4531C99.2146 63.2211 99.6644 63.0459 100.162 62.9276C100.659 62.8092 101.165 62.7192 101.681 62.6577C102.335 62.5819 102.865 62.5204 103.272 62.473C103.68 62.4209 103.975 62.3381 104.16 62.2244C104.345 62.1108 104.437 61.9261 104.437 61.6705V61.6207C104.437 61.0005 104.262 60.5199 103.912 60.179C103.566 59.8381 103.05 59.6676 102.363 59.6676C101.648 59.6676 101.085 59.8262 100.673 60.1435C100.266 60.456 99.984 60.804 99.8278 61.1875L97.832 60.733C98.0688 60.0701 98.4144 59.535 98.869 59.1278C99.3282 58.7159 99.8562 58.4176 100.453 58.233C101.049 58.0436 101.677 57.9489 102.335 57.9489C102.77 57.9489 103.232 58.0009 103.72 58.1051C104.212 58.2045 104.672 58.3892 105.098 58.6591C105.529 58.929 105.881 59.3149 106.156 59.8168C106.431 60.3139 106.568 60.9602 106.568 61.7557V69H104.494V67.5085H104.409C104.271 67.7831 104.065 68.053 103.791 68.3182C103.516 68.5833 103.163 68.8035 102.733 68.9787C102.302 69.1539 101.786 69.2415 101.184 69.2415ZM101.646 67.5369C102.233 67.5369 102.735 67.4209 103.152 67.1889C103.573 66.9569 103.893 66.6539 104.11 66.2798C104.333 65.901 104.444 65.4962 104.444 65.0653V63.6591C104.368 63.7348 104.222 63.8059 104.004 63.8722C103.791 63.9337 103.547 63.9882 103.272 64.0355C102.998 64.0781 102.73 64.1184 102.47 64.1562C102.209 64.1894 101.992 64.2178 101.816 64.2415C101.404 64.2936 101.028 64.3812 100.687 64.5043C100.351 64.6274 100.081 64.8049 99.8775 65.0369C99.6786 65.2642 99.5792 65.5672 99.5792 65.946C99.5792 66.4716 99.7733 66.8693 100.162 67.1392C100.55 67.4044 101.045 67.5369 101.646 67.5369ZM109.396 69V58.0909H111.449V59.8239H111.562C111.761 59.2367 112.112 58.7751 112.614 58.4389C113.12 58.098 113.693 57.9276 114.332 57.9276C114.465 57.9276 114.621 57.9323 114.801 57.9418C114.986 57.9512 115.13 57.9631 115.234 57.9773V60.0085C115.149 59.9848 114.998 59.9588 114.78 59.9304C114.562 59.8973 114.344 59.8807 114.126 59.8807C113.625 59.8807 113.177 59.9872 112.784 60.2003C112.396 60.4086 112.088 60.6998 111.861 61.0739C111.634 61.4432 111.52 61.8646 111.52 62.3381V69H109.396ZM122.809 58.0909V59.7955H116.85V58.0909H122.809ZM118.448 55.4773H120.572V65.7969C120.572 66.2088 120.633 66.5189 120.756 66.7273C120.879 66.9309 121.038 67.0705 121.232 67.1463C121.431 67.2173 121.647 67.2528 121.879 67.2528C122.049 67.2528 122.198 67.241 122.326 67.2173C122.454 67.1937 122.553 67.1747 122.624 67.1605L123.008 68.9148C122.885 68.9621 122.71 69.0095 122.482 69.0568C122.255 69.1089 121.971 69.1373 121.63 69.142C121.071 69.1515 120.55 69.0521 120.067 68.8438C119.585 68.6354 119.194 68.3134 118.896 67.8778C118.597 67.4422 118.448 66.8954 118.448 66.2372V55.4773Z" fill="white"/>
<rect x="217" y="23" width="148" height="78" rx="7" stroke="black" stroke-width="2"/>
<path d="M266.789 69V54.4545H268.984V67.1108H275.575V69H266.789ZM282.503 69.2202C281.48 69.2202 280.588 68.9858 279.826 68.517C279.063 68.0483 278.471 67.3925 278.05 66.5497C277.629 65.7069 277.418 64.7221 277.418 63.5952C277.418 62.4635 277.629 61.474 278.05 60.6264C278.471 59.7789 279.063 59.1207 279.826 58.652C280.588 58.1832 281.48 57.9489 282.503 57.9489C283.526 57.9489 284.418 58.1832 285.181 58.652C285.943 59.1207 286.535 59.7789 286.956 60.6264C287.378 61.474 287.588 62.4635 287.588 63.5952C287.588 64.7221 287.378 65.7069 286.956 66.5497C286.535 67.3925 285.943 68.0483 285.181 68.517C284.418 68.9858 283.526 69.2202 282.503 69.2202ZM282.51 67.4375C283.173 67.4375 283.722 67.2623 284.158 66.9119C284.594 66.5616 284.916 66.0952 285.124 65.5128C285.337 64.9304 285.444 64.2888 285.444 63.5881C285.444 62.892 285.337 62.2528 285.124 61.6705C284.916 61.0833 284.594 60.6122 284.158 60.2571C283.722 59.902 283.173 59.7244 282.51 59.7244C281.843 59.7244 281.289 59.902 280.848 60.2571C280.413 60.6122 280.088 61.0833 279.875 61.6705C279.667 62.2528 279.563 62.892 279.563 63.5881C279.563 64.2888 279.667 64.9304 279.875 65.5128C280.088 66.0952 280.413 66.5616 280.848 66.9119C281.289 67.2623 281.843 67.4375 282.51 67.4375ZM294.533 73.3182C293.666 73.3182 292.92 73.2045 292.295 72.9773C291.675 72.75 291.169 72.4493 290.776 72.0753C290.383 71.7012 290.089 71.2917 289.895 70.8466L291.72 70.0938C291.848 70.3021 292.018 70.5223 292.232 70.7543C292.449 70.991 292.743 71.1922 293.112 71.358C293.486 71.5237 293.967 71.6065 294.554 71.6065C295.359 71.6065 296.024 71.41 296.55 71.017C297.075 70.6288 297.338 70.0085 297.338 69.1562V67.0114H297.203C297.075 67.2434 296.891 67.5014 296.649 67.7855C296.412 68.0696 296.086 68.3158 295.669 68.5241C295.252 68.7325 294.71 68.8366 294.043 68.8366C293.181 68.8366 292.404 68.6354 291.713 68.233C291.027 67.8258 290.482 67.2268 290.08 66.4361C289.682 65.6406 289.483 64.6629 289.483 63.5028C289.483 62.3428 289.679 61.3485 290.072 60.5199C290.47 59.6913 291.015 59.0568 291.706 58.6165C292.397 58.1714 293.181 57.9489 294.057 57.9489C294.734 57.9489 295.281 58.0625 295.697 58.2898C296.114 58.5123 296.438 58.7727 296.67 59.071C296.907 59.3693 297.089 59.6321 297.217 59.8594H297.374V58.0909H299.455V69.2415C299.455 70.179 299.237 70.9484 298.801 71.5497C298.366 72.151 297.776 72.5961 297.033 72.8849C296.294 73.1738 295.461 73.3182 294.533 73.3182ZM294.511 67.0753C295.122 67.0753 295.638 66.9332 296.06 66.6491C296.486 66.3603 296.808 65.9484 297.026 65.4134C297.248 64.8736 297.359 64.2273 297.359 63.4744C297.359 62.7405 297.25 62.0942 297.033 61.5355C296.815 60.9768 296.495 60.5412 296.074 60.2287C295.652 59.9115 295.132 59.7528 294.511 59.7528C293.872 59.7528 293.339 59.9186 292.913 60.25C292.487 60.5767 292.165 61.0218 291.947 61.5852C291.734 62.1487 291.628 62.7784 291.628 63.4744C291.628 64.1894 291.737 64.8168 291.955 65.3565C292.172 65.8963 292.494 66.3177 292.92 66.6207C293.351 66.9238 293.882 67.0753 294.511 67.0753ZM302.303 69V58.0909H304.426V69H302.303ZM303.375 56.4077C303.006 56.4077 302.688 56.2846 302.423 56.0384C302.163 55.7874 302.033 55.4891 302.033 55.1435C302.033 54.7931 302.163 54.4948 302.423 54.2486C302.688 53.9976 303.006 53.8722 303.375 53.8722C303.744 53.8722 304.059 53.9976 304.32 54.2486C304.585 54.4948 304.717 54.7931 304.717 55.1435C304.717 55.4891 304.585 55.7874 304.32 56.0384C304.059 56.2846 303.744 56.4077 303.375 56.4077ZM309.407 62.5227V69H307.283V58.0909H309.321V59.8665H309.456C309.707 59.2888 310.1 58.8248 310.635 58.4744C311.175 58.1241 311.855 57.9489 312.674 57.9489C313.417 57.9489 314.068 58.1051 314.627 58.4176C315.185 58.7254 315.619 59.1847 315.926 59.7955C316.234 60.4062 316.388 61.1615 316.388 62.0611V69H314.265V62.3168C314.265 61.526 314.059 60.9081 313.647 60.4631C313.235 60.0133 312.669 59.7884 311.949 59.7884C311.457 59.7884 311.019 59.8949 310.635 60.108C310.257 60.321 309.956 60.6335 309.733 61.0455C309.516 61.4527 309.407 61.9451 309.407 62.5227Z" fill="black"/>
<path d="M215.707 62.7071C216.098 62.3166 216.098 61.6834 215.707 61.2929L209.343 54.9289C208.953 54.5384 208.319 54.5384 207.929 54.9289C207.538 55.3195 207.538 55.9526 207.929 56.3431L213.586 62L207.929 67.6569C207.538 68.0474 207.538 68.6805 207.929 69.0711C208.319 69.4616 208.953 69.4616 209.343 69.0711L215.707 62.7071ZM175 63H215V61H175V63Z" fill="black"/>
<path d="M405.707 62.7071C406.098 62.3166 406.098 61.6834 405.707 61.2929L399.343 54.9289C398.953 54.5384 398.319 54.5384 397.929 54.9289C397.538 55.3195 397.538 55.9526 397.929 56.3431L403.586 62L397.929 67.6569C397.538 68.0474 397.538 68.6805 397.929 69.0711C398.319 69.4616 398.953 69.4616 399.343 69.0711L405.707 62.7071ZM365 63H405V61H365V63Z" fill="black"/>
<rect x="458.568" y="6.41421" width="78" height="78" rx="9" transform="rotate(45 458.568 6.41421)" stroke="#C94040" stroke-width="2"/>
<path d="M442.269 47.1847H440.053C439.968 46.7112 439.809 46.2945 439.577 45.9347C439.345 45.5748 439.061 45.2694 438.725 45.0185C438.389 44.7675 438.012 44.5781 437.596 44.4503C437.184 44.3224 436.746 44.2585 436.282 44.2585C435.444 44.2585 434.693 44.4692 434.03 44.8906C433.372 45.312 432.851 45.9299 432.468 46.7443C432.089 47.5587 431.9 48.553 431.9 49.7273C431.9 50.911 432.089 51.91 432.468 52.7244C432.851 53.5388 433.374 54.1544 434.037 54.571C434.7 54.9877 435.446 55.196 436.275 55.196C436.734 55.196 437.169 55.1345 437.581 55.0114C437.998 54.8835 438.374 54.6965 438.711 54.4503C439.047 54.2041 439.331 53.9034 439.563 53.5483C439.8 53.1884 439.963 52.7765 440.053 52.3125L442.269 52.3196C442.15 53.0346 441.921 53.6927 441.58 54.294C441.244 54.8906 440.81 55.4067 440.28 55.8423C439.755 56.2732 439.153 56.607 438.476 56.8438C437.799 57.0805 437.06 57.1989 436.26 57.1989C435.001 57.1989 433.879 56.9006 432.894 56.304C431.909 55.7027 431.132 54.8433 430.564 53.7259C430.001 52.6084 429.719 51.2756 429.719 49.7273C429.719 48.1742 430.003 46.8414 430.571 45.7287C431.14 44.6113 431.916 43.7543 432.901 43.1577C433.886 42.5563 435.006 42.2557 436.26 42.2557C437.032 42.2557 437.752 42.367 438.419 42.5895C439.092 42.8073 439.695 43.1293 440.23 43.5554C440.766 43.9768 441.208 44.4929 441.559 45.1037C441.909 45.7098 442.146 46.4034 442.269 47.1847ZM446.848 50.5227V57H444.724V42.4545H446.82V47.8665H446.955C447.21 47.2794 447.601 46.813 448.126 46.4673C448.652 46.1217 449.339 45.9489 450.186 45.9489C450.934 45.9489 451.588 46.1027 452.146 46.4105C452.71 46.7183 453.145 47.1776 453.453 47.7884C453.766 48.3944 453.922 49.152 453.922 50.0611V57H451.798V50.3168C451.798 49.5166 451.592 48.8963 451.18 48.456C450.768 48.0109 450.196 47.7884 449.462 47.7884C448.96 47.7884 448.51 47.8949 448.112 48.108C447.719 48.321 447.409 48.6335 447.182 49.0455C446.959 49.4527 446.848 49.9451 446.848 50.5227ZM461.457 57.2202C460.383 57.2202 459.457 56.9905 458.68 56.5312C457.909 56.0672 457.312 55.4162 456.891 54.5781C456.474 53.7353 456.266 52.7481 456.266 51.6165C456.266 50.4991 456.474 49.5142 456.891 48.6619C457.312 47.8097 457.899 47.1444 458.652 46.6662C459.41 46.188 460.295 45.9489 461.308 45.9489C461.924 45.9489 462.52 46.0507 463.098 46.2543C463.676 46.4579 464.194 46.7775 464.653 47.2131C465.113 47.6487 465.475 48.2145 465.74 48.9105C466.005 49.6018 466.138 50.4422 466.138 51.4318V52.1847H457.466V50.5938H464.057C464.057 50.035 463.943 49.5402 463.716 49.1094C463.489 48.6738 463.169 48.3305 462.757 48.0795C462.35 47.8286 461.872 47.7031 461.322 47.7031C460.726 47.7031 460.205 47.8499 459.76 48.1435C459.32 48.4323 458.979 48.8111 458.737 49.2798C458.5 49.7438 458.382 50.2481 458.382 50.7926V52.0355C458.382 52.7647 458.51 53.3849 458.766 53.8963C459.026 54.4077 459.388 54.7983 459.852 55.0682C460.316 55.3333 460.858 55.4659 461.479 55.4659C461.881 55.4659 462.248 55.4091 462.58 55.2955C462.911 55.1771 463.197 55.0019 463.439 54.7699C463.68 54.5379 463.865 54.2514 463.993 53.9105L466.003 54.2727C465.842 54.8646 465.553 55.383 465.136 55.8281C464.724 56.2685 464.206 56.6117 463.581 56.858C462.961 57.0994 462.253 57.2202 461.457 57.2202ZM473.089 57.2202C472.033 57.2202 471.124 56.9811 470.362 56.5028C469.604 56.0199 469.022 55.3546 468.615 54.5071C468.208 53.6596 468.004 52.6889 468.004 51.5952C468.004 50.4872 468.212 49.5095 468.629 48.6619C469.046 47.8097 469.633 47.1444 470.39 46.6662C471.148 46.188 472.04 45.9489 473.068 45.9489C473.896 45.9489 474.635 46.1027 475.284 46.4105C475.932 46.7135 476.456 47.1397 476.853 47.6889C477.256 48.2382 477.495 48.8797 477.571 49.6136H475.504C475.39 49.1023 475.13 48.6619 474.723 48.2926C474.32 47.9233 473.78 47.7386 473.103 47.7386C472.511 47.7386 471.993 47.8949 471.548 48.2074C471.108 48.5152 470.764 48.9555 470.518 49.5284C470.272 50.0966 470.149 50.7689 470.149 51.5455C470.149 52.3409 470.27 53.0275 470.511 53.6051C470.752 54.1828 471.093 54.6302 471.534 54.9474C471.979 55.2647 472.502 55.4233 473.103 55.4233C473.506 55.4233 473.87 55.3499 474.197 55.2031C474.529 55.0516 474.806 54.8362 475.028 54.5568C475.255 54.2775 475.414 53.9413 475.504 53.5483H477.571C477.495 54.2538 477.265 54.8835 476.882 55.4375C476.498 55.9915 475.984 56.4271 475.341 56.7443C474.701 57.0616 473.951 57.2202 473.089 57.2202ZM481.795 53.2997L481.781 50.7074H482.15L486.496 46.0909H489.039L484.082 51.3466H483.748L481.795 53.2997ZM479.842 57V42.4545H481.965V57H479.842ZM486.731 57L482.825 51.8153L484.288 50.331L489.337 57H486.731ZM434.358 82V67.4545H436.552V80.1108H443.143V82H434.358ZM450.072 82.2202C449.049 82.2202 448.156 81.9858 447.394 81.517C446.632 81.0483 446.04 80.3925 445.618 79.5497C445.197 78.7069 444.986 77.7221 444.986 76.5952C444.986 75.4635 445.197 74.474 445.618 73.6264C446.04 72.7789 446.632 72.1207 447.394 71.652C448.156 71.1832 449.049 70.9489 450.072 70.9489C451.094 70.9489 451.987 71.1832 452.749 71.652C453.511 72.1207 454.103 72.7789 454.525 73.6264C454.946 74.474 455.157 75.4635 455.157 76.5952C455.157 77.7221 454.946 78.7069 454.525 79.5497C454.103 80.3925 453.511 81.0483 452.749 81.517C451.987 81.9858 451.094 82.2202 450.072 82.2202ZM450.079 80.4375C450.742 80.4375 451.291 80.2623 451.726 79.9119C452.162 79.5616 452.484 79.0952 452.692 78.5128C452.905 77.9304 453.012 77.2888 453.012 76.5881C453.012 75.892 452.905 75.2528 452.692 74.6705C452.484 74.0833 452.162 73.6122 451.726 73.2571C451.291 72.902 450.742 72.7244 450.079 72.7244C449.411 72.7244 448.857 72.902 448.417 73.2571C447.981 73.6122 447.657 74.0833 447.444 74.6705C447.235 75.2528 447.131 75.892 447.131 76.5881C447.131 77.2888 447.235 77.9304 447.444 78.5128C447.657 79.0952 447.981 79.5616 448.417 79.9119C448.857 80.2623 449.411 80.4375 450.079 80.4375ZM462.101 86.3182C461.235 86.3182 460.489 86.2045 459.864 85.9773C459.244 85.75 458.737 85.4493 458.344 85.0753C457.951 84.7012 457.657 84.2917 457.463 83.8466L459.289 83.0938C459.416 83.3021 459.587 83.5223 459.8 83.7543C460.018 83.991 460.311 84.1922 460.681 84.358C461.055 84.5237 461.535 84.6065 462.122 84.6065C462.927 84.6065 463.593 84.41 464.118 84.017C464.644 83.6288 464.906 83.0085 464.906 82.1562V80.0114H464.771C464.644 80.2434 464.459 80.5014 464.218 80.7855C463.981 81.0696 463.654 81.3158 463.237 81.5241C462.821 81.7325 462.279 81.8366 461.611 81.8366C460.749 81.8366 459.973 81.6354 459.281 81.233C458.595 80.8258 458.05 80.2268 457.648 79.4361C457.25 78.6406 457.051 77.6629 457.051 76.5028C457.051 75.3428 457.248 74.3485 457.641 73.5199C458.039 72.6913 458.583 72.0568 459.274 71.6165C459.966 71.1714 460.749 70.9489 461.625 70.9489C462.302 70.9489 462.849 71.0625 463.266 71.2898C463.682 71.5123 464.007 71.7727 464.239 72.071C464.476 72.3693 464.658 72.6321 464.786 72.8594H464.942V71.0909H467.023V82.2415C467.023 83.179 466.805 83.9484 466.369 84.5497C465.934 85.151 465.344 85.5961 464.601 85.8849C463.862 86.1738 463.029 86.3182 462.101 86.3182ZM462.08 80.0753C462.691 80.0753 463.207 79.9332 463.628 79.6491C464.054 79.3603 464.376 78.9484 464.594 78.4134C464.816 77.8736 464.928 77.2273 464.928 76.4744C464.928 75.7405 464.819 75.0942 464.601 74.5355C464.383 73.9768 464.064 73.5412 463.642 73.2287C463.221 72.9115 462.7 72.7528 462.08 72.7528C461.441 72.7528 460.908 72.9186 460.482 73.25C460.056 73.5767 459.734 74.0218 459.516 74.5852C459.303 75.1487 459.196 75.7784 459.196 76.4744C459.196 77.1894 459.305 77.8168 459.523 78.3565C459.741 78.8963 460.063 79.3177 460.489 79.6207C460.92 79.9238 461.45 80.0753 462.08 80.0753ZM469.871 82V71.0909H471.994V82H469.871ZM470.943 69.4077C470.574 69.4077 470.257 69.2846 469.992 69.0384C469.731 68.7874 469.601 68.4891 469.601 68.1435C469.601 67.7931 469.731 67.4948 469.992 67.2486C470.257 66.9976 470.574 66.8722 470.943 66.8722C471.313 66.8722 471.628 66.9976 471.888 67.2486C472.153 67.4948 472.286 67.7931 472.286 68.1435C472.286 68.4891 472.153 68.7874 471.888 69.0384C471.628 69.2846 471.313 69.4077 470.943 69.4077ZM476.975 75.5227V82H474.851V71.0909H476.89V72.8665H477.025C477.276 72.2888 477.669 71.8248 478.204 71.4744C478.743 71.1241 479.423 70.9489 480.242 70.9489C480.985 70.9489 481.636 71.1051 482.195 71.4176C482.754 71.7254 483.187 72.1847 483.495 72.7955C483.803 73.4062 483.956 74.1615 483.956 75.0611V82H481.833V75.3168C481.833 74.526 481.627 73.9081 481.215 73.4631C480.803 73.0133 480.237 72.7884 479.518 72.7884C479.025 72.7884 478.587 72.8949 478.204 73.108C477.825 73.321 477.524 73.6335 477.302 74.0455C477.084 74.4527 476.975 74.9451 476.975 75.5227Z" fill="#6F6F6F"/>
<path d="M551.707 62.7071C552.098 62.3166 552.098 61.6834 551.707 61.2929L545.343 54.9289C544.953 54.5384 544.319 54.5384 543.929 54.9289C543.538 55.3195 543.538 55.9526 543.929 56.3431L549.586 62L543.929 67.6569C543.538 68.0474 543.538 68.6805 543.929 69.0711C544.319 69.4616 544.953 69.4616 545.343 69.0711L551.707 62.7071ZM511 63H551V61H511V63Z" fill="black"/>
<path d="M742.707 62.7071C743.098 62.3166 743.098 61.6834 742.707 61.2929L736.343 54.9289C735.953 54.5384 735.319 54.5384 734.929 54.9289C734.538 55.3195 734.538 55.9526 734.929 56.3431L740.586 62L734.929 67.6569C734.538 68.0474 734.538 68.6805 734.929 69.0711C735.319 69.4616 735.953 69.4616 736.343 69.0711L742.707 62.7071ZM702 63H742V61H702V63Z" fill="black"/>
<path d="M933.707 62.7071C934.098 62.3166 934.098 61.6834 933.707 61.2929L927.343 54.9289C926.953 54.5384 926.319 54.5384 925.929 54.9289C925.538 55.3195 925.538 55.9526 925.929 56.3431L931.586 62L925.929 67.6569C925.538 68.0474 925.538 68.6805 925.929 69.0711C926.319 69.4616 926.953 69.4616 927.343 69.0711L933.707 62.7071ZM893 63H933V61H893V63Z" fill="black"/>
<path d="M1124.71 62.7071C1125.1 62.3166 1125.1 61.6834 1124.71 61.2929L1118.34 54.9289C1117.95 54.5384 1117.32 54.5384 1116.93 54.9289C1116.54 55.3195 1116.54 55.9526 1116.93 56.3431L1122.59 62L1116.93 67.6569C1116.54 68.0474 1116.54 68.6805 1116.93 69.0711C1117.32 69.4616 1117.95 69.4616 1118.34 69.0711L1124.71 62.7071ZM1084 63H1124V61H1084V63Z" fill="black"/>
<rect x="553" y="23" width="148" height="78" rx="7" stroke="black" stroke-width="2"/>
<path d="M581.321 54H578.991L584.226 39.4545H586.761L591.996 54H589.666L585.554 42.0966H585.44L581.321 54ZM581.711 48.304H589.268V50.1506H581.711V48.304ZM597.834 54.2131C596.953 54.2131 596.167 53.9882 595.476 53.5384C594.789 53.0838 594.249 52.4375 593.856 51.5994C593.468 50.7566 593.274 49.7457 593.274 48.5668C593.274 47.3878 593.47 46.3793 593.863 45.5412C594.261 44.7031 594.806 44.0616 595.497 43.6165C596.188 43.1714 596.972 42.9489 597.848 42.9489C598.525 42.9489 599.069 43.0625 599.481 43.2898C599.898 43.5123 600.22 43.7727 600.447 44.071C600.679 44.3693 600.859 44.6321 600.987 44.8594H601.115V39.4545H603.238V54H601.165V52.3026H600.987C600.859 52.5346 600.675 52.7997 600.433 53.098C600.196 53.3963 599.87 53.6567 599.453 53.8793C599.036 54.1018 598.497 54.2131 597.834 54.2131ZM598.302 52.402C598.913 52.402 599.429 52.241 599.851 51.919C600.277 51.5923 600.599 51.1402 600.817 50.5625C601.039 49.9848 601.15 49.3125 601.15 48.5455C601.15 47.7879 601.041 47.125 600.824 46.5568C600.606 45.9886 600.286 45.5459 599.865 45.2287C599.443 44.9115 598.923 44.7528 598.302 44.7528C597.663 44.7528 597.131 44.9186 596.704 45.25C596.278 45.5814 595.956 46.0336 595.738 46.6065C595.525 47.1795 595.419 47.8258 595.419 48.5455C595.419 49.2746 595.528 49.9304 595.746 50.5128C595.963 51.0952 596.285 51.5568 596.711 51.8977C597.142 52.2339 597.673 52.402 598.302 52.402ZM610.353 54.2131C609.472 54.2131 608.686 53.9882 607.995 53.5384C607.309 53.0838 606.769 52.4375 606.376 51.5994C605.988 50.7566 605.794 49.7457 605.794 48.5668C605.794 47.3878 605.99 46.3793 606.383 45.5412C606.781 44.7031 607.325 44.0616 608.017 43.6165C608.708 43.1714 609.491 42.9489 610.367 42.9489C611.044 42.9489 611.589 43.0625 612.001 43.2898C612.418 43.5123 612.74 43.7727 612.967 44.071C613.199 44.3693 613.379 44.6321 613.507 44.8594H613.634V39.4545H615.758V54H613.684V52.3026H613.507C613.379 52.5346 613.194 52.7997 612.953 53.098C612.716 53.3963 612.389 53.6567 611.972 53.8793C611.556 54.1018 611.016 54.2131 610.353 54.2131ZM610.822 52.402C611.433 52.402 611.949 52.241 612.37 51.919C612.796 51.5923 613.118 51.1402 613.336 50.5625C613.559 49.9848 613.67 49.3125 613.67 48.5455C613.67 47.7879 613.561 47.125 613.343 46.5568C613.125 45.9886 612.806 45.5459 612.384 45.2287C611.963 44.9115 611.442 44.7528 610.822 44.7528C610.183 44.7528 609.65 44.9186 609.224 45.25C608.798 45.5814 608.476 46.0336 608.258 46.6065C608.045 47.1795 607.938 47.8258 607.938 48.5455C607.938 49.2746 608.047 49.9304 608.265 50.5128C608.483 51.0952 608.805 51.5568 609.231 51.8977C609.662 52.2339 610.192 52.402 610.822 52.402ZM624.252 54V39.4545H629.579C630.611 39.4545 631.466 39.625 632.143 39.9659C632.82 40.3021 633.327 40.759 633.663 41.3366C633.999 41.9096 634.167 42.5559 634.167 43.2756C634.167 43.8816 634.056 44.393 633.833 44.8097C633.611 45.2216 633.312 45.553 632.938 45.804C632.569 46.0502 632.162 46.2301 631.717 46.3438V46.4858C632.2 46.5095 632.671 46.6657 633.13 46.9545C633.594 47.2386 633.978 47.6435 634.281 48.169C634.584 48.6946 634.735 49.3338 634.735 50.0866C634.735 50.83 634.56 51.4976 634.21 52.0895C633.864 52.6766 633.329 53.143 632.605 53.4886C631.88 53.8295 630.954 54 629.828 54H624.252ZM626.447 52.1179H629.615C630.666 52.1179 631.419 51.9143 631.873 51.5071C632.328 51.0999 632.555 50.5909 632.555 49.9801C632.555 49.5208 632.439 49.0994 632.207 48.7159C631.975 48.3324 631.643 48.027 631.213 47.7997C630.786 47.5724 630.28 47.4588 629.693 47.4588H626.447V52.1179ZM626.447 45.7472H629.387C629.88 45.7472 630.322 45.6525 630.715 45.4631C631.113 45.2737 631.428 45.0085 631.66 44.6676C631.897 44.322 632.015 43.9148 632.015 43.446C632.015 42.8447 631.804 42.3404 631.383 41.9332C630.962 41.526 630.315 41.3224 629.444 41.3224H626.447V45.7472ZM640.343 54.2415C639.651 54.2415 639.026 54.1136 638.468 53.858C637.909 53.5975 637.466 53.2211 637.139 52.7287C636.817 52.2363 636.656 51.6326 636.656 50.9176C636.656 50.3021 636.775 49.7955 637.012 49.3977C637.248 49 637.568 48.6851 637.97 48.4531C638.373 48.2211 638.823 48.0459 639.32 47.9276C639.817 47.8092 640.324 47.7192 640.84 47.6577C641.493 47.5819 642.023 47.5204 642.431 47.473C642.838 47.4209 643.134 47.3381 643.318 47.2244C643.503 47.1108 643.595 46.9261 643.595 46.6705V46.6207C643.595 46.0005 643.42 45.5199 643.07 45.179C642.724 44.8381 642.208 44.6676 641.521 44.6676C640.807 44.6676 640.243 44.8262 639.831 45.1435C639.424 45.456 639.142 45.804 638.986 46.1875L636.99 45.733C637.227 45.0701 637.573 44.535 638.027 44.1278C638.486 43.7159 639.014 43.4176 639.611 43.233C640.208 43.0436 640.835 42.9489 641.493 42.9489C641.929 42.9489 642.39 43.0009 642.878 43.1051C643.37 43.2045 643.83 43.3892 644.256 43.6591C644.687 43.929 645.039 44.3149 645.314 44.8168C645.589 45.3139 645.726 45.9602 645.726 46.7557V54H643.652V52.5085H643.567C643.43 52.7831 643.224 53.053 642.949 53.3182C642.674 53.5833 642.322 53.8035 641.891 53.9787C641.46 54.1539 640.944 54.2415 640.343 54.2415ZM640.804 52.5369C641.391 52.5369 641.893 52.4209 642.31 52.1889C642.731 51.9569 643.051 51.6539 643.269 51.2798C643.491 50.901 643.602 50.4962 643.602 50.0653V48.6591C643.527 48.7348 643.38 48.8059 643.162 48.8722C642.949 48.9337 642.705 48.9882 642.431 49.0355C642.156 49.0781 641.888 49.1184 641.628 49.1562C641.368 49.1894 641.15 49.2178 640.975 49.2415C640.563 49.2936 640.186 49.3812 639.845 49.5043C639.509 49.6274 639.239 49.8049 639.036 50.0369C638.837 50.2642 638.737 50.5672 638.737 50.946C638.737 51.4716 638.932 51.8693 639.32 52.1392C639.708 52.4044 640.203 52.5369 640.804 52.5369ZM650.678 47.5227V54H648.555V43.0909H650.593V44.8665H650.728C650.979 44.2888 651.372 43.8248 651.907 43.4744C652.447 43.1241 653.126 42.9489 653.945 42.9489C654.689 42.9489 655.34 43.1051 655.898 43.4176C656.457 43.7254 656.89 44.1847 657.198 44.7955C657.506 45.4062 657.66 46.1615 657.66 47.0611V54H655.536V47.3168C655.536 46.526 655.33 45.9081 654.918 45.4631C654.506 45.0133 653.94 44.7884 653.221 44.7884C652.728 44.7884 652.29 44.8949 651.907 45.108C651.528 45.321 651.227 45.6335 651.005 46.0455C650.787 46.4527 650.678 46.9451 650.678 47.5227ZM662.461 50.2997L662.447 47.7074H662.816L667.162 43.0909H669.705L664.748 48.3466H664.414L662.461 50.2997ZM660.508 54V39.4545H662.631V54H660.508ZM667.397 54L663.491 48.8153L664.954 47.331L670.003 54H667.397ZM611.565 84H609.235L614.47 69.4545H617.005L622.24 84H619.91L615.798 72.0966H615.684L611.565 84ZM611.956 78.304H619.512V80.1506H611.956V78.304ZM628.589 84.2202C627.533 84.2202 626.624 83.9811 625.862 83.5028C625.104 83.0199 624.522 82.3546 624.115 81.5071C623.708 80.6596 623.504 79.6889 623.504 78.5952C623.504 77.4872 623.712 76.5095 624.129 75.6619C624.546 74.8097 625.133 74.1444 625.89 73.6662C626.648 73.188 627.54 72.9489 628.568 72.9489C629.396 72.9489 630.135 73.1027 630.784 73.4105C631.432 73.7135 631.956 74.1397 632.353 74.6889C632.756 75.2382 632.995 75.8797 633.071 76.6136H631.004C630.89 76.1023 630.63 75.6619 630.223 75.2926C629.82 74.9233 629.28 74.7386 628.603 74.7386C628.011 74.7386 627.493 74.8949 627.048 75.2074C626.608 75.5152 626.264 75.9555 626.018 76.5284C625.772 77.0966 625.649 77.7689 625.649 78.5455C625.649 79.3409 625.77 80.0275 626.011 80.6051C626.252 81.1828 626.593 81.6302 627.034 81.9474C627.479 82.2647 628.002 82.4233 628.603 82.4233C629.006 82.4233 629.37 82.3499 629.697 82.2031C630.029 82.0516 630.306 81.8362 630.528 81.5568C630.755 81.2775 630.914 80.9413 631.004 80.5483H633.071C632.995 81.2538 632.765 81.8835 632.382 82.4375C631.998 82.9915 631.484 83.4271 630.841 83.7443C630.201 84.0616 629.451 84.2202 628.589 84.2202ZM639.937 84.2202C638.881 84.2202 637.972 83.9811 637.21 83.5028C636.452 83.0199 635.87 82.3546 635.462 81.5071C635.055 80.6596 634.852 79.6889 634.852 78.5952C634.852 77.4872 635.06 76.5095 635.477 75.6619C635.893 74.8097 636.48 74.1444 637.238 73.6662C637.996 73.188 638.888 72.9489 639.915 72.9489C640.744 72.9489 641.483 73.1027 642.131 73.4105C642.78 73.7135 643.303 74.1397 643.701 74.6889C644.103 75.2382 644.343 75.8797 644.418 76.6136H642.352C642.238 76.1023 641.978 75.6619 641.57 75.2926C641.168 74.9233 640.628 74.7386 639.951 74.7386C639.359 74.7386 638.841 74.8949 638.396 75.2074C637.955 75.5152 637.612 75.9555 637.366 76.5284C637.12 77.0966 636.996 77.7689 636.996 78.5455C636.996 79.3409 637.117 80.0275 637.359 80.6051C637.6 81.1828 637.941 81.6302 638.381 81.9474C638.826 82.2647 639.35 82.4233 639.951 82.4233C640.353 82.4233 640.718 82.3499 641.045 82.2031C641.376 82.0516 641.653 81.8362 641.876 81.5568C642.103 81.2775 642.262 80.9413 642.352 80.5483H644.418C644.343 81.2538 644.113 81.8835 643.729 82.4375C643.346 82.9915 642.832 83.4271 642.188 83.7443C641.549 84.0616 640.799 84.2202 639.937 84.2202Z" fill="black"/>
<rect x="744" y="23" width="148" height="78" rx="7" stroke="black" stroke-width="2"/>
<rect x="935" y="23" width="148" height="78" rx="7" stroke="black" stroke-width="2"/>
<rect x="1126" y="23" width="148" height="78" rx="7" stroke="black" stroke-width="2"/>
<path d="M778.6 69L774.566 54.4545H776.874L779.708 65.7188H779.843L782.791 54.4545H785.078L788.025 65.7259H788.16L790.987 54.4545H793.302L789.261 69H787.052L783.991 58.1051H783.877L780.816 69H778.6ZM797.233 69.2415C796.542 69.2415 795.917 69.1136 795.358 68.858C794.799 68.5975 794.357 68.2211 794.03 67.7287C793.708 67.2363 793.547 66.6326 793.547 65.9176C793.547 65.3021 793.665 64.7955 793.902 64.3977C794.139 64 794.459 63.6851 794.861 63.4531C795.263 63.2211 795.713 63.0459 796.21 62.9276C796.708 62.8092 797.214 62.7192 797.73 62.6577C798.384 62.5819 798.914 62.5204 799.321 62.473C799.728 62.4209 800.024 62.3381 800.209 62.2244C800.394 62.1108 800.486 61.9261 800.486 61.6705V61.6207C800.486 61.0005 800.311 60.5199 799.96 60.179C799.615 59.8381 799.099 59.6676 798.412 59.6676C797.697 59.6676 797.134 59.8262 796.722 60.1435C796.315 60.456 796.033 60.804 795.877 61.1875L793.881 60.733C794.118 60.0701 794.463 59.535 794.918 59.1278C795.377 58.7159 795.905 58.4176 796.502 58.233C797.098 58.0436 797.726 57.9489 798.384 57.9489C798.819 57.9489 799.281 58.0009 799.769 58.1051C800.261 58.2045 800.72 58.3892 801.146 58.6591C801.577 58.929 801.93 59.3149 802.205 59.8168C802.479 60.3139 802.617 60.9602 802.617 61.7557V69H800.543V67.5085H800.458C800.32 67.7831 800.114 68.053 799.84 68.3182C799.565 68.5833 799.212 68.8035 798.781 68.9787C798.351 69.1539 797.834 69.2415 797.233 69.2415ZM797.695 67.5369C798.282 67.5369 798.784 67.4209 799.2 67.1889C799.622 66.9569 799.941 66.6539 800.159 66.2798C800.382 65.901 800.493 65.4962 800.493 65.0653V63.6591C800.417 63.7348 800.271 63.8059 800.053 63.8722C799.84 63.9337 799.596 63.9882 799.321 64.0355C799.047 64.0781 798.779 64.1184 798.519 64.1562C798.258 64.1894 798.04 64.2178 797.865 64.2415C797.453 64.2936 797.077 64.3812 796.736 64.5043C796.4 64.6274 796.13 64.8049 795.926 65.0369C795.727 65.2642 795.628 65.5672 795.628 65.946C795.628 66.4716 795.822 66.8693 796.21 67.1392C796.599 67.4044 797.093 67.5369 797.695 67.5369ZM810.537 58.0909V59.7955H804.579V58.0909H810.537ZM806.177 55.4773H808.3V65.7969C808.3 66.2088 808.362 66.5189 808.485 66.7273C808.608 66.9309 808.767 67.0705 808.961 67.1463C809.16 67.2173 809.375 67.2528 809.607 67.2528C809.778 67.2528 809.927 67.241 810.055 67.2173C810.182 67.1937 810.282 67.1747 810.353 67.1605L810.736 68.9148C810.613 68.9621 810.438 69.0095 810.211 69.0568C809.983 69.1089 809.699 69.1373 809.358 69.142C808.8 69.1515 808.279 69.0521 807.796 68.8438C807.313 68.6354 806.922 68.3134 806.624 67.8778C806.326 67.4422 806.177 66.8954 806.177 66.2372V55.4773ZM817.365 69.2202C816.309 69.2202 815.4 68.9811 814.637 68.5028C813.88 68.0199 813.297 67.3546 812.89 66.5071C812.483 65.6596 812.279 64.6889 812.279 63.5952C812.279 62.4872 812.488 61.5095 812.904 60.6619C813.321 59.8097 813.908 59.1444 814.666 58.6662C815.423 58.188 816.316 57.9489 817.343 57.9489C818.172 57.9489 818.91 58.1027 819.559 58.4105C820.208 58.7135 820.731 59.1397 821.129 59.6889C821.531 60.2382 821.77 60.8797 821.846 61.6136H819.779C819.666 61.1023 819.405 60.6619 818.998 60.2926C818.596 59.9233 818.056 59.7386 817.379 59.7386C816.787 59.7386 816.268 59.8949 815.823 60.2074C815.383 60.5152 815.04 60.9555 814.794 61.5284C814.547 62.0966 814.424 62.7689 814.424 63.5455C814.424 64.3409 814.545 65.0275 814.786 65.6051C815.028 66.1828 815.369 66.6302 815.809 66.9474C816.254 67.2647 816.777 67.4233 817.379 67.4233C817.781 67.4233 818.146 67.3499 818.472 67.2031C818.804 67.0516 819.081 66.8362 819.303 66.5568C819.531 66.2775 819.689 65.9413 819.779 65.5483H821.846C821.77 66.2538 821.541 66.8835 821.157 67.4375C820.774 67.9915 820.26 68.4271 819.616 68.7443C818.977 69.0616 818.226 69.2202 817.365 69.2202ZM826.241 62.5227V69H824.117V54.4545H826.212V59.8665H826.347C826.603 59.2794 826.993 58.813 827.519 58.4673C828.045 58.1217 828.731 57.9489 829.579 57.9489C830.327 57.9489 830.98 58.1027 831.539 58.4105C832.102 58.7183 832.538 59.1776 832.846 59.7884C833.158 60.3944 833.314 61.152 833.314 62.0611V69H831.191V62.3168C831.191 61.5166 830.985 60.8963 830.573 60.456C830.161 60.0109 829.588 59.7884 828.854 59.7884C828.352 59.7884 827.903 59.8949 827.505 60.108C827.112 60.321 826.802 60.6335 826.574 61.0455C826.352 61.4527 826.241 61.9451 826.241 62.5227ZM838.272 54.4545V69H836.148V54.4545H838.272ZM841.129 69V58.0909H843.252V69H841.129ZM842.201 56.4077C841.832 56.4077 841.515 56.2846 841.249 56.0384C840.989 55.7874 840.859 55.4891 840.859 55.1435C840.859 54.7931 840.989 54.4948 841.249 54.2486C841.515 53.9976 841.832 53.8722 842.201 53.8722C842.57 53.8722 842.885 53.9976 843.146 54.2486C843.411 54.4948 843.544 54.7931 843.544 55.1435C843.544 55.4891 843.411 55.7874 843.146 56.0384C842.885 56.2846 842.57 56.4077 842.201 56.4077ZM854.284 60.7543L852.359 61.0952C852.279 60.849 852.151 60.6146 851.976 60.392C851.805 60.1695 851.573 59.9872 851.28 59.8452C850.986 59.7031 850.619 59.6321 850.179 59.6321C849.577 59.6321 849.076 59.767 848.673 60.0369C848.271 60.3021 848.069 60.6454 848.069 61.0668C848.069 61.4313 848.204 61.7249 848.474 61.9474C848.744 62.17 849.18 62.3523 849.781 62.4943L851.514 62.892C852.518 63.1241 853.266 63.4815 853.758 63.9645C854.251 64.4474 854.497 65.0748 854.497 65.8466C854.497 66.5 854.308 67.0824 853.929 67.5938C853.555 68.1004 853.032 68.4981 852.359 68.7869C851.692 69.0758 850.917 69.2202 850.037 69.2202C848.815 69.2202 847.818 68.9598 847.047 68.4389C846.275 67.9134 845.801 67.1676 845.626 66.2017L847.679 65.8892C847.807 66.4242 848.069 66.8291 848.467 67.1037C848.865 67.3736 849.383 67.5085 850.023 67.5085C850.719 67.5085 851.275 67.3641 851.692 67.0753C852.108 66.7817 852.317 66.4242 852.317 66.0028C852.317 65.6619 852.189 65.3755 851.933 65.1435C851.682 64.9115 851.296 64.7363 850.775 64.6179L848.929 64.2131C847.911 63.9811 847.158 63.6117 846.67 63.1051C846.187 62.5985 845.946 61.9569 845.946 61.1804C845.946 60.5365 846.126 59.973 846.486 59.4901C846.845 59.0071 847.343 58.6307 847.977 58.3608C848.612 58.0862 849.338 57.9489 850.157 57.9489C851.336 57.9489 852.265 58.2045 852.942 58.7159C853.619 59.2225 854.066 59.902 854.284 60.7543ZM861.924 58.0909V59.7955H855.965V58.0909H861.924ZM857.563 55.4773H859.687V65.7969C859.687 66.2088 859.749 66.5189 859.872 66.7273C859.995 66.9309 860.153 67.0705 860.347 67.1463C860.546 67.2173 860.762 67.2528 860.994 67.2528C861.164 67.2528 861.313 67.241 861.441 67.2173C861.569 67.1937 861.669 67.1747 861.74 67.1605L862.123 68.9148C862 68.9621 861.825 69.0095 861.597 69.0568C861.37 69.1089 861.086 69.1373 860.745 69.142C860.186 69.1515 859.666 69.0521 859.183 68.8438C858.7 68.6354 858.309 68.3134 858.011 67.8778C857.713 67.4422 857.563 66.8954 857.563 66.2372V55.4773Z" fill="black"/>
<path d="M985.701 58.2756C985.625 57.6032 985.313 57.0824 984.764 56.7131C984.214 56.339 983.523 56.152 982.69 56.152C982.093 56.152 981.577 56.2467 981.142 56.4361C980.706 56.6207 980.367 56.8764 980.126 57.2031C979.889 57.5251 979.771 57.892 979.771 58.304C979.771 58.6496 979.851 58.9479 980.012 59.1989C980.178 59.4498 980.393 59.6605 980.659 59.831C980.928 59.9967 981.217 60.1364 981.525 60.25C981.833 60.3589 982.129 60.4489 982.413 60.5199L983.833 60.8892C984.297 61.0028 984.773 61.1567 985.261 61.3509C985.749 61.545 986.201 61.8007 986.617 62.1179C987.034 62.4351 987.37 62.8281 987.626 63.2969C987.886 63.7656 988.017 64.3267 988.017 64.9801C988.017 65.804 987.803 66.5355 987.377 67.1747C986.956 67.8139 986.343 68.3182 985.538 68.6875C984.738 69.0568 983.769 69.2415 982.633 69.2415C981.544 69.2415 980.602 69.0687 979.806 68.723C979.011 68.3774 978.388 67.8873 977.938 67.2528C977.489 66.6136 977.24 65.8561 977.193 64.9801H979.394C979.437 65.5057 979.607 65.9437 979.906 66.294C980.209 66.6397 980.595 66.8977 981.063 67.0682C981.537 67.2339 982.055 67.3168 982.619 67.3168C983.239 67.3168 983.791 67.2197 984.274 67.0256C984.761 66.8267 985.145 66.5521 985.424 66.2017C985.704 65.8466 985.843 65.4323 985.843 64.9588C985.843 64.5279 985.72 64.1752 985.474 63.9006C985.232 63.6259 984.903 63.3987 984.487 63.2188C984.075 63.0388 983.608 62.8802 983.088 62.7429L981.369 62.2741C980.204 61.9569 979.281 61.4905 978.599 60.875C977.922 60.2595 977.583 59.4451 977.583 58.4318C977.583 57.5937 977.811 56.8622 978.265 56.2372C978.72 55.6122 979.335 55.1269 980.112 54.7812C980.888 54.4309 981.764 54.2557 982.74 54.2557C983.724 54.2557 984.593 54.4285 985.346 54.7741C986.104 55.1198 986.7 55.5956 987.136 56.2017C987.571 56.803 987.799 57.4943 987.818 58.2756H985.701ZM995.17 69.2202C994.095 69.2202 993.17 68.9905 992.393 68.5312C991.622 68.0672 991.025 67.4162 990.604 66.5781C990.187 65.7353 989.979 64.7481 989.979 63.6165C989.979 62.4991 990.187 61.5142 990.604 60.6619C991.025 59.8097 991.612 59.1444 992.365 58.6662C993.122 58.188 994.008 57.9489 995.021 57.9489C995.637 57.9489 996.233 58.0507 996.811 58.2543C997.389 58.4579 997.907 58.7775 998.366 59.2131C998.826 59.6487 999.188 60.2145 999.453 60.9105C999.718 61.6018 999.851 62.4422 999.851 63.4318V64.1847H991.179V62.5938H997.77C997.77 62.035 997.656 61.5402 997.429 61.1094C997.202 60.6738 996.882 60.3305 996.47 60.0795C996.063 59.8286 995.585 59.7031 995.035 59.7031C994.439 59.7031 993.918 59.8499 993.473 60.1435C993.032 60.4323 992.692 60.8111 992.45 61.2798C992.213 61.7438 992.095 62.2481 992.095 62.7926V64.0355C992.095 64.7647 992.223 65.3849 992.479 65.8963C992.739 66.4077 993.101 66.7983 993.565 67.0682C994.029 67.3333 994.571 67.4659 995.192 67.4659C995.594 67.4659 995.961 67.4091 996.292 67.2955C996.624 67.1771 996.91 67.0019 997.152 66.7699C997.393 66.5379 997.578 66.2514 997.706 65.9105L999.716 66.2727C999.555 66.8646 999.266 67.383 998.849 67.8281C998.437 68.2685 997.919 68.6117 997.294 68.858C996.674 69.0994 995.966 69.2202 995.17 69.2202ZM1005.38 69.2415C1004.69 69.2415 1004.07 69.1136 1003.51 68.858C1002.95 68.5975 1002.51 68.2211 1002.18 67.7287C1001.86 67.2363 1001.7 66.6326 1001.7 65.9176C1001.7 65.3021 1001.81 64.7955 1002.05 64.3977C1002.29 64 1002.61 63.6851 1003.01 63.4531C1003.41 63.2211 1003.86 63.0459 1004.36 62.9276C1004.86 62.8092 1005.36 62.7192 1005.88 62.6577C1006.53 62.5819 1007.06 62.5204 1007.47 62.473C1007.88 62.4209 1008.17 62.3381 1008.36 62.2244C1008.54 62.1108 1008.63 61.9261 1008.63 61.6705V61.6207C1008.63 61.0005 1008.46 60.5199 1008.11 60.179C1007.76 59.8381 1007.25 59.6676 1006.56 59.6676C1005.85 59.6676 1005.28 59.8262 1004.87 60.1435C1004.46 60.456 1004.18 60.804 1004.03 61.1875L1002.03 60.733C1002.27 60.0701 1002.61 59.535 1003.07 59.1278C1003.53 58.7159 1004.05 58.4176 1004.65 58.233C1005.25 58.0436 1005.87 57.9489 1006.53 57.9489C1006.97 57.9489 1007.43 58.0009 1007.92 58.1051C1008.41 58.2045 1008.87 58.3892 1009.29 58.6591C1009.73 58.929 1010.08 59.3149 1010.35 59.8168C1010.63 60.3139 1010.77 60.9602 1010.77 61.7557V69H1008.69V67.5085H1008.61C1008.47 67.7831 1008.26 68.053 1007.99 68.3182C1007.71 68.5833 1007.36 68.8035 1006.93 68.9787C1006.5 69.1539 1005.98 69.2415 1005.38 69.2415ZM1005.84 67.5369C1006.43 67.5369 1006.93 67.4209 1007.35 67.1889C1007.77 66.9569 1008.09 66.6539 1008.31 66.2798C1008.53 65.901 1008.64 65.4962 1008.64 65.0653V63.6591C1008.57 63.7348 1008.42 63.8059 1008.2 63.8722C1007.99 63.9337 1007.74 63.9882 1007.47 64.0355C1007.2 64.0781 1006.93 64.1184 1006.67 64.1562C1006.41 64.1894 1006.19 64.2178 1006.01 64.2415C1005.6 64.2936 1005.23 64.3812 1004.88 64.5043C1004.55 64.6274 1004.28 64.8049 1004.07 65.0369C1003.88 65.2642 1003.78 65.5672 1003.78 65.946C1003.78 66.4716 1003.97 66.8693 1004.36 67.1392C1004.75 67.4044 1005.24 67.5369 1005.84 67.5369ZM1013.59 69V58.0909H1015.65V59.8239H1015.76C1015.96 59.2367 1016.31 58.7751 1016.81 58.4389C1017.32 58.098 1017.89 57.9276 1018.53 57.9276C1018.66 57.9276 1018.82 57.9323 1019 57.9418C1019.18 57.9512 1019.33 57.9631 1019.43 57.9773V60.0085C1019.35 59.9848 1019.19 59.9588 1018.98 59.9304C1018.76 59.8973 1018.54 59.8807 1018.32 59.8807C1017.82 59.8807 1017.37 59.9872 1016.98 60.2003C1016.59 60.4086 1016.29 60.6998 1016.06 61.0739C1015.83 61.4432 1015.72 61.8646 1015.72 62.3381V69H1013.59ZM1025.47 69.2202C1024.42 69.2202 1023.51 68.9811 1022.75 68.5028C1021.99 68.0199 1021.41 67.3546 1021 66.5071C1020.59 65.6596 1020.39 64.6889 1020.39 63.5952C1020.39 62.4872 1020.6 61.5095 1021.01 60.6619C1021.43 59.8097 1022.02 59.1444 1022.78 58.6662C1023.53 58.188 1024.43 57.9489 1025.45 57.9489C1026.28 57.9489 1027.02 58.1027 1027.67 58.4105C1028.32 58.7135 1028.84 59.1397 1029.24 59.6889C1029.64 60.2382 1029.88 60.8797 1029.96 61.6136H1027.89C1027.78 61.1023 1027.51 60.6619 1027.11 60.2926C1026.7 59.9233 1026.17 59.7386 1025.49 59.7386C1024.9 59.7386 1024.38 59.8949 1023.93 60.2074C1023.49 60.5152 1023.15 60.9555 1022.9 61.5284C1022.66 62.0966 1022.53 62.7689 1022.53 63.5455C1022.53 64.3409 1022.65 65.0275 1022.9 65.6051C1023.14 66.1828 1023.48 66.6302 1023.92 66.9474C1024.36 67.2647 1024.89 67.4233 1025.49 67.4233C1025.89 67.4233 1026.26 67.3499 1026.58 67.2031C1026.91 67.0516 1027.19 66.8362 1027.41 66.5568C1027.64 66.2775 1027.8 65.9413 1027.89 65.5483H1029.96C1029.88 66.2538 1029.65 66.8835 1029.27 67.4375C1028.88 67.9915 1028.37 68.4271 1027.73 68.7443C1027.09 69.0616 1026.34 69.2202 1025.47 69.2202ZM1034.35 62.5227V69H1032.23V54.4545H1034.32V59.8665H1034.46C1034.71 59.2794 1035.1 58.813 1035.63 58.4673C1036.15 58.1217 1036.84 57.9489 1037.69 57.9489C1038.44 57.9489 1039.09 58.1027 1039.65 58.4105C1040.21 58.7183 1040.65 59.1776 1040.96 59.7884C1041.27 60.3944 1041.42 61.152 1041.42 62.0611V69H1039.3V62.3168C1039.3 61.5166 1039.09 60.8963 1038.68 60.456C1038.27 60.0109 1037.7 59.7884 1036.96 59.7884C1036.46 59.7884 1036.01 59.8949 1035.61 60.108C1035.22 60.321 1034.91 60.6335 1034.68 61.0455C1034.46 61.4527 1034.35 61.9451 1034.35 62.5227Z" fill="black"/>
<path d="M1152.92 69H1150.59L1155.82 54.4545H1158.36L1163.59 69H1161.26L1157.15 57.0966H1157.04L1152.92 69ZM1153.31 63.304H1160.86V65.1506H1153.31V63.304ZM1169.43 69.2131C1168.55 69.2131 1167.76 68.9882 1167.07 68.5384C1166.38 68.0838 1165.85 67.4375 1165.45 66.5994C1165.06 65.7566 1164.87 64.7457 1164.87 63.5668C1164.87 62.3878 1165.07 61.3793 1165.46 60.5412C1165.86 59.7031 1166.4 59.0616 1167.09 58.6165C1167.78 58.1714 1168.57 57.9489 1169.44 57.9489C1170.12 57.9489 1170.67 58.0625 1171.08 58.2898C1171.49 58.5123 1171.82 58.7727 1172.04 59.071C1172.27 59.3693 1172.45 59.6321 1172.58 59.8594H1172.71V54.4545H1174.83V69H1172.76V67.3026H1172.58C1172.45 67.5346 1172.27 67.7997 1172.03 68.098C1171.79 68.3963 1171.47 68.6567 1171.05 68.8793C1170.63 69.1018 1170.09 69.2131 1169.43 69.2131ZM1169.9 67.402C1170.51 67.402 1171.02 67.241 1171.45 66.919C1171.87 66.5923 1172.19 66.1402 1172.41 65.5625C1172.63 64.9848 1172.75 64.3125 1172.75 63.5455C1172.75 62.7879 1172.64 62.125 1172.42 61.5568C1172.2 60.9886 1171.88 60.5459 1171.46 60.2287C1171.04 59.9115 1170.52 59.7528 1169.9 59.7528C1169.26 59.7528 1168.73 59.9186 1168.3 60.25C1167.87 60.5814 1167.55 61.0336 1167.33 61.6065C1167.12 62.1795 1167.01 62.8258 1167.01 63.5455C1167.01 64.2746 1167.12 64.9304 1167.34 65.5128C1167.56 66.0952 1167.88 66.5568 1168.31 66.8977C1168.74 67.2339 1169.27 67.402 1169.9 67.402ZM1181.95 69.2131C1181.07 69.2131 1180.28 68.9882 1179.59 68.5384C1178.9 68.0838 1178.36 67.4375 1177.97 66.5994C1177.58 65.7566 1177.39 64.7457 1177.39 63.5668C1177.39 62.3878 1177.59 61.3793 1177.98 60.5412C1178.38 59.7031 1178.92 59.0616 1179.61 58.6165C1180.3 58.1714 1181.09 57.9489 1181.96 57.9489C1182.64 57.9489 1183.18 58.0625 1183.6 58.2898C1184.01 58.5123 1184.34 58.7727 1184.56 59.071C1184.79 59.3693 1184.97 59.6321 1185.1 59.8594H1185.23V54.4545H1187.35V69H1185.28V67.3026H1185.1C1184.97 67.5346 1184.79 67.7997 1184.55 68.098C1184.31 68.3963 1183.98 68.6567 1183.57 68.8793C1183.15 69.1018 1182.61 69.2131 1181.95 69.2131ZM1182.42 67.402C1183.03 67.402 1183.54 67.241 1183.97 66.919C1184.39 66.5923 1184.71 66.1402 1184.93 65.5625C1185.15 64.9848 1185.27 64.3125 1185.27 63.5455C1185.27 62.7879 1185.16 62.125 1184.94 61.5568C1184.72 60.9886 1184.4 60.5459 1183.98 60.2287C1183.56 59.9115 1183.04 59.7528 1182.42 59.7528C1181.78 59.7528 1181.25 59.9186 1180.82 60.25C1180.39 60.5814 1180.07 61.0336 1179.85 61.6065C1179.64 62.1795 1179.53 62.8258 1179.53 63.5455C1179.53 64.2746 1179.64 64.9304 1179.86 65.5128C1180.08 66.0952 1180.4 66.5568 1180.83 66.8977C1181.26 67.2339 1181.79 67.402 1182.42 67.402ZM1203.78 58.2756C1203.71 57.6032 1203.39 57.0824 1202.84 56.7131C1202.29 56.339 1201.6 56.152 1200.77 56.152C1200.17 56.152 1199.66 56.2467 1199.22 56.4361C1198.79 56.6207 1198.45 56.8764 1198.21 57.2031C1197.97 57.5251 1197.85 57.892 1197.85 58.304C1197.85 58.6496 1197.93 58.9479 1198.09 59.1989C1198.26 59.4498 1198.47 59.6605 1198.74 59.831C1199.01 59.9967 1199.3 60.1364 1199.61 60.25C1199.91 60.3589 1200.21 60.4489 1200.49 60.5199L1201.91 60.8892C1202.38 61.0028 1202.85 61.1567 1203.34 61.3509C1203.83 61.545 1204.28 61.8007 1204.7 62.1179C1205.11 62.4351 1205.45 62.8281 1205.71 63.2969C1205.97 63.7656 1206.1 64.3267 1206.1 64.9801C1206.1 65.804 1205.88 66.5355 1205.46 67.1747C1205.04 67.8139 1204.42 68.3182 1203.62 68.6875C1202.82 69.0568 1201.85 69.2415 1200.71 69.2415C1199.62 69.2415 1198.68 69.0687 1197.89 68.723C1197.09 68.3774 1196.47 67.8873 1196.02 67.2528C1195.57 66.6136 1195.32 65.8561 1195.27 64.9801H1197.47C1197.52 65.5057 1197.69 65.9437 1197.99 66.294C1198.29 66.6397 1198.67 66.8977 1199.14 67.0682C1199.62 67.2339 1200.14 67.3168 1200.7 67.3168C1201.32 67.3168 1201.87 67.2197 1202.35 67.0256C1202.84 66.8267 1203.22 66.5521 1203.5 66.2017C1203.78 65.8466 1203.92 65.4323 1203.92 64.9588C1203.92 64.5279 1203.8 64.1752 1203.55 63.9006C1203.31 63.6259 1202.98 63.3987 1202.57 63.2188C1202.15 63.0388 1201.69 62.8802 1201.17 62.7429L1199.45 62.2741C1198.28 61.9569 1197.36 61.4905 1196.68 60.875C1196 60.2595 1195.66 59.4451 1195.66 58.4318C1195.66 57.5937 1195.89 56.8622 1196.35 56.2372C1196.8 55.6122 1197.42 55.1269 1198.19 54.7812C1198.97 54.4309 1199.84 54.2557 1200.82 54.2557C1201.8 54.2557 1202.67 54.4285 1203.43 54.7741C1204.18 55.1198 1204.78 55.5956 1205.22 56.2017C1205.65 56.803 1205.88 57.4943 1205.9 58.2756H1203.78ZM1213.14 69.2202C1212.09 69.2202 1211.18 68.9811 1210.42 68.5028C1209.66 68.0199 1209.08 67.3546 1208.67 66.5071C1208.26 65.6596 1208.06 64.6889 1208.06 63.5952C1208.06 62.4872 1208.27 61.5095 1208.68 60.6619C1209.1 59.8097 1209.69 59.1444 1210.44 58.6662C1211.2 58.188 1212.1 57.9489 1213.12 57.9489C1213.95 57.9489 1214.69 58.1027 1215.34 58.4105C1215.99 58.7135 1216.51 59.1397 1216.91 59.6889C1217.31 60.2382 1217.55 60.8797 1217.63 61.6136H1215.56C1215.44 61.1023 1215.18 60.6619 1214.78 60.2926C1214.37 59.9233 1213.84 59.7386 1213.16 59.7386C1212.57 59.7386 1212.05 59.8949 1211.6 60.2074C1211.16 60.5152 1210.82 60.9555 1210.57 61.5284C1210.33 62.0966 1210.2 62.7689 1210.2 63.5455C1210.2 64.3409 1210.32 65.0275 1210.57 65.6051C1210.81 66.1828 1211.15 66.6302 1211.59 66.9474C1212.03 67.2647 1212.56 67.4233 1213.16 67.4233C1213.56 67.4233 1213.93 67.3499 1214.25 67.2031C1214.58 67.0516 1214.86 66.8362 1215.08 66.5568C1215.31 66.2775 1215.47 65.9413 1215.56 65.5483H1217.63C1217.55 66.2538 1217.32 66.8835 1216.94 67.4375C1216.55 67.9915 1216.04 68.4271 1215.4 68.7443C1214.76 69.0616 1214.01 69.2202 1213.14 69.2202ZM1219.9 69V58.0909H1221.95V59.8239H1222.06C1222.26 59.2367 1222.61 58.7751 1223.11 58.4389C1223.62 58.098 1224.19 57.9276 1224.83 57.9276C1224.96 57.9276 1225.12 57.9323 1225.3 57.9418C1225.49 57.9512 1225.63 57.9631 1225.73 57.9773V60.0085C1225.65 59.9848 1225.5 59.9588 1225.28 59.9304C1225.06 59.8973 1224.84 59.8807 1224.63 59.8807C1224.12 59.8807 1223.68 59.9872 1223.28 60.2003C1222.9 60.4086 1222.59 60.6998 1222.36 61.0739C1222.13 61.4432 1222.02 61.8646 1222.02 62.3381V69H1219.9ZM1227.57 69V58.0909H1229.7V69H1227.57ZM1228.64 56.4077C1228.28 56.4077 1227.96 56.2846 1227.69 56.0384C1227.43 55.7874 1227.3 55.4891 1227.3 55.1435C1227.3 54.7931 1227.43 54.4948 1227.69 54.2486C1227.96 53.9976 1228.28 53.8722 1228.64 53.8722C1229.01 53.8722 1229.33 53.9976 1229.59 54.2486C1229.85 54.4948 1229.99 54.7931 1229.99 55.1435C1229.99 55.4891 1229.85 55.7874 1229.59 56.0384C1229.33 56.2846 1229.01 56.4077 1228.64 56.4077ZM1232.55 73.0909V58.0909H1234.63V59.8594H1234.8C1234.93 59.6321 1235.1 59.3693 1235.34 59.071C1235.57 58.7727 1235.89 58.5123 1236.3 58.2898C1236.71 58.0625 1237.26 57.9489 1237.94 57.9489C1238.82 57.9489 1239.6 58.1714 1240.29 58.6165C1240.99 59.0616 1241.53 59.7031 1241.92 60.5412C1242.32 61.3793 1242.52 62.3878 1242.52 63.5668C1242.52 64.7457 1242.32 65.7566 1241.93 66.5994C1241.53 67.4375 1240.99 68.0838 1240.31 68.5384C1239.62 68.9882 1238.84 69.2131 1237.96 69.2131C1237.29 69.2131 1236.75 69.1018 1236.33 68.8793C1235.91 68.6567 1235.59 68.3963 1235.35 68.098C1235.11 67.7997 1234.93 67.5346 1234.8 67.3026H1234.68V73.0909H1232.55ZM1234.63 63.5455C1234.63 64.3125 1234.74 64.9848 1234.97 65.5625C1235.19 66.1402 1235.51 66.5923 1235.93 66.919C1236.35 67.241 1236.87 67.402 1237.48 67.402C1238.12 67.402 1238.65 67.2339 1239.07 66.8977C1239.5 66.5568 1239.82 66.0952 1240.04 65.5128C1240.26 64.9304 1240.37 64.2746 1240.37 63.5455C1240.37 62.8258 1240.26 62.1795 1240.05 61.6065C1239.83 61.0336 1239.51 60.5814 1239.08 60.25C1238.65 59.9186 1238.12 59.7528 1237.48 59.7528C1236.87 59.7528 1236.35 59.9115 1235.92 60.2287C1235.5 60.5459 1235.18 60.9886 1234.96 61.5568C1234.74 62.125 1234.63 62.7879 1234.63 63.5455ZM1249.99 58.0909V59.7955H1244.03V58.0909H1249.99ZM1245.63 55.4773H1247.75V65.7969C1247.75 66.2088 1247.81 66.5189 1247.94 66.7273C1248.06 66.9309 1248.22 67.0705 1248.41 67.1463C1248.61 67.2173 1248.83 67.2528 1249.06 67.2528C1249.23 67.2528 1249.38 67.241 1249.51 67.2173C1249.63 67.1937 1249.73 67.1747 1249.8 67.1605L1250.19 68.9148C1250.06 68.9621 1249.89 69.0095 1249.66 69.0568C1249.43 69.1089 1249.15 69.1373 1248.81 69.142C1248.25 69.1515 1247.73 69.0521 1247.25 68.8438C1246.76 68.6354 1246.37 68.3134 1246.08 67.8778C1245.78 67.4422 1245.63 66.8954 1245.63 66.2372V55.4773Z" fill="black"/>
</svg>
