<svg width="1535" height="182" viewBox="0 0 1535 182" fill="none" xmlns="http://www.w3.org/2000/svg">
<g clip-path="url(#clip0_38_137)">
<rect width="1535" height="182" fill="white"/>
<g clip-path="url(#clip1_38_137)">
<path d="M35 42C39.9445 42 44.778 43.4662 48.8893 46.2133C53.0005 48.9603 56.2048 52.8648 58.097 57.4329C59.9892 62.0011 60.4843 67.0277 59.5197 71.8773C58.555 76.7268 56.174 81.1814 52.6777 84.6777C49.1814 88.174 44.7268 90.555 39.8773 91.5197C35.0277 92.4843 30.0011 91.9892 25.4329 90.097C20.8648 88.2048 16.9603 85.0005 14.2133 80.8893C11.4662 76.778 10 71.9445 10 67L10.025 65.915C10.3046 59.4788 13.058 53.3989 17.7111 48.9433C22.3642 44.4877 28.5577 42.0004 35 42Z" fill="black"/>
<path d="M45 102C51.6304 102 57.9893 104.634 62.6777 109.322C67.3661 114.011 70 120.37 70 127V132C70 134.652 68.9464 137.196 67.0711 139.071C65.1957 140.946 62.6522 142 60 142H10C7.34784 142 4.8043 140.946 2.92893 139.071C1.05357 137.196 0 134.652 0 132V127C0 120.37 2.63392 114.011 7.32233 109.322C12.0107 104.634 18.3696 102 25 102H45Z" fill="black"/>
</g>
<path d="M130.41 74.0909H134.637V97.2045C134.637 99.5909 134.075 101.722 132.95 103.597C131.836 105.46 130.262 106.932 128.228 108.011C126.194 109.08 123.808 109.614 121.069 109.614C118.33 109.614 115.944 109.08 113.91 108.011C111.876 106.932 110.296 105.46 109.171 103.597C108.058 101.722 107.501 99.5909 107.501 97.2045V74.0909H111.728V96.8636C111.728 98.5682 112.103 100.085 112.853 101.415C113.603 102.733 114.671 103.773 116.058 104.534C117.455 105.284 119.126 105.659 121.069 105.659C123.012 105.659 124.683 105.284 126.08 104.534C127.478 103.773 128.546 102.733 129.285 101.415C130.035 100.085 130.41 98.5682 130.41 96.8636V74.0909ZM161.079 88.6818L157.465 89.7045C157.238 89.1023 156.903 88.517 156.46 87.9489C156.028 87.3693 155.437 86.892 154.687 86.517C153.937 86.142 152.977 85.9545 151.806 85.9545C150.204 85.9545 148.869 86.3239 147.8 87.0625C146.744 87.7898 146.215 88.7159 146.215 89.8409C146.215 90.8409 146.579 91.6307 147.306 92.2102C148.033 92.7898 149.17 93.2727 150.715 93.6591L154.602 94.6136C156.942 95.1818 158.687 96.0511 159.835 97.2216C160.982 98.3807 161.556 99.875 161.556 101.705C161.556 103.205 161.124 104.545 160.261 105.727C159.408 106.909 158.215 107.841 156.681 108.523C155.147 109.205 153.363 109.545 151.329 109.545C148.658 109.545 146.448 108.966 144.698 107.807C142.948 106.648 141.84 104.955 141.374 102.727L145.192 101.773C145.556 103.182 146.244 104.239 147.255 104.943C148.278 105.648 149.613 106 151.261 106C153.136 106 154.624 105.602 155.727 104.807C156.84 104 157.397 103.034 157.397 101.909C157.397 101 157.079 100.239 156.442 99.625C155.806 99 154.829 98.5341 153.511 98.2273L149.147 97.2045C146.749 96.6364 144.988 95.7557 143.863 94.5625C142.749 93.358 142.192 91.8523 142.192 90.0455C142.192 88.5682 142.607 87.2614 143.437 86.125C144.278 84.9886 145.42 84.0966 146.863 83.4489C148.317 82.8011 149.965 82.4773 151.806 82.4773C154.397 82.4773 156.431 83.0455 157.908 84.1818C159.397 85.3182 160.454 86.8182 161.079 88.6818ZM178.589 109.545C176.066 109.545 173.89 108.989 172.06 107.875C170.242 106.75 168.839 105.182 167.85 103.17C166.873 101.148 166.384 98.7955 166.384 96.1136C166.384 93.4318 166.873 91.0682 167.85 89.0227C168.839 86.9659 170.214 85.3636 171.975 84.2159C173.748 83.0568 175.816 82.4773 178.18 82.4773C179.543 82.4773 180.89 82.7045 182.219 83.1591C183.549 83.6136 184.759 84.3523 185.85 85.375C186.941 86.3864 187.81 87.7273 188.458 89.3977C189.106 91.0682 189.43 93.125 189.43 95.5682V97.2727H169.248V93.7955H185.339C185.339 92.3182 185.043 91 184.452 89.8409C183.873 88.6818 183.043 87.767 181.964 87.0966C180.896 86.4261 179.634 86.0909 178.18 86.0909C176.577 86.0909 175.191 86.4886 174.021 87.2841C172.862 88.0682 171.969 89.0909 171.344 90.3523C170.719 91.6136 170.407 92.9659 170.407 94.4091V96.7273C170.407 98.7045 170.748 100.381 171.43 101.756C172.123 103.119 173.083 104.159 174.31 104.875C175.538 105.58 176.964 105.932 178.589 105.932C179.646 105.932 180.6 105.784 181.452 105.489C182.316 105.182 183.06 104.727 183.685 104.125C184.31 103.511 184.793 102.75 185.134 101.841L189.021 102.932C188.612 104.25 187.924 105.409 186.958 106.409C185.992 107.398 184.799 108.17 183.379 108.727C181.958 109.273 180.362 109.545 178.589 109.545ZM195.549 109V82.8182H199.435V86.7727H199.708C200.185 85.4773 201.049 84.4261 202.299 83.6193C203.549 82.8125 204.958 82.4091 206.526 82.4091C206.822 82.4091 207.191 82.4148 207.634 82.4261C208.077 82.4375 208.413 82.4545 208.64 82.4773V86.5682C208.504 86.5341 208.191 86.483 207.702 86.4148C207.225 86.3352 206.719 86.2955 206.185 86.2955C204.913 86.2955 203.776 86.5625 202.776 87.0966C201.788 87.6193 201.004 88.3466 200.424 89.2784C199.856 90.1989 199.572 91.25 199.572 92.4318V109H195.549Z" fill="black"/>
<rect x="364.498" y="0.988403" width="128" height="128" transform="rotate(45 364.498 0.988403)" fill="#2897DC"/>
<rect x="1251" y="0.988403" width="128" height="128" transform="rotate(45 1251 0.988403)" fill="#2897DC"/>
<path d="M324.942 86L320.908 71.4545H323.216L326.05 82.7188H326.185L329.132 71.4545H331.419L334.367 82.7259H334.502L337.328 71.4545H339.644L335.603 86H333.394L330.333 75.1051H330.219L327.158 86H324.942ZM345.102 86.2202C344.027 86.2202 343.101 85.9905 342.325 85.5312C341.553 85.0672 340.957 84.4162 340.535 83.5781C340.118 82.7353 339.91 81.7481 339.91 80.6165C339.91 79.4991 340.118 78.5142 340.535 77.6619C340.957 76.8097 341.544 76.1444 342.297 75.6662C343.054 75.188 343.94 74.9489 344.953 74.9489C345.568 74.9489 346.165 75.0507 346.743 75.2543C347.32 75.4579 347.839 75.7775 348.298 76.2131C348.757 76.6487 349.119 77.2145 349.385 77.9105C349.65 78.6018 349.782 79.4422 349.782 80.4318V81.1847H341.11V79.5938H347.701C347.701 79.035 347.588 78.5402 347.36 78.1094C347.133 77.6738 346.814 77.3305 346.402 77.0795C345.994 76.8286 345.516 76.7031 344.967 76.7031C344.37 76.7031 343.85 76.8499 343.404 77.1435C342.964 77.4323 342.623 77.8111 342.382 78.2798C342.145 78.7438 342.027 79.2481 342.027 79.7926V81.0355C342.027 81.7647 342.154 82.3849 342.41 82.8963C342.671 83.4077 343.033 83.7983 343.497 84.0682C343.961 84.3333 344.503 84.4659 345.123 84.4659C345.526 84.4659 345.893 84.4091 346.224 84.2955C346.556 84.1771 346.842 84.0019 347.083 83.7699C347.325 83.5379 347.51 83.2514 347.637 82.9105L349.647 83.2727C349.486 83.8646 349.198 84.383 348.781 84.8281C348.369 85.2685 347.85 85.6117 347.225 85.858C346.605 86.0994 345.897 86.2202 345.102 86.2202ZM354.262 71.4545V86H352.138V71.4545H354.262ZM361.714 86.2202C360.658 86.2202 359.749 85.9811 358.987 85.5028C358.229 85.0199 357.647 84.3546 357.24 83.5071C356.833 82.6596 356.629 81.6889 356.629 80.5952C356.629 79.4872 356.837 78.5095 357.254 77.6619C357.671 76.8097 358.258 76.1444 359.015 75.6662C359.773 75.188 360.665 74.9489 361.693 74.9489C362.521 74.9489 363.26 75.1027 363.909 75.4105C364.557 75.7135 365.081 76.1397 365.478 76.6889C365.881 77.2382 366.12 77.8797 366.196 78.6136H364.129C364.015 78.1023 363.755 77.6619 363.348 77.2926C362.945 76.9233 362.405 76.7386 361.728 76.7386C361.136 76.7386 360.618 76.8949 360.173 77.2074C359.733 77.5152 359.389 77.9555 359.143 78.5284C358.897 79.0966 358.774 79.7689 358.774 80.5455C358.774 81.3409 358.895 82.0275 359.136 82.6051C359.377 83.1828 359.718 83.6302 360.159 83.9474C360.604 84.2647 361.127 84.4233 361.728 84.4233C362.131 84.4233 362.495 84.3499 362.822 84.2031C363.154 84.0516 363.431 83.8362 363.653 83.5568C363.88 83.2775 364.039 82.9413 364.129 82.5483H366.196C366.12 83.2538 365.89 83.8835 365.507 84.4375C365.123 84.9915 364.609 85.4271 363.966 85.7443C363.326 86.0616 362.576 86.2202 361.714 86.2202ZM373.062 86.2202C372.039 86.2202 371.147 85.9858 370.384 85.517C369.622 85.0483 369.03 84.3925 368.609 83.5497C368.187 82.7069 367.977 81.7221 367.977 80.5952C367.977 79.4635 368.187 78.474 368.609 77.6264C369.03 76.7789 369.622 76.1207 370.384 75.652C371.147 75.1832 372.039 74.9489 373.062 74.9489C374.085 74.9489 374.977 75.1832 375.739 75.652C376.502 76.1207 377.094 76.7789 377.515 77.6264C377.936 78.474 378.147 79.4635 378.147 80.5952C378.147 81.7221 377.936 82.7069 377.515 83.5497C377.094 84.3925 376.502 85.0483 375.739 85.517C374.977 85.9858 374.085 86.2202 373.062 86.2202ZM373.069 84.4375C373.732 84.4375 374.281 84.2623 374.717 83.9119C375.152 83.5616 375.474 83.0952 375.683 82.5128C375.896 81.9304 376.002 81.2888 376.002 80.5881C376.002 79.892 375.896 79.2528 375.683 78.6705C375.474 78.0833 375.152 77.6122 374.717 77.2571C374.281 76.902 373.732 76.7244 373.069 76.7244C372.401 76.7244 371.847 76.902 371.407 77.2571C370.971 77.6122 370.647 78.0833 370.434 78.6705C370.226 79.2528 370.121 79.892 370.121 80.5881C370.121 81.2888 370.226 81.9304 370.434 82.5128C370.647 83.0952 370.971 83.5616 371.407 83.9119C371.847 84.2623 372.401 84.4375 373.069 84.4375ZM380.517 86V75.0909H382.556V76.8665H382.691C382.918 76.2652 383.29 75.7964 383.806 75.4602C384.322 75.1193 384.94 74.9489 385.659 74.9489C386.389 74.9489 386.999 75.1193 387.492 75.4602C387.989 75.8011 388.356 76.2699 388.593 76.8665H388.706C388.967 76.2841 389.381 75.8201 389.949 75.4744C390.517 75.1241 391.194 74.9489 391.98 74.9489C392.97 74.9489 393.777 75.259 394.402 75.8793C395.032 76.4995 395.347 77.4347 395.347 78.6847V86H393.223V78.8835C393.223 78.1449 393.022 77.6098 392.62 77.2784C392.217 76.947 391.737 76.7812 391.178 76.7812C390.487 76.7812 389.949 76.9943 389.566 77.4205C389.182 77.8419 388.99 78.384 388.99 79.0469V86H386.874V78.7486C386.874 78.1567 386.689 77.6809 386.32 77.321C385.951 76.9612 385.47 76.7812 384.878 76.7812C384.476 76.7812 384.104 76.8878 383.763 77.1009C383.427 77.3092 383.155 77.6004 382.946 77.9744C382.743 78.3485 382.641 78.7817 382.641 79.2741V86H380.517ZM402.895 86.2202C401.82 86.2202 400.894 85.9905 400.118 85.5312C399.346 85.0672 398.75 84.4162 398.328 83.5781C397.911 82.7353 397.703 81.7481 397.703 80.6165C397.703 79.4991 397.911 78.5142 398.328 77.6619C398.75 76.8097 399.337 76.1444 400.089 75.6662C400.847 75.188 401.732 74.9489 402.746 74.9489C403.361 74.9489 403.958 75.0507 404.536 75.2543C405.113 75.4579 405.632 75.7775 406.091 76.2131C406.55 76.6487 406.912 77.2145 407.178 77.9105C407.443 78.6018 407.575 79.4422 407.575 80.4318V81.1847H398.903V79.5938H405.494C405.494 79.035 405.381 78.5402 405.153 78.1094C404.926 77.6738 404.607 77.3305 404.195 77.0795C403.787 76.8286 403.309 76.7031 402.76 76.7031C402.163 76.7031 401.643 76.8499 401.197 77.1435C400.757 77.4323 400.416 77.8111 400.175 78.2798C399.938 78.7438 399.82 79.2481 399.82 79.7926V81.0355C399.82 81.7647 399.947 82.3849 400.203 82.8963C400.464 83.4077 400.826 83.7983 401.29 84.0682C401.754 84.3333 402.296 84.4659 402.916 84.4659C403.319 84.4659 403.686 84.4091 404.017 84.2955C404.348 84.1771 404.635 84.0019 404.876 83.7699C405.118 83.5379 405.303 83.2514 405.43 82.9105L407.44 83.2727C407.279 83.8646 406.991 84.383 406.574 84.8281C406.162 85.2685 405.643 85.6117 405.018 85.858C404.398 86.0994 403.69 86.2202 402.895 86.2202ZM340.564 99.2756C340.489 98.6032 340.176 98.0824 339.627 97.7131C339.078 97.339 338.386 97.152 337.553 97.152C336.956 97.152 336.44 97.2467 336.005 97.4361C335.569 97.6207 335.231 97.8764 334.989 98.2031C334.752 98.5251 334.634 98.892 334.634 99.304C334.634 99.6496 334.715 99.9479 334.876 100.199C335.041 100.45 335.257 100.661 335.522 100.831C335.792 100.997 336.081 101.136 336.388 101.25C336.696 101.359 336.992 101.449 337.276 101.52L338.697 101.889C339.161 102.003 339.636 102.157 340.124 102.351C340.612 102.545 341.064 102.801 341.481 103.118C341.897 103.435 342.233 103.828 342.489 104.297C342.75 104.766 342.88 105.327 342.88 105.98C342.88 106.804 342.667 107.536 342.241 108.175C341.819 108.814 341.206 109.318 340.401 109.688C339.601 110.057 338.633 110.241 337.496 110.241C336.407 110.241 335.465 110.069 334.67 109.723C333.874 109.377 333.251 108.887 332.802 108.253C332.352 107.614 332.103 106.856 332.056 105.98H334.258C334.3 106.506 334.471 106.944 334.769 107.294C335.072 107.64 335.458 107.898 335.927 108.068C336.4 108.234 336.919 108.317 337.482 108.317C338.102 108.317 338.654 108.22 339.137 108.026C339.625 107.827 340.008 107.552 340.287 107.202C340.567 106.847 340.706 106.432 340.706 105.959C340.706 105.528 340.583 105.175 340.337 104.901C340.096 104.626 339.767 104.399 339.35 104.219C338.938 104.039 338.472 103.88 337.951 103.743L336.232 103.274C335.067 102.957 334.144 102.491 333.462 101.875C332.785 101.259 332.447 100.445 332.447 99.4318C332.447 98.5937 332.674 97.8622 333.128 97.2372C333.583 96.6122 334.198 96.1269 334.975 95.7812C335.751 95.4309 336.627 95.2557 337.603 95.2557C338.588 95.2557 339.456 95.4285 340.209 95.7741C340.967 96.1198 341.564 96.5956 341.999 97.2017C342.435 97.803 342.662 98.4943 342.681 99.2756H340.564ZM349.927 110.22C348.871 110.22 347.962 109.981 347.2 109.503C346.442 109.02 345.86 108.355 345.453 107.507C345.045 106.66 344.842 105.689 344.842 104.595C344.842 103.487 345.05 102.509 345.467 101.662C345.883 100.81 346.471 100.144 347.228 99.6662C347.986 99.188 348.878 98.9489 349.906 98.9489C350.734 98.9489 351.473 99.1027 352.122 99.4105C352.77 99.7135 353.294 100.14 353.691 100.689C354.094 101.238 354.333 101.88 354.409 102.614H352.342C352.228 102.102 351.968 101.662 351.561 101.293C351.158 100.923 350.618 100.739 349.941 100.739C349.349 100.739 348.831 100.895 348.386 101.207C347.945 101.515 347.602 101.955 347.356 102.528C347.11 103.097 346.987 103.769 346.987 104.545C346.987 105.341 347.107 106.027 347.349 106.605C347.59 107.183 347.931 107.63 348.372 107.947C348.817 108.265 349.34 108.423 349.941 108.423C350.344 108.423 350.708 108.35 351.035 108.203C351.366 108.052 351.643 107.836 351.866 107.557C352.093 107.277 352.252 106.941 352.342 106.548H354.409C354.333 107.254 354.103 107.884 353.72 108.438C353.336 108.991 352.822 109.427 352.178 109.744C351.539 110.062 350.789 110.22 349.927 110.22ZM356.68 110V99.0909H358.732V100.824H358.846C359.045 100.237 359.395 99.7751 359.897 99.4389C360.403 99.098 360.976 98.9276 361.616 98.9276C361.748 98.9276 361.904 98.9323 362.084 98.9418C362.269 98.9512 362.413 98.9631 362.518 98.9773V101.009C362.432 100.985 362.281 100.959 362.063 100.93C361.845 100.897 361.627 100.881 361.41 100.881C360.908 100.881 360.46 100.987 360.067 101.2C359.679 101.409 359.371 101.7 359.144 102.074C358.917 102.443 358.803 102.865 358.803 103.338V110H356.68ZM368.666 110.22C367.592 110.22 366.666 109.991 365.889 109.531C365.118 109.067 364.521 108.416 364.1 107.578C363.683 106.735 363.475 105.748 363.475 104.616C363.475 103.499 363.683 102.514 364.1 101.662C364.521 100.81 365.108 100.144 365.861 99.6662C366.619 99.188 367.504 98.9489 368.517 98.9489C369.133 98.9489 369.729 99.0507 370.307 99.2543C370.885 99.4579 371.403 99.7775 371.862 100.213C372.322 100.649 372.684 101.214 372.949 101.911C373.214 102.602 373.347 103.442 373.347 104.432V105.185H364.675V103.594H371.266C371.266 103.035 371.152 102.54 370.925 102.109C370.698 101.674 370.378 101.33 369.966 101.08C369.559 100.829 369.081 100.703 368.531 100.703C367.935 100.703 367.414 100.85 366.969 101.143C366.529 101.432 366.188 101.811 365.946 102.28C365.709 102.744 365.591 103.248 365.591 103.793V105.036C365.591 105.765 365.719 106.385 365.975 106.896C366.235 107.408 366.597 107.798 367.061 108.068C367.525 108.333 368.067 108.466 368.688 108.466C369.09 108.466 369.457 108.409 369.789 108.295C370.12 108.177 370.406 108.002 370.648 107.77C370.889 107.538 371.074 107.251 371.202 106.911L373.212 107.273C373.051 107.865 372.762 108.383 372.345 108.828C371.933 109.268 371.415 109.612 370.79 109.858C370.17 110.099 369.462 110.22 368.666 110.22ZM380.405 110.22C379.33 110.22 378.404 109.991 377.628 109.531C376.856 109.067 376.259 108.416 375.838 107.578C375.421 106.735 375.213 105.748 375.213 104.616C375.213 103.499 375.421 102.514 375.838 101.662C376.259 100.81 376.846 100.144 377.599 99.6662C378.357 99.188 379.242 98.9489 380.256 98.9489C380.871 98.9489 381.468 99.0507 382.045 99.2543C382.623 99.4579 383.141 99.7775 383.601 100.213C384.06 100.649 384.422 101.214 384.687 101.911C384.952 102.602 385.085 103.442 385.085 104.432V105.185H376.413V103.594H383.004C383.004 103.035 382.89 102.54 382.663 102.109C382.436 101.674 382.116 101.33 381.704 101.08C381.297 100.829 380.819 100.703 380.27 100.703C379.673 100.703 379.152 100.85 378.707 101.143C378.267 101.432 377.926 101.811 377.684 102.28C377.448 102.744 377.329 103.248 377.329 103.793V105.036C377.329 105.765 377.457 106.385 377.713 106.896C377.973 107.408 378.336 107.798 378.8 108.068C379.264 108.333 379.806 108.466 380.426 108.466C380.828 108.466 381.195 108.409 381.527 108.295C381.858 108.177 382.145 108.002 382.386 107.77C382.628 107.538 382.812 107.251 382.94 106.911L384.95 107.273C384.789 107.865 384.5 108.383 384.084 108.828C383.672 109.268 383.153 109.612 382.528 109.858C381.908 110.099 381.2 110.22 380.405 110.22ZM389.565 103.523V110H387.441V99.0909H389.48V100.866H389.615C389.865 100.289 390.258 99.8248 390.794 99.4744C391.333 99.1241 392.013 98.9489 392.832 98.9489C393.575 98.9489 394.226 99.1051 394.785 99.4176C395.344 99.7254 395.777 100.185 396.085 100.795C396.392 101.406 396.546 102.161 396.546 103.061V110H394.423V103.317C394.423 102.526 394.217 101.908 393.805 101.463C393.393 101.013 392.827 100.788 392.107 100.788C391.615 100.788 391.177 100.895 390.794 101.108C390.415 101.321 390.114 101.634 389.892 102.045C389.674 102.453 389.565 102.945 389.565 103.523Z" fill="white"/>
<path d="M1223.94 86V71.4545H1226.14V77.7756H1233.39V71.4545H1235.59V86H1233.39V79.6577H1226.14V86H1223.94ZM1243.21 86.2202C1242.19 86.2202 1241.3 85.9858 1240.53 85.517C1239.77 85.0483 1239.18 84.3925 1238.76 83.5497C1238.34 82.7069 1238.13 81.7221 1238.13 80.5952C1238.13 79.4635 1238.34 78.474 1238.76 77.6264C1239.18 76.7789 1239.77 76.1207 1240.53 75.652C1241.3 75.1832 1242.19 74.9489 1243.21 74.9489C1244.23 74.9489 1245.13 75.1832 1245.89 75.652C1246.65 76.1207 1247.24 76.7789 1247.67 77.6264C1248.09 78.474 1248.3 79.4635 1248.3 80.5952C1248.3 81.7221 1248.09 82.7069 1247.67 83.5497C1247.24 84.3925 1246.65 85.0483 1245.89 85.517C1245.13 85.9858 1244.23 86.2202 1243.21 86.2202ZM1243.22 84.4375C1243.88 84.4375 1244.43 84.2623 1244.87 83.9119C1245.3 83.5616 1245.62 83.0952 1245.83 82.5128C1246.05 81.9304 1246.15 81.2888 1246.15 80.5881C1246.15 79.892 1246.05 79.2528 1245.83 78.6705C1245.62 78.0833 1245.3 77.6122 1244.87 77.2571C1244.43 76.902 1243.88 76.7244 1243.22 76.7244C1242.55 76.7244 1242 76.902 1241.56 77.2571C1241.12 77.6122 1240.8 78.0833 1240.58 78.6705C1240.38 79.2528 1240.27 79.892 1240.27 80.5881C1240.27 81.2888 1240.38 81.9304 1240.58 82.5128C1240.8 83.0952 1241.12 83.5616 1241.56 83.9119C1242 84.2623 1242.55 84.4375 1243.22 84.4375ZM1250.67 86V75.0909H1252.71V76.8665H1252.84C1253.07 76.2652 1253.44 75.7964 1253.96 75.4602C1254.47 75.1193 1255.09 74.9489 1255.81 74.9489C1256.54 74.9489 1257.15 75.1193 1257.64 75.4602C1258.14 75.8011 1258.51 76.2699 1258.74 76.8665H1258.86C1259.12 76.2841 1259.53 75.8201 1260.1 75.4744C1260.67 75.1241 1261.34 74.9489 1262.13 74.9489C1263.12 74.9489 1263.93 75.259 1264.55 75.8793C1265.18 76.4995 1265.5 77.4347 1265.5 78.6847V86H1263.37V78.8835C1263.37 78.1449 1263.17 77.6098 1262.77 77.2784C1262.37 76.947 1261.89 76.7812 1261.33 76.7812C1260.64 76.7812 1260.1 76.9943 1259.72 77.4205C1259.33 77.8419 1259.14 78.384 1259.14 79.0469V86H1257.02V78.7486C1257.02 78.1567 1256.84 77.6809 1256.47 77.321C1256.1 76.9612 1255.62 76.7812 1255.03 76.7812C1254.63 76.7812 1254.25 76.8878 1253.91 77.1009C1253.58 77.3092 1253.31 77.6004 1253.1 77.9744C1252.89 78.3485 1252.79 78.7817 1252.79 79.2741V86H1250.67ZM1273.05 86.2202C1271.97 86.2202 1271.04 85.9905 1270.27 85.5312C1269.5 85.0672 1268.9 84.4162 1268.48 83.5781C1268.06 82.7353 1267.85 81.7481 1267.85 80.6165C1267.85 79.4991 1268.06 78.5142 1268.48 77.6619C1268.9 76.8097 1269.49 76.1444 1270.24 75.6662C1271 75.188 1271.88 74.9489 1272.9 74.9489C1273.51 74.9489 1274.11 75.0507 1274.69 75.2543C1275.26 75.4579 1275.78 75.7775 1276.24 76.2131C1276.7 76.6487 1277.06 77.2145 1277.33 77.9105C1277.59 78.6018 1277.73 79.4422 1277.73 80.4318V81.1847H1269.05V79.5938H1275.64C1275.64 79.035 1275.53 78.5402 1275.3 78.1094C1275.08 77.6738 1274.76 77.3305 1274.34 77.0795C1273.94 76.8286 1273.46 76.7031 1272.91 76.7031C1272.31 76.7031 1271.79 76.8499 1271.35 77.1435C1270.91 77.4323 1270.57 77.8111 1270.33 78.2798C1270.09 78.7438 1269.97 79.2481 1269.97 79.7926V81.0355C1269.97 81.7647 1270.1 82.3849 1270.35 82.8963C1270.61 83.4077 1270.98 83.7983 1271.44 84.0682C1271.9 84.3333 1272.45 84.4659 1273.07 84.4659C1273.47 84.4659 1273.84 84.4091 1274.17 84.2955C1274.5 84.1771 1274.79 84.0019 1275.03 83.7699C1275.27 83.5379 1275.45 83.2514 1275.58 82.9105L1277.59 83.2727C1277.43 83.8646 1277.14 84.383 1276.72 84.8281C1276.31 85.2685 1275.79 85.6117 1275.17 85.858C1274.55 86.0994 1273.84 86.2202 1273.05 86.2202ZM1226.56 99.2756C1226.49 98.6032 1226.18 98.0824 1225.63 97.7131C1225.08 97.339 1224.39 97.152 1223.55 97.152C1222.96 97.152 1222.44 97.2467 1222 97.4361C1221.57 97.6207 1221.23 97.8764 1220.99 98.2031C1220.75 98.5251 1220.63 98.892 1220.63 99.304C1220.63 99.6496 1220.71 99.9479 1220.88 100.199C1221.04 100.45 1221.26 100.661 1221.52 100.831C1221.79 100.997 1222.08 101.136 1222.39 101.25C1222.7 101.359 1222.99 101.449 1223.28 101.52L1224.7 101.889C1225.16 102.003 1225.64 102.157 1226.12 102.351C1226.61 102.545 1227.06 102.801 1227.48 103.118C1227.9 103.435 1228.23 103.828 1228.49 104.297C1228.75 104.766 1228.88 105.327 1228.88 105.98C1228.88 106.804 1228.67 107.536 1228.24 108.175C1227.82 108.814 1227.21 109.318 1226.4 109.688C1225.6 110.057 1224.63 110.241 1223.5 110.241C1222.41 110.241 1221.47 110.069 1220.67 109.723C1219.87 109.377 1219.25 108.887 1218.8 108.253C1218.35 107.614 1218.1 106.856 1218.06 105.98H1220.26C1220.3 106.506 1220.47 106.944 1220.77 107.294C1221.07 107.64 1221.46 107.898 1221.93 108.068C1222.4 108.234 1222.92 108.317 1223.48 108.317C1224.1 108.317 1224.65 108.22 1225.14 108.026C1225.62 107.827 1226.01 107.552 1226.29 107.202C1226.57 106.847 1226.71 106.432 1226.71 105.959C1226.71 105.528 1226.58 105.175 1226.34 104.901C1226.1 104.626 1225.77 104.399 1225.35 104.219C1224.94 104.039 1224.47 103.88 1223.95 103.743L1222.23 103.274C1221.07 102.957 1220.14 102.491 1219.46 101.875C1218.79 101.259 1218.45 100.445 1218.45 99.4318C1218.45 98.5937 1218.67 97.8622 1219.13 97.2372C1219.58 96.6122 1220.2 96.1269 1220.97 95.7812C1221.75 95.4309 1222.63 95.2557 1223.6 95.2557C1224.59 95.2557 1225.46 95.4285 1226.21 95.7741C1226.97 96.1198 1227.56 96.5956 1228 97.2017C1228.43 97.803 1228.66 98.4943 1228.68 99.2756H1226.56ZM1235.93 110.22C1234.87 110.22 1233.96 109.981 1233.2 109.503C1232.44 109.02 1231.86 108.355 1231.45 107.507C1231.05 106.66 1230.84 105.689 1230.84 104.595C1230.84 103.487 1231.05 102.509 1231.47 101.662C1231.88 100.81 1232.47 100.144 1233.23 99.6662C1233.99 99.188 1234.88 98.9489 1235.91 98.9489C1236.73 98.9489 1237.47 99.1027 1238.12 99.4105C1238.77 99.7135 1239.29 100.14 1239.69 100.689C1240.09 101.238 1240.33 101.88 1240.41 102.614H1238.34C1238.23 102.102 1237.97 101.662 1237.56 101.293C1237.16 100.923 1236.62 100.739 1235.94 100.739C1235.35 100.739 1234.83 100.895 1234.39 101.207C1233.95 101.515 1233.6 101.955 1233.36 102.528C1233.11 103.097 1232.99 103.769 1232.99 104.545C1232.99 105.341 1233.11 106.027 1233.35 106.605C1233.59 107.183 1233.93 107.63 1234.37 107.947C1234.82 108.265 1235.34 108.423 1235.94 108.423C1236.34 108.423 1236.71 108.35 1237.03 108.203C1237.37 108.052 1237.64 107.836 1237.87 107.557C1238.09 107.277 1238.25 106.941 1238.34 106.548H1240.41C1240.33 107.254 1240.1 107.884 1239.72 108.438C1239.34 108.991 1238.82 109.427 1238.18 109.744C1237.54 110.062 1236.79 110.22 1235.93 110.22ZM1242.68 110V99.0909H1244.73V100.824H1244.85C1245.04 100.237 1245.39 99.7751 1245.9 99.4389C1246.4 99.098 1246.98 98.9276 1247.62 98.9276C1247.75 98.9276 1247.9 98.9323 1248.08 98.9418C1248.27 98.9512 1248.41 98.9631 1248.52 98.9773V101.009C1248.43 100.985 1248.28 100.959 1248.06 100.93C1247.85 100.897 1247.63 100.881 1247.41 100.881C1246.91 100.881 1246.46 100.987 1246.07 101.2C1245.68 101.409 1245.37 101.7 1245.14 102.074C1244.92 102.443 1244.8 102.865 1244.8 103.338V110H1242.68ZM1254.67 110.22C1253.59 110.22 1252.67 109.991 1251.89 109.531C1251.12 109.067 1250.52 108.416 1250.1 107.578C1249.68 106.735 1249.47 105.748 1249.47 104.616C1249.47 103.499 1249.68 102.514 1250.1 101.662C1250.52 100.81 1251.11 100.144 1251.86 99.6662C1252.62 99.188 1253.5 98.9489 1254.52 98.9489C1255.13 98.9489 1255.73 99.0507 1256.31 99.2543C1256.88 99.4579 1257.4 99.7775 1257.86 100.213C1258.32 100.649 1258.68 101.214 1258.95 101.911C1259.21 102.602 1259.35 103.442 1259.35 104.432V105.185H1250.67V103.594H1257.27C1257.27 103.035 1257.15 102.54 1256.92 102.109C1256.7 101.674 1256.38 101.33 1255.97 101.08C1255.56 100.829 1255.08 100.703 1254.53 100.703C1253.93 100.703 1253.41 100.85 1252.97 101.143C1252.53 101.432 1252.19 101.811 1251.95 102.28C1251.71 102.744 1251.59 103.248 1251.59 103.793V105.036C1251.59 105.765 1251.72 106.385 1251.97 106.896C1252.24 107.408 1252.6 107.798 1253.06 108.068C1253.53 108.333 1254.07 108.466 1254.69 108.466C1255.09 108.466 1255.46 108.409 1255.79 108.295C1256.12 108.177 1256.41 108.002 1256.65 107.77C1256.89 107.538 1257.07 107.251 1257.2 106.911L1259.21 107.273C1259.05 107.865 1258.76 108.383 1258.35 108.828C1257.93 109.268 1257.41 109.612 1256.79 109.858C1256.17 110.099 1255.46 110.22 1254.67 110.22ZM1266.4 110.22C1265.33 110.22 1264.4 109.991 1263.63 109.531C1262.86 109.067 1262.26 108.416 1261.84 107.578C1261.42 106.735 1261.21 105.748 1261.21 104.616C1261.21 103.499 1261.42 102.514 1261.84 101.662C1262.26 100.81 1262.85 100.144 1263.6 99.6662C1264.36 99.188 1265.24 98.9489 1266.26 98.9489C1266.87 98.9489 1267.47 99.0507 1268.05 99.2543C1268.62 99.4579 1269.14 99.7775 1269.6 100.213C1270.06 100.649 1270.42 101.214 1270.69 101.911C1270.95 102.602 1271.09 103.442 1271.09 104.432V105.185H1262.41V103.594H1269C1269 103.035 1268.89 102.54 1268.66 102.109C1268.44 101.674 1268.12 101.33 1267.7 101.08C1267.3 100.829 1266.82 100.703 1266.27 100.703C1265.67 100.703 1265.15 100.85 1264.71 101.143C1264.27 101.432 1263.93 101.811 1263.68 102.28C1263.45 102.744 1263.33 103.248 1263.33 103.793V105.036C1263.33 105.765 1263.46 106.385 1263.71 106.896C1263.97 107.408 1264.34 107.798 1264.8 108.068C1265.26 108.333 1265.81 108.466 1266.43 108.466C1266.83 108.466 1267.2 108.409 1267.53 108.295C1267.86 108.177 1268.14 108.002 1268.39 107.77C1268.63 107.538 1268.81 107.251 1268.94 106.911L1270.95 107.273C1270.79 107.865 1270.5 108.383 1270.08 108.828C1269.67 109.268 1269.15 109.612 1268.53 109.858C1267.91 110.099 1267.2 110.22 1266.4 110.22ZM1275.56 103.523V110H1273.44V99.0909H1275.48V100.866H1275.61C1275.87 100.289 1276.26 99.8248 1276.79 99.4744C1277.33 99.1241 1278.01 98.9489 1278.83 98.9489C1279.58 98.9489 1280.23 99.1051 1280.78 99.4176C1281.34 99.7254 1281.78 100.185 1282.08 100.795C1282.39 101.406 1282.55 102.161 1282.55 103.061V110H1280.42V103.317C1280.42 102.526 1280.22 101.908 1279.8 101.463C1279.39 101.013 1278.83 100.788 1278.11 100.788C1277.61 100.788 1277.18 100.895 1276.79 101.108C1276.41 101.321 1276.11 101.634 1275.89 102.045C1275.67 102.453 1275.56 102.945 1275.56 103.523Z" fill="white"/>
<path d="M511 92L501 86.2265V97.7735L511 92ZM455 93H502V91H455V93Z" fill="black"/>
<path d="M727 92L717 86.2265V97.7735L727 92ZM671 93H718V91H671V93Z" fill="black"/>
<path d="M943 92L933 86.2265V97.7735L943 92ZM887 93H934V91H887V93Z" fill="black"/>
<path d="M1159 92L1149 86.2265V97.7735L1159 92ZM1103 93H1150V91H1103V93Z" fill="black"/>
<path d="M1397 92L1387 86.2265V97.7735L1397 92ZM1341 93H1388V91H1341V93Z" fill="black"/>
<circle cx="591" cy="91" r="80" fill="#FCF280"/>
<circle cx="807" cy="91" r="80" fill="#FCF280"/>
<circle cx="1023" cy="91" r="80" fill="#FCF280"/>
<path d="M564.691 87.2756C564.616 86.6032 564.303 86.0824 563.754 85.7131C563.205 85.339 562.513 85.152 561.68 85.152C561.083 85.152 560.567 85.2467 560.132 85.4361C559.696 85.6207 559.358 85.8764 559.116 86.2031C558.879 86.5251 558.761 86.892 558.761 87.304C558.761 87.6496 558.842 87.9479 559.002 88.1989C559.168 88.4498 559.384 88.6605 559.649 88.831C559.919 88.9967 560.208 89.1364 560.515 89.25C560.823 89.3589 561.119 89.4489 561.403 89.5199L562.824 89.8892C563.288 90.0028 563.763 90.1567 564.251 90.3509C564.739 90.545 565.191 90.8007 565.608 91.1179C566.024 91.4351 566.36 91.8281 566.616 92.2969C566.877 92.7656 567.007 93.3267 567.007 93.9801C567.007 94.804 566.794 95.5355 566.368 96.1747C565.946 96.8139 565.333 97.3182 564.528 97.6875C563.728 98.0568 562.76 98.2415 561.623 98.2415C560.534 98.2415 559.592 98.0687 558.797 97.723C558.001 97.3774 557.378 96.8873 556.929 96.2528C556.479 95.6136 556.23 94.8561 556.183 93.9801H558.385C558.427 94.5057 558.598 94.9437 558.896 95.294C559.199 95.6397 559.585 95.8977 560.054 96.0682C560.527 96.2339 561.046 96.3168 561.609 96.3168C562.229 96.3168 562.781 96.2197 563.264 96.0256C563.752 95.8267 564.135 95.5521 564.414 95.2017C564.694 94.8466 564.833 94.4323 564.833 93.9588C564.833 93.5279 564.71 93.1752 564.464 92.9006C564.223 92.6259 563.894 92.3987 563.477 92.2188C563.065 92.0388 562.599 91.8802 562.078 91.7429L560.359 91.2741C559.194 90.9569 558.271 90.4905 557.589 89.875C556.912 89.2595 556.574 88.4451 556.574 87.4318C556.574 86.5937 556.801 85.8622 557.255 85.2372C557.71 84.6122 558.325 84.1269 559.102 83.7812C559.878 83.4309 560.754 83.2557 561.73 83.2557C562.715 83.2557 563.583 83.4285 564.336 83.7741C565.094 84.1198 565.69 84.5956 566.126 85.2017C566.562 85.803 566.789 86.4943 566.808 87.2756H564.691ZM569.459 98V87.0909H571.582V98H569.459ZM570.531 85.4077C570.162 85.4077 569.845 85.2846 569.58 85.0384C569.319 84.7874 569.189 84.4891 569.189 84.1435C569.189 83.7931 569.319 83.4948 569.58 83.2486C569.845 82.9976 570.162 82.8722 570.531 82.8722C570.901 82.8722 571.215 82.9976 571.476 83.2486C571.741 83.4948 571.874 83.7931 571.874 84.1435C571.874 84.4891 571.741 84.7874 571.476 85.0384C571.215 85.2846 570.901 85.4077 570.531 85.4077ZM579.013 102.318C578.147 102.318 577.401 102.205 576.776 101.977C576.156 101.75 575.649 101.449 575.256 101.075C574.863 100.701 574.569 100.292 574.375 99.8466L576.201 99.0938C576.328 99.3021 576.499 99.5223 576.712 99.7543C576.93 99.991 577.223 100.192 577.593 100.358C577.967 100.524 578.447 100.607 579.034 100.607C579.839 100.607 580.505 100.41 581.03 100.017C581.556 99.6288 581.819 99.0085 581.819 98.1562V96.0114H581.684C581.556 96.2434 581.371 96.5014 581.13 96.7855C580.893 97.0696 580.566 97.3158 580.15 97.5241C579.733 97.7325 579.191 97.8366 578.523 97.8366C577.661 97.8366 576.885 97.6354 576.194 97.233C575.507 96.8258 574.962 96.2268 574.56 95.4361C574.162 94.6406 573.963 93.6629 573.963 92.5028C573.963 91.3428 574.16 90.3485 574.553 89.5199C574.951 88.6913 575.495 88.0568 576.186 87.6165C576.878 87.1714 577.661 86.9489 578.537 86.9489C579.214 86.9489 579.761 87.0625 580.178 87.2898C580.595 87.5123 580.919 87.7727 581.151 88.071C581.388 88.3693 581.57 88.6321 581.698 88.8594H581.854V87.0909H583.935V98.2415C583.935 99.179 583.717 99.9484 583.282 100.55C582.846 101.151 582.257 101.596 581.513 101.885C580.775 102.174 579.941 102.318 579.013 102.318ZM578.992 96.0753C579.603 96.0753 580.119 95.9332 580.54 95.6491C580.966 95.3603 581.288 94.9484 581.506 94.4134C581.729 93.8736 581.84 93.2273 581.84 92.4744C581.84 91.7405 581.731 91.0942 581.513 90.5355C581.295 89.9768 580.976 89.5412 580.554 89.2287C580.133 88.9115 579.612 88.7528 578.992 88.7528C578.353 88.7528 577.82 88.9186 577.394 89.25C576.968 89.5767 576.646 90.0218 576.428 90.5852C576.215 91.1487 576.108 91.7784 576.108 92.4744C576.108 93.1894 576.217 93.8168 576.435 94.3565C576.653 94.8963 576.975 95.3177 577.401 95.6207C577.832 95.9238 578.362 96.0753 578.992 96.0753ZM588.907 91.5227V98H586.783V87.0909H588.821V88.8665H588.956C589.207 88.2888 589.6 87.8248 590.135 87.4744C590.675 87.1241 591.355 86.9489 592.174 86.9489C592.917 86.9489 593.568 87.1051 594.127 87.4176C594.685 87.7254 595.119 88.1847 595.426 88.7955C595.734 89.4062 595.888 90.1615 595.888 91.0611V98H593.765V91.3168C593.765 90.526 593.559 89.9081 593.147 89.4631C592.735 89.0133 592.169 88.7884 591.449 88.7884C590.957 88.7884 590.519 88.8949 590.135 89.108C589.757 89.321 589.456 89.6335 589.233 90.0455C589.016 90.4527 588.907 90.9451 588.907 91.5227ZM610.94 93.4759V87.0909H613.07V98H610.982V96.1108H610.869C610.618 96.6932 610.215 97.1785 609.661 97.5668C609.112 97.9503 608.428 98.142 607.609 98.142C606.908 98.142 606.288 97.9882 605.748 97.6804C605.213 97.3679 604.791 96.9062 604.484 96.2955C604.181 95.6847 604.029 94.9295 604.029 94.0298V87.0909H606.153V93.7741C606.153 94.5175 606.359 95.1094 606.771 95.5497C607.183 95.9901 607.718 96.2102 608.376 96.2102C608.773 96.2102 609.169 96.1108 609.562 95.9119C609.96 95.7131 610.289 95.4124 610.549 95.0099C610.814 94.6075 610.944 94.0961 610.94 93.4759ZM615.924 102.091V87.0909H617.998V88.8594H618.175C618.298 88.6321 618.476 88.3693 618.708 88.071C618.94 87.7727 619.262 87.5123 619.674 87.2898C620.086 87.0625 620.63 86.9489 621.307 86.9489C622.188 86.9489 622.974 87.1714 623.665 87.6165C624.356 88.0616 624.899 88.7031 625.292 89.5412C625.689 90.3793 625.888 91.3878 625.888 92.5668C625.888 93.7457 625.692 94.7566 625.299 95.5994C624.906 96.4375 624.366 97.0838 623.679 97.5384C622.993 97.9882 622.209 98.2131 621.328 98.2131C620.666 98.2131 620.123 98.1018 619.702 97.8793C619.285 97.6567 618.959 97.3963 618.722 97.098C618.485 96.7997 618.303 96.5346 618.175 96.3026H618.047V102.091H615.924ZM618.005 92.5455C618.005 93.3125 618.116 93.9848 618.338 94.5625C618.561 95.1402 618.883 95.5923 619.304 95.919C619.726 96.241 620.242 96.402 620.853 96.402C621.487 96.402 622.017 96.2339 622.444 95.8977C622.87 95.5568 623.192 95.0952 623.409 94.5128C623.632 93.9304 623.743 93.2746 623.743 92.5455C623.743 91.8258 623.634 91.1795 623.417 90.6065C623.203 90.0336 622.882 89.5814 622.451 89.25C622.025 88.9186 621.492 88.7528 620.853 88.7528C620.237 88.7528 619.716 88.9115 619.29 89.2287C618.869 89.5459 618.549 89.9886 618.331 90.5568C618.114 91.125 618.005 91.7879 618.005 92.5455Z" fill="#222222"/>
<path d="M755.955 83.4545L760.004 95.3011H760.167L764.215 83.4545H766.587L761.353 98H758.817L753.583 83.4545H755.955ZM772.125 98.2202C771.051 98.2202 770.125 97.9905 769.348 97.5312C768.577 97.0672 767.98 96.4162 767.559 95.5781C767.142 94.7353 766.934 93.7481 766.934 92.6165C766.934 91.4991 767.142 90.5142 767.559 89.6619C767.98 88.8097 768.567 88.1444 769.32 87.6662C770.078 87.188 770.963 86.9489 771.976 86.9489C772.592 86.9489 773.188 87.0507 773.766 87.2543C774.344 87.4579 774.862 87.7775 775.321 88.2131C775.781 88.6487 776.143 89.2145 776.408 89.9105C776.673 90.6018 776.806 91.4422 776.806 92.4318V93.1847H768.134V91.5938H774.725C774.725 91.035 774.611 90.5402 774.384 90.1094C774.157 89.6738 773.837 89.3305 773.425 89.0795C773.018 88.8286 772.54 88.7031 771.99 88.7031C771.394 88.7031 770.873 88.8499 770.428 89.1435C769.988 89.4323 769.647 89.8111 769.405 90.2798C769.168 90.7438 769.05 91.2481 769.05 91.7926V93.0355C769.05 93.7647 769.178 94.3849 769.434 94.8963C769.694 95.4077 770.056 95.7983 770.52 96.0682C770.984 96.3333 771.526 96.4659 772.147 96.4659C772.549 96.4659 772.916 96.4091 773.248 96.2955C773.579 96.1771 773.865 96.0019 774.107 95.7699C774.348 95.5379 774.533 95.2514 774.661 94.9105L776.671 95.2727C776.51 95.8646 776.221 96.383 775.804 96.8281C775.392 97.2685 774.874 97.6117 774.249 97.858C773.629 98.0994 772.921 98.2202 772.125 98.2202ZM779.162 98V87.0909H781.214V88.8239H781.328C781.527 88.2367 781.877 87.7751 782.379 87.4389C782.886 87.098 783.459 86.9276 784.098 86.9276C784.231 86.9276 784.387 86.9323 784.567 86.9418C784.751 86.9512 784.896 86.9631 785 86.9773V89.0085C784.915 88.9848 784.763 88.9588 784.545 88.9304C784.328 88.8973 784.11 88.8807 783.892 88.8807C783.39 88.8807 782.943 88.9872 782.55 89.2003C782.161 89.4086 781.854 89.6998 781.626 90.0739C781.399 90.4432 781.286 90.8646 781.286 91.3381V98H779.162ZM786.838 98V87.0909H788.961V98H786.838ZM787.91 85.4077C787.541 85.4077 787.224 85.2846 786.958 85.0384C786.698 84.7874 786.568 84.4891 786.568 84.1435C786.568 83.7931 786.698 83.4948 786.958 83.2486C787.224 82.9976 787.541 82.8722 787.91 82.8722C788.279 82.8722 788.594 82.9976 788.855 83.2486C789.12 83.4948 789.252 83.7931 789.252 84.1435C789.252 84.4891 789.12 84.7874 788.855 85.0384C788.594 85.2846 788.279 85.4077 787.91 85.4077ZM797.01 87.0909V88.7955H790.845V87.0909H797.01ZM792.536 98V85.8267C792.536 85.1449 792.685 84.5791 792.983 84.1293C793.281 83.6747 793.677 83.3362 794.169 83.1136C794.661 82.8864 795.196 82.7727 795.774 82.7727C796.2 82.7727 796.565 82.8082 796.868 82.8793C797.171 82.9455 797.396 83.0071 797.543 83.0639L797.045 84.7827C796.946 84.7543 796.818 84.7211 796.662 84.6832C796.506 84.6406 796.316 84.6193 796.094 84.6193C795.578 84.6193 795.208 84.7472 794.986 85.0028C794.768 85.2585 794.659 85.6278 794.659 86.1108V98H792.536ZM799.201 98V87.0909H801.325V98H799.201ZM800.273 85.4077C799.904 85.4077 799.587 85.2846 799.322 85.0384C799.061 84.7874 798.931 84.4891 798.931 84.1435C798.931 83.7931 799.061 83.4948 799.322 83.2486C799.587 82.9976 799.904 82.8722 800.273 82.8722C800.643 82.8722 800.958 82.9976 801.218 83.2486C801.483 83.4948 801.616 83.7931 801.616 84.1435C801.616 84.4891 801.483 84.7874 801.218 85.0384C800.958 85.2846 800.643 85.4077 800.273 85.4077ZM808.777 98.2202C807.721 98.2202 806.812 97.9811 806.049 97.5028C805.292 97.0199 804.709 96.3546 804.302 95.5071C803.895 94.6596 803.691 93.6889 803.691 92.5952C803.691 91.4872 803.9 90.5095 804.316 89.6619C804.733 88.8097 805.32 88.1444 806.078 87.6662C806.835 87.188 807.728 86.9489 808.755 86.9489C809.584 86.9489 810.323 87.1027 810.971 87.4105C811.62 87.7135 812.143 88.1397 812.541 88.6889C812.943 89.2382 813.182 89.8797 813.258 90.6136H811.191C811.078 90.1023 810.817 89.6619 810.41 89.2926C810.008 88.9233 809.468 88.7386 808.791 88.7386C808.199 88.7386 807.681 88.8949 807.235 89.2074C806.795 89.5152 806.452 89.9555 806.206 90.5284C805.959 91.0966 805.836 91.7689 805.836 92.5455C805.836 93.3409 805.957 94.0275 806.199 94.6051C806.44 95.1828 806.781 95.6302 807.221 95.9474C807.666 96.2647 808.19 96.4233 808.791 96.4233C809.193 96.4233 809.558 96.3499 809.885 96.2031C810.216 96.0516 810.493 95.8362 810.716 95.5568C810.943 95.2775 811.101 94.9413 811.191 94.5483H813.258C813.182 95.2538 812.953 95.8835 812.569 96.4375C812.186 96.9915 811.672 97.4271 811.028 97.7443C810.389 98.0616 809.638 98.2202 808.777 98.2202ZM818.704 98.2415C818.013 98.2415 817.388 98.1136 816.829 97.858C816.27 97.5975 815.827 97.2211 815.501 96.7287C815.179 96.2363 815.018 95.6326 815.018 94.9176C815.018 94.3021 815.136 93.7955 815.373 93.3977C815.61 93 815.929 92.6851 816.332 92.4531C816.734 92.2211 817.184 92.0459 817.681 91.9276C818.178 91.8092 818.685 91.7192 819.201 91.6577C819.854 91.5819 820.385 91.5204 820.792 91.473C821.199 91.4209 821.495 91.3381 821.68 91.2244C821.864 91.1108 821.957 90.9261 821.957 90.6705V90.6207C821.957 90.0005 821.781 89.5199 821.431 89.179C821.085 88.8381 820.569 88.6676 819.883 88.6676C819.168 88.6676 818.604 88.8262 818.192 89.1435C817.785 89.456 817.504 89.804 817.347 90.1875L815.352 89.733C815.588 89.0701 815.934 88.535 816.388 88.1278C816.848 87.7159 817.376 87.4176 817.972 87.233C818.569 87.0436 819.196 86.9489 819.854 86.9489C820.29 86.9489 820.752 87.0009 821.239 87.1051C821.732 87.2045 822.191 87.3892 822.617 87.6591C823.048 87.929 823.401 88.3149 823.675 88.8168C823.95 89.3139 824.087 89.9602 824.087 90.7557V98H822.013V96.5085H821.928C821.791 96.7831 821.585 97.053 821.31 97.3182C821.036 97.5833 820.683 97.8035 820.252 97.9787C819.821 98.1539 819.305 98.2415 818.704 98.2415ZM819.165 96.5369C819.753 96.5369 820.254 96.4209 820.671 96.1889C821.093 95.9569 821.412 95.6539 821.63 95.2798C821.853 94.901 821.964 94.4962 821.964 94.0653V92.6591C821.888 92.7348 821.741 92.8059 821.523 92.8722C821.31 92.9337 821.067 92.9882 820.792 93.0355C820.517 93.0781 820.25 93.1184 819.989 93.1562C819.729 93.1894 819.511 93.2178 819.336 93.2415C818.924 93.2936 818.548 93.3812 818.207 93.5043C817.871 93.6274 817.601 93.8049 817.397 94.0369C817.198 94.2642 817.099 94.5672 817.099 94.946C817.099 95.4716 817.293 95.8693 817.681 96.1392C818.069 96.4044 818.564 96.5369 819.165 96.5369ZM832.008 87.0909V88.7955H826.049V87.0909H832.008ZM827.647 84.4773H829.771V94.7969C829.771 95.2088 829.833 95.5189 829.956 95.7273C830.079 95.9309 830.237 96.0705 830.431 96.1463C830.63 96.2173 830.846 96.2528 831.078 96.2528C831.248 96.2528 831.397 96.241 831.525 96.2173C831.653 96.1937 831.752 96.1747 831.824 96.1605L832.207 97.9148C832.084 97.9621 831.909 98.0095 831.681 98.0568C831.454 98.1089 831.17 98.1373 830.829 98.142C830.27 98.1515 829.75 98.0521 829.267 97.8438C828.784 97.6354 828.393 97.3134 828.095 96.8778C827.797 96.4422 827.647 95.8954 827.647 95.2372V84.4773ZM834.357 98V87.0909H836.481V98H834.357ZM835.43 85.4077C835.06 85.4077 834.743 85.2846 834.478 85.0384C834.218 84.7874 834.087 84.4891 834.087 84.1435C834.087 83.7931 834.218 83.4948 834.478 83.2486C834.743 82.9976 835.06 82.8722 835.43 82.8722C835.799 82.8722 836.114 82.9976 836.374 83.2486C836.639 83.4948 836.772 83.7931 836.772 84.1435C836.772 84.4891 836.639 84.7874 836.374 85.0384C836.114 85.2846 835.799 85.4077 835.43 85.4077ZM843.933 98.2202C842.91 98.2202 842.018 97.9858 841.255 97.517C840.493 97.0483 839.901 96.3925 839.48 95.5497C839.058 94.7069 838.848 93.7221 838.848 92.5952C838.848 91.4635 839.058 90.474 839.48 89.6264C839.901 88.7789 840.493 88.1207 841.255 87.652C842.018 87.1832 842.91 86.9489 843.933 86.9489C844.956 86.9489 845.848 87.1832 846.61 87.652C847.373 88.1207 847.965 88.7789 848.386 89.6264C848.807 90.474 849.018 91.4635 849.018 92.5952C849.018 93.7221 848.807 94.7069 848.386 95.5497C847.965 96.3925 847.373 97.0483 846.61 97.517C845.848 97.9858 844.956 98.2202 843.933 98.2202ZM843.94 96.4375C844.603 96.4375 845.152 96.2623 845.588 95.9119C846.023 95.5616 846.345 95.0952 846.554 94.5128C846.767 93.9304 846.873 93.2888 846.873 92.5881C846.873 91.892 846.767 91.2528 846.554 90.6705C846.345 90.0833 846.023 89.6122 845.588 89.2571C845.152 88.902 844.603 88.7244 843.94 88.7244C843.272 88.7244 842.718 88.902 842.278 89.2571C841.842 89.6122 841.518 90.0833 841.305 90.6705C841.097 91.2528 840.993 91.892 840.993 92.5881C840.993 93.2888 841.097 93.9304 841.305 94.5128C841.518 95.0952 841.842 95.5616 842.278 95.9119C842.718 96.2623 843.272 96.4375 843.94 96.4375ZM853.512 91.5227V98H851.388V87.0909H853.427V88.8665H853.562C853.813 88.2888 854.206 87.8248 854.741 87.4744C855.281 87.1241 855.96 86.9489 856.779 86.9489C857.522 86.9489 858.174 87.1051 858.732 87.4176C859.291 87.7254 859.724 88.1847 860.032 88.7955C860.34 89.4062 860.494 90.1615 860.494 91.0611V98H858.37V91.3168C858.37 90.526 858.164 89.9081 857.752 89.4631C857.34 89.0133 856.774 88.7884 856.055 88.7884C855.562 88.7884 855.124 88.8949 854.741 89.108C854.362 89.321 854.061 89.6335 853.839 90.0455C853.621 90.4527 853.512 90.9451 853.512 91.5227Z" fill="#222222"/>
<path d="M993.993 86V71.4545H999.177C1000.31 71.4545 1001.25 71.6605 1001.99 72.0724C1002.73 72.4844 1003.29 73.0478 1003.66 73.7628C1004.03 74.473 1004.21 75.2732 1004.21 76.1634C1004.21 77.0582 1004.03 77.8632 1003.65 78.5781C1003.28 79.2884 1002.72 79.8518 1001.98 80.2685C1001.23 80.6804 1000.3 80.8864 999.17 80.8864H995.605V79.0256H998.971C999.686 79.0256 1000.27 78.9025 1000.71 78.6562C1001.16 78.4053 1001.48 78.0644 1001.69 77.6335C1001.9 77.2027 1002 76.7126 1002 76.1634C1002 75.6141 1001.9 75.1264 1001.69 74.7003C1001.48 74.2741 1001.15 73.9403 1000.7 73.6989C1000.26 73.4574 999.672 73.3366 998.943 73.3366H996.187V86H993.993ZM1006.62 86V75.0909H1008.67V76.8239H1008.78C1008.98 76.2367 1009.33 75.7751 1009.83 75.4389C1010.34 75.098 1010.91 74.9276 1011.55 74.9276C1011.68 74.9276 1011.84 74.9323 1012.02 74.9418C1012.2 74.9512 1012.35 74.9631 1012.45 74.9773V77.0085C1012.37 76.9848 1012.22 76.9588 1012 76.9304C1011.78 76.8973 1011.56 76.8807 1011.35 76.8807C1010.84 76.8807 1010.4 76.9872 1010 77.2003C1009.61 77.4086 1009.31 77.6998 1009.08 78.0739C1008.85 78.4432 1008.74 78.8646 1008.74 79.3381V86H1006.62ZM1018.5 86.2202C1017.47 86.2202 1016.58 85.9858 1015.82 85.517C1015.06 85.0483 1014.46 84.3925 1014.04 83.5497C1013.62 82.7069 1013.41 81.7221 1013.41 80.5952C1013.41 79.4635 1013.62 78.474 1014.04 77.6264C1014.46 76.7789 1015.06 76.1207 1015.82 75.652C1016.58 75.1832 1017.47 74.9489 1018.5 74.9489C1019.52 74.9489 1020.41 75.1832 1021.17 75.652C1021.94 76.1207 1022.53 76.7789 1022.95 77.6264C1023.37 78.474 1023.58 79.4635 1023.58 80.5952C1023.58 81.7221 1023.37 82.7069 1022.95 83.5497C1022.53 84.3925 1021.94 85.0483 1021.17 85.517C1020.41 85.9858 1019.52 86.2202 1018.5 86.2202ZM1018.5 84.4375C1019.17 84.4375 1019.71 84.2623 1020.15 83.9119C1020.59 83.5616 1020.91 83.0952 1021.12 82.5128C1021.33 81.9304 1021.44 81.2888 1021.44 80.5881C1021.44 79.892 1021.33 79.2528 1021.12 78.6705C1020.91 78.0833 1020.59 77.6122 1020.15 77.2571C1019.71 76.902 1019.17 76.7244 1018.5 76.7244C1017.83 76.7244 1017.28 76.902 1016.84 77.2571C1016.4 77.6122 1016.08 78.0833 1015.87 78.6705C1015.66 79.2528 1015.56 79.892 1015.56 80.5881C1015.56 81.2888 1015.66 81.9304 1015.87 82.5128C1016.08 83.0952 1016.4 83.5616 1016.84 83.9119C1017.28 84.2623 1017.83 84.4375 1018.5 84.4375ZM1031.14 75.0909V76.7955H1024.98V75.0909H1031.14ZM1026.67 86V73.8267C1026.67 73.1449 1026.82 72.5791 1027.12 72.1293C1027.41 71.6747 1027.81 71.3362 1028.3 71.1136C1028.79 70.8864 1029.33 70.7727 1029.91 70.7727C1030.33 70.7727 1030.7 70.8082 1031 70.8793C1031.3 70.9455 1031.53 71.0071 1031.68 71.0639L1031.18 72.7827C1031.08 72.7543 1030.95 72.7211 1030.79 72.6832C1030.64 72.6406 1030.45 72.6193 1030.23 72.6193C1029.71 72.6193 1029.34 72.7472 1029.12 73.0028C1028.9 73.2585 1028.79 73.6278 1028.79 74.1108V86H1026.67ZM1033.33 86V75.0909H1035.46V86H1033.33ZM1034.41 73.4077C1034.04 73.4077 1033.72 73.2846 1033.45 73.0384C1033.19 72.7874 1033.06 72.4891 1033.06 72.1435C1033.06 71.7931 1033.19 71.4948 1033.45 71.2486C1033.72 70.9976 1034.04 70.8722 1034.41 70.8722C1034.78 70.8722 1035.09 70.9976 1035.35 71.2486C1035.62 71.4948 1035.75 71.7931 1035.75 72.1435C1035.75 72.4891 1035.62 72.7874 1035.35 73.0384C1035.09 73.2846 1034.78 73.4077 1034.41 73.4077ZM1040.44 71.4545V86H1038.31V71.4545H1040.44ZM1048 86.2202C1046.92 86.2202 1046 85.9905 1045.22 85.5312C1044.45 85.0672 1043.85 84.4162 1043.43 83.5781C1043.01 82.7353 1042.8 81.7481 1042.8 80.6165C1042.8 79.4991 1043.01 78.5142 1043.43 77.6619C1043.85 76.8097 1044.44 76.1444 1045.19 75.6662C1045.95 75.188 1046.83 74.9489 1047.85 74.9489C1048.46 74.9489 1049.06 75.0507 1049.64 75.2543C1050.21 75.4579 1050.73 75.7775 1051.19 76.2131C1051.65 76.6487 1052.01 77.2145 1052.28 77.9105C1052.54 78.6018 1052.68 79.4422 1052.68 80.4318V81.1847H1044V79.5938H1050.6C1050.6 79.035 1050.48 78.5402 1050.25 78.1094C1050.03 77.6738 1049.71 77.3305 1049.3 77.0795C1048.89 76.8286 1048.41 76.7031 1047.86 76.7031C1047.26 76.7031 1046.74 76.8499 1046.3 77.1435C1045.86 77.4323 1045.52 77.8111 1045.28 78.2798C1045.04 78.7438 1044.92 79.2481 1044.92 79.7926V81.0355C1044.92 81.7647 1045.05 82.3849 1045.3 82.8963C1045.57 83.4077 1045.93 83.7983 1046.39 84.0682C1046.86 84.3333 1047.4 84.4659 1048.02 84.4659C1048.42 84.4659 1048.79 84.4091 1049.12 84.2955C1049.45 84.1771 1049.74 84.0019 1049.98 83.7699C1050.22 83.5379 1050.4 83.2514 1050.53 82.9105L1052.54 83.2727C1052.38 83.8646 1052.09 84.383 1051.68 84.8281C1051.26 85.2685 1050.75 85.6117 1050.12 85.858C1049.5 86.0994 1048.79 86.2202 1048 86.2202ZM1005.53 101.754L1003.61 102.095C1003.53 101.849 1003.4 101.615 1003.22 101.392C1003.05 101.17 1002.82 100.987 1002.53 100.845C1002.23 100.703 1001.87 100.632 1001.43 100.632C1000.83 100.632 1000.32 100.767 999.921 101.037C999.519 101.302 999.317 101.645 999.317 102.067C999.317 102.431 999.452 102.725 999.722 102.947C999.992 103.17 1000.43 103.352 1001.03 103.494L1002.76 103.892C1003.77 104.124 1004.51 104.482 1005.01 104.964C1005.5 105.447 1005.75 106.075 1005.75 106.847C1005.75 107.5 1005.56 108.082 1005.18 108.594C1004.8 109.1 1004.28 109.498 1003.61 109.787C1002.94 110.076 1002.17 110.22 1001.28 110.22C1000.06 110.22 999.067 109.96 998.295 109.439C997.523 108.913 997.049 108.168 996.874 107.202L998.927 106.889C999.055 107.424 999.317 107.829 999.715 108.104C1000.11 108.374 1000.63 108.509 1001.27 108.509C1001.97 108.509 1002.52 108.364 1002.94 108.075C1003.36 107.782 1003.56 107.424 1003.56 107.003C1003.56 106.662 1003.44 106.375 1003.18 106.143C1002.93 105.911 1002.54 105.736 1002.02 105.618L1000.18 105.213C999.159 104.981 998.406 104.612 997.918 104.105C997.435 103.598 997.194 102.957 997.194 102.18C997.194 101.536 997.374 100.973 997.734 100.49C998.094 100.007 998.591 99.6307 999.225 99.3608C999.86 99.0862 1000.59 98.9489 1001.41 98.9489C1002.58 98.9489 1003.51 99.2045 1004.19 99.7159C1004.87 100.223 1005.31 100.902 1005.53 101.754ZM1012.78 110.22C1011.71 110.22 1010.78 109.991 1010 109.531C1009.23 109.067 1008.64 108.416 1008.21 107.578C1007.8 106.735 1007.59 105.748 1007.59 104.616C1007.59 103.499 1007.8 102.514 1008.21 101.662C1008.64 100.81 1009.22 100.144 1009.98 99.6662C1010.73 99.188 1011.62 98.9489 1012.63 98.9489C1013.25 98.9489 1013.84 99.0507 1014.42 99.2543C1015 99.4579 1015.52 99.7775 1015.98 100.213C1016.44 100.649 1016.8 101.214 1017.06 101.911C1017.33 102.602 1017.46 103.442 1017.46 104.432V105.185H1008.79V103.594H1015.38C1015.38 103.035 1015.27 102.54 1015.04 102.109C1014.81 101.674 1014.49 101.33 1014.08 101.08C1013.67 100.829 1013.2 100.703 1012.65 100.703C1012.05 100.703 1011.53 100.85 1011.08 101.143C1010.64 101.432 1010.3 101.811 1010.06 102.28C1009.82 102.744 1009.71 103.248 1009.71 103.793V105.036C1009.71 105.765 1009.83 106.385 1010.09 106.896C1010.35 107.408 1010.71 107.798 1011.18 108.068C1011.64 108.333 1012.18 108.466 1012.8 108.466C1013.21 108.466 1013.57 108.409 1013.9 108.295C1014.24 108.177 1014.52 108.002 1014.76 107.77C1015 107.538 1015.19 107.251 1015.32 106.911L1017.33 107.273C1017.17 107.865 1016.88 108.383 1016.46 108.828C1016.05 109.268 1015.53 109.612 1014.91 109.858C1014.28 110.099 1013.58 110.22 1012.78 110.22ZM1024.91 99.0909V100.795H1018.95V99.0909H1024.91ZM1020.55 96.4773H1022.67V106.797C1022.67 107.209 1022.73 107.519 1022.86 107.727C1022.98 107.931 1023.14 108.071 1023.33 108.146C1023.53 108.217 1023.75 108.253 1023.98 108.253C1024.15 108.253 1024.3 108.241 1024.43 108.217C1024.56 108.194 1024.65 108.175 1024.73 108.161L1025.11 109.915C1024.99 109.962 1024.81 110.009 1024.58 110.057C1024.36 110.109 1024.07 110.137 1023.73 110.142C1023.17 110.152 1022.65 110.052 1022.17 109.844C1021.69 109.635 1021.3 109.313 1021 108.878C1020.7 108.442 1020.55 107.895 1020.55 107.237V96.4773ZM1034.17 105.476V99.0909H1036.3V110H1034.21V108.111H1034.1C1033.85 108.693 1033.45 109.179 1032.89 109.567C1032.34 109.95 1031.66 110.142 1030.84 110.142C1030.14 110.142 1029.52 109.988 1028.98 109.68C1028.44 109.368 1028.02 108.906 1027.71 108.295C1027.41 107.685 1027.26 106.929 1027.26 106.03V99.0909H1029.38V105.774C1029.38 106.518 1029.59 107.109 1030 107.55C1030.41 107.99 1030.95 108.21 1031.61 108.21C1032 108.21 1032.4 108.111 1032.79 107.912C1033.19 107.713 1033.52 107.412 1033.78 107.01C1034.04 106.607 1034.17 106.096 1034.17 105.476ZM1039.15 114.091V99.0909H1041.23V100.859H1041.41C1041.53 100.632 1041.71 100.369 1041.94 100.071C1042.17 99.7727 1042.49 99.5123 1042.9 99.2898C1043.32 99.0625 1043.86 98.9489 1044.54 98.9489C1045.42 98.9489 1046.2 99.1714 1046.9 99.6165C1047.59 100.062 1048.13 100.703 1048.52 101.541C1048.92 102.379 1049.12 103.388 1049.12 104.567C1049.12 105.746 1048.92 106.757 1048.53 107.599C1048.14 108.437 1047.6 109.084 1046.91 109.538C1046.22 109.988 1045.44 110.213 1044.56 110.213C1043.9 110.213 1043.35 110.102 1042.93 109.879C1042.52 109.657 1042.19 109.396 1041.95 109.098C1041.72 108.8 1041.53 108.535 1041.41 108.303H1041.28V114.091H1039.15ZM1041.24 104.545C1041.24 105.312 1041.35 105.985 1041.57 106.562C1041.79 107.14 1042.11 107.592 1042.53 107.919C1042.96 108.241 1043.47 108.402 1044.08 108.402C1044.72 108.402 1045.25 108.234 1045.67 107.898C1046.1 107.557 1046.42 107.095 1046.64 106.513C1046.86 105.93 1046.97 105.275 1046.97 104.545C1046.97 103.826 1046.86 103.179 1046.65 102.607C1046.43 102.034 1046.11 101.581 1045.68 101.25C1045.25 100.919 1044.72 100.753 1044.08 100.753C1043.47 100.753 1042.95 100.911 1042.52 101.229C1042.1 101.546 1041.78 101.989 1041.56 102.557C1041.34 103.125 1041.24 103.788 1041.24 104.545Z" fill="#222222"/>
<path d="M1466 11L1535.28 51V131L1466 171L1396.72 131V51L1466 11Z" fill="#9BEDFD"/>
<path d="M1454.51 71.4545H1456.71V81.0213C1456.71 82.0393 1456.47 82.9413 1455.99 83.7273C1455.52 84.5085 1454.84 85.1241 1453.98 85.5739C1453.11 86.0189 1452.1 86.2415 1450.93 86.2415C1449.77 86.2415 1448.76 86.0189 1447.89 85.5739C1447.02 85.1241 1446.35 84.5085 1445.87 83.7273C1445.4 82.9413 1445.16 82.0393 1445.16 81.0213V71.4545H1447.35V80.8438C1447.35 81.5019 1447.5 82.0866 1447.78 82.598C1448.08 83.1094 1448.49 83.5118 1449.03 83.8054C1449.56 84.0942 1450.2 84.2386 1450.93 84.2386C1451.67 84.2386 1452.31 84.0942 1452.84 83.8054C1453.38 83.5118 1453.79 83.1094 1454.08 82.598C1454.37 82.0866 1454.51 81.5019 1454.51 80.8438V71.4545ZM1467.91 77.7543L1465.98 78.0952C1465.9 77.849 1465.77 77.6146 1465.6 77.392C1465.43 77.1695 1465.2 76.9872 1464.9 76.8452C1464.61 76.7031 1464.24 76.6321 1463.8 76.6321C1463.2 76.6321 1462.7 76.767 1462.3 77.0369C1461.89 77.3021 1461.69 77.6454 1461.69 78.0668C1461.69 78.4313 1461.83 78.7249 1462.1 78.9474C1462.37 79.17 1462.8 79.3523 1463.4 79.4943L1465.14 79.892C1466.14 80.1241 1466.89 80.4815 1467.38 80.9645C1467.87 81.4474 1468.12 82.0748 1468.12 82.8466C1468.12 83.5 1467.93 84.0824 1467.55 84.5938C1467.18 85.1004 1466.65 85.4981 1465.98 85.7869C1465.31 86.0758 1464.54 86.2202 1463.66 86.2202C1462.44 86.2202 1461.44 85.9598 1460.67 85.4389C1459.9 84.9134 1459.42 84.1676 1459.25 83.2017L1461.3 82.8892C1461.43 83.4242 1461.69 83.8291 1462.09 84.1037C1462.49 84.3736 1463.01 84.5085 1463.65 84.5085C1464.34 84.5085 1464.9 84.3641 1465.31 84.0753C1465.73 83.7817 1465.94 83.4242 1465.94 83.0028C1465.94 82.6619 1465.81 82.3755 1465.56 82.1435C1465.31 81.9115 1464.92 81.7363 1464.4 81.6179L1462.55 81.2131C1461.53 80.9811 1460.78 80.6117 1460.29 80.1051C1459.81 79.5985 1459.57 78.9569 1459.57 78.1804C1459.57 77.5365 1459.75 76.973 1460.11 76.4901C1460.47 76.0071 1460.97 75.6307 1461.6 75.3608C1462.23 75.0862 1462.96 74.9489 1463.78 74.9489C1464.96 74.9489 1465.89 75.2045 1466.56 75.7159C1467.24 76.2225 1467.69 76.902 1467.91 77.7543ZM1475.16 86.2202C1474.08 86.2202 1473.16 85.9905 1472.38 85.5312C1471.61 85.0672 1471.01 84.4162 1470.59 83.5781C1470.17 82.7353 1469.96 81.7481 1469.96 80.6165C1469.96 79.4991 1470.17 78.5142 1470.59 77.6619C1471.01 76.8097 1471.6 76.1444 1472.35 75.6662C1473.11 75.188 1473.99 74.9489 1475.01 74.9489C1475.62 74.9489 1476.22 75.0507 1476.8 75.2543C1477.37 75.4579 1477.89 75.7775 1478.35 76.2131C1478.81 76.6487 1479.17 77.2145 1479.44 77.9105C1479.7 78.6018 1479.84 79.4422 1479.84 80.4318V81.1847H1471.17V79.5938H1477.76C1477.76 79.035 1477.64 78.5402 1477.42 78.1094C1477.19 77.6738 1476.87 77.3305 1476.46 77.0795C1476.05 76.8286 1475.57 76.7031 1475.02 76.7031C1474.43 76.7031 1473.9 76.8499 1473.46 77.1435C1473.02 77.4323 1472.68 77.8111 1472.44 78.2798C1472.2 78.7438 1472.08 79.2481 1472.08 79.7926V81.0355C1472.08 81.7647 1472.21 82.3849 1472.46 82.8963C1472.73 83.4077 1473.09 83.7983 1473.55 84.0682C1474.02 84.3333 1474.56 84.4659 1475.18 84.4659C1475.58 84.4659 1475.95 84.4091 1476.28 84.2955C1476.61 84.1771 1476.9 84.0019 1477.14 83.7699C1477.38 83.5379 1477.56 83.2514 1477.69 82.9105L1479.7 83.2727C1479.54 83.8646 1479.25 84.383 1478.84 84.8281C1478.42 85.2685 1477.91 85.6117 1477.28 85.858C1476.66 86.0994 1475.95 86.2202 1475.16 86.2202ZM1482.19 86V75.0909H1484.25V76.8239H1484.36C1484.56 76.2367 1484.91 75.7751 1485.41 75.4389C1485.92 75.098 1486.49 74.9276 1487.13 74.9276C1487.26 74.9276 1487.42 74.9323 1487.6 74.9418C1487.78 74.9512 1487.93 74.9631 1488.03 74.9773V77.0085C1487.95 76.9848 1487.79 76.9588 1487.58 76.9304C1487.36 76.8973 1487.14 76.8807 1486.92 76.8807C1486.42 76.8807 1485.97 76.9872 1485.58 77.2003C1485.19 77.4086 1484.88 77.6998 1484.66 78.0739C1484.43 78.4432 1484.32 78.8646 1484.32 79.3381V86H1482.19ZM1412.48 110V99.0909H1414.53V100.824H1414.64C1414.84 100.237 1415.19 99.7751 1415.69 99.4389C1416.2 99.098 1416.77 98.9276 1417.41 98.9276C1417.55 98.9276 1417.7 98.9323 1417.88 98.9418C1418.07 98.9512 1418.21 98.9631 1418.31 98.9773V101.009C1418.23 100.985 1418.08 100.959 1417.86 100.93C1417.64 100.897 1417.42 100.881 1417.21 100.881C1416.7 100.881 1416.26 100.987 1415.86 101.2C1415.48 101.409 1415.17 101.7 1414.94 102.074C1414.71 102.443 1414.6 102.865 1414.6 103.338V110H1412.48ZM1424.46 110.22C1423.39 110.22 1422.46 109.991 1421.69 109.531C1420.91 109.067 1420.32 108.416 1419.9 107.578C1419.48 106.735 1419.27 105.748 1419.27 104.616C1419.27 103.499 1419.48 102.514 1419.9 101.662C1420.32 100.81 1420.91 100.144 1421.66 99.6662C1422.42 99.188 1423.3 98.9489 1424.31 98.9489C1424.93 98.9489 1425.53 99.0507 1426.1 99.2543C1426.68 99.4579 1427.2 99.7775 1427.66 100.213C1428.12 100.649 1428.48 101.214 1428.75 101.911C1429.01 102.602 1429.14 103.442 1429.14 104.432V105.185H1420.47V103.594H1427.06C1427.06 103.035 1426.95 102.54 1426.72 102.109C1426.49 101.674 1426.17 101.33 1425.76 101.08C1425.36 100.829 1424.88 100.703 1424.33 100.703C1423.73 100.703 1423.21 100.85 1422.77 101.143C1422.33 101.432 1421.98 101.811 1421.74 102.28C1421.51 102.744 1421.39 103.248 1421.39 103.793V105.036C1421.39 105.765 1421.52 106.385 1421.77 106.896C1422.03 107.408 1422.39 107.798 1422.86 108.068C1423.32 108.333 1423.86 108.466 1424.48 108.466C1424.89 108.466 1425.25 108.409 1425.59 108.295C1425.92 108.177 1426.2 108.002 1426.44 107.77C1426.69 107.538 1426.87 107.251 1427 106.911L1429.01 107.273C1428.85 107.865 1428.56 108.383 1428.14 108.828C1427.73 109.268 1427.21 109.612 1426.59 109.858C1425.97 110.099 1425.26 110.22 1424.46 110.22ZM1436.07 114.318C1435.21 114.318 1434.46 114.205 1433.84 113.977C1433.22 113.75 1432.71 113.449 1432.32 113.075C1431.92 112.701 1431.63 112.292 1431.44 111.847L1433.26 111.094C1433.39 111.302 1433.56 111.522 1433.77 111.754C1433.99 111.991 1434.28 112.192 1434.65 112.358C1435.03 112.524 1435.51 112.607 1436.09 112.607C1436.9 112.607 1437.57 112.41 1438.09 112.017C1438.62 111.629 1438.88 111.009 1438.88 110.156V108.011H1438.74C1438.62 108.243 1438.43 108.501 1438.19 108.786C1437.95 109.07 1437.63 109.316 1437.21 109.524C1436.79 109.732 1436.25 109.837 1435.58 109.837C1434.72 109.837 1433.95 109.635 1433.25 109.233C1432.57 108.826 1432.02 108.227 1431.62 107.436C1431.22 106.641 1431.02 105.663 1431.02 104.503C1431.02 103.343 1431.22 102.348 1431.61 101.52C1432.01 100.691 1432.56 100.057 1433.25 99.6165C1433.94 99.1714 1434.72 98.9489 1435.6 98.9489C1436.27 98.9489 1436.82 99.0625 1437.24 99.2898C1437.66 99.5123 1437.98 99.7727 1438.21 100.071C1438.45 100.369 1438.63 100.632 1438.76 100.859H1438.91V99.0909H1441V110.241C1441 111.179 1440.78 111.948 1440.34 112.55C1439.91 113.151 1439.32 113.596 1438.57 113.885C1437.84 114.174 1437 114.318 1436.07 114.318ZM1436.05 108.075C1436.66 108.075 1437.18 107.933 1437.6 107.649C1438.03 107.36 1438.35 106.948 1438.57 106.413C1438.79 105.874 1438.9 105.227 1438.9 104.474C1438.9 103.741 1438.79 103.094 1438.57 102.536C1438.36 101.977 1438.04 101.541 1437.61 101.229C1437.19 100.911 1436.67 100.753 1436.05 100.753C1435.41 100.753 1434.88 100.919 1434.45 101.25C1434.03 101.577 1433.71 102.022 1433.49 102.585C1433.28 103.149 1433.17 103.778 1433.17 104.474C1433.17 105.189 1433.28 105.817 1433.5 106.357C1433.71 106.896 1434.04 107.318 1434.46 107.621C1434.89 107.924 1435.42 108.075 1436.05 108.075ZM1443.84 110V99.0909H1445.97V110H1443.84ZM1444.92 97.4077C1444.55 97.4077 1444.23 97.2846 1443.96 97.0384C1443.7 96.7874 1443.57 96.4891 1443.57 96.1435C1443.57 95.7931 1443.7 95.4948 1443.96 95.2486C1444.23 94.9976 1444.55 94.8722 1444.92 94.8722C1445.29 94.8722 1445.6 94.9976 1445.86 95.2486C1446.13 95.4948 1446.26 95.7931 1446.26 96.1435C1446.26 96.4891 1446.13 96.7874 1445.86 97.0384C1445.6 97.2846 1445.29 97.4077 1444.92 97.4077ZM1457 101.754L1455.07 102.095C1454.99 101.849 1454.87 101.615 1454.69 101.392C1454.52 101.17 1454.29 100.987 1453.99 100.845C1453.7 100.703 1453.33 100.632 1452.89 100.632C1452.29 100.632 1451.79 100.767 1451.39 101.037C1450.99 101.302 1450.78 101.645 1450.78 102.067C1450.78 102.431 1450.92 102.725 1451.19 102.947C1451.46 103.17 1451.89 103.352 1452.5 103.494L1454.23 103.892C1455.23 104.124 1455.98 104.482 1456.47 104.964C1456.97 105.447 1457.21 106.075 1457.21 106.847C1457.21 107.5 1457.02 108.082 1456.64 108.594C1456.27 109.1 1455.75 109.498 1455.07 109.787C1454.41 110.076 1453.63 110.22 1452.75 110.22C1451.53 110.22 1450.53 109.96 1449.76 109.439C1448.99 108.913 1448.52 108.168 1448.34 107.202L1450.39 106.889C1450.52 107.424 1450.78 107.829 1451.18 108.104C1451.58 108.374 1452.1 108.509 1452.74 108.509C1453.43 108.509 1453.99 108.364 1454.41 108.075C1454.82 107.782 1455.03 107.424 1455.03 107.003C1455.03 106.662 1454.9 106.375 1454.65 106.143C1454.4 105.911 1454.01 105.736 1453.49 105.618L1451.64 105.213C1450.63 104.981 1449.87 104.612 1449.39 104.105C1448.9 103.598 1448.66 102.957 1448.66 102.18C1448.66 101.536 1448.84 100.973 1449.2 100.49C1449.56 100.007 1450.06 99.6307 1450.69 99.3608C1451.33 99.0862 1452.05 98.9489 1452.87 98.9489C1454.05 98.9489 1454.98 99.2045 1455.66 99.7159C1456.33 100.223 1456.78 100.902 1457 101.754ZM1464.64 99.0909V100.795H1458.68V99.0909H1464.64ZM1460.28 96.4773H1462.4V106.797C1462.4 107.209 1462.46 107.519 1462.59 107.727C1462.71 107.931 1462.87 108.071 1463.06 108.146C1463.26 108.217 1463.48 108.253 1463.71 108.253C1463.88 108.253 1464.03 108.241 1464.16 108.217C1464.28 108.194 1464.38 108.175 1464.45 108.161L1464.84 109.915C1464.71 109.962 1464.54 110.009 1464.31 110.057C1464.09 110.109 1463.8 110.137 1463.46 110.142C1462.9 110.152 1462.38 110.052 1461.9 109.844C1461.41 109.635 1461.02 109.313 1460.73 108.878C1460.43 108.442 1460.28 107.895 1460.28 107.237V96.4773ZM1466.99 110V99.0909H1469.04V100.824H1469.15C1469.35 100.237 1469.7 99.7751 1470.21 99.4389C1470.71 99.098 1471.28 98.9276 1471.92 98.9276C1472.06 98.9276 1472.21 98.9323 1472.39 98.9418C1472.58 98.9512 1472.72 98.9631 1472.83 98.9773V101.009C1472.74 100.985 1472.59 100.959 1472.37 100.93C1472.15 100.897 1471.94 100.881 1471.72 100.881C1471.22 100.881 1470.77 100.987 1470.38 101.2C1469.99 101.409 1469.68 101.7 1469.45 102.074C1469.23 102.443 1469.11 102.865 1469.11 103.338V110H1466.99ZM1477.74 110.241C1477.05 110.241 1476.42 110.114 1475.87 109.858C1475.31 109.598 1474.86 109.221 1474.54 108.729C1474.22 108.236 1474.05 107.633 1474.05 106.918C1474.05 106.302 1474.17 105.795 1474.41 105.398C1474.65 105 1474.97 104.685 1475.37 104.453C1475.77 104.221 1476.22 104.046 1476.72 103.928C1477.22 103.809 1477.72 103.719 1478.24 103.658C1478.89 103.582 1479.42 103.52 1479.83 103.473C1480.24 103.421 1480.53 103.338 1480.72 103.224C1480.9 103.111 1480.99 102.926 1480.99 102.67V102.621C1480.99 102 1480.82 101.52 1480.47 101.179C1480.12 100.838 1479.61 100.668 1478.92 100.668C1478.2 100.668 1477.64 100.826 1477.23 101.143C1476.82 101.456 1476.54 101.804 1476.38 102.188L1474.39 101.733C1474.63 101.07 1474.97 100.535 1475.43 100.128C1475.88 99.7159 1476.41 99.4176 1477.01 99.233C1477.61 99.0436 1478.23 98.9489 1478.89 98.9489C1479.33 98.9489 1479.79 99.0009 1480.28 99.1051C1480.77 99.2045 1481.23 99.3892 1481.65 99.6591C1482.09 99.929 1482.44 100.315 1482.71 100.817C1482.99 101.314 1483.12 101.96 1483.12 102.756V110H1481.05V108.509H1480.97C1480.83 108.783 1480.62 109.053 1480.35 109.318C1480.07 109.583 1479.72 109.804 1479.29 109.979C1478.86 110.154 1478.34 110.241 1477.74 110.241ZM1478.2 108.537C1478.79 108.537 1479.29 108.421 1479.71 108.189C1480.13 107.957 1480.45 107.654 1480.67 107.28C1480.89 106.901 1481 106.496 1481 106.065V104.659C1480.93 104.735 1480.78 104.806 1480.56 104.872C1480.35 104.934 1480.1 104.988 1479.83 105.036C1479.55 105.078 1479.29 105.118 1479.03 105.156C1478.77 105.189 1478.55 105.218 1478.37 105.241C1477.96 105.294 1477.58 105.381 1477.24 105.504C1476.91 105.627 1476.64 105.805 1476.43 106.037C1476.24 106.264 1476.14 106.567 1476.14 106.946C1476.14 107.472 1476.33 107.869 1476.72 108.139C1477.11 108.404 1477.6 108.537 1478.2 108.537ZM1491.05 99.0909V100.795H1485.09V99.0909H1491.05ZM1486.68 96.4773H1488.81V106.797C1488.81 107.209 1488.87 107.519 1488.99 107.727C1489.12 107.931 1489.27 108.071 1489.47 108.146C1489.67 108.217 1489.88 108.253 1490.11 108.253C1490.29 108.253 1490.43 108.241 1490.56 108.217C1490.69 108.194 1490.79 108.175 1490.86 108.161L1491.24 109.915C1491.12 109.962 1490.95 110.009 1490.72 110.057C1490.49 110.109 1490.21 110.137 1489.87 110.142C1489.31 110.152 1488.79 110.052 1488.3 109.844C1487.82 109.635 1487.43 109.313 1487.13 108.878C1486.83 108.442 1486.68 107.895 1486.68 107.237V96.4773ZM1493.39 110V99.0909H1495.52V110H1493.39ZM1494.47 97.4077C1494.1 97.4077 1493.78 97.2846 1493.52 97.0384C1493.25 96.7874 1493.12 96.4891 1493.12 96.1435C1493.12 95.7931 1493.25 95.4948 1493.52 95.2486C1493.78 94.9976 1494.1 94.8722 1494.47 94.8722C1494.84 94.8722 1495.15 94.9976 1495.41 95.2486C1495.68 95.4948 1495.81 95.7931 1495.81 96.1435C1495.81 96.4891 1495.68 96.7874 1495.41 97.0384C1495.15 97.2846 1494.84 97.4077 1494.47 97.4077ZM1502.97 110.22C1501.95 110.22 1501.05 109.986 1500.29 109.517C1499.53 109.048 1498.94 108.393 1498.52 107.55C1498.1 106.707 1497.88 105.722 1497.88 104.595C1497.88 103.464 1498.1 102.474 1498.52 101.626C1498.94 100.779 1499.53 100.121 1500.29 99.652C1501.05 99.1832 1501.95 98.9489 1502.97 98.9489C1503.99 98.9489 1504.89 99.1832 1505.65 99.652C1506.41 100.121 1507 100.779 1507.42 101.626C1507.84 102.474 1508.06 103.464 1508.06 104.595C1508.06 105.722 1507.84 106.707 1507.42 107.55C1507 108.393 1506.41 109.048 1505.65 109.517C1504.89 109.986 1503.99 110.22 1502.97 110.22ZM1502.98 108.438C1503.64 108.438 1504.19 108.262 1504.62 107.912C1505.06 107.562 1505.38 107.095 1505.59 106.513C1505.8 105.93 1505.91 105.289 1505.91 104.588C1505.91 103.892 1505.8 103.253 1505.59 102.67C1505.38 102.083 1505.06 101.612 1504.62 101.257C1504.19 100.902 1503.64 100.724 1502.98 100.724C1502.31 100.724 1501.76 100.902 1501.32 101.257C1500.88 101.612 1500.56 102.083 1500.34 102.67C1500.13 103.253 1500.03 103.892 1500.03 104.588C1500.03 105.289 1500.13 105.93 1500.34 106.513C1500.56 107.095 1500.88 107.562 1501.32 107.912C1501.76 108.262 1502.31 108.438 1502.98 108.438ZM1512.55 103.523V110H1510.43V99.0909H1512.46V100.866H1512.6C1512.85 100.289 1513.24 99.8248 1513.78 99.4744C1514.32 99.1241 1515 98.9489 1515.82 98.9489C1516.56 98.9489 1517.21 99.1051 1517.77 99.4176C1518.33 99.7254 1518.76 100.185 1519.07 100.795C1519.38 101.406 1519.53 102.161 1519.53 103.061V110H1517.41V103.317C1517.41 102.526 1517.2 101.908 1516.79 101.463C1516.38 101.013 1515.81 100.788 1515.09 100.788C1514.6 100.788 1514.16 100.895 1513.78 101.108C1513.4 101.321 1513.1 101.634 1512.88 102.045C1512.66 102.453 1512.55 102.945 1512.55 103.523Z" fill="#222222"/>
</g>
<defs>
<clipPath id="clip0_38_137">
<rect width="1535" height="182" fill="white"/>
</clipPath>
<clipPath id="clip1_38_137">
<rect width="120" height="120" fill="white" transform="translate(-25 32)"/>
</clipPath>
</defs>
</svg>
