<svg width="1081" height="181" viewBox="0 0 1081 181" fill="none" xmlns="http://www.w3.org/2000/svg">
<g clip-path="url(#clip0_44_197)">
<rect width="1081" height="181" fill="white"/>
<g clip-path="url(#clip1_44_197)">
<path d="M35 41C39.9445 41 44.778 42.4662 48.8893 45.2133C53.0005 47.9603 56.2048 51.8648 58.097 56.4329C59.9892 61.0011 60.4843 66.0277 59.5197 70.8773C58.555 75.7268 56.174 80.1814 52.6777 83.6777C49.1814 87.174 44.7268 89.555 39.8773 90.5197C35.0277 91.4843 30.0011 90.9892 25.4329 89.097C20.8648 87.2048 16.9603 84.0005 14.2133 79.8893C11.4662 75.778 10 70.9445 10 66L10.025 64.915C10.3046 58.4788 13.058 52.3989 17.7111 47.9433C22.3642 43.4877 28.5577 41.0004 35 41Z" fill="black"/>
<path d="M45 101C51.6304 101 57.9893 103.634 62.6777 108.322C67.3661 113.011 70 119.37 70 126V131C70 133.652 68.9464 136.196 67.0711 138.071C65.1957 139.946 62.6522 141 60 141H10C7.34784 141 4.8043 139.946 2.92893 138.071C1.05357 136.196 0 133.652 0 131V126C0 119.37 2.63392 113.011 7.32233 108.322C12.0107 103.634 18.3696 101 25 101H45Z" fill="black"/>
</g>
<path d="M130.41 73.0909H134.637V96.2045C134.637 98.5909 134.075 100.722 132.95 102.597C131.836 104.46 130.262 105.932 128.228 107.011C126.194 108.08 123.808 108.614 121.069 108.614C118.33 108.614 115.944 108.08 113.91 107.011C111.876 105.932 110.296 104.46 109.171 102.597C108.058 100.722 107.501 98.5909 107.501 96.2045V73.0909H111.728V95.8636C111.728 97.5682 112.103 99.0852 112.853 100.415C113.603 101.733 114.671 102.773 116.058 103.534C117.455 104.284 119.126 104.659 121.069 104.659C123.012 104.659 124.683 104.284 126.08 103.534C127.478 102.773 128.546 101.733 129.285 100.415C130.035 99.0852 130.41 97.5682 130.41 95.8636V73.0909ZM161.079 87.6818L157.465 88.7045C157.238 88.1023 156.903 87.517 156.46 86.9489C156.028 86.3693 155.437 85.892 154.687 85.517C153.937 85.142 152.977 84.9545 151.806 84.9545C150.204 84.9545 148.869 85.3239 147.8 86.0625C146.744 86.7898 146.215 87.7159 146.215 88.8409C146.215 89.8409 146.579 90.6307 147.306 91.2102C148.033 91.7898 149.17 92.2727 150.715 92.6591L154.602 93.6136C156.942 94.1818 158.687 95.0511 159.835 96.2216C160.982 97.3807 161.556 98.875 161.556 100.705C161.556 102.205 161.124 103.545 160.261 104.727C159.408 105.909 158.215 106.841 156.681 107.523C155.147 108.205 153.363 108.545 151.329 108.545C148.658 108.545 146.448 107.966 144.698 106.807C142.948 105.648 141.84 103.955 141.374 101.727L145.192 100.773C145.556 102.182 146.244 103.239 147.255 103.943C148.278 104.648 149.613 105 151.261 105C153.136 105 154.624 104.602 155.727 103.807C156.84 103 157.397 102.034 157.397 100.909C157.397 100 157.079 99.2386 156.442 98.625C155.806 98 154.829 97.5341 153.511 97.2273L149.147 96.2045C146.749 95.6364 144.988 94.7557 143.863 93.5625C142.749 92.358 142.192 90.8523 142.192 89.0455C142.192 87.5682 142.607 86.2614 143.437 85.125C144.278 83.9886 145.42 83.0966 146.863 82.4489C148.317 81.8011 149.965 81.4773 151.806 81.4773C154.397 81.4773 156.431 82.0455 157.908 83.1818C159.397 84.3182 160.454 85.8182 161.079 87.6818ZM178.589 108.545C176.066 108.545 173.89 107.989 172.06 106.875C170.242 105.75 168.839 104.182 167.85 102.17C166.873 100.148 166.384 97.7955 166.384 95.1136C166.384 92.4318 166.873 90.0682 167.85 88.0227C168.839 85.9659 170.214 84.3636 171.975 83.2159C173.748 82.0568 175.816 81.4773 178.18 81.4773C179.543 81.4773 180.89 81.7045 182.219 82.1591C183.549 82.6136 184.759 83.3523 185.85 84.375C186.941 85.3864 187.81 86.7273 188.458 88.3977C189.106 90.0682 189.43 92.125 189.43 94.5682V96.2727H169.248V92.7955H185.339C185.339 91.3182 185.043 90 184.452 88.8409C183.873 87.6818 183.043 86.767 181.964 86.0966C180.896 85.4261 179.634 85.0909 178.18 85.0909C176.577 85.0909 175.191 85.4886 174.021 86.2841C172.862 87.0682 171.969 88.0909 171.344 89.3523C170.719 90.6136 170.407 91.9659 170.407 93.4091V95.7273C170.407 97.7045 170.748 99.3807 171.43 100.756C172.123 102.119 173.083 103.159 174.31 103.875C175.538 104.58 176.964 104.932 178.589 104.932C179.646 104.932 180.6 104.784 181.452 104.489C182.316 104.182 183.06 103.727 183.685 103.125C184.31 102.511 184.793 101.75 185.134 100.841L189.021 101.932C188.612 103.25 187.924 104.409 186.958 105.409C185.992 106.398 184.799 107.17 183.379 107.727C181.958 108.273 180.362 108.545 178.589 108.545ZM195.549 108V81.8182H199.435V85.7727H199.708C200.185 84.4773 201.049 83.4261 202.299 82.6193C203.549 81.8125 204.958 81.4091 206.526 81.4091C206.822 81.4091 207.191 81.4148 207.634 81.4261C208.077 81.4375 208.413 81.4545 208.64 81.4773V85.5682C208.504 85.5341 208.191 85.483 207.702 85.4148C207.225 85.3352 206.719 85.2955 206.185 85.2955C204.913 85.2955 203.776 85.5625 202.776 86.0966C201.788 86.6193 201.004 87.3466 200.424 88.2784C199.856 89.1989 199.572 90.25 199.572 91.4318V108H195.549Z" fill="black"/>
<rect x="365" width="128" height="128" transform="rotate(45 365 0)" fill="#2897DC"/>
<path d="M337.944 85V70.4545H340.138V76.7756H347.39V70.4545H349.591V85H347.39V78.6577H340.138V85H337.944ZM357.212 85.2202C356.189 85.2202 355.297 84.9858 354.535 84.517C353.772 84.0483 353.18 83.3925 352.759 82.5497C352.338 81.7069 352.127 80.7221 352.127 79.5952C352.127 78.4635 352.338 77.474 352.759 76.6264C353.18 75.7789 353.772 75.1207 354.535 74.652C355.297 74.1832 356.189 73.9489 357.212 73.9489C358.235 73.9489 359.127 74.1832 359.89 74.652C360.652 75.1207 361.244 75.7789 361.665 76.6264C362.087 77.474 362.297 78.4635 362.297 79.5952C362.297 80.7221 362.087 81.7069 361.665 82.5497C361.244 83.3925 360.652 84.0483 359.89 84.517C359.127 84.9858 358.235 85.2202 357.212 85.2202ZM357.219 83.4375C357.882 83.4375 358.431 83.2623 358.867 82.9119C359.303 82.5616 359.625 82.0952 359.833 81.5128C360.046 80.9304 360.153 80.2888 360.153 79.5881C360.153 78.892 360.046 78.2528 359.833 77.6705C359.625 77.0833 359.303 76.6122 358.867 76.2571C358.431 75.902 357.882 75.7244 357.219 75.7244C356.552 75.7244 355.998 75.902 355.557 76.2571C355.122 76.6122 354.797 77.0833 354.584 77.6705C354.376 78.2528 354.272 78.892 354.272 79.5881C354.272 80.2888 354.376 80.9304 354.584 81.5128C354.797 82.0952 355.122 82.5616 355.557 82.9119C355.998 83.2623 356.552 83.4375 357.219 83.4375ZM364.668 85V74.0909H366.706V75.8665H366.841C367.068 75.2652 367.44 74.7964 367.956 74.4602C368.472 74.1193 369.09 73.9489 369.81 73.9489C370.539 73.9489 371.15 74.1193 371.642 74.4602C372.139 74.8011 372.506 75.2699 372.743 75.8665H372.857C373.117 75.2841 373.531 74.8201 374.1 74.4744C374.668 74.1241 375.345 73.9489 376.131 73.9489C377.12 73.9489 377.928 74.259 378.553 74.8793C379.182 75.4995 379.497 76.4347 379.497 77.6847V85H377.374V77.8835C377.374 77.1449 377.173 76.6098 376.77 76.2784C376.368 75.947 375.887 75.7812 375.328 75.7812C374.637 75.7812 374.1 75.9943 373.716 76.4205C373.333 76.8419 373.141 77.384 373.141 78.0469V85H371.024V77.7486C371.024 77.1567 370.84 76.6809 370.47 76.321C370.101 75.9612 369.62 75.7812 369.029 75.7812C368.626 75.7812 368.254 75.8878 367.914 76.1009C367.577 76.3092 367.305 76.6004 367.097 76.9744C366.893 77.3485 366.791 77.7817 366.791 78.2741V85H364.668ZM387.045 85.2202C385.97 85.2202 385.045 84.9905 384.268 84.5312C383.497 84.0672 382.9 83.4162 382.479 82.5781C382.062 81.7353 381.854 80.7481 381.854 79.6165C381.854 78.4991 382.062 77.5142 382.479 76.6619C382.9 75.8097 383.487 75.1444 384.24 74.6662C384.997 74.188 385.883 73.9489 386.896 73.9489C387.512 73.9489 388.108 74.0507 388.686 74.2543C389.264 74.4579 389.782 74.7775 390.241 75.2131C390.701 75.6487 391.063 76.2145 391.328 76.9105C391.593 77.6018 391.726 78.4422 391.726 79.4318V80.1847H383.054V78.5938H389.645C389.645 78.035 389.531 77.5402 389.304 77.1094C389.077 76.6738 388.757 76.3305 388.345 76.0795C387.938 75.8286 387.46 75.7031 386.91 75.7031C386.314 75.7031 385.793 75.8499 385.348 76.1435C384.907 76.4323 384.567 76.8111 384.325 77.2798C384.088 77.7438 383.97 78.2481 383.97 78.7926V80.0355C383.97 80.7647 384.098 81.3849 384.354 81.8963C384.614 82.4077 384.976 82.7983 385.44 83.0682C385.904 83.3333 386.446 83.4659 387.067 83.4659C387.469 83.4659 387.836 83.4091 388.167 83.2955C388.499 83.1771 388.785 83.0019 389.027 82.7699C389.268 82.5379 389.453 82.2514 389.581 81.9105L391.591 82.2727C391.43 82.8646 391.141 83.383 390.724 83.8281C390.312 84.2685 389.794 84.6117 389.169 84.858C388.549 85.0994 387.841 85.2202 387.045 85.2202ZM340.564 98.2756C340.489 97.6032 340.176 97.0824 339.627 96.7131C339.078 96.339 338.386 96.152 337.553 96.152C336.956 96.152 336.44 96.2467 336.005 96.4361C335.569 96.6207 335.231 96.8764 334.989 97.2031C334.752 97.5251 334.634 97.892 334.634 98.304C334.634 98.6496 334.715 98.9479 334.876 99.1989C335.041 99.4498 335.257 99.6605 335.522 99.831C335.792 99.9967 336.081 100.136 336.388 100.25C336.696 100.359 336.992 100.449 337.276 100.52L338.697 100.889C339.161 101.003 339.636 101.157 340.124 101.351C340.612 101.545 341.064 101.801 341.481 102.118C341.897 102.435 342.233 102.828 342.489 103.297C342.75 103.766 342.88 104.327 342.88 104.98C342.88 105.804 342.667 106.536 342.241 107.175C341.819 107.814 341.206 108.318 340.401 108.688C339.601 109.057 338.633 109.241 337.496 109.241C336.407 109.241 335.465 109.069 334.67 108.723C333.874 108.377 333.251 107.887 332.802 107.253C332.352 106.614 332.103 105.856 332.056 104.98H334.258C334.3 105.506 334.471 105.944 334.769 106.294C335.072 106.64 335.458 106.898 335.927 107.068C336.4 107.234 336.919 107.317 337.482 107.317C338.102 107.317 338.654 107.22 339.137 107.026C339.625 106.827 340.008 106.552 340.287 106.202C340.567 105.847 340.706 105.432 340.706 104.959C340.706 104.528 340.583 104.175 340.337 103.901C340.096 103.626 339.767 103.399 339.35 103.219C338.938 103.039 338.472 102.88 337.951 102.743L336.232 102.274C335.067 101.957 334.144 101.491 333.462 100.875C332.785 100.259 332.447 99.4451 332.447 98.4318C332.447 97.5937 332.674 96.8622 333.128 96.2372C333.583 95.6122 334.198 95.1269 334.975 94.7812C335.751 94.4309 336.627 94.2557 337.603 94.2557C338.588 94.2557 339.456 94.4285 340.209 94.7741C340.967 95.1198 341.564 95.5956 341.999 96.2017C342.435 96.803 342.662 97.4943 342.681 98.2756H340.564ZM349.927 109.22C348.871 109.22 347.962 108.981 347.2 108.503C346.442 108.02 345.86 107.355 345.453 106.507C345.045 105.66 344.842 104.689 344.842 103.595C344.842 102.487 345.05 101.509 345.467 100.662C345.883 99.8097 346.471 99.1444 347.228 98.6662C347.986 98.188 348.878 97.9489 349.906 97.9489C350.734 97.9489 351.473 98.1027 352.122 98.4105C352.77 98.7135 353.294 99.1397 353.691 99.6889C354.094 100.238 354.333 100.88 354.409 101.614H352.342C352.228 101.102 351.968 100.662 351.561 100.293C351.158 99.9233 350.618 99.7386 349.941 99.7386C349.349 99.7386 348.831 99.8949 348.386 100.207C347.945 100.515 347.602 100.955 347.356 101.528C347.11 102.097 346.987 102.769 346.987 103.545C346.987 104.341 347.107 105.027 347.349 105.605C347.59 106.183 347.931 106.63 348.372 106.947C348.817 107.265 349.34 107.423 349.941 107.423C350.344 107.423 350.708 107.35 351.035 107.203C351.366 107.052 351.643 106.836 351.866 106.557C352.093 106.277 352.252 105.941 352.342 105.548H354.409C354.333 106.254 354.103 106.884 353.72 107.438C353.336 107.991 352.822 108.427 352.178 108.744C351.539 109.062 350.789 109.22 349.927 109.22ZM356.68 109V98.0909H358.732V99.8239H358.846C359.045 99.2367 359.395 98.7751 359.897 98.4389C360.403 98.098 360.976 97.9276 361.616 97.9276C361.748 97.9276 361.904 97.9323 362.084 97.9418C362.269 97.9512 362.413 97.9631 362.518 97.9773V100.009C362.432 99.9848 362.281 99.9588 362.063 99.9304C361.845 99.8973 361.627 99.8807 361.41 99.8807C360.908 99.8807 360.46 99.9872 360.067 100.2C359.679 100.409 359.371 100.7 359.144 101.074C358.917 101.443 358.803 101.865 358.803 102.338V109H356.68ZM368.666 109.22C367.592 109.22 366.666 108.991 365.889 108.531C365.118 108.067 364.521 107.416 364.1 106.578C363.683 105.735 363.475 104.748 363.475 103.616C363.475 102.499 363.683 101.514 364.1 100.662C364.521 99.8097 365.108 99.1444 365.861 98.6662C366.619 98.188 367.504 97.9489 368.517 97.9489C369.133 97.9489 369.729 98.0507 370.307 98.2543C370.885 98.4579 371.403 98.7775 371.862 99.2131C372.322 99.6487 372.684 100.214 372.949 100.911C373.214 101.602 373.347 102.442 373.347 103.432V104.185H364.675V102.594H371.266C371.266 102.035 371.152 101.54 370.925 101.109C370.698 100.674 370.378 100.33 369.966 100.08C369.559 99.8286 369.081 99.7031 368.531 99.7031C367.935 99.7031 367.414 99.8499 366.969 100.143C366.529 100.432 366.188 100.811 365.946 101.28C365.709 101.744 365.591 102.248 365.591 102.793V104.036C365.591 104.765 365.719 105.385 365.975 105.896C366.235 106.408 366.597 106.798 367.061 107.068C367.525 107.333 368.067 107.466 368.688 107.466C369.09 107.466 369.457 107.409 369.789 107.295C370.12 107.177 370.406 107.002 370.648 106.77C370.889 106.538 371.074 106.251 371.202 105.911L373.212 106.273C373.051 106.865 372.762 107.383 372.345 107.828C371.933 108.268 371.415 108.612 370.79 108.858C370.17 109.099 369.462 109.22 368.666 109.22ZM380.405 109.22C379.33 109.22 378.404 108.991 377.628 108.531C376.856 108.067 376.259 107.416 375.838 106.578C375.421 105.735 375.213 104.748 375.213 103.616C375.213 102.499 375.421 101.514 375.838 100.662C376.259 99.8097 376.846 99.1444 377.599 98.6662C378.357 98.188 379.242 97.9489 380.256 97.9489C380.871 97.9489 381.468 98.0507 382.045 98.2543C382.623 98.4579 383.141 98.7775 383.601 99.2131C384.06 99.6487 384.422 100.214 384.687 100.911C384.952 101.602 385.085 102.442 385.085 103.432V104.185H376.413V102.594H383.004C383.004 102.035 382.89 101.54 382.663 101.109C382.436 100.674 382.116 100.33 381.704 100.08C381.297 99.8286 380.819 99.7031 380.27 99.7031C379.673 99.7031 379.152 99.8499 378.707 100.143C378.267 100.432 377.926 100.811 377.684 101.28C377.448 101.744 377.329 102.248 377.329 102.793V104.036C377.329 104.765 377.457 105.385 377.713 105.896C377.973 106.408 378.336 106.798 378.8 107.068C379.264 107.333 379.806 107.466 380.426 107.466C380.828 107.466 381.195 107.409 381.527 107.295C381.858 107.177 382.145 107.002 382.386 106.77C382.628 106.538 382.812 106.251 382.94 105.911L384.95 106.273C384.789 106.865 384.5 107.383 384.084 107.828C383.672 108.268 383.153 108.612 382.528 108.858C381.908 109.099 381.2 109.22 380.405 109.22ZM389.565 102.523V109H387.441V98.0909H389.48V99.8665H389.615C389.865 99.2888 390.258 98.8248 390.794 98.4744C391.333 98.1241 392.013 97.9489 392.832 97.9489C393.575 97.9489 394.226 98.1051 394.785 98.4176C395.344 98.7254 395.777 99.1847 396.085 99.7955C396.392 100.406 396.546 101.161 396.546 102.061V109H394.423V102.317C394.423 101.526 394.217 100.908 393.805 100.463C393.393 100.013 392.827 99.7884 392.107 99.7884C391.615 99.7884 391.177 99.8949 390.794 100.108C390.415 100.321 390.114 100.634 389.892 101.045C389.674 101.453 389.565 101.945 389.565 102.523Z" fill="white"/>
<path d="M511 91L501 85.2265V96.7735L511 91ZM455 92H502V90H455V92Z" fill="black"/>
<path d="M727 91L717 85.2265V96.7735L727 91ZM671 92H718V90H671V92Z" fill="black"/>
<path d="M943 91L933 85.2265V96.7735L943 91ZM887 92H934V90H887V92Z" fill="black"/>
<circle cx="591" cy="90" r="80" fill="#FCF280"/>
<circle cx="807" cy="90" r="80" fill="#FCF280"/>
<path d="M532.637 85V70.4545H537.964C538.996 70.4545 539.851 70.625 540.528 70.9659C541.205 71.3021 541.711 71.759 542.048 72.3366C542.384 72.9096 542.552 73.5559 542.552 74.2756C542.552 74.8816 542.441 75.393 542.218 75.8097C541.996 76.2216 541.697 76.553 541.323 76.804C540.954 77.0502 540.547 77.2301 540.102 77.3438V77.4858C540.585 77.5095 541.056 77.6657 541.515 77.9545C541.979 78.2386 542.362 78.6435 542.665 79.169C542.969 79.6946 543.12 80.3338 543.12 81.0866C543.12 81.83 542.945 82.4976 542.594 83.0895C542.249 83.6766 541.714 84.143 540.989 84.4886C540.265 84.8295 539.339 85 538.212 85H532.637ZM534.832 83.1179H537.999C539.05 83.1179 539.803 82.9143 540.258 82.5071C540.712 82.0999 540.94 81.5909 540.94 80.9801C540.94 80.5208 540.824 80.0994 540.592 79.7159C540.36 79.3324 540.028 79.027 539.597 78.7997C539.171 78.5724 538.665 78.4588 538.077 78.4588H534.832V83.1179ZM534.832 76.7472H537.772C538.264 76.7472 538.707 76.6525 539.1 76.4631C539.498 76.2737 539.813 76.0085 540.045 75.6676C540.281 75.322 540.4 74.9148 540.4 74.446C540.4 73.8447 540.189 73.3404 539.768 72.9332C539.346 72.526 538.7 72.3224 537.829 72.3224H534.832V76.7472ZM545.553 85V74.0909H547.605V75.8239H547.719C547.918 75.2367 548.268 74.7751 548.77 74.4389C549.277 74.098 549.849 73.9276 550.489 73.9276C550.621 73.9276 550.777 73.9323 550.957 73.9418C551.142 73.9512 551.286 73.9631 551.391 73.9773V76.0085C551.305 75.9848 551.154 75.9588 550.936 75.9304C550.718 75.8973 550.5 75.8807 550.283 75.8807C549.781 75.8807 549.333 75.9872 548.94 76.2003C548.552 76.4086 548.244 76.6998 548.017 77.0739C547.79 77.4432 547.676 77.8646 547.676 78.3381V85H545.553ZM557.433 85.2202C556.41 85.2202 555.518 84.9858 554.755 84.517C553.993 84.0483 553.401 83.3925 552.98 82.5497C552.558 81.7069 552.348 80.7221 552.348 79.5952C552.348 78.4635 552.558 77.474 552.98 76.6264C553.401 75.7789 553.993 75.1207 554.755 74.652C555.518 74.1832 556.41 73.9489 557.433 73.9489C558.456 73.9489 559.348 74.1832 560.11 74.652C560.873 75.1207 561.465 75.7789 561.886 76.6264C562.307 77.474 562.518 78.4635 562.518 79.5952C562.518 80.7221 562.307 81.7069 561.886 82.5497C561.465 83.3925 560.873 84.0483 560.11 84.517C559.348 84.9858 558.456 85.2202 557.433 85.2202ZM557.44 83.4375C558.103 83.4375 558.652 83.2623 559.088 82.9119C559.523 82.5616 559.845 82.0952 560.054 81.5128C560.267 80.9304 560.373 80.2888 560.373 79.5881C560.373 78.892 560.267 78.2528 560.054 77.6705C559.845 77.0833 559.523 76.6122 559.088 76.2571C558.652 75.902 558.103 75.7244 557.44 75.7244C556.772 75.7244 556.218 75.902 555.778 76.2571C555.342 76.6122 555.018 77.0833 554.805 77.6705C554.597 78.2528 554.493 78.892 554.493 79.5881C554.493 80.2888 554.597 80.9304 554.805 81.5128C555.018 82.0952 555.342 82.5616 555.778 82.9119C556.218 83.2623 556.772 83.4375 557.44 83.4375ZM566.922 85L563.711 74.0909H565.906L568.044 82.1023H568.15L570.295 74.0909H572.49L574.62 82.0668H574.727L576.85 74.0909H579.045L575.842 85H573.676L571.46 77.1236H571.297L569.081 85H566.922ZM589.235 76.7543L587.31 77.0952C587.23 76.849 587.102 76.6146 586.927 76.392C586.756 76.1695 586.524 75.9872 586.231 75.8452C585.937 75.7031 585.57 75.6321 585.13 75.6321C584.529 75.6321 584.027 75.767 583.624 76.0369C583.222 76.3021 583.021 76.6454 583.021 77.0668C583.021 77.4313 583.156 77.7249 583.425 77.9474C583.695 78.17 584.131 78.3523 584.732 78.4943L586.465 78.892C587.469 79.1241 588.217 79.4815 588.71 79.9645C589.202 80.4474 589.448 81.0748 589.448 81.8466C589.448 82.5 589.259 83.0824 588.88 83.5938C588.506 84.1004 587.983 84.4981 587.31 84.7869C586.643 85.0758 585.869 85.2202 584.988 85.2202C583.766 85.2202 582.77 84.9598 581.998 84.4389C581.226 83.9134 580.753 83.1676 580.577 82.2017L582.63 81.8892C582.758 82.4242 583.021 82.8291 583.418 83.1037C583.816 83.3736 584.335 83.5085 584.974 83.5085C585.67 83.5085 586.226 83.3641 586.643 83.0753C587.059 82.7817 587.268 82.4242 587.268 82.0028C587.268 81.6619 587.14 81.3755 586.884 81.1435C586.633 80.9115 586.247 80.7363 585.727 80.6179L583.88 80.2131C582.862 79.9811 582.109 79.6117 581.621 79.1051C581.138 78.5985 580.897 77.9569 580.897 77.1804C580.897 76.5365 581.077 75.973 581.437 75.4901C581.797 75.0071 582.294 74.6307 582.928 74.3608C583.563 74.0862 584.29 73.9489 585.109 73.9489C586.288 73.9489 587.216 74.2045 587.893 74.7159C588.57 75.2225 589.017 75.902 589.235 76.7543ZM596.485 85.2202C595.41 85.2202 594.484 84.9905 593.708 84.5312C592.936 84.0672 592.339 83.4162 591.918 82.5781C591.501 81.7353 591.293 80.7481 591.293 79.6165C591.293 78.4991 591.501 77.5142 591.918 76.6619C592.339 75.8097 592.926 75.1444 593.679 74.6662C594.437 74.188 595.322 73.9489 596.336 73.9489C596.951 73.9489 597.548 74.0507 598.125 74.2543C598.703 74.4579 599.221 74.7775 599.681 75.2131C600.14 75.6487 600.502 76.2145 600.767 76.9105C601.033 77.6018 601.165 78.4422 601.165 79.4318V80.1847H592.493V78.5938H599.084C599.084 78.035 598.971 77.5402 598.743 77.1094C598.516 76.6738 598.196 76.3305 597.784 76.0795C597.377 75.8286 596.899 75.7031 596.35 75.7031C595.753 75.7031 595.232 75.8499 594.787 76.1435C594.347 76.4323 594.006 76.8111 593.765 77.2798C593.528 77.7438 593.409 78.2481 593.409 78.7926V80.0355C593.409 80.7647 593.537 81.3849 593.793 81.8963C594.053 82.4077 594.416 82.7983 594.88 83.0682C595.344 83.3333 595.886 83.4659 596.506 83.4659C596.908 83.4659 597.275 83.4091 597.607 83.2955C597.938 83.1771 598.225 83.0019 598.466 82.7699C598.708 82.5379 598.892 82.2514 599.02 81.9105L601.03 82.2727C600.869 82.8646 600.58 83.383 600.164 83.8281C599.752 84.2685 599.233 84.6117 598.608 84.858C597.988 85.0994 597.28 85.2202 596.485 85.2202ZM614.006 74.0909V75.7955H607.841V74.0909H614.006ZM609.532 85V72.8267C609.532 72.1449 609.681 71.5791 609.979 71.1293C610.277 70.6747 610.673 70.3362 611.165 70.1136C611.658 69.8864 612.193 69.7727 612.77 69.7727C613.196 69.7727 613.561 69.8082 613.864 69.8793C614.167 69.9455 614.392 70.0071 614.539 70.0639L614.042 71.7827C613.942 71.7543 613.814 71.7211 613.658 71.6832C613.502 71.6406 613.312 71.6193 613.09 71.6193C612.574 71.6193 612.204 71.7472 611.982 72.0028C611.764 72.2585 611.655 72.6278 611.655 73.1108V85H609.532ZM620.363 85.2202C619.34 85.2202 618.447 84.9858 617.685 84.517C616.923 84.0483 616.331 83.3925 615.909 82.5497C615.488 81.7069 615.277 80.7221 615.277 79.5952C615.277 78.4635 615.488 77.474 615.909 76.6264C616.331 75.7789 616.923 75.1207 617.685 74.652C618.447 74.1832 619.34 73.9489 620.363 73.9489C621.385 73.9489 622.278 74.1832 623.04 74.652C623.802 75.1207 624.394 75.7789 624.816 76.6264C625.237 77.474 625.448 78.4635 625.448 79.5952C625.448 80.7221 625.237 81.7069 624.816 82.5497C624.394 83.3925 623.802 84.0483 623.04 84.517C622.278 84.9858 621.385 85.2202 620.363 85.2202ZM620.37 83.4375C621.033 83.4375 621.582 83.2623 622.017 82.9119C622.453 82.5616 622.775 82.0952 622.983 81.5128C623.196 80.9304 623.303 80.2888 623.303 79.5881C623.303 78.892 623.196 78.2528 622.983 77.6705C622.775 77.0833 622.453 76.6122 622.017 76.2571C621.582 75.902 621.033 75.7244 620.37 75.7244C619.702 75.7244 619.148 75.902 618.708 76.2571C618.272 76.6122 617.948 77.0833 617.735 77.6705C617.526 78.2528 617.422 78.892 617.422 79.5881C617.422 80.2888 617.526 80.9304 617.735 81.5128C617.948 82.0952 618.272 82.5616 618.708 82.9119C619.148 83.2623 619.702 83.4375 620.37 83.4375ZM632.413 85.2202C631.391 85.2202 630.498 84.9858 629.736 84.517C628.973 84.0483 628.382 83.3925 627.96 82.5497C627.539 81.7069 627.328 80.7221 627.328 79.5952C627.328 78.4635 627.539 77.474 627.96 76.6264C628.382 75.7789 628.973 75.1207 629.736 74.652C630.498 74.1832 631.391 73.9489 632.413 73.9489C633.436 73.9489 634.329 74.1832 635.091 74.652C635.853 75.1207 636.445 75.7789 636.866 76.6264C637.288 77.474 637.499 78.4635 637.499 79.5952C637.499 80.7221 637.288 81.7069 636.866 82.5497C636.445 83.3925 635.853 84.0483 635.091 84.517C634.329 84.9858 633.436 85.2202 632.413 85.2202ZM632.42 83.4375C633.083 83.4375 633.633 83.2623 634.068 82.9119C634.504 82.5616 634.826 82.0952 635.034 81.5128C635.247 80.9304 635.354 80.2888 635.354 79.5881C635.354 78.892 635.247 78.2528 635.034 77.6705C634.826 77.0833 634.504 76.6122 634.068 76.2571C633.633 75.902 633.083 75.7244 632.42 75.7244C631.753 75.7244 631.199 75.902 630.759 76.2571C630.323 76.6122 629.999 77.0833 629.786 77.6705C629.577 78.2528 629.473 78.892 629.473 79.5881C629.473 80.2888 629.577 80.9304 629.786 81.5128C629.999 82.0952 630.323 82.5616 630.759 82.9119C631.199 83.2623 631.753 83.4375 632.42 83.4375ZM643.953 85.2131C643.072 85.2131 642.286 84.9882 641.595 84.5384C640.908 84.0838 640.368 83.4375 639.975 82.5994C639.587 81.7566 639.393 80.7457 639.393 79.5668C639.393 78.3878 639.59 77.3793 639.983 76.5412C640.38 75.7031 640.925 75.0616 641.616 74.6165C642.307 74.1714 643.091 73.9489 643.967 73.9489C644.644 73.9489 645.189 74.0625 645.6 74.2898C646.017 74.5123 646.339 74.7727 646.566 75.071C646.798 75.3693 646.978 75.6321 647.106 75.8594H647.234V70.4545H649.358V85H647.284V83.3026H647.106C646.978 83.5346 646.794 83.7997 646.552 84.098C646.315 84.3963 645.989 84.6567 645.572 84.8793C645.155 85.1018 644.616 85.2131 643.953 85.2131ZM644.422 83.402C645.032 83.402 645.548 83.241 645.97 82.919C646.396 82.5923 646.718 82.1402 646.936 81.5625C647.158 80.9848 647.27 80.3125 647.27 79.5455C647.27 78.7879 647.161 78.125 646.943 77.5568C646.725 76.9886 646.405 76.5459 645.984 76.2287C645.563 75.9115 645.042 75.7528 644.422 75.7528C643.782 75.7528 643.25 75.9186 642.824 76.25C642.397 76.5814 642.075 77.0336 641.858 77.6065C641.645 78.1795 641.538 78.8258 641.538 79.5455C641.538 80.2746 641.647 80.9304 641.865 81.5128C642.083 82.0952 642.404 82.5568 642.831 82.8977C643.261 83.2339 643.792 83.402 644.422 83.402ZM566.207 109V98.0909H568.33V109H566.207ZM567.279 96.4077C566.91 96.4077 566.593 96.2846 566.328 96.0384C566.067 95.7874 565.937 95.4891 565.937 95.1435C565.937 94.7931 566.067 94.4948 566.328 94.2486C566.593 93.9976 566.91 93.8722 567.279 93.8722C567.649 93.8722 567.963 93.9976 568.224 94.2486C568.489 94.4948 568.622 94.7931 568.622 95.1435C568.622 95.4891 568.489 95.7874 568.224 96.0384C567.963 96.2846 567.649 96.4077 567.279 96.4077ZM576.28 98.0909V99.7955H570.321V98.0909H576.28ZM571.919 95.4773H574.042V105.797C574.042 106.209 574.104 106.519 574.227 106.727C574.35 106.931 574.509 107.071 574.703 107.146C574.902 107.217 575.117 107.253 575.349 107.253C575.52 107.253 575.669 107.241 575.797 107.217C575.925 107.194 576.024 107.175 576.095 107.161L576.479 108.915C576.355 108.962 576.18 109.009 575.953 109.057C575.726 109.109 575.442 109.137 575.101 109.142C574.542 109.152 574.021 109.052 573.538 108.844C573.055 108.635 572.665 108.313 572.366 107.878C572.068 107.442 571.919 106.895 571.919 106.237V95.4773ZM583.213 109.22C582.138 109.22 581.213 108.991 580.436 108.531C579.664 108.067 579.068 107.416 578.646 106.578C578.23 105.735 578.021 104.748 578.021 103.616C578.021 102.499 578.23 101.514 578.646 100.662C579.068 99.8097 579.655 99.1444 580.408 98.6662C581.165 98.188 582.051 97.9489 583.064 97.9489C583.68 97.9489 584.276 98.0507 584.854 98.2543C585.432 98.4579 585.95 98.7775 586.409 99.2131C586.869 99.6487 587.231 100.214 587.496 100.911C587.761 101.602 587.894 102.442 587.894 103.432V104.185H579.222V102.594H585.813C585.813 102.035 585.699 101.54 585.472 101.109C585.244 100.674 584.925 100.33 584.513 100.08C584.106 99.8286 583.628 99.7031 583.078 99.7031C582.482 99.7031 581.961 99.8499 581.516 100.143C581.075 100.432 580.735 100.811 580.493 101.28C580.256 101.744 580.138 102.248 580.138 102.793V104.036C580.138 104.765 580.266 105.385 580.521 105.896C580.782 106.408 581.144 106.798 581.608 107.068C582.072 107.333 582.614 107.466 583.235 107.466C583.637 107.466 584.004 107.409 584.335 107.295C584.667 107.177 584.953 107.002 585.195 106.77C585.436 106.538 585.621 106.251 585.749 105.911L587.759 106.273C587.598 106.865 587.309 107.383 586.892 107.828C586.48 108.268 585.962 108.612 585.337 108.858C584.717 109.099 584.009 109.22 583.213 109.22ZM590.25 109V98.0909H592.288V99.8665H592.423C592.65 99.2652 593.022 98.7964 593.538 98.4602C594.054 98.1193 594.672 97.9489 595.392 97.9489C596.121 97.9489 596.732 98.1193 597.224 98.4602C597.721 98.8011 598.088 99.2699 598.325 99.8665H598.439C598.699 99.2841 599.113 98.8201 599.682 98.4744C600.25 98.1241 600.927 97.9489 601.713 97.9489C602.702 97.9489 603.51 98.259 604.135 98.8793C604.765 99.4995 605.079 100.435 605.079 101.685V109H602.956V101.884C602.956 101.145 602.755 100.61 602.352 100.278C601.95 99.947 601.469 99.7812 600.91 99.7812C600.219 99.7812 599.682 99.9943 599.298 100.42C598.915 100.842 598.723 101.384 598.723 102.047V109H596.606V101.749C596.606 101.157 596.422 100.681 596.052 100.321C595.683 99.9612 595.202 99.7812 594.611 99.7812C594.208 99.7812 593.836 99.8878 593.496 100.101C593.159 100.309 592.887 100.6 592.679 100.974C592.475 101.348 592.373 101.782 592.373 102.274V109H590.25ZM616.1 100.754L614.176 101.095C614.095 100.849 613.967 100.615 613.792 100.392C613.622 100.17 613.39 99.9872 613.096 99.8452C612.802 99.7031 612.436 99.6321 611.995 99.6321C611.394 99.6321 610.892 99.767 610.49 100.037C610.087 100.302 609.886 100.645 609.886 101.067C609.886 101.431 610.021 101.725 610.291 101.947C610.561 102.17 610.996 102.352 611.597 102.494L613.33 102.892C614.334 103.124 615.082 103.482 615.575 103.964C616.067 104.447 616.313 105.075 616.313 105.847C616.313 106.5 616.124 107.082 615.745 107.594C615.371 108.1 614.848 108.498 614.176 108.787C613.508 109.076 612.734 109.22 611.853 109.22C610.632 109.22 609.635 108.96 608.863 108.439C608.091 107.913 607.618 107.168 607.443 106.202L609.495 105.889C609.623 106.424 609.886 106.829 610.284 107.104C610.681 107.374 611.2 107.509 611.839 107.509C612.535 107.509 613.091 107.364 613.508 107.075C613.925 106.782 614.133 106.424 614.133 106.003C614.133 105.662 614.005 105.375 613.749 105.143C613.499 104.911 613.113 104.736 612.592 104.618L610.745 104.213C609.727 103.981 608.974 103.612 608.487 103.105C608.004 102.598 607.762 101.957 607.762 101.18C607.762 100.536 607.942 99.973 608.302 99.4901C608.662 99.0071 609.159 98.6307 609.794 98.3608C610.428 98.0862 611.155 97.9489 611.974 97.9489C613.153 97.9489 614.081 98.2045 614.758 98.7159C615.435 99.2225 615.883 99.902 616.1 100.754Z" fill="#222222"/>
<path d="M763.26 70.4545L767.308 82.3011H767.472L771.52 70.4545H773.892L768.658 85H766.122L760.888 70.4545H763.26ZM775.822 85V74.0909H777.946V85H775.822ZM776.895 72.4077C776.525 72.4077 776.208 72.2846 775.943 72.0384C775.682 71.7874 775.552 71.4891 775.552 71.1435C775.552 70.7931 775.682 70.4948 775.943 70.2486C776.208 69.9976 776.525 69.8722 776.895 69.8722C777.264 69.8722 777.579 69.9976 777.839 70.2486C778.104 70.4948 778.237 70.7931 778.237 71.1435C778.237 71.4891 778.104 71.7874 777.839 72.0384C777.579 72.2846 777.264 72.4077 776.895 72.4077ZM785.504 85.2202C784.429 85.2202 783.504 84.9905 782.727 84.5312C781.955 84.0672 781.359 83.4162 780.938 82.5781C780.521 81.7353 780.312 80.7481 780.312 79.6165C780.312 78.4991 780.521 77.5142 780.938 76.6619C781.359 75.8097 781.946 75.1444 782.699 74.6662C783.456 74.188 784.342 73.9489 785.355 73.9489C785.971 73.9489 786.567 74.0507 787.145 74.2543C787.723 74.4579 788.241 74.7775 788.7 75.2131C789.16 75.6487 789.522 76.2145 789.787 76.9105C790.052 77.6018 790.185 78.4422 790.185 79.4318V80.1847H781.513V78.5938H788.104C788.104 78.035 787.99 77.5402 787.763 77.1094C787.536 76.6738 787.216 76.3305 786.804 76.0795C786.397 75.8286 785.919 75.7031 785.369 75.7031C784.773 75.7031 784.252 75.8499 783.807 76.1435C783.366 76.4323 783.026 76.8111 782.784 77.2798C782.547 77.7438 782.429 78.2481 782.429 78.7926V80.0355C782.429 80.7647 782.557 81.3849 782.812 81.8963C783.073 82.4077 783.435 82.7983 783.899 83.0682C784.363 83.3333 784.905 83.4659 785.526 83.4659C785.928 83.4659 786.295 83.4091 786.626 83.2955C786.958 83.1771 787.244 83.0019 787.486 82.7699C787.727 82.5379 787.912 82.2514 788.04 81.9105L790.05 82.2727C789.889 82.8646 789.6 83.383 789.183 83.8281C788.771 84.2685 788.253 84.6117 787.628 84.858C787.008 85.0994 786.3 85.2202 785.504 85.2202ZM794.886 85L791.676 74.0909H793.871L796.009 82.1023H796.115L798.26 74.0909H800.455L802.585 82.0668H802.692L804.815 74.0909H807.01L803.807 85H801.641L799.425 77.1236H799.261L797.045 85H794.886ZM814.318 85V74.0909H816.442V85H814.318ZM815.391 72.4077C815.021 72.4077 814.704 72.2846 814.439 72.0384C814.179 71.7874 814.048 71.4891 814.048 71.1435C814.048 70.7931 814.179 70.4948 814.439 70.2486C814.704 69.9976 815.021 69.8722 815.391 69.8722C815.76 69.8722 816.075 69.9976 816.335 70.2486C816.6 70.4948 816.733 70.7931 816.733 71.1435C816.733 71.4891 816.6 71.7874 816.335 72.0384C816.075 72.2846 815.76 72.4077 815.391 72.4077ZM824.391 74.0909V75.7955H818.432V74.0909H824.391ZM820.03 71.4773H822.154V81.7969C822.154 82.2088 822.215 82.5189 822.338 82.7273C822.462 82.9309 822.62 83.0705 822.814 83.1463C823.013 83.2173 823.229 83.2528 823.461 83.2528C823.631 83.2528 823.78 83.241 823.908 83.2173C824.036 83.1937 824.135 83.1747 824.206 83.1605L824.59 84.9148C824.467 84.9621 824.292 85.0095 824.064 85.0568C823.837 85.1089 823.553 85.1373 823.212 85.142C822.653 85.1515 822.132 85.0521 821.65 84.8438C821.167 84.6354 820.776 84.3134 820.478 83.8778C820.179 83.4422 820.03 82.8954 820.03 82.2372V71.4773ZM831.325 85.2202C830.25 85.2202 829.324 84.9905 828.548 84.5312C827.776 84.0672 827.179 83.4162 826.758 82.5781C826.341 81.7353 826.133 80.7481 826.133 79.6165C826.133 78.4991 826.341 77.5142 826.758 76.6619C827.179 75.8097 827.766 75.1444 828.519 74.6662C829.277 74.188 830.162 73.9489 831.175 73.9489C831.791 73.9489 832.388 74.0507 832.965 74.2543C833.543 74.4579 834.061 74.7775 834.521 75.2131C834.98 75.6487 835.342 76.2145 835.607 76.9105C835.872 77.6018 836.005 78.4422 836.005 79.4318V80.1847H827.333V78.5938H833.924C833.924 78.035 833.81 77.5402 833.583 77.1094C833.356 76.6738 833.036 76.3305 832.624 76.0795C832.217 75.8286 831.739 75.7031 831.19 75.7031C830.593 75.7031 830.072 75.8499 829.627 76.1435C829.187 76.4323 828.846 76.8111 828.604 77.2798C828.368 77.7438 828.249 78.2481 828.249 78.7926V80.0355C828.249 80.7647 828.377 81.3849 828.633 81.8963C828.893 82.4077 829.255 82.7983 829.719 83.0682C830.183 83.3333 830.726 83.4659 831.346 83.4659C831.748 83.4659 832.115 83.4091 832.447 83.2955C832.778 83.1771 833.065 83.0019 833.306 82.7699C833.548 82.5379 833.732 82.2514 833.86 81.9105L835.87 82.2727C835.709 82.8646 835.42 83.383 835.004 83.8281C834.592 84.2685 834.073 84.6117 833.448 84.858C832.828 85.0994 832.12 85.2202 831.325 85.2202ZM838.361 85V74.0909H840.4V75.8665H840.534C840.762 75.2652 841.133 74.7964 841.65 74.4602C842.166 74.1193 842.783 73.9489 843.503 73.9489C844.232 73.9489 844.843 74.1193 845.336 74.4602C845.833 74.8011 846.2 75.2699 846.436 75.8665H846.55C846.81 75.2841 847.225 74.8201 847.793 74.4744C848.361 74.1241 849.038 73.9489 849.824 73.9489C850.814 73.9489 851.621 74.259 852.246 74.8793C852.876 75.4995 853.191 76.4347 853.191 77.6847V85H851.067V77.8835C851.067 77.1449 850.866 76.6098 850.463 76.2784C850.061 75.947 849.58 75.7812 849.022 75.7812C848.33 75.7812 847.793 75.9943 847.409 76.4205C847.026 76.8419 846.834 77.384 846.834 78.0469V85H844.718V77.7486C844.718 77.1567 844.533 76.6809 844.164 76.321C843.794 75.9612 843.314 75.7812 842.722 75.7812C842.319 75.7812 841.948 75.8878 841.607 76.1009C841.271 76.3092 840.998 76.6004 840.79 76.9744C840.587 77.3485 840.485 77.7817 840.485 78.2741V85H838.361ZM781.127 109.213C780.246 109.213 779.46 108.988 778.769 108.538C778.082 108.084 777.542 107.437 777.149 106.599C776.761 105.757 776.567 104.746 776.567 103.567C776.567 102.388 776.763 101.379 777.156 100.541C777.554 99.7031 778.099 99.0616 778.79 98.6165C779.481 98.1714 780.265 97.9489 781.141 97.9489C781.818 97.9489 782.362 98.0625 782.774 98.2898C783.191 98.5123 783.513 98.7727 783.74 99.071C783.972 99.3693 784.152 99.6321 784.28 99.8594H784.408V94.4545H786.531V109H784.458V107.303H784.28C784.152 107.535 783.968 107.8 783.726 108.098C783.489 108.396 783.163 108.657 782.746 108.879C782.329 109.102 781.789 109.213 781.127 109.213ZM781.595 107.402C782.206 107.402 782.722 107.241 783.144 106.919C783.57 106.592 783.892 106.14 784.11 105.562C784.332 104.985 784.443 104.312 784.443 103.545C784.443 102.788 784.334 102.125 784.117 101.557C783.899 100.989 783.579 100.546 783.158 100.229C782.736 99.9115 782.216 99.7528 781.595 99.7528C780.956 99.7528 780.423 99.9186 779.997 100.25C779.571 100.581 779.249 101.034 779.031 101.607C778.818 102.179 778.712 102.826 778.712 103.545C778.712 104.275 778.821 104.93 779.039 105.513C779.256 106.095 779.578 106.557 780.004 106.898C780.435 107.234 780.966 107.402 781.595 107.402ZM794.264 109.22C793.189 109.22 792.264 108.991 791.487 108.531C790.715 108.067 790.119 107.416 789.697 106.578C789.281 105.735 789.072 104.748 789.072 103.616C789.072 102.499 789.281 101.514 789.697 100.662C790.119 99.8097 790.706 99.1444 791.459 98.6662C792.216 98.188 793.102 97.9489 794.115 97.9489C794.73 97.9489 795.327 98.0507 795.905 98.2543C796.482 98.4579 797.001 98.7775 797.46 99.2131C797.919 99.6487 798.282 100.214 798.547 100.911C798.812 101.602 798.944 102.442 798.944 103.432V104.185H790.273V102.594H796.863C796.863 102.035 796.75 101.54 796.523 101.109C796.295 100.674 795.976 100.33 795.564 100.08C795.157 99.8286 794.678 99.7031 794.129 99.7031C793.532 99.7031 793.012 99.8499 792.567 100.143C792.126 100.432 791.785 100.811 791.544 101.28C791.307 101.744 791.189 102.248 791.189 102.793V104.036C791.189 104.765 791.317 105.385 791.572 105.896C791.833 106.408 792.195 106.798 792.659 107.068C793.123 107.333 793.665 107.466 794.285 107.466C794.688 107.466 795.055 107.409 795.386 107.295C795.718 107.177 796.004 107.002 796.246 106.77C796.487 106.538 796.672 106.251 796.8 105.911L798.809 106.273C798.648 106.865 798.36 107.383 797.943 107.828C797.531 108.268 797.013 108.612 796.388 108.858C795.767 109.099 795.059 109.22 794.264 109.22ZM806.393 98.0909V99.7955H800.434V98.0909H806.393ZM802.032 95.4773H804.156V105.797C804.156 106.209 804.217 106.519 804.34 106.727C804.463 106.931 804.622 107.071 804.816 107.146C805.015 107.217 805.231 107.253 805.463 107.253C805.633 107.253 805.782 107.241 805.91 107.217C806.038 107.194 806.137 107.175 806.208 107.161L806.592 108.915C806.469 108.962 806.294 109.009 806.066 109.057C805.839 109.109 805.555 109.137 805.214 109.142C804.655 109.152 804.134 109.052 803.651 108.844C803.169 108.635 802.778 108.313 802.48 107.878C802.181 107.442 802.032 106.895 802.032 106.237V95.4773ZM811.917 109.241C811.225 109.241 810.6 109.114 810.042 108.858C809.483 108.598 809.04 108.221 808.714 107.729C808.392 107.236 808.231 106.633 808.231 105.918C808.231 105.302 808.349 104.795 808.586 104.398C808.823 104 809.142 103.685 809.545 103.453C809.947 103.221 810.397 103.046 810.894 102.928C811.391 102.809 811.898 102.719 812.414 102.658C813.067 102.582 813.598 102.52 814.005 102.473C814.412 102.421 814.708 102.338 814.893 102.224C815.077 102.111 815.17 101.926 815.17 101.67V101.621C815.17 101 814.994 100.52 814.644 100.179C814.298 99.8381 813.782 99.6676 813.096 99.6676C812.381 99.6676 811.817 99.8262 811.405 100.143C810.998 100.456 810.716 100.804 810.56 101.188L808.564 100.733C808.801 100.07 809.147 99.535 809.601 99.1278C810.061 98.7159 810.589 98.4176 811.185 98.233C811.782 98.0436 812.409 97.9489 813.067 97.9489C813.503 97.9489 813.965 98.0009 814.452 98.1051C814.945 98.2045 815.404 98.3892 815.83 98.6591C816.261 98.929 816.614 99.3149 816.888 99.8168C817.163 100.314 817.3 100.96 817.3 101.756V109H815.226V107.509H815.141C815.004 107.783 814.798 108.053 814.523 108.318C814.249 108.583 813.896 108.804 813.465 108.979C813.034 109.154 812.518 109.241 811.917 109.241ZM812.378 107.537C812.965 107.537 813.467 107.421 813.884 107.189C814.305 106.957 814.625 106.654 814.843 106.28C815.065 105.901 815.177 105.496 815.177 105.065V103.659C815.101 103.735 814.954 103.806 814.736 103.872C814.523 103.934 814.279 103.988 814.005 104.036C813.73 104.078 813.463 104.118 813.202 104.156C812.942 104.189 812.724 104.218 812.549 104.241C812.137 104.294 811.76 104.381 811.42 104.504C811.083 104.627 810.814 104.805 810.61 105.037C810.411 105.264 810.312 105.567 810.312 105.946C810.312 106.472 810.506 106.869 810.894 107.139C811.282 107.404 811.777 107.537 812.378 107.537ZM820.129 109V98.0909H822.252V109H820.129ZM821.201 96.4077C820.832 96.4077 820.515 96.2846 820.249 96.0384C819.989 95.7874 819.859 95.4891 819.859 95.1435C819.859 94.7931 819.989 94.4948 820.249 94.2486C820.515 93.9976 820.832 93.8722 821.201 93.8722C821.57 93.8722 821.885 93.9976 822.146 94.2486C822.411 94.4948 822.544 94.7931 822.544 95.1435C822.544 95.4891 822.411 95.7874 822.146 96.0384C821.885 96.2846 821.57 96.4077 821.201 96.4077ZM827.233 94.4545V109H825.109V94.4545H827.233ZM838.264 100.754L836.34 101.095C836.259 100.849 836.131 100.615 835.956 100.392C835.786 100.17 835.554 99.9872 835.26 99.8452C834.967 99.7031 834.6 99.6321 834.159 99.6321C833.558 99.6321 833.056 99.767 832.654 100.037C832.251 100.302 832.05 100.645 832.05 101.067C832.05 101.431 832.185 101.725 832.455 101.947C832.725 102.17 833.16 102.352 833.762 102.494L835.494 102.892C836.498 103.124 837.246 103.482 837.739 103.964C838.231 104.447 838.477 105.075 838.477 105.847C838.477 106.5 838.288 107.082 837.909 107.594C837.535 108.1 837.012 108.498 836.34 108.787C835.672 109.076 834.898 109.22 834.017 109.22C832.796 109.22 831.799 108.96 831.027 108.439C830.255 107.913 829.782 107.168 829.607 106.202L831.659 105.889C831.787 106.424 832.05 106.829 832.448 107.104C832.845 107.374 833.364 107.509 834.003 107.509C834.699 107.509 835.255 107.364 835.672 107.075C836.089 106.782 836.297 106.424 836.297 106.003C836.297 105.662 836.169 105.375 835.914 105.143C835.663 104.911 835.277 104.736 834.756 104.618L832.909 104.213C831.891 103.981 831.138 103.612 830.651 103.105C830.168 102.598 829.926 101.957 829.926 101.18C829.926 100.536 830.106 99.973 830.466 99.4901C830.826 99.0071 831.323 98.6307 831.958 98.3608C832.592 98.0862 833.319 97.9489 834.138 97.9489C835.317 97.9489 836.245 98.2045 836.922 98.7159C837.599 99.2225 838.047 99.902 838.264 100.754Z" fill="#222222"/>
<path d="M1012 10L1081.28 50V130L1012 170L942.718 130V50L1012 10Z" fill="#9BEDFD"/>
<path d="M983.059 85H980.73L985.964 70.4545H988.499L993.734 85H991.404L987.292 73.0966H987.178L983.059 85ZM983.45 79.304H991.007V81.1506H983.45V79.304ZM999.572 85.2131C998.691 85.2131 997.905 84.9882 997.214 84.5384C996.527 84.0838 995.988 83.4375 995.595 82.5994C995.206 81.7566 995.012 80.7457 995.012 79.5668C995.012 78.3878 995.209 77.3793 995.602 76.5412C995.999 75.7031 996.544 75.0616 997.235 74.6165C997.927 74.1714 998.71 73.9489 999.586 73.9489C1000.26 73.9489 1000.81 74.0625 1001.22 74.2898C1001.64 74.5123 1001.96 74.7727 1002.19 75.071C1002.42 75.3693 1002.6 75.6321 1002.73 75.8594H1002.85V70.4545H1004.98V85H1002.9V83.3026H1002.73C1002.6 83.5346 1002.41 83.7997 1002.17 84.098C1001.93 84.3963 1001.61 84.6567 1001.19 84.8793C1000.77 85.1018 1000.23 85.2131 999.572 85.2131ZM1000.04 83.402C1000.65 83.402 1001.17 83.241 1001.59 82.919C1002.02 82.5923 1002.34 82.1402 1002.55 81.5625C1002.78 80.9848 1002.89 80.3125 1002.89 79.5455C1002.89 78.7879 1002.78 78.125 1002.56 77.5568C1002.34 76.9886 1002.02 76.5459 1001.6 76.2287C1001.18 75.9115 1000.66 75.7528 1000.04 75.7528C999.401 75.7528 998.869 75.9186 998.443 76.25C998.017 76.5814 997.695 77.0336 997.477 77.6065C997.264 78.1795 997.157 78.8258 997.157 79.5455C997.157 80.2746 997.266 80.9304 997.484 81.5128C997.702 82.0952 998.024 82.5568 998.45 82.8977C998.881 83.2339 999.411 83.402 1000.04 83.402ZM1012.09 85.2131C1011.21 85.2131 1010.42 84.9882 1009.73 84.5384C1009.05 84.0838 1008.51 83.4375 1008.11 82.5994C1007.73 81.7566 1007.53 80.7457 1007.53 79.5668C1007.53 78.3878 1007.73 77.3793 1008.12 76.5412C1008.52 75.7031 1009.06 75.0616 1009.75 74.6165C1010.45 74.1714 1011.23 73.9489 1012.11 73.9489C1012.78 73.9489 1013.33 74.0625 1013.74 74.2898C1014.16 74.5123 1014.48 74.7727 1014.71 75.071C1014.94 75.3693 1015.12 75.6321 1015.24 75.8594H1015.37V70.4545H1017.5V85H1015.42V83.3026H1015.24C1015.12 83.5346 1014.93 83.7997 1014.69 84.098C1014.45 84.3963 1014.13 84.6567 1013.71 84.8793C1013.29 85.1018 1012.75 85.2131 1012.09 85.2131ZM1012.56 83.402C1013.17 83.402 1013.69 83.241 1014.11 82.919C1014.53 82.5923 1014.86 82.1402 1015.07 81.5625C1015.3 80.9848 1015.41 80.3125 1015.41 79.5455C1015.41 78.7879 1015.3 78.125 1015.08 77.5568C1014.86 76.9886 1014.54 76.5459 1014.12 76.2287C1013.7 75.9115 1013.18 75.7528 1012.56 75.7528C1011.92 75.7528 1011.39 75.9186 1010.96 76.25C1010.54 76.5814 1010.21 77.0336 1010 77.6065C1009.78 78.1795 1009.68 78.8258 1009.68 79.5455C1009.68 80.2746 1009.79 80.9304 1010 81.5128C1010.22 82.0952 1010.54 82.5568 1010.97 82.8977C1011.4 83.2339 1011.93 83.402 1012.56 83.402ZM1030.91 74.0909V75.7955H1024.95V74.0909H1030.91ZM1026.55 71.4773H1028.68V81.7969C1028.68 82.2088 1028.74 82.5189 1028.86 82.7273C1028.98 82.9309 1029.14 83.0705 1029.34 83.1463C1029.53 83.2173 1029.75 83.2528 1029.98 83.2528C1030.15 83.2528 1030.3 83.241 1030.43 83.2173C1030.56 83.1937 1030.66 83.1747 1030.73 83.1605L1031.11 84.9148C1030.99 84.9621 1030.81 85.0095 1030.59 85.0568C1030.36 85.1089 1030.07 85.1373 1029.73 85.142C1029.17 85.1515 1028.65 85.0521 1028.17 84.8438C1027.69 84.6354 1027.3 84.3134 1027 83.8778C1026.7 83.4422 1026.55 82.8954 1026.55 82.2372V71.4773ZM1037.74 85.2202C1036.72 85.2202 1035.82 84.9858 1035.06 84.517C1034.3 84.0483 1033.71 83.3925 1033.29 82.5497C1032.86 81.7069 1032.65 80.7221 1032.65 79.5952C1032.65 78.4635 1032.86 77.474 1033.29 76.6264C1033.71 75.7789 1034.3 75.1207 1035.06 74.652C1035.82 74.1832 1036.72 73.9489 1037.74 73.9489C1038.76 73.9489 1039.65 74.1832 1040.42 74.652C1041.18 75.1207 1041.77 75.7789 1042.19 76.6264C1042.61 77.474 1042.82 78.4635 1042.82 79.5952C1042.82 80.7221 1042.61 81.7069 1042.19 82.5497C1041.77 83.3925 1041.18 84.0483 1040.42 84.517C1039.65 84.9858 1038.76 85.2202 1037.74 85.2202ZM1037.75 83.4375C1038.41 83.4375 1038.96 83.2623 1039.39 82.9119C1039.83 82.5616 1040.15 82.0952 1040.36 81.5128C1040.57 80.9304 1040.68 80.2888 1040.68 79.5881C1040.68 78.892 1040.57 78.2528 1040.36 77.6705C1040.15 77.0833 1039.83 76.6122 1039.39 76.2571C1038.96 75.902 1038.41 75.7244 1037.75 75.7244C1037.08 75.7244 1036.53 75.902 1036.08 76.2571C1035.65 76.6122 1035.32 77.0833 1035.11 77.6705C1034.9 78.2528 1034.8 78.892 1034.8 79.5881C1034.8 80.2888 1034.9 80.9304 1035.11 81.5128C1035.32 82.0952 1035.65 82.5616 1036.08 82.9119C1036.53 83.2623 1037.08 83.4375 1037.75 83.4375ZM970.924 98.0909V99.7955H964.759V98.0909H970.924ZM966.45 109V96.8267C966.45 96.1449 966.599 95.5791 966.897 95.1293C967.195 94.6747 967.591 94.3362 968.083 94.1136C968.576 93.8864 969.111 93.7727 969.688 93.7727C970.114 93.7727 970.479 93.8082 970.782 93.8793C971.085 93.9455 971.31 94.0071 971.457 94.0639L970.96 95.7827C970.86 95.7543 970.732 95.7211 970.576 95.6832C970.42 95.6406 970.23 95.6193 970.008 95.6193C969.492 95.6193 969.122 95.7472 968.9 96.0028C968.682 96.2585 968.573 96.6278 968.573 97.1108V109H966.45ZM975.958 109.241C975.266 109.241 974.641 109.114 974.083 108.858C973.524 108.598 973.081 108.221 972.755 107.729C972.433 107.236 972.272 106.633 972.272 105.918C972.272 105.302 972.39 104.795 972.627 104.398C972.864 104 973.183 103.685 973.586 103.453C973.988 103.221 974.438 103.046 974.935 102.928C975.432 102.809 975.939 102.719 976.455 102.658C977.108 102.582 977.639 102.52 978.046 102.473C978.453 102.421 978.749 102.338 978.934 102.224C979.118 102.111 979.211 101.926 979.211 101.67V101.621C979.211 101 979.035 100.52 978.685 100.179C978.339 99.8381 977.823 99.6676 977.137 99.6676C976.422 99.6676 975.858 99.8262 975.446 100.143C975.039 100.456 974.757 100.804 974.601 101.188L972.605 100.733C972.842 100.07 973.188 99.535 973.642 99.1278C974.102 98.7159 974.63 98.4176 975.226 98.233C975.823 98.0436 976.45 97.9489 977.108 97.9489C977.544 97.9489 978.006 98.0009 978.493 98.1051C978.986 98.2045 979.445 98.3892 979.871 98.6591C980.302 98.929 980.655 99.3149 980.929 99.8168C981.204 100.314 981.341 100.96 981.341 101.756V109H979.267V107.509H979.182C979.045 107.783 978.839 108.053 978.564 108.318C978.29 108.583 977.937 108.804 977.506 108.979C977.075 109.154 976.559 109.241 975.958 109.241ZM976.419 107.537C977.007 107.537 977.508 107.421 977.925 107.189C978.346 106.957 978.666 106.654 978.884 106.28C979.106 105.901 979.218 105.496 979.218 105.065V103.659C979.142 103.735 978.995 103.806 978.777 103.872C978.564 103.934 978.32 103.988 978.046 104.036C977.771 104.078 977.504 104.118 977.243 104.156C976.983 104.189 976.765 104.218 976.59 104.241C976.178 104.294 975.801 104.381 975.461 104.504C975.124 104.627 974.855 104.805 974.651 105.037C974.452 105.264 974.353 105.567 974.353 105.946C974.353 106.472 974.547 106.869 974.935 107.139C975.323 107.404 975.818 107.537 976.419 107.537ZM993.112 98.0909L989.156 109H986.883L982.92 98.0909H985.2L987.962 106.486H988.076L990.832 98.0909H993.112ZM999.331 109.22C998.309 109.22 997.416 108.986 996.654 108.517C995.891 108.048 995.3 107.393 994.878 106.55C994.457 105.707 994.246 104.722 994.246 103.595C994.246 102.464 994.457 101.474 994.878 100.626C995.3 99.7789 995.891 99.1207 996.654 98.652C997.416 98.1832 998.309 97.9489 999.331 97.9489C1000.35 97.9489 1001.25 98.1832 1002.01 98.652C1002.77 99.1207 1003.36 99.7789 1003.78 100.626C1004.21 101.474 1004.42 102.464 1004.42 103.595C1004.42 104.722 1004.21 105.707 1003.78 106.55C1003.36 107.393 1002.77 108.048 1002.01 108.517C1001.25 108.986 1000.35 109.22 999.331 109.22ZM999.338 107.438C1000 107.438 1000.55 107.262 1000.99 106.912C1001.42 106.562 1001.74 106.095 1001.95 105.513C1002.17 104.93 1002.27 104.289 1002.27 103.588C1002.27 102.892 1002.17 102.253 1001.95 101.67C1001.74 101.083 1001.42 100.612 1000.99 100.257C1000.55 99.902 1000 99.7244 999.338 99.7244C998.671 99.7244 998.117 99.902 997.676 100.257C997.241 100.612 996.917 101.083 996.703 101.67C996.495 102.253 996.391 102.892 996.391 103.588C996.391 104.289 996.495 104.93 996.703 105.513C996.917 106.095 997.241 106.562 997.676 106.912C998.117 107.262 998.671 107.438 999.338 107.438ZM1013.7 104.476V98.0909H1015.83V109H1013.74V107.111H1013.63C1013.38 107.693 1012.97 108.179 1012.42 108.567C1011.87 108.95 1011.19 109.142 1010.37 109.142C1009.67 109.142 1009.05 108.988 1008.51 108.68C1007.97 108.368 1007.55 107.906 1007.24 107.295C1006.94 106.685 1006.79 105.929 1006.79 105.03V98.0909H1008.91V104.774C1008.91 105.518 1009.12 106.109 1009.53 106.55C1009.94 106.99 1010.48 107.21 1011.13 107.21C1011.53 107.21 1011.93 107.111 1012.32 106.912C1012.72 106.713 1013.05 106.412 1013.31 106.01C1013.57 105.607 1013.7 105.096 1013.7 104.476ZM1018.68 109V98.0909H1020.73V99.8239H1020.85C1021.05 99.2367 1021.4 98.7751 1021.9 98.4389C1022.41 98.098 1022.98 97.9276 1023.62 97.9276C1023.75 97.9276 1023.91 97.9323 1024.09 97.9418C1024.27 97.9512 1024.42 97.9631 1024.52 97.9773V100.009C1024.43 99.9848 1024.28 99.9588 1024.06 99.9304C1023.85 99.8973 1023.63 99.8807 1023.41 99.8807C1022.91 99.8807 1022.46 99.9872 1022.07 100.2C1021.68 100.409 1021.37 100.7 1021.15 101.074C1020.92 101.443 1020.81 101.865 1020.81 102.338V109H1018.68ZM1026.36 109V98.0909H1028.48V109H1026.36ZM1027.43 96.4077C1027.06 96.4077 1026.74 96.2846 1026.48 96.0384C1026.22 95.7874 1026.09 95.4891 1026.09 95.1435C1026.09 94.7931 1026.22 94.4948 1026.48 94.2486C1026.74 93.9976 1027.06 93.8722 1027.43 93.8722C1027.8 93.8722 1028.11 93.9976 1028.37 94.2486C1028.64 94.4948 1028.77 94.7931 1028.77 95.1435C1028.77 95.4891 1028.64 95.7874 1028.37 96.0384C1028.11 96.2846 1027.8 96.4077 1027.43 96.4077ZM1036.43 98.0909V99.7955H1030.47V98.0909H1036.43ZM1032.07 95.4773H1034.19V105.797C1034.19 106.209 1034.25 106.519 1034.38 106.727C1034.5 106.931 1034.66 107.071 1034.85 107.146C1035.05 107.217 1035.27 107.253 1035.5 107.253C1035.67 107.253 1035.82 107.241 1035.95 107.217C1036.07 107.194 1036.17 107.175 1036.25 107.161L1036.63 108.915C1036.51 108.962 1036.33 109.009 1036.1 109.057C1035.88 109.109 1035.59 109.137 1035.25 109.142C1034.69 109.152 1034.17 109.052 1033.69 108.844C1033.21 108.635 1032.81 108.313 1032.52 107.878C1032.22 107.442 1032.07 106.895 1032.07 106.237V95.4773ZM1043.36 109.22C1042.29 109.22 1041.36 108.991 1040.59 108.531C1039.81 108.067 1039.22 107.416 1038.8 106.578C1038.38 105.735 1038.17 104.748 1038.17 103.616C1038.17 102.499 1038.38 101.514 1038.8 100.662C1039.22 99.8097 1039.81 99.1444 1040.56 98.6662C1041.32 98.188 1042.2 97.9489 1043.21 97.9489C1043.83 97.9489 1044.43 98.0507 1045 98.2543C1045.58 98.4579 1046.1 98.7775 1046.56 99.2131C1047.02 99.6487 1047.38 100.214 1047.65 100.911C1047.91 101.602 1048.04 102.442 1048.04 103.432V104.185H1039.37V102.594H1045.96C1045.96 102.035 1045.85 101.54 1045.62 101.109C1045.39 100.674 1045.08 100.33 1044.66 100.08C1044.26 99.8286 1043.78 99.7031 1043.23 99.7031C1042.63 99.7031 1042.11 99.8499 1041.67 100.143C1041.23 100.432 1040.88 100.811 1040.64 101.28C1040.41 101.744 1040.29 102.248 1040.29 102.793V104.036C1040.29 104.765 1040.42 105.385 1040.67 105.896C1040.93 106.408 1041.29 106.798 1041.76 107.068C1042.22 107.333 1042.76 107.466 1043.38 107.466C1043.79 107.466 1044.15 107.409 1044.49 107.295C1044.82 107.177 1045.1 107.002 1045.35 106.77C1045.59 106.538 1045.77 106.251 1045.9 105.911L1047.91 106.273C1047.75 106.865 1047.46 107.383 1047.04 107.828C1046.63 108.268 1046.11 108.612 1045.49 108.858C1044.87 109.099 1044.16 109.22 1043.36 109.22ZM1058.57 100.754L1056.65 101.095C1056.57 100.849 1056.44 100.615 1056.27 100.392C1056.1 100.17 1055.86 99.9872 1055.57 99.8452C1055.28 99.7031 1054.91 99.6321 1054.47 99.6321C1053.87 99.6321 1053.37 99.767 1052.96 100.037C1052.56 100.302 1052.36 100.645 1052.36 101.067C1052.36 101.431 1052.5 101.725 1052.77 101.947C1053.04 102.17 1053.47 102.352 1054.07 102.494L1055.81 102.892C1056.81 103.124 1057.56 103.482 1058.05 103.964C1058.54 104.447 1058.79 105.075 1058.79 105.847C1058.79 106.5 1058.6 107.082 1058.22 107.594C1057.85 108.1 1057.32 108.498 1056.65 108.787C1055.98 109.076 1055.21 109.22 1054.33 109.22C1053.11 109.22 1052.11 108.96 1051.34 108.439C1050.57 107.913 1050.09 107.168 1049.92 106.202L1051.97 105.889C1052.1 106.424 1052.36 106.829 1052.76 107.104C1053.16 107.374 1053.67 107.509 1054.31 107.509C1055.01 107.509 1055.57 107.364 1055.98 107.075C1056.4 106.782 1056.61 106.424 1056.61 106.003C1056.61 105.662 1056.48 105.375 1056.22 105.143C1055.97 104.911 1055.59 104.736 1055.07 104.618L1053.22 104.213C1052.2 103.981 1051.45 103.612 1050.96 103.105C1050.48 102.598 1050.24 101.957 1050.24 101.18C1050.24 100.536 1050.42 99.973 1050.78 99.4901C1051.14 99.0071 1051.63 98.6307 1052.27 98.3608C1052.9 98.0862 1053.63 97.9489 1054.45 97.9489C1055.63 97.9489 1056.56 98.2045 1057.23 98.7159C1057.91 99.2225 1058.36 99.902 1058.57 100.754Z" fill="#222222"/>
</g>
<defs>
<clipPath id="clip0_44_197">
<rect width="1081" height="181" fill="white"/>
</clipPath>
<clipPath id="clip1_44_197">
<rect width="120" height="120" fill="white" transform="translate(-25 31)"/>
</clipPath>
</defs>
</svg>
