<svg width="1109" height="124" viewBox="0 0 1109 124" fill="none" xmlns="http://www.w3.org/2000/svg">
<rect width="1109" height="124" fill="white"/>
<rect x="26" y="23" width="148" height="78" rx="7" fill="black" stroke="black" stroke-width="2"/>
<path d="M85.8008 58.2756C85.725 57.6032 85.4125 57.0824 84.8633 56.7131C84.314 56.339 83.6228 56.152 82.7894 56.152C82.1928 56.152 81.6767 56.2467 81.2411 56.4361C80.8055 56.6207 80.467 56.8764 80.2255 57.2031C79.9888 57.5251 79.8704 57.892 79.8704 58.304C79.8704 58.6496 79.9509 58.9479 80.1119 59.1989C80.2776 59.4498 80.493 59.6605 80.7582 59.831C81.0281 59.9967 81.3169 60.1364 81.6246 60.25C81.9324 60.3589 82.2283 60.4489 82.5124 60.5199L83.9329 60.8892C84.3969 61.0028 84.8728 61.1567 85.3604 61.3509C85.8481 61.545 86.3003 61.8007 86.717 62.1179C87.1336 62.4351 87.4698 62.8281 87.7255 63.2969C87.9859 63.7656 88.1161 64.3267 88.1161 64.9801C88.1161 65.804 87.9031 66.5355 87.4769 67.1747C87.0555 67.8139 86.4424 68.3182 85.6374 68.6875C84.8372 69.0568 83.869 69.2415 82.7326 69.2415C81.6436 69.2415 80.7013 69.0687 79.9059 68.723C79.1104 68.3774 78.4878 67.8873 78.038 67.2528C77.5882 66.6136 77.3396 65.8561 77.2923 64.9801H79.494C79.5366 65.5057 79.707 65.9437 80.0053 66.294C80.3084 66.6397 80.6942 66.8977 81.163 67.0682C81.6365 67.2339 82.1549 67.3168 82.7184 67.3168C83.3387 67.3168 83.8903 67.2197 84.3732 67.0256C84.8609 66.8267 85.2444 66.5521 85.5238 66.2017C85.8031 65.8466 85.9428 65.4323 85.9428 64.9588C85.9428 64.5279 85.8197 64.1752 85.5735 63.9006C85.332 63.6259 85.003 63.3987 84.5863 63.2188C84.1744 63.0388 83.708 62.8802 83.1871 62.7429L81.4684 62.2741C80.3036 61.9569 79.3803 61.4905 78.6985 60.875C78.0214 60.2595 77.6829 59.4451 77.6829 58.4318C77.6829 57.5937 77.9102 56.8622 78.3647 56.2372C78.8192 55.6122 79.4348 55.1269 80.2113 54.7812C80.9878 54.4309 81.8638 54.2557 82.8391 54.2557C83.824 54.2557 84.6928 54.4285 85.4457 54.7741C86.2032 55.1198 86.7998 55.5956 87.2354 56.2017C87.671 56.803 87.8983 57.4943 87.9173 58.2756H85.8008ZM95.6605 58.0909V59.7955H89.7017V58.0909H95.6605ZM91.2997 55.4773H93.4233V65.7969C93.4233 66.2088 93.4848 66.5189 93.608 66.7273C93.7311 66.9309 93.8897 67.0705 94.0838 67.1463C94.2827 67.2173 94.4981 67.2528 94.7301 67.2528C94.9006 67.2528 95.0497 67.241 95.1776 67.2173C95.3054 67.1937 95.4048 67.1747 95.4759 67.1605L95.8594 68.9148C95.7363 68.9621 95.5611 69.0095 95.3338 69.0568C95.1065 69.1089 94.8224 69.1373 94.4815 69.142C93.9228 69.1515 93.402 69.0521 92.919 68.8438C92.4361 68.6354 92.0455 68.3134 91.7472 67.8778C91.4489 67.4422 91.2997 66.8954 91.2997 66.2372V55.4773ZM101.184 69.2415C100.493 69.2415 99.868 69.1136 99.3093 68.858C98.7506 68.5975 98.3079 68.2211 97.9812 67.7287C97.6592 67.2363 97.4982 66.6326 97.4982 65.9176C97.4982 65.3021 97.6166 64.7955 97.8533 64.3977C98.0901 64 98.4097 63.6851 98.8121 63.4531C99.2146 63.2211 99.6644 63.0459 100.162 62.9276C100.659 62.8092 101.165 62.7192 101.681 62.6577C102.335 62.5819 102.865 62.5204 103.272 62.473C103.68 62.4209 103.975 62.3381 104.16 62.2244C104.345 62.1108 104.437 61.9261 104.437 61.6705V61.6207C104.437 61.0005 104.262 60.5199 103.912 60.179C103.566 59.8381 103.05 59.6676 102.363 59.6676C101.648 59.6676 101.085 59.8262 100.673 60.1435C100.266 60.456 99.984 60.804 99.8278 61.1875L97.832 60.733C98.0688 60.0701 98.4144 59.535 98.869 59.1278C99.3282 58.7159 99.8562 58.4176 100.453 58.233C101.049 58.0436 101.677 57.9489 102.335 57.9489C102.77 57.9489 103.232 58.0009 103.72 58.1051C104.212 58.2045 104.672 58.3892 105.098 58.6591C105.529 58.929 105.881 59.3149 106.156 59.8168C106.431 60.3139 106.568 60.9602 106.568 61.7557V69H104.494V67.5085H104.409C104.271 67.7831 104.065 68.053 103.791 68.3182C103.516 68.5833 103.163 68.8035 102.733 68.9787C102.302 69.1539 101.786 69.2415 101.184 69.2415ZM101.646 67.5369C102.233 67.5369 102.735 67.4209 103.152 67.1889C103.573 66.9569 103.893 66.6539 104.11 66.2798C104.333 65.901 104.444 65.4962 104.444 65.0653V63.6591C104.368 63.7348 104.222 63.8059 104.004 63.8722C103.791 63.9337 103.547 63.9882 103.272 64.0355C102.998 64.0781 102.73 64.1184 102.47 64.1562C102.209 64.1894 101.992 64.2178 101.816 64.2415C101.404 64.2936 101.028 64.3812 100.687 64.5043C100.351 64.6274 100.081 64.8049 99.8775 65.0369C99.6786 65.2642 99.5792 65.5672 99.5792 65.946C99.5792 66.4716 99.7733 66.8693 100.162 67.1392C100.55 67.4044 101.045 67.5369 101.646 67.5369ZM109.396 69V58.0909H111.449V59.8239H111.562C111.761 59.2367 112.112 58.7751 112.614 58.4389C113.12 58.098 113.693 57.9276 114.332 57.9276C114.465 57.9276 114.621 57.9323 114.801 57.9418C114.986 57.9512 115.13 57.9631 115.234 57.9773V60.0085C115.149 59.9848 114.998 59.9588 114.78 59.9304C114.562 59.8973 114.344 59.8807 114.126 59.8807C113.625 59.8807 113.177 59.9872 112.784 60.2003C112.396 60.4086 112.088 60.6998 111.861 61.0739C111.634 61.4432 111.52 61.8646 111.52 62.3381V69H109.396ZM122.809 58.0909V59.7955H116.85V58.0909H122.809ZM118.448 55.4773H120.572V65.7969C120.572 66.2088 120.633 66.5189 120.756 66.7273C120.879 66.9309 121.038 67.0705 121.232 67.1463C121.431 67.2173 121.647 67.2528 121.879 67.2528C122.049 67.2528 122.198 67.241 122.326 67.2173C122.454 67.1937 122.553 67.1747 122.624 67.1605L123.008 68.9148C122.885 68.9621 122.71 69.0095 122.482 69.0568C122.255 69.1089 121.971 69.1373 121.63 69.142C121.071 69.1515 120.55 69.0521 120.067 68.8438C119.585 68.6354 119.194 68.3134 118.896 67.8778C118.597 67.4422 118.448 66.8954 118.448 66.2372V55.4773Z" fill="white"/>
<rect x="217" y="23" width="148" height="78" rx="7" stroke="black" stroke-width="2"/>
<path d="M266.789 69V54.4545H268.984V67.1108H275.575V69H266.789ZM282.503 69.2202C281.48 69.2202 280.588 68.9858 279.826 68.517C279.063 68.0483 278.471 67.3925 278.05 66.5497C277.629 65.7069 277.418 64.7221 277.418 63.5952C277.418 62.4635 277.629 61.474 278.05 60.6264C278.471 59.7789 279.063 59.1207 279.826 58.652C280.588 58.1832 281.48 57.9489 282.503 57.9489C283.526 57.9489 284.418 58.1832 285.181 58.652C285.943 59.1207 286.535 59.7789 286.956 60.6264C287.378 61.474 287.588 62.4635 287.588 63.5952C287.588 64.7221 287.378 65.7069 286.956 66.5497C286.535 67.3925 285.943 68.0483 285.181 68.517C284.418 68.9858 283.526 69.2202 282.503 69.2202ZM282.51 67.4375C283.173 67.4375 283.722 67.2623 284.158 66.9119C284.594 66.5616 284.916 66.0952 285.124 65.5128C285.337 64.9304 285.444 64.2888 285.444 63.5881C285.444 62.892 285.337 62.2528 285.124 61.6705C284.916 61.0833 284.594 60.6122 284.158 60.2571C283.722 59.902 283.173 59.7244 282.51 59.7244C281.843 59.7244 281.289 59.902 280.848 60.2571C280.413 60.6122 280.088 61.0833 279.875 61.6705C279.667 62.2528 279.563 62.892 279.563 63.5881C279.563 64.2888 279.667 64.9304 279.875 65.5128C280.088 66.0952 280.413 66.5616 280.848 66.9119C281.289 67.2623 281.843 67.4375 282.51 67.4375ZM294.533 73.3182C293.666 73.3182 292.92 73.2045 292.295 72.9773C291.675 72.75 291.169 72.4493 290.776 72.0753C290.383 71.7012 290.089 71.2917 289.895 70.8466L291.72 70.0938C291.848 70.3021 292.018 70.5223 292.232 70.7543C292.449 70.991 292.743 71.1922 293.112 71.358C293.486 71.5237 293.967 71.6065 294.554 71.6065C295.359 71.6065 296.024 71.41 296.55 71.017C297.075 70.6288 297.338 70.0085 297.338 69.1562V67.0114H297.203C297.075 67.2434 296.891 67.5014 296.649 67.7855C296.412 68.0696 296.086 68.3158 295.669 68.5241C295.252 68.7325 294.71 68.8366 294.043 68.8366C293.181 68.8366 292.404 68.6354 291.713 68.233C291.027 67.8258 290.482 67.2268 290.08 66.4361C289.682 65.6406 289.483 64.6629 289.483 63.5028C289.483 62.3428 289.679 61.3485 290.072 60.5199C290.47 59.6913 291.015 59.0568 291.706 58.6165C292.397 58.1714 293.181 57.9489 294.057 57.9489C294.734 57.9489 295.281 58.0625 295.697 58.2898C296.114 58.5123 296.438 58.7727 296.67 59.071C296.907 59.3693 297.089 59.6321 297.217 59.8594H297.374V58.0909H299.455V69.2415C299.455 70.179 299.237 70.9484 298.801 71.5497C298.366 72.151 297.776 72.5961 297.033 72.8849C296.294 73.1738 295.461 73.3182 294.533 73.3182ZM294.511 67.0753C295.122 67.0753 295.638 66.9332 296.06 66.6491C296.486 66.3603 296.808 65.9484 297.026 65.4134C297.248 64.8736 297.359 64.2273 297.359 63.4744C297.359 62.7405 297.25 62.0942 297.033 61.5355C296.815 60.9768 296.495 60.5412 296.074 60.2287C295.652 59.9115 295.132 59.7528 294.511 59.7528C293.872 59.7528 293.339 59.9186 292.913 60.25C292.487 60.5767 292.165 61.0218 291.947 61.5852C291.734 62.1487 291.628 62.7784 291.628 63.4744C291.628 64.1894 291.737 64.8168 291.955 65.3565C292.172 65.8963 292.494 66.3177 292.92 66.6207C293.351 66.9238 293.882 67.0753 294.511 67.0753ZM302.303 69V58.0909H304.426V69H302.303ZM303.375 56.4077C303.006 56.4077 302.688 56.2846 302.423 56.0384C302.163 55.7874 302.033 55.4891 302.033 55.1435C302.033 54.7931 302.163 54.4948 302.423 54.2486C302.688 53.9976 303.006 53.8722 303.375 53.8722C303.744 53.8722 304.059 53.9976 304.32 54.2486C304.585 54.4948 304.717 54.7931 304.717 55.1435C304.717 55.4891 304.585 55.7874 304.32 56.0384C304.059 56.2846 303.744 56.4077 303.375 56.4077ZM309.407 62.5227V69H307.283V58.0909H309.321V59.8665H309.456C309.707 59.2888 310.1 58.8248 310.635 58.4744C311.175 58.1241 311.855 57.9489 312.674 57.9489C313.417 57.9489 314.068 58.1051 314.627 58.4176C315.185 58.7254 315.619 59.1847 315.926 59.7955C316.234 60.4062 316.388 61.1615 316.388 62.0611V69H314.265V62.3168C314.265 61.526 314.059 60.9081 313.647 60.4631C313.235 60.0133 312.669 59.7884 311.949 59.7884C311.457 59.7884 311.019 59.8949 310.635 60.108C310.257 60.321 309.956 60.6335 309.733 61.0455C309.516 61.4527 309.407 61.9451 309.407 62.5227Z" fill="black"/>
<path d="M215.707 62.7071C216.098 62.3166 216.098 61.6834 215.707 61.2929L209.343 54.9289C208.953 54.5384 208.319 54.5384 207.929 54.9289C207.538 55.3195 207.538 55.9526 207.929 56.3431L213.586 62L207.929 67.6569C207.538 68.0474 207.538 68.6805 207.929 69.0711C208.319 69.4616 208.953 69.4616 209.343 69.0711L215.707 62.7071ZM175 63H215V61H175V63Z" fill="black"/>
<path d="M405.707 62.7071C406.098 62.3166 406.098 61.6834 405.707 61.2929L399.343 54.9289C398.953 54.5384 398.319 54.5384 397.929 54.9289C397.538 55.3195 397.538 55.9526 397.929 56.3431L403.586 62L397.929 67.6569C397.538 68.0474 397.538 68.6805 397.929 69.0711C398.319 69.4616 398.953 69.4616 399.343 69.0711L405.707 62.7071ZM365 63H405V61H365V63Z" fill="black"/>
<path d="M551.707 62.7071C552.098 62.3166 552.098 61.6834 551.707 61.2929L545.343 54.9289C544.953 54.5384 544.319 54.5384 543.929 54.9289C543.538 55.3195 543.538 55.9526 543.929 56.3431L549.586 62L543.929 67.6569C543.538 68.0474 543.538 68.6805 543.929 69.0711C544.319 69.4616 544.953 69.4616 545.343 69.0711L551.707 62.7071ZM511 63H551V61H511V63Z" fill="black"/>
<path d="M742.707 62.7071C743.098 62.3166 743.098 61.6834 742.707 61.2929L736.343 54.9289C735.953 54.5384 735.319 54.5384 734.929 54.9289C734.538 55.3195 734.538 55.9526 734.929 56.3431L740.586 62L734.929 67.6569C734.538 68.0474 734.538 68.6805 734.929 69.0711C735.319 69.4616 735.953 69.4616 736.343 69.0711L742.707 62.7071ZM702 63H742V61H702V63Z" fill="black"/>
<path d="M933.707 62.7071C934.098 62.3166 934.098 61.6834 933.707 61.2929L927.343 54.9289C926.953 54.5384 926.319 54.5384 925.929 54.9289C925.538 55.3195 925.538 55.9526 925.929 56.3431L931.586 62L925.929 67.6569C925.538 68.0474 925.538 68.6805 925.929 69.0711C926.319 69.4616 926.953 69.4616 927.343 69.0711L933.707 62.7071ZM893 63H933V61H893V63Z" fill="black"/>
<rect x="553" y="23" width="148" height="78" rx="7" stroke="black" stroke-width="2"/>
<path d="M587.749 44.1847H585.533C585.448 43.7112 585.29 43.2945 585.058 42.9347C584.826 42.5748 584.541 42.2694 584.205 42.0185C583.869 41.7675 583.493 41.5781 583.076 41.4503C582.664 41.3224 582.226 41.2585 581.762 41.2585C580.924 41.2585 580.174 41.4692 579.511 41.8906C578.853 42.312 578.332 42.9299 577.948 43.7443C577.569 44.5587 577.38 45.553 577.38 46.7273C577.38 47.911 577.569 48.91 577.948 49.7244C578.332 50.5388 578.855 51.1544 579.518 51.571C580.181 51.9877 580.926 52.196 581.755 52.196C582.214 52.196 582.65 52.1345 583.062 52.0114C583.478 51.8835 583.855 51.6965 584.191 51.4503C584.527 51.2041 584.811 50.9034 585.043 50.5483C585.28 50.1884 585.443 49.7765 585.533 49.3125L587.749 49.3196C587.631 50.0346 587.401 50.6927 587.06 51.294C586.724 51.8906 586.291 52.4067 585.761 52.8423C585.235 53.2732 584.634 53.607 583.957 53.8438C583.28 54.0805 582.541 54.1989 581.741 54.1989C580.481 54.1989 579.359 53.9006 578.374 53.304C577.389 52.7027 576.613 51.8433 576.045 50.7259C575.481 49.6084 575.2 48.2756 575.2 46.7273C575.2 45.1742 575.484 43.8414 576.052 42.7287C576.62 41.6113 577.397 40.7543 578.381 40.1577C579.366 39.5563 580.486 39.2557 581.741 39.2557C582.513 39.2557 583.232 39.367 583.9 39.5895C584.572 39.8073 585.176 40.1293 585.711 40.5554C586.246 40.9768 586.689 41.4929 587.039 42.1037C587.389 42.7098 587.626 43.4034 587.749 44.1847ZM594.8 54.2202C593.777 54.2202 592.885 53.9858 592.123 53.517C591.36 53.0483 590.768 52.3925 590.347 51.5497C589.926 50.7069 589.715 49.7221 589.715 48.5952C589.715 47.4635 589.926 46.474 590.347 45.6264C590.768 44.7789 591.36 44.1207 592.123 43.652C592.885 43.1832 593.777 42.9489 594.8 42.9489C595.823 42.9489 596.715 43.1832 597.478 43.652C598.24 44.1207 598.832 44.7789 599.253 45.6264C599.675 46.474 599.885 47.4635 599.885 48.5952C599.885 49.7221 599.675 50.7069 599.253 51.5497C598.832 52.3925 598.24 53.0483 597.478 53.517C596.715 53.9858 595.823 54.2202 594.8 54.2202ZM594.807 52.4375C595.47 52.4375 596.019 52.2623 596.455 51.9119C596.891 51.5616 597.212 51.0952 597.421 50.5128C597.634 49.9304 597.74 49.2888 597.74 48.5881C597.74 47.892 597.634 47.2528 597.421 46.6705C597.212 46.0833 596.891 45.6122 596.455 45.2571C596.019 44.902 595.47 44.7244 594.807 44.7244C594.14 44.7244 593.586 44.902 593.145 45.2571C592.71 45.6122 592.385 46.0833 592.172 46.6705C591.964 47.2528 591.86 47.892 591.86 48.5881C591.86 49.2888 591.964 49.9304 592.172 50.5128C592.385 51.0952 592.71 51.5616 593.145 51.9119C593.586 52.2623 594.14 52.4375 594.807 52.4375ZM604.379 47.5227V54H602.256V43.0909H604.294V44.8665H604.429C604.68 44.2888 605.073 43.8248 605.608 43.4744C606.148 43.1241 606.827 42.9489 607.646 42.9489C608.39 42.9489 609.041 43.1051 609.599 43.4176C610.158 43.7254 610.591 44.1847 610.899 44.7955C611.207 45.4062 611.361 46.1615 611.361 47.0611V54H609.237V47.3168C609.237 46.526 609.031 45.9081 608.619 45.4631C608.207 45.0133 607.642 44.7884 606.922 44.7884C606.429 44.7884 605.991 44.8949 605.608 45.108C605.229 45.321 604.929 45.6335 604.706 46.0455C604.488 46.4527 604.379 46.9451 604.379 47.5227ZM616.332 47.5227V54H614.209V43.0909H616.247V44.8665H616.382C616.633 44.2888 617.026 43.8248 617.561 43.4744C618.101 43.1241 618.78 42.9489 619.599 42.9489C620.343 42.9489 620.994 43.1051 621.553 43.4176C622.111 43.7254 622.545 44.1847 622.852 44.7955C623.16 45.4062 623.314 46.1615 623.314 47.0611V54H621.19V47.3168C621.19 46.526 620.984 45.9081 620.572 45.4631C620.161 45.0133 619.595 44.7884 618.875 44.7884C618.383 44.7884 617.945 44.8949 617.561 45.108C617.182 45.321 616.882 45.6335 616.659 46.0455C616.441 46.4527 616.332 46.9451 616.332 47.5227ZM630.864 54.2202C629.789 54.2202 628.863 53.9905 628.087 53.5312C627.315 53.0672 626.718 52.4162 626.297 51.5781C625.88 50.7353 625.672 49.7481 625.672 48.6165C625.672 47.4991 625.88 46.5142 626.297 45.6619C626.718 44.8097 627.305 44.1444 628.058 43.6662C628.816 43.188 629.701 42.9489 630.714 42.9489C631.33 42.9489 631.927 43.0507 632.504 43.2543C633.082 43.4579 633.6 43.7775 634.06 44.2131C634.519 44.6487 634.881 45.2145 635.146 45.9105C635.411 46.6018 635.544 47.4422 635.544 48.4318V49.1847H626.872V47.5938H633.463C633.463 47.035 633.349 46.5402 633.122 46.1094C632.895 45.6738 632.575 45.3305 632.163 45.0795C631.756 44.8286 631.278 44.7031 630.729 44.7031C630.132 44.7031 629.611 44.8499 629.166 45.1435C628.726 45.4323 628.385 45.8111 628.143 46.2798C627.907 46.7438 627.788 47.2481 627.788 47.7926V49.0355C627.788 49.7647 627.916 50.3849 628.172 50.8963C628.432 51.4077 628.795 51.7983 629.259 52.0682C629.723 52.3333 630.265 52.4659 630.885 52.4659C631.287 52.4659 631.654 52.4091 631.986 52.2955C632.317 52.1771 632.604 52.0019 632.845 51.7699C633.087 51.5379 633.271 51.2514 633.399 50.9105L635.409 51.2727C635.248 51.8646 634.959 52.383 634.543 52.8281C634.131 53.2685 633.612 53.6117 632.987 53.858C632.367 54.0994 631.659 54.2202 630.864 54.2202ZM642.495 54.2202C641.44 54.2202 640.53 53.9811 639.768 53.5028C639.011 53.0199 638.428 52.3546 638.021 51.5071C637.614 50.6596 637.41 49.6889 637.41 48.5952C637.41 47.4872 637.618 46.5095 638.035 45.6619C638.452 44.8097 639.039 44.1444 639.797 43.6662C640.554 43.188 641.447 42.9489 642.474 42.9489C643.303 42.9489 644.041 43.1027 644.69 43.4105C645.339 43.7135 645.862 44.1397 646.26 44.6889C646.662 45.2382 646.901 45.8797 646.977 46.6136H644.91C644.797 46.1023 644.536 45.6619 644.129 45.2926C643.726 44.9233 643.187 44.7386 642.51 44.7386C641.918 44.7386 641.399 44.8949 640.954 45.2074C640.514 45.5152 640.171 45.9555 639.924 46.5284C639.678 47.0966 639.555 47.7689 639.555 48.5455C639.555 49.3409 639.676 50.0275 639.917 50.6051C640.159 51.1828 640.5 51.6302 640.94 51.9474C641.385 52.2647 641.908 52.4233 642.51 52.4233C642.912 52.4233 643.277 52.3499 643.603 52.2031C643.935 52.0516 644.212 51.8362 644.434 51.5568C644.662 51.2775 644.82 50.9413 644.91 50.5483H646.977C646.901 51.2538 646.672 51.8835 646.288 52.4375C645.904 52.9915 645.391 53.4271 644.747 53.7443C644.108 54.0616 643.357 54.2202 642.495 54.2202ZM654.34 43.0909V44.7955H648.381V43.0909H654.34ZM649.979 40.4773H652.103V50.7969C652.103 51.2088 652.165 51.5189 652.288 51.7273C652.411 51.9309 652.569 52.0705 652.763 52.1463C652.962 52.2173 653.178 52.2528 653.41 52.2528C653.58 52.2528 653.729 52.241 653.857 52.2173C653.985 52.1937 654.085 52.1747 654.156 52.1605L654.539 53.9148C654.416 53.9621 654.241 54.0095 654.013 54.0568C653.786 54.1089 653.502 54.1373 653.161 54.142C652.603 54.1515 652.082 54.0521 651.599 53.8438C651.116 53.6354 650.725 53.3134 650.427 52.8778C650.129 52.4422 649.979 51.8954 649.979 51.2372V40.4773ZM667.075 43.0909V44.7955H661.116V43.0909H667.075ZM662.714 40.4773H664.837V50.7969C664.837 51.2088 664.899 51.5189 665.022 51.7273C665.145 51.9309 665.304 52.0705 665.498 52.1463C665.697 52.2173 665.912 52.2528 666.144 52.2528C666.315 52.2528 666.464 52.241 666.592 52.2173C666.719 52.1937 666.819 52.1747 666.89 52.1605L667.273 53.9148C667.15 53.9621 666.975 54.0095 666.748 54.0568C666.521 54.1089 666.237 54.1373 665.896 54.142C665.337 54.1515 664.816 54.0521 664.333 53.8438C663.85 53.6354 663.46 53.3134 663.161 52.8778C662.863 52.4422 662.714 51.8954 662.714 51.2372V40.4773ZM673.902 54.2202C672.879 54.2202 671.986 53.9858 671.224 53.517C670.462 53.0483 669.87 52.3925 669.449 51.5497C669.027 50.7069 668.816 49.7221 668.816 48.5952C668.816 47.4635 669.027 46.474 669.449 45.6264C669.87 44.7789 670.462 44.1207 671.224 43.652C671.986 43.1832 672.879 42.9489 673.902 42.9489C674.924 42.9489 675.817 43.1832 676.579 43.652C677.342 44.1207 677.933 44.7789 678.355 45.6264C678.776 46.474 678.987 47.4635 678.987 48.5952C678.987 49.7221 678.776 50.7069 678.355 51.5497C677.933 52.3925 677.342 53.0483 676.579 53.517C675.817 53.9858 674.924 54.2202 673.902 54.2202ZM673.909 52.4375C674.572 52.4375 675.121 52.2623 675.556 51.9119C675.992 51.5616 676.314 51.0952 676.522 50.5128C676.735 49.9304 676.842 49.2888 676.842 48.5881C676.842 47.892 676.735 47.2528 676.522 46.6705C676.314 46.0833 675.992 45.6122 675.556 45.2571C675.121 44.902 674.572 44.7244 673.909 44.7244C673.241 44.7244 672.687 44.902 672.247 45.2571C671.811 45.6122 671.487 46.0833 671.274 46.6705C671.065 47.2528 670.961 47.892 670.961 48.5881C670.961 49.2888 671.065 49.9304 671.274 50.5128C671.487 51.0952 671.811 51.5616 672.247 51.9119C672.687 52.2623 673.241 52.4375 673.909 52.4375ZM600.68 84H595.971V69.4545H600.829C602.254 69.4545 603.478 69.7457 604.501 70.3281C605.524 70.9058 606.307 71.7367 606.852 72.821C607.401 73.9006 607.676 75.1955 607.676 76.706C607.676 78.2211 607.399 79.5232 606.845 80.6122C606.295 81.7012 605.5 82.5393 604.458 83.1264C603.417 83.7088 602.157 84 600.68 84ZM598.166 82.0824H600.559C601.667 82.0824 602.588 81.8741 603.322 81.4574C604.056 81.036 604.605 80.4276 604.97 79.6321C605.334 78.8319 605.517 77.8565 605.517 76.706C605.517 75.5649 605.334 74.5966 604.97 73.8011C604.61 73.0057 604.072 72.402 603.357 71.9901C602.642 71.5781 601.755 71.3722 600.694 71.3722H598.166V82.0824ZM614.936 84.2202C613.861 84.2202 612.935 83.9905 612.159 83.5312C611.387 83.0672 610.791 82.4162 610.369 81.5781C609.952 80.7353 609.744 79.7481 609.744 78.6165C609.744 77.4991 609.952 76.5142 610.369 75.6619C610.791 74.8097 611.378 74.1444 612.131 73.6662C612.888 73.188 613.773 72.9489 614.787 72.9489C615.402 72.9489 615.999 73.0507 616.577 73.2543C617.154 73.4579 617.673 73.7775 618.132 74.2131C618.591 74.6487 618.953 75.2145 619.219 75.9105C619.484 76.6018 619.616 77.4422 619.616 78.4318V79.1847H610.944V77.5938H617.535C617.535 77.035 617.422 76.5402 617.194 76.1094C616.967 75.6738 616.648 75.3305 616.236 75.0795C615.828 74.8286 615.35 74.7031 614.801 74.7031C614.204 74.7031 613.684 74.8499 613.238 75.1435C612.798 75.4323 612.457 75.8111 612.216 76.2798C611.979 76.7438 611.861 77.2481 611.861 77.7926V79.0355C611.861 79.7647 611.988 80.3849 612.244 80.8963C612.505 81.4077 612.867 81.7983 613.331 82.0682C613.795 82.3333 614.337 82.4659 614.957 82.4659C615.36 82.4659 615.727 82.4091 616.058 82.2955C616.39 82.1771 616.676 82.0019 616.917 81.7699C617.159 81.5379 617.344 81.2514 617.471 80.9105L619.481 81.2727C619.32 81.8646 619.032 82.383 618.615 82.8281C618.203 83.2685 617.684 83.6117 617.059 83.858C616.439 84.0994 615.731 84.2202 614.936 84.2202ZM630.992 73.0909L627.036 84H624.764L620.801 73.0909H623.08L625.843 81.4858H625.957L628.713 73.0909H630.992ZM632.988 84V73.0909H635.112V84H632.988ZM634.061 71.4077C633.691 71.4077 633.374 71.2846 633.109 71.0384C632.848 70.7874 632.718 70.4891 632.718 70.1435C632.718 69.7931 632.848 69.4948 633.109 69.2486C633.374 68.9976 633.691 68.8722 634.061 68.8722C634.43 68.8722 634.745 68.9976 635.005 69.2486C635.27 69.4948 635.403 69.7931 635.403 70.1435C635.403 70.4891 635.27 70.7874 635.005 71.0384C634.745 71.2846 634.43 71.4077 634.061 71.4077ZM642.564 84.2202C641.508 84.2202 640.599 83.9811 639.836 83.5028C639.079 83.0199 638.497 82.3546 638.089 81.5071C637.682 80.6596 637.479 79.6889 637.479 78.5952C637.479 77.4872 637.687 76.5095 638.104 75.6619C638.52 74.8097 639.107 74.1444 639.865 73.6662C640.622 73.188 641.515 72.9489 642.542 72.9489C643.371 72.9489 644.11 73.1027 644.758 73.4105C645.407 73.7135 645.93 74.1397 646.328 74.6889C646.73 75.2382 646.97 75.8797 647.045 76.6136H644.979C644.865 76.1023 644.604 75.6619 644.197 75.2926C643.795 74.9233 643.255 74.7386 642.578 74.7386C641.986 74.7386 641.468 74.8949 641.023 75.2074C640.582 75.5152 640.239 75.9555 639.993 76.5284C639.747 77.0966 639.623 77.7689 639.623 78.5455C639.623 79.3409 639.744 80.0275 639.986 80.6051C640.227 81.1828 640.568 81.6302 641.008 81.9474C641.453 82.2647 641.977 82.4233 642.578 82.4233C642.98 82.4233 643.345 82.3499 643.672 82.2031C644.003 82.0516 644.28 81.8362 644.503 81.5568C644.73 81.2775 644.889 80.9413 644.979 80.5483H647.045C646.97 81.2538 646.74 81.8835 646.356 82.4375C645.973 82.9915 645.459 83.4271 644.815 83.7443C644.176 84.0616 643.425 84.2202 642.564 84.2202ZM654.018 84.2202C652.943 84.2202 652.017 83.9905 651.241 83.5312C650.469 83.0672 649.873 82.4162 649.451 81.5781C649.035 80.7353 648.826 79.7481 648.826 78.6165C648.826 77.4991 649.035 76.5142 649.451 75.6619C649.873 74.8097 650.46 74.1444 651.213 73.6662C651.97 73.188 652.856 72.9489 653.869 72.9489C654.484 72.9489 655.081 73.0507 655.659 73.2543C656.236 73.4579 656.755 73.7775 657.214 74.2131C657.673 74.6487 658.035 75.2145 658.301 75.9105C658.566 76.6018 658.698 77.4422 658.698 78.4318V79.1847H650.026V77.5938H656.617C656.617 77.035 656.504 76.5402 656.276 76.1094C656.049 75.6738 655.73 75.3305 655.318 75.0795C654.91 74.8286 654.432 74.7031 653.883 74.7031C653.286 74.7031 652.766 74.8499 652.32 75.1435C651.88 75.4323 651.539 75.8111 651.298 76.2798C651.061 76.7438 650.943 77.2481 650.943 77.7926V79.0355C650.943 79.7647 651.07 80.3849 651.326 80.8963C651.587 81.4077 651.949 81.7983 652.413 82.0682C652.877 82.3333 653.419 82.4659 654.039 82.4659C654.442 82.4659 654.809 82.4091 655.14 82.2955C655.472 82.1771 655.758 82.0019 655.999 81.7699C656.241 81.5379 656.426 81.2514 656.553 80.9105L658.563 81.2727C658.402 81.8646 658.114 82.383 657.697 82.8281C657.285 83.2685 656.767 83.6117 656.142 83.858C655.521 84.0994 654.813 84.2202 654.018 84.2202Z" fill="black"/>
<rect x="458.568" y="6.41421" width="78" height="78" rx="9" transform="rotate(45 458.568 6.41421)" stroke="#C94040" stroke-width="2"/>
<path d="M442.269 47.1847H440.053C439.968 46.7112 439.809 46.2945 439.577 45.9347C439.345 45.5748 439.061 45.2694 438.725 45.0185C438.389 44.7675 438.012 44.5781 437.596 44.4503C437.184 44.3224 436.746 44.2585 436.282 44.2585C435.444 44.2585 434.693 44.4692 434.03 44.8906C433.372 45.312 432.851 45.9299 432.468 46.7443C432.089 47.5587 431.9 48.553 431.9 49.7273C431.9 50.911 432.089 51.91 432.468 52.7244C432.851 53.5388 433.374 54.1544 434.037 54.571C434.7 54.9877 435.446 55.196 436.275 55.196C436.734 55.196 437.169 55.1345 437.581 55.0114C437.998 54.8835 438.374 54.6965 438.711 54.4503C439.047 54.2041 439.331 53.9034 439.563 53.5483C439.8 53.1884 439.963 52.7765 440.053 52.3125L442.269 52.3196C442.15 53.0346 441.921 53.6927 441.58 54.294C441.244 54.8906 440.81 55.4067 440.28 55.8423C439.755 56.2732 439.153 56.607 438.476 56.8438C437.799 57.0805 437.06 57.1989 436.26 57.1989C435.001 57.1989 433.879 56.9006 432.894 56.304C431.909 55.7027 431.132 54.8433 430.564 53.7259C430.001 52.6084 429.719 51.2756 429.719 49.7273C429.719 48.1742 430.003 46.8414 430.571 45.7287C431.14 44.6113 431.916 43.7543 432.901 43.1577C433.886 42.5563 435.006 42.2557 436.26 42.2557C437.032 42.2557 437.752 42.367 438.419 42.5895C439.092 42.8073 439.695 43.1293 440.23 43.5554C440.766 43.9768 441.208 44.4929 441.559 45.1037C441.909 45.7098 442.146 46.4034 442.269 47.1847ZM446.848 50.5227V57H444.724V42.4545H446.82V47.8665H446.955C447.21 47.2794 447.601 46.813 448.126 46.4673C448.652 46.1217 449.339 45.9489 450.186 45.9489C450.934 45.9489 451.588 46.1027 452.146 46.4105C452.71 46.7183 453.145 47.1776 453.453 47.7884C453.766 48.3944 453.922 49.152 453.922 50.0611V57H451.798V50.3168C451.798 49.5166 451.592 48.8963 451.18 48.456C450.768 48.0109 450.196 47.7884 449.462 47.7884C448.96 47.7884 448.51 47.8949 448.112 48.108C447.719 48.321 447.409 48.6335 447.182 49.0455C446.959 49.4527 446.848 49.9451 446.848 50.5227ZM461.457 57.2202C460.383 57.2202 459.457 56.9905 458.68 56.5312C457.909 56.0672 457.312 55.4162 456.891 54.5781C456.474 53.7353 456.266 52.7481 456.266 51.6165C456.266 50.4991 456.474 49.5142 456.891 48.6619C457.312 47.8097 457.899 47.1444 458.652 46.6662C459.41 46.188 460.295 45.9489 461.308 45.9489C461.924 45.9489 462.52 46.0507 463.098 46.2543C463.676 46.4579 464.194 46.7775 464.653 47.2131C465.113 47.6487 465.475 48.2145 465.74 48.9105C466.005 49.6018 466.138 50.4422 466.138 51.4318V52.1847H457.466V50.5938H464.057C464.057 50.035 463.943 49.5402 463.716 49.1094C463.489 48.6738 463.169 48.3305 462.757 48.0795C462.35 47.8286 461.872 47.7031 461.322 47.7031C460.726 47.7031 460.205 47.8499 459.76 48.1435C459.32 48.4323 458.979 48.8111 458.737 49.2798C458.5 49.7438 458.382 50.2481 458.382 50.7926V52.0355C458.382 52.7647 458.51 53.3849 458.766 53.8963C459.026 54.4077 459.388 54.7983 459.852 55.0682C460.316 55.3333 460.858 55.4659 461.479 55.4659C461.881 55.4659 462.248 55.4091 462.58 55.2955C462.911 55.1771 463.197 55.0019 463.439 54.7699C463.68 54.5379 463.865 54.2514 463.993 53.9105L466.003 54.2727C465.842 54.8646 465.553 55.383 465.136 55.8281C464.724 56.2685 464.206 56.6117 463.581 56.858C462.961 57.0994 462.253 57.2202 461.457 57.2202ZM473.089 57.2202C472.033 57.2202 471.124 56.9811 470.362 56.5028C469.604 56.0199 469.022 55.3546 468.615 54.5071C468.208 53.6596 468.004 52.6889 468.004 51.5952C468.004 50.4872 468.212 49.5095 468.629 48.6619C469.046 47.8097 469.633 47.1444 470.39 46.6662C471.148 46.188 472.04 45.9489 473.068 45.9489C473.896 45.9489 474.635 46.1027 475.284 46.4105C475.932 46.7135 476.456 47.1397 476.853 47.6889C477.256 48.2382 477.495 48.8797 477.571 49.6136H475.504C475.39 49.1023 475.13 48.6619 474.723 48.2926C474.32 47.9233 473.78 47.7386 473.103 47.7386C472.511 47.7386 471.993 47.8949 471.548 48.2074C471.108 48.5152 470.764 48.9555 470.518 49.5284C470.272 50.0966 470.149 50.7689 470.149 51.5455C470.149 52.3409 470.27 53.0275 470.511 53.6051C470.752 54.1828 471.093 54.6302 471.534 54.9474C471.979 55.2647 472.502 55.4233 473.103 55.4233C473.506 55.4233 473.87 55.3499 474.197 55.2031C474.529 55.0516 474.806 54.8362 475.028 54.5568C475.255 54.2775 475.414 53.9413 475.504 53.5483H477.571C477.495 54.2538 477.265 54.8835 476.882 55.4375C476.498 55.9915 475.984 56.4271 475.341 56.7443C474.701 57.0616 473.951 57.2202 473.089 57.2202ZM481.795 53.2997L481.781 50.7074H482.15L486.496 46.0909H489.039L484.082 51.3466H483.748L481.795 53.2997ZM479.842 57V42.4545H481.965V57H479.842ZM486.731 57L482.825 51.8153L484.288 50.331L489.337 57H486.731ZM434.358 82V67.4545H436.552V80.1108H443.143V82H434.358ZM450.072 82.2202C449.049 82.2202 448.156 81.9858 447.394 81.517C446.632 81.0483 446.04 80.3925 445.618 79.5497C445.197 78.7069 444.986 77.7221 444.986 76.5952C444.986 75.4635 445.197 74.474 445.618 73.6264C446.04 72.7789 446.632 72.1207 447.394 71.652C448.156 71.1832 449.049 70.9489 450.072 70.9489C451.094 70.9489 451.987 71.1832 452.749 71.652C453.511 72.1207 454.103 72.7789 454.525 73.6264C454.946 74.474 455.157 75.4635 455.157 76.5952C455.157 77.7221 454.946 78.7069 454.525 79.5497C454.103 80.3925 453.511 81.0483 452.749 81.517C451.987 81.9858 451.094 82.2202 450.072 82.2202ZM450.079 80.4375C450.742 80.4375 451.291 80.2623 451.726 79.9119C452.162 79.5616 452.484 79.0952 452.692 78.5128C452.905 77.9304 453.012 77.2888 453.012 76.5881C453.012 75.892 452.905 75.2528 452.692 74.6705C452.484 74.0833 452.162 73.6122 451.726 73.2571C451.291 72.902 450.742 72.7244 450.079 72.7244C449.411 72.7244 448.857 72.902 448.417 73.2571C447.981 73.6122 447.657 74.0833 447.444 74.6705C447.235 75.2528 447.131 75.892 447.131 76.5881C447.131 77.2888 447.235 77.9304 447.444 78.5128C447.657 79.0952 447.981 79.5616 448.417 79.9119C448.857 80.2623 449.411 80.4375 450.079 80.4375ZM462.101 86.3182C461.235 86.3182 460.489 86.2045 459.864 85.9773C459.244 85.75 458.737 85.4493 458.344 85.0753C457.951 84.7012 457.657 84.2917 457.463 83.8466L459.289 83.0938C459.416 83.3021 459.587 83.5223 459.8 83.7543C460.018 83.991 460.311 84.1922 460.681 84.358C461.055 84.5237 461.535 84.6065 462.122 84.6065C462.927 84.6065 463.593 84.41 464.118 84.017C464.644 83.6288 464.906 83.0085 464.906 82.1562V80.0114H464.771C464.644 80.2434 464.459 80.5014 464.218 80.7855C463.981 81.0696 463.654 81.3158 463.237 81.5241C462.821 81.7325 462.279 81.8366 461.611 81.8366C460.749 81.8366 459.973 81.6354 459.281 81.233C458.595 80.8258 458.05 80.2268 457.648 79.4361C457.25 78.6406 457.051 77.6629 457.051 76.5028C457.051 75.3428 457.248 74.3485 457.641 73.5199C458.039 72.6913 458.583 72.0568 459.274 71.6165C459.966 71.1714 460.749 70.9489 461.625 70.9489C462.302 70.9489 462.849 71.0625 463.266 71.2898C463.682 71.5123 464.007 71.7727 464.239 72.071C464.476 72.3693 464.658 72.6321 464.786 72.8594H464.942V71.0909H467.023V82.2415C467.023 83.179 466.805 83.9484 466.369 84.5497C465.934 85.151 465.344 85.5961 464.601 85.8849C463.862 86.1738 463.029 86.3182 462.101 86.3182ZM462.08 80.0753C462.691 80.0753 463.207 79.9332 463.628 79.6491C464.054 79.3603 464.376 78.9484 464.594 78.4134C464.816 77.8736 464.928 77.2273 464.928 76.4744C464.928 75.7405 464.819 75.0942 464.601 74.5355C464.383 73.9768 464.064 73.5412 463.642 73.2287C463.221 72.9115 462.7 72.7528 462.08 72.7528C461.441 72.7528 460.908 72.9186 460.482 73.25C460.056 73.5767 459.734 74.0218 459.516 74.5852C459.303 75.1487 459.196 75.7784 459.196 76.4744C459.196 77.1894 459.305 77.8168 459.523 78.3565C459.741 78.8963 460.063 79.3177 460.489 79.6207C460.92 79.9238 461.45 80.0753 462.08 80.0753ZM469.871 82V71.0909H471.994V82H469.871ZM470.943 69.4077C470.574 69.4077 470.257 69.2846 469.992 69.0384C469.731 68.7874 469.601 68.4891 469.601 68.1435C469.601 67.7931 469.731 67.4948 469.992 67.2486C470.257 66.9976 470.574 66.8722 470.943 66.8722C471.313 66.8722 471.628 66.9976 471.888 67.2486C472.153 67.4948 472.286 67.7931 472.286 68.1435C472.286 68.4891 472.153 68.7874 471.888 69.0384C471.628 69.2846 471.313 69.4077 470.943 69.4077ZM476.975 75.5227V82H474.851V71.0909H476.89V72.8665H477.025C477.276 72.2888 477.669 71.8248 478.204 71.4744C478.743 71.1241 479.423 70.9489 480.242 70.9489C480.985 70.9489 481.636 71.1051 482.195 71.4176C482.754 71.7254 483.187 72.1847 483.495 72.7955C483.803 73.4062 483.956 74.1615 483.956 75.0611V82H481.833V75.3168C481.833 74.526 481.627 73.9081 481.215 73.4631C480.803 73.0133 480.237 72.7884 479.518 72.7884C479.025 72.7884 478.587 72.8949 478.204 73.108C477.825 73.321 477.524 73.6335 477.302 74.0455C477.084 74.4527 476.975 74.9451 476.975 75.5227Z" fill="#6F6F6F"/>
<rect x="744" y="23" width="148" height="78" rx="7" stroke="black" stroke-width="2"/>
<path d="M792.685 44.1847H790.469C790.384 43.7112 790.225 43.2945 789.993 42.9347C789.761 42.5748 789.477 42.2694 789.141 42.0185C788.805 41.7675 788.428 41.5781 788.012 41.4503C787.6 41.3224 787.162 41.2585 786.698 41.2585C785.86 41.2585 785.109 41.4692 784.446 41.8906C783.788 42.312 783.267 42.9299 782.884 43.7443C782.505 44.5587 782.316 45.553 782.316 46.7273C782.316 47.911 782.505 48.91 782.884 49.7244C783.267 50.5388 783.79 51.1544 784.453 51.571C785.116 51.9877 785.862 52.196 786.691 52.196C787.15 52.196 787.585 52.1345 787.997 52.0114C788.414 51.8835 788.79 51.6965 789.127 51.4503C789.463 51.2041 789.747 50.9034 789.979 50.5483C790.216 50.1884 790.379 49.7765 790.469 49.3125L792.685 49.3196C792.566 50.0346 792.337 50.6927 791.996 51.294C791.66 51.8906 791.227 52.4067 790.696 52.8423C790.171 53.2732 789.569 53.607 788.892 53.8438C788.215 54.0805 787.477 54.1989 786.676 54.1989C785.417 54.1989 784.295 53.9006 783.31 53.304C782.325 52.7027 781.548 51.8433 780.98 50.7259C780.417 49.6084 780.135 48.2756 780.135 46.7273C780.135 45.1742 780.419 43.8414 780.987 42.7287C781.556 41.6113 782.332 40.7543 783.317 40.1577C784.302 39.5563 785.422 39.2557 786.676 39.2557C787.448 39.2557 788.168 39.367 788.835 39.5895C789.508 39.8073 790.111 40.1293 790.646 40.5554C791.182 40.9768 791.624 41.4929 791.975 42.1037C792.325 42.7098 792.562 43.4034 792.685 44.1847ZM802.051 49.4759V43.0909H804.182V54H802.094V52.1108H801.98C801.729 52.6932 801.327 53.1785 800.773 53.5668C800.223 53.9503 799.539 54.142 798.72 54.142C798.019 54.142 797.399 53.9882 796.859 53.6804C796.324 53.3679 795.903 52.9062 795.595 52.2955C795.292 51.6847 795.14 50.9295 795.14 50.0298V43.0909H797.264V49.7741C797.264 50.5175 797.47 51.1094 797.882 51.5497C798.294 51.9901 798.829 52.2102 799.487 52.2102C799.885 52.2102 800.28 52.1108 800.673 51.9119C801.071 51.7131 801.4 51.4124 801.66 51.0099C801.925 50.6075 802.056 50.0961 802.051 49.4759ZM807.035 54V43.0909H809.088V44.8239H809.201C809.4 44.2367 809.75 43.7751 810.252 43.4389C810.759 43.098 811.332 42.9276 811.971 42.9276C812.104 42.9276 812.26 42.9323 812.44 42.9418C812.624 42.9512 812.769 42.9631 812.873 42.9773V45.0085C812.788 44.9848 812.636 44.9588 812.419 44.9304C812.201 44.8973 811.983 44.8807 811.765 44.8807C811.263 44.8807 810.816 44.9872 810.423 45.2003C810.035 45.4086 809.727 45.6998 809.499 46.0739C809.272 46.4432 809.159 46.8646 809.159 47.3381V54H807.035ZM814.711 54V43.0909H816.763V44.8239H816.877C817.076 44.2367 817.426 43.7751 817.928 43.4389C818.435 43.098 819.008 42.9276 819.647 42.9276C819.779 42.9276 819.936 42.9323 820.116 42.9418C820.3 42.9512 820.445 42.9631 820.549 42.9773V45.0085C820.464 44.9848 820.312 44.9588 820.094 44.9304C819.876 44.8973 819.659 44.8807 819.441 44.8807C818.939 44.8807 818.492 44.9872 818.099 45.2003C817.71 45.4086 817.403 45.6998 817.175 46.0739C816.948 46.4432 816.834 46.8646 816.834 47.3381V54H814.711ZM826.698 54.2202C825.623 54.2202 824.697 53.9905 823.921 53.5312C823.149 53.0672 822.552 52.4162 822.131 51.5781C821.714 50.7353 821.506 49.7481 821.506 48.6165C821.506 47.4991 821.714 46.5142 822.131 45.6619C822.552 44.8097 823.139 44.1444 823.892 43.6662C824.65 43.188 825.535 42.9489 826.548 42.9489C827.164 42.9489 827.761 43.0507 828.338 43.2543C828.916 43.4579 829.434 43.7775 829.894 44.2131C830.353 44.6487 830.715 45.2145 830.98 45.9105C831.245 46.6018 831.378 47.4422 831.378 48.4318V49.1847H822.706V47.5938H829.297C829.297 47.035 829.183 46.5402 828.956 46.1094C828.729 45.6738 828.409 45.3305 827.997 45.0795C827.59 44.8286 827.112 44.7031 826.563 44.7031C825.966 44.7031 825.445 44.8499 825 45.1435C824.56 45.4323 824.219 45.8111 823.977 46.2798C823.741 46.7438 823.622 47.2481 823.622 47.7926V49.0355C823.622 49.7647 823.75 50.3849 824.006 50.8963C824.266 51.4077 824.628 51.7983 825.093 52.0682C825.557 52.3333 826.099 52.4659 826.719 52.4659C827.121 52.4659 827.488 52.4091 827.82 52.2955C828.151 52.1771 828.438 52.0019 828.679 51.7699C828.921 51.5379 829.105 51.2514 829.233 50.9105L831.243 51.2727C831.082 51.8646 830.793 52.383 830.377 52.8281C829.965 53.2685 829.446 53.6117 828.821 53.858C828.201 54.0994 827.493 54.2202 826.698 54.2202ZM835.858 47.5227V54H833.734V43.0909H835.773V44.8665H835.907C836.158 44.2888 836.551 43.8248 837.086 43.4744C837.626 43.1241 838.306 42.9489 839.125 42.9489C839.868 42.9489 840.519 43.1051 841.078 43.4176C841.637 43.7254 842.07 44.1847 842.378 44.7955C842.685 45.4062 842.839 46.1615 842.839 47.0611V54H840.716V47.3168C840.716 46.526 840.51 45.9081 840.098 45.4631C839.686 45.0133 839.12 44.7884 838.4 44.7884C837.908 44.7884 837.47 44.8949 837.086 45.108C836.708 45.321 836.407 45.6335 836.184 46.0455C835.967 46.4527 835.858 46.9451 835.858 47.5227ZM850.78 43.0909V44.7955H844.821V43.0909H850.78ZM846.419 40.4773H848.542V50.7969C848.542 51.2088 848.604 51.5189 848.727 51.7273C848.85 51.9309 849.009 52.0705 849.203 52.1463C849.402 52.2173 849.617 52.2528 849.849 52.2528C850.02 52.2528 850.169 52.241 850.297 52.2173C850.425 52.1937 850.524 52.1747 850.595 52.1605L850.979 53.9148C850.855 53.9621 850.68 54.0095 850.453 54.0568C850.226 54.1089 849.942 54.1373 849.601 54.142C849.042 54.1515 848.521 54.0521 848.038 53.8438C847.555 53.6354 847.165 53.3134 846.866 52.8778C846.568 52.4422 846.419 51.8954 846.419 51.2372V40.4773ZM796.652 73.2756C796.577 72.6032 796.264 72.0824 795.715 71.7131C795.166 71.339 794.474 71.152 793.641 71.152C793.044 71.152 792.528 71.2467 792.093 71.4361C791.657 71.6207 791.319 71.8764 791.077 72.2031C790.84 72.5251 790.722 72.892 790.722 73.304C790.722 73.6496 790.802 73.9479 790.963 74.1989C791.129 74.4498 791.345 74.6605 791.61 74.831C791.88 74.9967 792.168 75.1364 792.476 75.25C792.784 75.3589 793.08 75.4489 793.364 75.5199L794.784 75.8892C795.248 76.0028 795.724 76.1567 796.212 76.3509C796.7 76.545 797.152 76.8007 797.569 77.1179C797.985 77.4351 798.321 77.8281 798.577 78.2969C798.837 78.7656 798.968 79.3267 798.968 79.9801C798.968 80.804 798.755 81.5355 798.328 82.1747C797.907 82.8139 797.294 83.3182 796.489 83.6875C795.689 84.0568 794.721 84.2415 793.584 84.2415C792.495 84.2415 791.553 84.0687 790.757 83.723C789.962 83.3774 789.339 82.8873 788.89 82.2528C788.44 81.6136 788.191 80.8561 788.144 79.9801H790.346C790.388 80.5057 790.559 80.9437 790.857 81.294C791.16 81.6397 791.546 81.8977 792.015 82.0682C792.488 82.2339 793.007 82.3168 793.57 82.3168C794.19 82.3168 794.742 82.2197 795.225 82.0256C795.712 81.8267 796.096 81.5521 796.375 81.2017C796.655 80.8466 796.794 80.4323 796.794 79.9588C796.794 79.5279 796.671 79.1752 796.425 78.9006C796.184 78.6259 795.855 78.3987 795.438 78.2188C795.026 78.0388 794.56 77.8802 794.039 77.7429L792.32 77.2741C791.155 76.9569 790.232 76.4905 789.55 75.875C788.873 75.2595 788.534 74.4451 788.534 73.4318C788.534 72.5937 788.762 71.8622 789.216 71.2372C789.671 70.6122 790.286 70.1269 791.063 69.7812C791.839 69.4309 792.715 69.2557 793.691 69.2557C794.676 69.2557 795.544 69.4285 796.297 69.7741C797.055 70.1198 797.651 70.5956 798.087 71.2017C798.523 71.803 798.75 72.4943 798.769 73.2756H796.652ZM806.512 73.0909V74.7955H800.553V73.0909H806.512ZM802.151 70.4773H804.275V80.7969C804.275 81.2088 804.336 81.5189 804.46 81.7273C804.583 81.9309 804.741 82.0705 804.935 82.1463C805.134 82.2173 805.35 82.2528 805.582 82.2528C805.752 82.2528 805.901 82.241 806.029 82.2173C806.157 82.1937 806.256 82.1747 806.327 82.1605L806.711 83.9148C806.588 83.9621 806.413 84.0095 806.185 84.0568C805.958 84.1089 805.674 84.1373 805.333 84.142C804.774 84.1515 804.254 84.0521 803.771 83.8438C803.288 83.6354 802.897 83.3134 802.599 82.8778C802.3 82.4422 802.151 81.8954 802.151 81.2372V70.4773ZM812.036 84.2415C811.345 84.2415 810.72 84.1136 810.161 83.858C809.602 83.5975 809.159 83.2211 808.833 82.7287C808.511 82.2363 808.35 81.6326 808.35 80.9176C808.35 80.3021 808.468 79.7955 808.705 79.3977C808.942 79 809.261 78.6851 809.664 78.4531C810.066 78.2211 810.516 78.0459 811.013 77.9276C811.51 77.8092 812.017 77.7192 812.533 77.6577C813.186 77.5819 813.717 77.5204 814.124 77.473C814.531 77.4209 814.827 77.3381 815.012 77.2244C815.196 77.1108 815.289 76.9261 815.289 76.6705V76.6207C815.289 76.0005 815.114 75.5199 814.763 75.179C814.417 74.8381 813.901 74.6676 813.215 74.6676C812.5 74.6676 811.936 74.8262 811.525 75.1435C811.117 75.456 810.836 75.804 810.679 76.1875L808.684 75.733C808.92 75.0701 809.266 74.535 809.721 74.1278C810.18 73.7159 810.708 73.4176 811.304 73.233C811.901 73.0436 812.528 72.9489 813.186 72.9489C813.622 72.9489 814.084 73.0009 814.571 73.1051C815.064 73.2045 815.523 73.3892 815.949 73.6591C816.38 73.929 816.733 74.3149 817.007 74.8168C817.282 75.3139 817.419 75.9602 817.419 76.7557V84H815.346V82.5085H815.26C815.123 82.7831 814.917 83.053 814.642 83.3182C814.368 83.5833 814.015 83.8035 813.584 83.9787C813.153 84.1539 812.637 84.2415 812.036 84.2415ZM812.498 82.5369C813.085 82.5369 813.587 82.4209 814.003 82.1889C814.425 81.9569 814.744 81.6539 814.962 81.2798C815.185 80.901 815.296 80.4962 815.296 80.0653V78.6591C815.22 78.7348 815.073 78.8059 814.855 78.8722C814.642 78.9337 814.399 78.9882 814.124 79.0355C813.849 79.0781 813.582 79.1184 813.321 79.1562C813.061 79.1894 812.843 79.2178 812.668 79.2415C812.256 79.2936 811.88 79.3812 811.539 79.5043C811.203 79.6274 810.933 79.8049 810.729 80.0369C810.53 80.2642 810.431 80.5672 810.431 80.946C810.431 81.4716 810.625 81.8693 811.013 82.1392C811.401 82.4044 811.896 82.5369 812.498 82.5369ZM825.34 73.0909V74.7955H819.381V73.0909H825.34ZM820.979 70.4773H823.103V80.7969C823.103 81.2088 823.165 81.5189 823.288 81.7273C823.411 81.9309 823.569 82.0705 823.763 82.1463C823.962 82.2173 824.178 82.2528 824.41 82.2528C824.58 82.2528 824.729 82.241 824.857 82.2173C824.985 82.1937 825.085 82.1747 825.156 82.1605L825.539 83.9148C825.416 83.9621 825.241 84.0095 825.013 84.0568C824.786 84.1089 824.502 84.1373 824.161 84.142C823.603 84.1515 823.082 84.0521 822.599 83.8438C822.116 83.6354 821.725 83.3134 821.427 82.8778C821.129 82.4422 820.979 81.8954 820.979 81.2372V70.4773ZM834.6 79.4759V73.0909H836.73V84H834.642V82.1108H834.529C834.278 82.6932 833.875 83.1785 833.321 83.5668C832.772 83.9503 832.088 84.142 831.269 84.142C830.568 84.142 829.948 83.9882 829.408 83.6804C828.873 83.3679 828.452 82.9062 828.144 82.2955C827.841 81.6847 827.689 80.9295 827.689 80.0298V73.0909H829.813V79.7741C829.813 80.5175 830.019 81.1094 830.431 81.5497C830.843 81.9901 831.378 82.2102 832.036 82.2102C832.434 82.2102 832.829 82.1108 833.222 81.9119C833.62 81.7131 833.949 81.4124 834.209 81.0099C834.474 80.6075 834.605 80.0961 834.6 79.4759ZM847.759 75.7543L845.834 76.0952C845.753 75.849 845.625 75.6146 845.45 75.392C845.28 75.1695 845.048 74.9872 844.754 74.8452C844.461 74.7031 844.094 74.6321 843.653 74.6321C843.052 74.6321 842.55 74.767 842.148 75.0369C841.745 75.3021 841.544 75.6454 841.544 76.0668C841.544 76.4313 841.679 76.7249 841.949 76.9474C842.219 77.17 842.654 77.3523 843.256 77.4943L844.989 77.892C845.992 78.1241 846.741 78.4815 847.233 78.9645C847.725 79.4474 847.972 80.0748 847.972 80.8466C847.972 81.5 847.782 82.0824 847.403 82.5938C847.029 83.1004 846.506 83.4981 845.834 83.7869C845.166 84.0758 844.392 84.2202 843.511 84.2202C842.29 84.2202 841.293 83.9598 840.521 83.4389C839.75 82.9134 839.276 82.1676 839.101 81.2017L841.153 80.8892C841.281 81.4242 841.544 81.8291 841.942 82.1037C842.339 82.3736 842.858 82.5085 843.497 82.5085C844.193 82.5085 844.75 82.3641 845.166 82.0753C845.583 81.7817 845.791 81.4242 845.791 81.0028C845.791 80.6619 845.663 80.3755 845.408 80.1435C845.157 79.9115 844.771 79.7363 844.25 79.6179L842.403 79.2131C841.385 78.9811 840.633 78.6117 840.145 78.1051C839.662 77.5985 839.42 76.9569 839.42 76.1804C839.42 75.5365 839.6 74.973 839.96 74.4901C840.32 74.0071 840.817 73.6307 841.452 73.3608C842.086 73.0862 842.813 72.9489 843.632 72.9489C844.811 72.9489 845.739 73.2045 846.416 73.7159C847.093 74.2225 847.541 74.902 847.759 75.7543Z" fill="black"/>
<rect x="935" y="23" width="148" height="78" rx="7" stroke="black" stroke-width="2"/>
<path d="M952.977 58.2756C952.901 57.6032 952.588 57.0824 952.039 56.7131C951.49 56.339 950.799 56.152 949.965 56.152C949.369 56.152 948.853 56.2467 948.417 56.4361C947.981 56.6207 947.643 56.8764 947.401 57.2031C947.165 57.5251 947.046 57.892 947.046 58.304C947.046 58.6496 947.127 58.9479 947.288 59.1989C947.453 59.4498 947.669 59.6605 947.934 59.831C948.204 59.9967 948.493 60.1364 948.8 60.25C949.108 60.3589 949.404 60.4489 949.688 60.5199L951.109 60.8892C951.573 61.0028 952.049 61.1567 952.536 61.3509C953.024 61.545 953.476 61.8007 953.893 62.1179C954.309 62.4351 954.646 62.8281 954.901 63.2969C955.162 63.7656 955.292 64.3267 955.292 64.9801C955.292 65.804 955.079 66.5355 954.653 67.1747C954.231 67.8139 953.618 68.3182 952.813 68.6875C952.013 69.0568 951.045 69.2415 949.908 69.2415C948.819 69.2415 947.877 69.0687 947.082 68.723C946.286 68.3774 945.664 67.8873 945.214 67.2528C944.764 66.6136 944.515 65.8561 944.468 64.9801H946.67C946.712 65.5057 946.883 65.9437 947.181 66.294C947.484 66.6397 947.87 66.8977 948.339 67.0682C948.812 67.2339 949.331 67.3168 949.894 67.3168C950.514 67.3168 951.066 67.2197 951.549 67.0256C952.037 66.8267 952.42 66.5521 952.7 66.2017C952.979 65.8466 953.119 65.4323 953.119 64.9588C953.119 64.5279 952.996 64.1752 952.749 63.9006C952.508 63.6259 952.179 63.3987 951.762 63.2188C951.35 63.0388 950.884 62.8802 950.363 62.7429L948.644 62.2741C947.479 61.9569 946.556 61.4905 945.874 60.875C945.197 60.2595 944.859 59.4451 944.859 58.4318C944.859 57.5937 945.086 56.8622 945.54 56.2372C945.995 55.6122 946.611 55.1269 947.387 54.7812C948.164 54.4309 949.04 54.2557 950.015 54.2557C951 54.2557 951.869 54.4285 952.621 54.7741C953.379 55.1198 953.976 55.5956 954.411 56.2017C954.847 56.803 955.074 57.4943 955.093 58.2756H952.977ZM960.109 69L956.899 58.0909H959.093L961.231 66.1023H961.338L963.483 58.0909H965.677L967.808 66.0668H967.914L970.038 58.0909H972.233L969.029 69H966.863L964.647 61.1236H964.484L962.268 69H960.109ZM974.248 69V58.0909H976.371V69H974.248ZM975.32 56.4077C974.951 56.4077 974.634 56.2846 974.369 56.0384C974.108 55.7874 973.978 55.4891 973.978 55.1435C973.978 54.7931 974.108 54.4948 974.369 54.2486C974.634 53.9976 974.951 53.8722 975.32 53.8722C975.69 53.8722 976.004 53.9976 976.265 54.2486C976.53 54.4948 976.663 54.7931 976.663 55.1435C976.663 55.4891 976.53 55.7874 976.265 56.0384C976.004 56.2846 975.69 56.4077 975.32 56.4077ZM984.321 58.0909V59.7955H978.362V58.0909H984.321ZM979.96 55.4773H982.083V65.7969C982.083 66.2088 982.145 66.5189 982.268 66.7273C982.391 66.9309 982.55 67.0705 982.744 67.1463C982.943 67.2173 983.158 67.2528 983.39 67.2528C983.561 67.2528 983.71 67.241 983.838 67.2173C983.966 67.1937 984.065 67.1747 984.136 67.1605L984.52 68.9148C984.396 68.9621 984.221 69.0095 983.994 69.0568C983.767 69.1089 983.483 69.1373 983.142 69.142C982.583 69.1515 982.062 69.0521 981.579 68.8438C981.096 68.6354 980.706 68.3134 980.407 67.8778C980.109 67.4422 979.96 66.8954 979.96 66.2372V55.4773ZM991.148 69.2202C990.092 69.2202 989.183 68.9811 988.42 68.5028C987.663 68.0199 987.08 67.3546 986.673 66.5071C986.266 65.6596 986.062 64.6889 986.062 63.5952C986.062 62.4872 986.271 61.5095 986.688 60.6619C987.104 59.8097 987.691 59.1444 988.449 58.6662C989.206 58.188 990.099 57.9489 991.126 57.9489C991.955 57.9489 992.694 58.1027 993.342 58.4105C993.991 58.7135 994.514 59.1397 994.912 59.6889C995.314 60.2382 995.554 60.8797 995.629 61.6136H993.562C993.449 61.1023 993.188 60.6619 992.781 60.2926C992.379 59.9233 991.839 59.7386 991.162 59.7386C990.57 59.7386 990.052 59.8949 989.607 60.2074C989.166 60.5152 988.823 60.9555 988.577 61.5284C988.33 62.0966 988.207 62.7689 988.207 63.5455C988.207 64.3409 988.328 65.0275 988.57 65.6051C988.811 66.1828 989.152 66.6302 989.592 66.9474C990.037 67.2647 990.561 67.4233 991.162 67.4233C991.564 67.4233 991.929 67.3499 992.256 67.2031C992.587 67.0516 992.864 66.8362 993.087 66.5568C993.314 66.2775 993.473 65.9413 993.562 65.5483H995.629C995.554 66.2538 995.324 66.8835 994.94 67.4375C994.557 67.9915 994.043 68.4271 993.399 68.7443C992.76 69.0616 992.009 69.2202 991.148 69.2202ZM1000.02 62.5227V69H997.9V54.4545H999.995V59.8665H1000.13C1000.39 59.2794 1000.78 58.813 1001.3 58.4673C1001.83 58.1217 1002.51 57.9489 1003.36 57.9489C1004.11 57.9489 1004.76 58.1027 1005.32 58.4105C1005.89 58.7183 1006.32 59.1776 1006.63 59.7884C1006.94 60.3944 1007.1 61.152 1007.1 62.0611V69H1004.97V62.3168C1004.97 61.5166 1004.77 60.8963 1004.36 60.456C1003.94 60.0109 1003.37 59.7884 1002.64 59.7884C1002.14 59.7884 1001.69 59.8949 1001.29 60.108C1000.9 60.321 1000.58 60.6335 1000.36 61.0455C1000.14 61.4527 1000.02 61.9451 1000.02 62.5227ZM1023.33 58.2756C1023.25 57.6032 1022.94 57.0824 1022.39 56.7131C1021.84 56.339 1021.15 56.152 1020.32 56.152C1019.72 56.152 1019.2 56.2467 1018.77 56.4361C1018.33 56.6207 1017.99 56.8764 1017.75 57.2031C1017.52 57.5251 1017.4 57.892 1017.4 58.304C1017.4 58.6496 1017.48 58.9479 1017.64 59.1989C1017.8 59.4498 1018.02 59.6605 1018.29 59.831C1018.56 59.9967 1018.84 60.1364 1019.15 60.25C1019.46 60.3589 1019.76 60.4489 1020.04 60.5199L1021.46 60.8892C1021.92 61.0028 1022.4 61.1567 1022.89 61.3509C1023.38 61.545 1023.83 61.8007 1024.24 62.1179C1024.66 62.4351 1025 62.8281 1025.25 63.2969C1025.51 63.7656 1025.64 64.3267 1025.64 64.9801C1025.64 65.804 1025.43 66.5355 1025 67.1747C1024.58 67.8139 1023.97 68.3182 1023.16 68.6875C1022.36 69.0568 1021.4 69.2415 1020.26 69.2415C1019.17 69.2415 1018.23 69.0687 1017.43 68.723C1016.64 68.3774 1016.02 67.8873 1015.57 67.2528C1015.12 66.6136 1014.87 65.8561 1014.82 64.9801H1017.02C1017.06 65.5057 1017.23 65.9437 1017.53 66.294C1017.84 66.6397 1018.22 66.8977 1018.69 67.0682C1019.16 67.2339 1019.68 67.3168 1020.25 67.3168C1020.87 67.3168 1021.42 67.2197 1021.9 67.0256C1022.39 66.8267 1022.77 66.5521 1023.05 66.2017C1023.33 65.8466 1023.47 65.4323 1023.47 64.9588C1023.47 64.5279 1023.35 64.1752 1023.1 63.9006C1022.86 63.6259 1022.53 63.3987 1022.11 63.2188C1021.7 63.0388 1021.24 62.8802 1020.71 62.7429L1019 62.2741C1017.83 61.9569 1016.91 61.4905 1016.23 60.875C1015.55 60.2595 1015.21 59.4451 1015.21 58.4318C1015.21 57.5937 1015.44 56.8622 1015.89 56.2372C1016.35 55.6122 1016.96 55.1269 1017.74 54.7812C1018.52 54.4309 1019.39 54.2557 1020.37 54.2557C1021.35 54.2557 1022.22 54.4285 1022.97 54.7741C1023.73 55.1198 1024.33 55.5956 1024.76 56.2017C1025.2 56.803 1025.43 57.4943 1025.44 58.2756H1023.33ZM1033.19 58.0909V59.7955H1027.23V58.0909H1033.19ZM1028.83 55.4773H1030.95V65.7969C1030.95 66.2088 1031.01 66.5189 1031.14 66.7273C1031.26 66.9309 1031.42 67.0705 1031.61 67.1463C1031.81 67.2173 1032.03 67.2528 1032.26 67.2528C1032.43 67.2528 1032.58 67.241 1032.7 67.2173C1032.83 67.1937 1032.93 67.1747 1033 67.1605L1033.39 68.9148C1033.26 68.9621 1033.09 69.0095 1032.86 69.0568C1032.63 69.1089 1032.35 69.1373 1032.01 69.142C1031.45 69.1515 1030.93 69.0521 1030.45 68.8438C1029.96 68.6354 1029.57 68.3134 1029.27 67.8778C1028.98 67.4422 1028.83 66.8954 1028.83 66.2372V55.4773ZM1038.71 69.2415C1038.02 69.2415 1037.4 69.1136 1036.84 68.858C1036.28 68.5975 1035.84 68.2211 1035.51 67.7287C1035.19 67.2363 1035.03 66.6326 1035.03 65.9176C1035.03 65.3021 1035.14 64.7955 1035.38 64.3977C1035.62 64 1035.94 63.6851 1036.34 63.4531C1036.74 63.2211 1037.19 63.0459 1037.69 62.9276C1038.19 62.8092 1038.69 62.7192 1039.21 62.6577C1039.86 62.5819 1040.39 62.5204 1040.8 62.473C1041.21 62.4209 1041.5 62.3381 1041.69 62.2244C1041.87 62.1108 1041.96 61.9261 1041.96 61.6705V61.6207C1041.96 61.0005 1041.79 60.5199 1041.44 60.179C1041.09 59.8381 1040.58 59.6676 1039.89 59.6676C1039.18 59.6676 1038.61 59.8262 1038.2 60.1435C1037.79 60.456 1037.51 60.804 1037.36 61.1875L1035.36 60.733C1035.6 60.0701 1035.94 59.535 1036.4 59.1278C1036.86 58.7159 1037.38 58.4176 1037.98 58.233C1038.58 58.0436 1039.2 57.9489 1039.86 57.9489C1040.3 57.9489 1040.76 58.0009 1041.25 58.1051C1041.74 58.2045 1042.2 58.3892 1042.62 58.6591C1043.06 58.929 1043.41 59.3149 1043.68 59.8168C1043.96 60.3139 1044.1 60.9602 1044.1 61.7557V69H1042.02V67.5085H1041.94C1041.8 67.7831 1041.59 68.053 1041.32 68.3182C1041.04 68.5833 1040.69 68.8035 1040.26 68.9787C1039.83 69.1539 1039.31 69.2415 1038.71 69.2415ZM1039.17 67.5369C1039.76 67.5369 1040.26 67.4209 1040.68 67.1889C1041.1 66.9569 1041.42 66.6539 1041.64 66.2798C1041.86 65.901 1041.97 65.4962 1041.97 65.0653V63.6591C1041.9 63.7348 1041.75 63.8059 1041.53 63.8722C1041.32 63.9337 1041.07 63.9882 1040.8 64.0355C1040.53 64.0781 1040.26 64.1184 1040 64.1562C1039.74 64.1894 1039.52 64.2178 1039.34 64.2415C1038.93 64.2936 1038.56 64.3812 1038.21 64.5043C1037.88 64.6274 1037.61 64.8049 1037.4 65.0369C1037.21 65.2642 1037.11 65.5672 1037.11 65.946C1037.11 66.4716 1037.3 66.8693 1037.69 67.1392C1038.08 67.4044 1038.57 67.5369 1039.17 67.5369ZM1052.02 58.0909V59.7955H1046.06V58.0909H1052.02ZM1047.66 55.4773H1049.78V65.7969C1049.78 66.2088 1049.84 66.5189 1049.96 66.7273C1050.09 66.9309 1050.25 67.0705 1050.44 67.1463C1050.64 67.2173 1050.85 67.2528 1051.09 67.2528C1051.26 67.2528 1051.41 67.241 1051.53 67.2173C1051.66 67.1937 1051.76 67.1747 1051.83 67.1605L1052.21 68.9148C1052.09 68.9621 1051.92 69.0095 1051.69 69.0568C1051.46 69.1089 1051.18 69.1373 1050.84 69.142C1050.28 69.1515 1049.76 69.0521 1049.27 68.8438C1048.79 68.6354 1048.4 68.3134 1048.1 67.8778C1047.8 67.4422 1047.66 66.8954 1047.66 66.2372V55.4773ZM1061.28 64.4759V58.0909H1063.41V69H1061.32V67.1108H1061.2C1060.95 67.6932 1060.55 68.1785 1060 68.5668C1059.45 68.9503 1058.76 69.142 1057.94 69.142C1057.24 69.142 1056.62 68.9882 1056.08 68.6804C1055.55 68.3679 1055.13 67.9062 1054.82 67.2955C1054.52 66.6847 1054.37 65.9295 1054.37 65.0298V58.0909H1056.49V64.7741C1056.49 65.5175 1056.69 66.1094 1057.11 66.5497C1057.52 66.9901 1058.05 67.2102 1058.71 67.2102C1059.11 67.2102 1059.5 67.1108 1059.9 66.9119C1060.3 66.7131 1060.62 66.4124 1060.88 66.0099C1061.15 65.6075 1061.28 65.0961 1061.28 64.4759ZM1074.43 60.7543L1072.51 61.0952C1072.43 60.849 1072.3 60.6146 1072.13 60.392C1071.96 60.1695 1071.72 59.9872 1071.43 59.8452C1071.14 59.7031 1070.77 59.6321 1070.33 59.6321C1069.73 59.6321 1069.23 59.767 1068.82 60.0369C1068.42 60.3021 1068.22 60.6454 1068.22 61.0668C1068.22 61.4313 1068.35 61.7249 1068.62 61.9474C1068.89 62.17 1069.33 62.3523 1069.93 62.4943L1071.66 62.892C1072.67 63.1241 1073.42 63.4815 1073.91 63.9645C1074.4 64.4474 1074.65 65.0748 1074.65 65.8466C1074.65 66.5 1074.46 67.0824 1074.08 67.5938C1073.71 68.1004 1073.18 68.4981 1072.51 68.7869C1071.84 69.0758 1071.07 69.2202 1070.19 69.2202C1068.97 69.2202 1067.97 68.9598 1067.2 68.4389C1066.43 67.9134 1065.95 67.1676 1065.78 66.2017L1067.83 65.8892C1067.96 66.4242 1068.22 66.8291 1068.62 67.1037C1069.02 67.3736 1069.53 67.5085 1070.17 67.5085C1070.87 67.5085 1071.43 67.3641 1071.84 67.0753C1072.26 66.7817 1072.47 66.4242 1072.47 66.0028C1072.47 65.6619 1072.34 65.3755 1072.08 65.1435C1071.83 64.9115 1071.45 64.7363 1070.93 64.6179L1069.08 64.2131C1068.06 63.9811 1067.31 63.6117 1066.82 63.1051C1066.34 62.5985 1066.1 61.9569 1066.1 61.1804C1066.1 60.5365 1066.28 59.973 1066.64 59.4901C1067 59.0071 1067.49 58.6307 1068.13 58.3608C1068.76 58.0862 1069.49 57.9489 1070.31 57.9489C1071.49 57.9489 1072.41 58.2045 1073.09 58.7159C1073.77 59.2225 1074.22 59.902 1074.43 60.7543Z" fill="black"/>
</svg>
