<svg width="1500" height="1500" viewBox="0 0 1500 1500" fill="none" xmlns="http://www.w3.org/2000/svg">
<mask id="mask0_616_1530" style="mask-type:luminance" maskUnits="userSpaceOnUse" x="177" y="254" width="1207" height="889">
<path d="M1384 254H177V1143H1384V254Z" fill="white"/>
</mask>
<g mask="url(#mask0_616_1530)">
<path d="M1274.99 936.111C1259.33 982.023 1237.57 1027.39 1207.88 1069.9C1207.22 1070.86 1206.55 1071.8 1205.88 1072.75L1116.85 1045.49C1117.23 1044.57 1117.65 1043.54 1118.1 1042.41C1144.95 976.022 1306.45 571.375 1287.29 487.852C1289.1 494.706 1348.34 721.5 1274.99 936.111Z" fill="#E6E6E6"/>
<path d="M1225.06 1075.16C1223.99 1075.99 1222.89 1076.82 1221.77 1077.62L1154.98 1057.17C1155.77 1056.42 1156.68 1055.54 1157.73 1054.54C1174.86 1038.02 1225.77 988.516 1274.99 936.111C1327.9 879.795 1378.88 820.14 1384 794.466C1383.05 800.32 1353.1 978.445 1225.06 1075.16Z" fill="#E6E6E6"/>
<path d="M1233.3 464.521H1228.43V331.175C1228.43 310.707 1220.29 291.077 1205.81 276.604C1191.33 262.131 1171.69 254 1151.21 254H868.53C848.05 254 828.409 262.131 813.928 276.604C799.446 291.077 791.311 310.707 791.311 331.175V1062.72C791.311 1083.19 799.446 1102.82 813.928 1117.3C828.409 1131.77 848.05 1139.9 868.53 1139.9H1151.21C1171.69 1139.9 1191.33 1131.77 1205.81 1117.3C1220.29 1102.82 1228.43 1083.19 1228.43 1062.72V559.439H1233.3V464.521Z" fill="#3F3D56"/>
<path d="M1154.32 274.076H1117.42C1119.12 278.234 1119.77 282.746 1119.31 287.214C1118.85 291.681 1117.3 295.967 1114.8 299.695C1112.29 303.422 1108.91 306.477 1104.94 308.588C1100.97 310.7 1096.55 311.805 1092.06 311.805H930.115C925.622 311.804 921.198 310.699 917.233 308.588C913.267 306.476 909.883 303.422 907.377 299.695C904.871 295.968 903.32 291.683 902.862 287.216C902.403 282.749 903.051 278.238 904.748 274.08H870.279C854.984 274.08 840.316 280.152 829.501 290.961C818.686 301.77 812.61 316.43 812.61 331.715V1062.19C812.61 1077.47 818.686 1092.13 829.501 1102.94C840.316 1113.75 854.984 1119.82 870.279 1119.82H1154.31C1169.61 1119.82 1184.27 1113.75 1195.09 1102.94C1205.9 1092.13 1211.98 1077.47 1211.98 1062.19V331.712C1211.98 316.426 1205.9 301.766 1195.09 290.957C1184.27 280.149 1169.61 274.076 1154.31 274.076H1154.32Z" fill="white"/>
<path d="M1044.05 1028.07C1046.85 1010.82 1035.12 994.562 1017.86 991.762C1000.6 988.962 984.331 1000.68 981.53 1017.93C978.728 1035.19 990.452 1051.44 1007.72 1054.24C1024.98 1057.04 1041.25 1045.33 1044.05 1028.07Z" fill="#E6E6E6"/>
<path d="M1187.37 656.26H837.216V725.354H1187.37V656.26Z" fill="#E6E6E6"/>
<path d="M844.681 717.894H1179.91V663.725H844.681V717.894Z" fill="white"/>
<path d="M874.027 669.721C878.111 669.721 882.104 670.931 885.5 673.199C888.896 675.467 891.543 678.69 893.106 682.461C894.669 686.233 895.078 690.382 894.281 694.386C893.484 698.389 891.517 702.067 888.629 704.953C885.741 707.84 882.062 709.805 878.056 710.602C874.05 711.398 869.898 710.989 866.124 709.427C862.351 707.865 859.126 705.22 856.856 701.826C854.587 698.432 853.376 694.441 853.376 690.359C853.376 687.649 853.91 684.965 854.948 682.461C855.986 679.957 857.507 677.682 859.425 675.766C861.342 673.849 863.619 672.329 866.124 671.292C868.63 670.254 871.315 669.721 874.027 669.721Z" fill="#FB5132"/>
<path d="M1127.22 682.283H923.409V686.77H1127.22V682.283Z" fill="#E6E6E6"/>
<path d="M1127.22 693.948H923.409V698.435H1127.22V693.948Z" fill="#E6E6E6"/>
<path d="M1187.37 754.859H837.216V823.953H1187.37V754.859Z" fill="#E6E6E6"/>
<path d="M844.681 816.493H1179.91V762.325H844.681V816.493Z" fill="white"/>
<path d="M874.027 809.597C885.432 809.597 894.678 800.357 894.678 788.959C894.678 777.56 885.432 768.32 874.027 768.32C862.622 768.32 853.376 777.56 853.376 788.959C853.376 800.357 862.622 809.597 874.027 809.597Z" fill="#FB5132"/>
<path d="M1127.22 780.882H923.409V785.369H1127.22V780.882Z" fill="#E6E6E6"/>
<path d="M1127.22 792.547H923.409V797.034H1127.22V792.547Z" fill="#E6E6E6"/>
<path d="M1187.37 853.458H837.216V922.552H1187.37V853.458Z" fill="#E6E6E6"/>
<path d="M844.681 915.092H1179.91V860.923H844.681V915.092Z" fill="white"/>
<path d="M874.027 908.196C885.432 908.196 894.678 898.956 894.678 887.558C894.678 876.159 885.432 866.919 874.027 866.919C862.622 866.919 853.376 876.159 853.376 887.558C853.376 898.956 862.622 908.196 874.027 908.196Z" fill="#FB5132"/>
<path d="M1127.22 879.481H923.409V883.968H1127.22V879.481Z" fill="#E6E6E6"/>
<path d="M1127.22 891.146H923.409V895.633H1127.22V891.146Z" fill="#E6E6E6"/>
<path d="M1012.3 587.433C1066.11 587.433 1109.73 543.833 1109.73 490.051C1109.73 436.269 1066.11 392.669 1012.3 392.669C958.482 392.669 914.857 436.269 914.857 490.051C914.857 543.833 958.482 587.433 1012.3 587.433Z" fill="#FB5132"/>
<path d="M1059.8 459.138V520.964C1059.8 521.544 1059.68 522.118 1059.46 522.654C1059.24 523.19 1058.91 523.677 1058.5 524.087C1058.09 524.497 1057.6 524.823 1057.07 525.044C1056.53 525.266 1055.96 525.38 1055.38 525.38H969.213C968.632 525.38 968.058 525.266 967.522 525.044C966.985 524.823 966.498 524.497 966.088 524.087C965.678 523.677 965.352 523.19 965.13 522.654C964.908 522.118 964.794 521.544 964.794 520.964V459.138C964.791 458.633 964.881 458.131 965.059 457.659C965.324 456.904 965.79 456.236 966.407 455.728C967.025 455.22 967.77 454.891 968.561 454.777C968.777 454.742 968.994 454.723 969.213 454.722H1055.38C1055.6 454.723 1055.81 454.742 1056.03 454.777C1056.82 454.891 1057.57 455.22 1058.18 455.728C1058.8 456.236 1059.27 456.904 1059.53 457.659C1059.71 458.131 1059.8 458.633 1059.8 459.138Z" fill="white"/>
<path d="M1059.53 457.659L1013.61 491.817C1013.23 492.104 1012.77 492.259 1012.3 492.259C1011.82 492.259 1011.36 492.104 1010.98 491.817L965.06 457.659C965.324 456.904 965.79 456.236 966.407 455.728C967.025 455.22 967.77 454.891 968.561 454.777L1012.3 487.302L1056.03 454.777C1056.82 454.891 1057.57 455.22 1058.18 455.728C1058.8 456.236 1059.27 456.904 1059.53 457.659Z" fill="#FB5132"/>
<path d="M443.192 569.4C443.192 599.598 471.131 595.031 505.596 595.031C540.061 595.031 568 599.598 568 569.4C568 539.202 554.352 485.673 505.596 485.673C455.16 485.673 443.192 539.202 443.192 569.4Z" fill="#2F2E41"/>
<path d="M638.608 1121.03L658.558 1114.61L643.249 1034.64L613.804 1044.13L638.608 1121.03Z" fill="#A0616A"/>
<path d="M631.42 1116.16L670.708 1103.51H670.71C673.998 1102.45 677.463 1102.05 680.906 1102.32C684.349 1102.6 687.704 1103.56 690.778 1105.13C693.852 1106.71 696.586 1108.87 698.824 1111.5C701.061 1114.13 702.758 1117.18 703.818 1120.46L704.08 1121.28L639.754 1142L631.42 1116.16Z" fill="#2F2E41"/>
<path d="M393.723 1121.69H414.684L424.656 1040.89H393.719L393.723 1121.69Z" fill="#A0616A"/>
<path d="M388.377 1114.85H429.656H429.657C433.112 1114.85 436.533 1115.53 439.724 1116.85C442.916 1118.18 445.816 1120.11 448.259 1122.55C450.702 1124.99 452.639 1127.89 453.961 1131.08C455.283 1134.27 455.964 1137.69 455.964 1141.14V1142H388.378L388.377 1114.85Z" fill="#2F2E41"/>
<path d="M366.663 810.155C365.005 808.147 363.77 805.824 363.033 803.327C362.296 800.83 362.071 798.21 362.373 795.623C362.674 793.037 363.496 790.539 364.788 788.278C366.08 786.017 367.815 784.041 369.891 782.467C370.653 781.895 371.457 781.381 372.297 780.932L440.67 620.219C441.337 618.288 442.38 616.508 443.74 614.982C445.099 613.456 446.748 612.214 448.59 611.328C450.432 610.442 452.432 609.93 454.473 609.821C456.515 609.712 458.558 610.009 460.484 610.693C462.41 611.378 464.182 612.437 465.696 613.81C467.21 615.182 468.438 616.841 469.307 618.691C470.176 620.54 470.67 622.543 470.76 624.584C470.851 626.626 470.535 628.664 469.833 630.583L399.423 790.485C401.192 794.759 401.367 799.526 399.916 803.919C398.466 808.311 395.486 812.037 391.518 814.419C387.551 816.801 382.86 817.681 378.299 816.899C373.737 816.116 369.608 813.723 366.663 810.155Z" fill="#A0616A"/>
<path d="M619.492 826.28C615.562 823.89 612.62 820.17 611.203 815.796C609.785 811.422 609.986 806.685 611.768 802.446L541.338 642.491C540.643 640.574 540.335 638.539 540.431 636.503C540.526 634.466 541.023 632.469 541.894 630.626C542.764 628.782 543.991 627.129 545.503 625.76C547.015 624.392 548.782 623.336 550.704 622.653C552.626 621.97 554.664 621.673 556.701 621.78C558.738 621.887 560.733 622.395 562.573 623.275C564.413 624.156 566.06 625.391 567.421 626.909C568.781 628.428 569.828 630.201 570.501 632.125L638.894 792.893C639.735 793.342 640.539 793.856 641.3 794.428C643.376 796.002 645.112 797.978 646.404 800.239C647.696 802.5 648.517 804.998 648.819 807.584C649.12 810.171 648.896 812.791 648.158 815.288C647.421 817.785 646.187 820.108 644.529 822.116C642.71 824.317 640.426 826.088 637.841 827.302C635.256 828.516 632.434 829.143 629.578 829.138C626.015 829.143 622.522 828.153 619.492 826.28Z" fill="#A0616A"/>
<path d="M525.946 589.837C546.296 578.719 553.775 553.22 542.651 532.882C531.527 512.544 506.012 505.07 485.663 516.187C465.313 527.305 457.834 552.805 468.958 573.143C480.082 593.48 505.597 600.955 525.946 589.837Z" fill="#A0616A"/>
<path d="M446.664 731.524L438.335 634.837C437.982 630.745 438.55 626.627 439.997 622.784C441.443 618.94 443.732 615.469 446.694 612.624C449.657 609.779 453.219 607.633 457.12 606.342C461.02 605.051 465.16 604.649 469.236 605.164L546.623 614.954C553.71 615.835 560.175 619.439 564.65 625.002C569.125 630.565 571.257 637.65 570.595 644.757C567.522 679.305 558.947 739.958 536.045 758.029L535.696 758.305L446.664 731.524Z" fill="#2F2E41"/>
<path d="M424.068 1072.8L391.963 1069C390.07 1068.8 388.318 1067.9 387.049 1066.49C385.779 1065.07 385.083 1063.23 385.096 1061.33C385.167 1045.89 385.127 1030.07 385.089 1014.78C384.761 883.758 384.451 760.003 446.197 725.854L446.531 725.671L536.336 756.738L539.774 816.87L612.68 920.094C618.709 928.622 623.249 938.111 626.105 948.156L653.193 1043.25C653.478 1044.26 653.557 1045.31 653.424 1046.34C653.291 1047.38 652.949 1048.37 652.418 1049.27C651.888 1050.17 651.18 1050.95 650.339 1051.56C649.497 1052.18 648.539 1052.62 647.523 1052.85L615.948 1060.13C614.128 1060.55 612.218 1060.3 610.574 1059.41C608.93 1058.53 607.663 1057.08 607.009 1055.33L564.701 950.054L478.731 857.473C478.406 857.137 477.996 856.896 477.544 856.776C477.092 856.656 476.616 856.661 476.167 856.792C475.718 856.923 475.313 857.174 474.997 857.519C474.681 857.863 474.464 858.287 474.372 858.745L432.439 1066.68C432.064 1068.56 430.996 1070.23 429.446 1071.37C427.896 1072.5 425.977 1073.01 424.068 1072.8Z" fill="#2F2E41"/>
<path d="M554.322 548.895H537.714L530.386 528.391L528.921 548.895H520.983L516.709 536.934L515.854 548.895H456.869C456.869 543.061 458.019 537.284 460.253 531.894C462.487 526.504 465.761 521.606 469.889 517.481C474.017 513.355 478.917 510.083 484.31 507.85C489.703 505.618 495.484 504.469 501.321 504.469H509.87C515.708 504.469 521.488 505.618 526.881 507.85C532.274 510.083 537.175 513.355 541.302 517.481C545.43 521.606 548.705 526.504 550.938 531.894C553.172 537.284 554.322 543.061 554.322 548.895Z" fill="#2F2E41"/>
<path d="M1369.4 1143H178.218C177.895 1143 177.585 1142.87 177.357 1142.64C177.128 1142.42 177 1142.11 177 1141.78C177 1141.46 177.128 1141.15 177.357 1140.92C177.585 1140.69 177.895 1140.57 178.218 1140.57H1369.4C1369.72 1140.57 1370.03 1140.69 1370.26 1140.92C1370.49 1141.15 1370.62 1141.46 1370.62 1141.78C1370.62 1142.11 1370.49 1142.42 1370.26 1142.64C1370.03 1142.87 1369.72 1143 1369.4 1143Z" fill="#CACACA"/>
<path d="M725.889 496C725.516 495.999 725.146 495.869 724.804 495.617C724.462 495.365 724.156 494.997 723.904 494.537L694.11 440.441C693.772 439.828 693.361 439.339 692.904 439.004C692.447 438.669 691.952 438.496 691.453 438.495H534.012C531.623 438.49 529.332 436.909 527.642 434.097C525.953 431.285 525.003 427.473 525 423.496V328.999C525.003 325.022 525.953 321.21 527.642 318.398C529.332 315.586 531.623 314.004 534.012 314H737.988C740.377 314.004 742.668 315.586 744.358 318.398C746.047 321.21 746.997 325.022 747 328.999V423.496C746.997 427.473 746.047 431.285 744.358 434.097C742.668 436.909 740.377 438.49 737.988 438.495H732.205C731.25 438.497 730.333 439.13 729.657 440.254C728.981 441.379 728.601 442.905 728.6 444.496V491.496C728.602 492.404 728.439 493.291 728.131 494.04C727.823 494.789 727.386 495.364 726.877 495.689C726.562 495.894 726.227 495.999 725.889 496ZM534.012 315.999C531.941 316.002 529.956 317.373 528.491 319.811C527.027 322.248 526.203 325.552 526.201 328.999V423.496C526.203 426.943 527.027 430.247 528.491 432.684C529.956 435.121 531.941 436.492 534.012 436.496H691.453C692.119 436.497 692.778 436.729 693.387 437.175C693.997 437.622 694.545 438.274 694.995 439.09L724.789 493.186C724.994 493.557 725.261 493.817 725.556 493.932C725.851 494.046 726.159 494.009 726.441 493.827C726.724 493.644 726.966 493.324 727.137 492.908C727.308 492.492 727.399 492 727.399 491.496V444.496C727.401 442.375 727.907 440.342 728.808 438.842C729.709 437.342 730.931 436.499 732.205 436.496H737.988C740.059 436.492 742.044 435.121 743.509 432.684C744.973 430.247 745.797 426.943 745.799 423.496V328.999C745.797 325.552 744.973 322.248 743.509 319.811C742.044 317.373 740.059 316.003 737.988 315.999H534.012Z" fill="#3F3D56"/>
<path d="M740.401 407.009H532.013C531.092 407.01 530.181 406.83 529.33 406.479C528.479 406.127 527.706 405.611 527.055 404.961C526.403 404.31 525.887 403.538 525.534 402.687C525.181 401.837 525 400.925 525 400.005C525 399.084 525.181 398.173 525.534 397.322C525.887 396.472 526.403 395.699 527.055 395.049C527.706 394.398 528.479 393.882 529.33 393.531C530.181 393.179 531.092 392.999 532.013 393H740.401C741.322 392.999 742.234 393.179 743.084 393.531C743.935 393.882 744.708 394.398 745.36 395.049C746.011 395.699 746.528 396.472 746.88 397.322C747.233 398.173 747.414 399.084 747.414 400.005C747.414 400.925 747.233 401.837 746.88 402.687C746.528 403.538 746.011 404.31 745.36 404.961C744.708 405.611 743.935 406.127 743.084 406.479C742.234 406.83 741.322 407.01 740.401 407.009Z" fill="#CCCCCC"/>
<path d="M485 561C487.209 561 489 559.209 489 557C489 554.791 487.209 553 485 553C482.791 553 481 554.791 481 557C481 559.209 482.791 561 485 561Z" fill="#2F2E41"/>
<path d="M529 561C531.209 561 533 559.209 533 557C533 554.791 531.209 553 529 553C526.791 553 525 554.791 525 557C525 559.209 526.791 561 529 561Z" fill="#2F2E41"/>
</g>
</svg>
